<svg viewBox="0 0 410 405" xmlns="http://www.w3.org/2000/svg"><path d="m265.9 182.79-19.22 19.57a14.27 14.27 0 0 0 0 20l19.22 19.57a14.27 14.27 0 0 1 -.16 20.15 14.25 14.25 0 0 1 -20.16-.15l-18.53-18.8a14.26 14.26 0 0 0 -20.33 0l-18.44 18.79a14.27 14.27 0 0 1 -20.15.2v-.05a14.25 14.25 0 0 1 -.2-20.18l19.18-19.54a14.25 14.25 0 0 0 0-20l-19.18-19.54a14.24 14.24 0 0 1 .2-20.17v-.06a14.27 14.27 0 0 1 20.15.2l18.44 18.79a14.27 14.27 0 0 0 20.33 0l18.53-18.81a14.25 14.25 0 0 1 20.16-.14 14.25 14.25 0 0 1 .16 20.17z" fill="#dddac7"/></svg>