<svg viewBox="0 0 410 405" xmlns="http://www.w3.org/2000/svg"><path d="m238 148.62c3.21-.39 5.23.88 6.49 4a76.77 76.77 0 0 0 4.82 9.26c1 1.71.73 2.68-1.07 3.45-4.87 2.09-9.7 4.28-14.59 6.33-1.65.69-8.21-1.93-8.85-3.34-.42-.91.18-1.61.54-2.3 2.62-5 5.34-9.93 7.91-14.94 1.09-2.08 2.44-3.08 4.75-2.46z" fill="#f9bb5e"/><path d="m83.64 191.9c-.12-.12-.24-.23-.35-.36-4.73-5.4-5.32-4.48.13-8.93 3.61-3 7.06-6.08 10.72-9 2.6-2.05 8.59.11 9.09 3.36.7 4.43 1 8.93 1.45 13.39.16 1.54-.57 2.12-2 2.17q-8.24.27-16.46.58a3.23 3.23 0 0 1 -2.58-1.21z" fill="#1c1e3d"/><path d="m310.81 118.51a53.59 53.59 0 0 0 -2.6-6.13c-1.16-2.73-2.39-6.25-4.3-8.55s-4.08-1-5.91 1.06l-7.59 8.39c-1.5 1.66-5.55 4.73-4.43 7.44a6.51 6.51 0 0 0 2.24 2.43l9.58 7.27c2.23 1.69 3.7 1.44 5.7-.5 3.04-2.92 8.61-6.77 7.31-11.41z" fill="#1c1e3c"/><path d="m92.81 282.51a53.59 53.59 0 0 0 -2.6-6.13c-1.16-2.73-2.39-6.25-4.3-8.55s-4.08-1-5.91 1.06l-7.59 8.39c-1.5 1.66-5.55 4.73-4.43 7.44a6.51 6.51 0 0 0 2.24 2.43l9.58 7.27c2.23 1.69 3.7 1.44 5.7-.5 3.04-2.92 8.61-6.77 7.31-11.41z" fill="#dddac7"/><path d="m112.33 126.73c1.26-1.06 1.94-3 2.73-5.64 1.09-3.55-4.63-6.35-6.64-8.12a7.46 7.46 0 0 0 -2.36-1.61c-3.41-1.17-2.87 4-3.13 6.44s-1.15 5.06.63 7a9 9 0 0 0 4.41 2.58c2.03.44 3.37.19 4.36-.65z" fill="#2a6fab"/><path d="m265.87 303.66c1.17.13 2.35.24 3.52.31.38 0 .77 0 1.16.06a3.86 3.86 0 0 0 2.78-1.51.49.49 0 0 1 .34-.21c-2.5-4.88-5-9.76-7.51-14.62-1.27-2.45-1.63-2.56-3.52-.6-2.68 2.79-5.66 5.28-8.29 8.11-.7.75-3.59 3.36-3.49 4.44.3 3.04 13.03 3.8 15.01 4.02z" fill="#f9bc5e"/><path d="m180.88 237.53a9.91 9.91 0 0 1 .28 1.4 11 11 0 0 0 -.28-1.4z" fill="none"/><g fill="#1c1e3c"><path d="m157.37 230.34-.94-.8c-.11-.42-.23-.85-.35-1.27.77 2.61 1.37 5.23 2 7.87.31 1.29.65 2.57 1.08 3.82.24.7.51 1.39.82 2.07.22.48.52 1.47 1 1.78a1.28 1.28 0 0 0 .38.16 11 11 0 0 0 4.84.14l.92-.16c2.29-.47 4.55-1.07 6.84-1.51l-2.28-1.3a105.57 105.57 0 0 1 -14.31-10.8z"/><path d="m180.87 237.52a6.21 6.21 0 0 0 -1.9-2.73c-1-.84-2.19-1.49-3.29-2.22a57.05 57.05 0 0 1 -8.88-8l-3.44-3.57-1.72-1.79-.39-.41c-.42 0-.84.11-1.26.14a7.55 7.55 0 0 0 -3.77.93c-1.34 1-1.49 2.88-1.25 4.38a6.49 6.49 0 0 1 0-2.24 105.75 105.75 0 0 0 15.78 15.2q2.07 1.65 4.2 3.23c.46.34.93.68 1.41 1 .33.15.67.29 1 .42.45-.06.89-.12 1.34-.16a2.91 2.91 0 0 0 2.44-2 5.4 5.4 0 0 0 0-.8 9.91 9.91 0 0 0 -.27-1.38z"/><path d="m182.73 216.29c-1.87-1.49-4.18-.85-6.31-.43-1 .2-1.93.41-2.89.63l.92-.2c1.71 1.27 3.45 2.5 5.23 3.67 1.23.81 2.48 1.59 3.74 2.36l.4.23c.07-.23.13-.45.2-.67a10 10 0 0 0 .36-1.43 3.43 3.43 0 0 0 0-.56 5.46 5.46 0 0 0 -.43-1.78 4.14 4.14 0 0 0 -1.22-1.82z"/><path d="m180.71 223.16a73.33 73.33 0 0 1 -10.1-6c-.8.18-1.6.36-2.4.52l-2.11.39a.57.57 0 0 0 .08.13 57.58 57.58 0 0 0 9.4 11.39c.84.82 1.71 1.62 2.6 2.39.28.26.58.51.88.75a4.24 4.24 0 0 0 2.92.58c.11-1.47.24-2.94.43-4.42a35.13 35.13 0 0 1 .9-4.5c-.86-.45-1.74-.83-2.6-1.23z"/></g><path d="m179.06 232.68c-.3-.24-.6-.49-.88-.75-.89-.77-1.76-1.57-2.6-2.39a57.58 57.58 0 0 1 -9.4-11.39.57.57 0 0 1 -.08-.13c-.69.12-1.37.22-2.06.31-.92.2-1.85.36-2.79.47l.39.41 1.72 1.79 3.44 3.57a57.05 57.05 0 0 0 8.88 8c1.1.73 2.26 1.38 3.29 2.22a6.21 6.21 0 0 1 1.9 2.73 11 11 0 0 1 .27 1.39 5.4 5.4 0 0 1 0 .8 8.34 8.34 0 0 0 .57-2.88c.06-1.2.14-2.4.23-3.58a4.24 4.24 0 0 1 -2.88-.57z" fill="#2a6fab"/><path d="m181.64 251c0-.12 0-.24 0-.35v.37z" fill="#1c1e3c"/><path d="m175 240.44q-2.13-1.58-4.2-3.23a105.75 105.75 0 0 1 -15.8-15.21 6.49 6.49 0 0 0 0 2.24 33.77 33.77 0 0 0 1.11 4c.12.42.24.85.35 1.27l.94.8a105.57 105.57 0 0 0 14.28 10.8l2.28 1.3 1-.19 2.5-.37c-.34-.13-.68-.27-1-.42-.55-.31-1.02-.65-1.46-.99z" fill="#2a6fab"/><path d="m189.77 230.26a3 3 0 0 1 0 .31c.02-.12 0-.22 0-.31z" fill="#1c1e3c"/><path d="m183.42 222.32c-1.26-.77-2.51-1.55-3.74-2.36-1.78-1.17-3.52-2.4-5.23-3.67l-.92.2-2.92.62a73.33 73.33 0 0 0 10.1 6c.86.4 1.74.78 2.6 1.19.16-.59.33-1.19.51-1.79z" fill="#2a6fab"/><path d="m308.68 218a10.49 10.49 0 0 1 -1.39-.36 11.05 11.05 0 0 0 1.39.36z" fill="none"/><path d="m325.41 200 1.13-.5 1.3.24c-2.68-.45-5.3-1.05-8-1.63-1.29-.28-2.6-.53-3.91-.69-.74-.09-1.48-.15-2.22-.17a5.05 5.05 0 0 0 -2 .09 1.34 1.34 0 0 0 -.31.27 11.08 11.08 0 0 0 -2.24 4.3c-.09.3-.17.6-.25.89-.58 2.27-1 4.56-1.63 6.82.72-.5 1.44-1 2.17-1.48a104.45 104.45 0 0 1 15.96-8.14z" fill="#dddac7"/><path d="m308.7 218a6.22 6.22 0 0 0 3.29-.52c1.2-.56 2.29-1.32 3.43-2a56.77 56.77 0 0 1 11.07-4.48l4.72-1.53 2.35-.77.54-.18c.14-.4.27-.8.42-1.2a7.5 7.5 0 0 0 .82-3.79c-.29-1.62-1.94-2.6-3.4-3a6.61 6.61 0 0 1 2 1 105.61 105.61 0 0 0 -20.56 7.47q-2.38 1.14-4.74 2.37c-.5.26-1 .53-1.52.82-.28.24-.56.48-.82.73-.14.43-.28.86-.44 1.27a2.91 2.91 0 0 0 .72 3.06 5.28 5.28 0 0 0 .73.33 10.49 10.49 0 0 0 1.39.42z" fill="#dddac7"/><path d="m327 228.9c2.16-1 2.59-3.39 3.14-5.49.25-1 .47-1.92.7-2.88-.08.31-.15.61-.22.92-1.89 1-3.76 2-5.59 3.1q-1.89 1.14-3.75 2.34l-.38.26c.17.16.34.31.51.48a10.33 10.33 0 0 0 1.13.95 3.77 3.77 0 0 0 .48.28 5.74 5.74 0 0 0 1.79.39 4.21 4.21 0 0 0 2.19-.35z" fill="#dddac7"/><path d="m321.69 224.08a74.18 74.18 0 0 1 9.85-6.45c.19-.79.38-1.59.58-2.39s.37-1.38.57-2.07h-.15a57.87 57.87 0 0 0 -14.35 3.49c-1.1.4-2.2.84-3.29 1.29l-1 .47a4.2 4.2 0 0 0 -1.8 2.38c1.28.74 2.54 1.5 3.79 2.31a32.48 32.48 0 0 1 3.65 2.78c.69-.59 1.46-1.21 2.15-1.81z" fill="#dddac7"/><path d="m313.85 218.44 1-.47c1.09-.45 2.19-.89 3.29-1.29a57.87 57.87 0 0 1 14.35-3.49h.15c.19-.66.4-1.32.62-2 .22-.92.49-1.83.79-2.72l-.54.18-2.35.77-4.67 1.58a56.77 56.77 0 0 0 -11.07 4.51c-1.14.66-2.23 1.42-3.43 2a6.22 6.22 0 0 1 -3.29.52 11.05 11.05 0 0 1 -1.37-.36 5.28 5.28 0 0 1 -.73-.33 8.46 8.46 0 0 0 2.35 1.78q1.57.87 3.12 1.77a4.2 4.2 0 0 1 1.78-2.45z" fill="#2a6fab"/><path d="m296.26 212.79.32.15-.34-.17z" fill="#1c1e3c"/><path d="m308.64 211.39q2.36-1.23 4.74-2.37a105.61 105.61 0 0 1 20.56-7.57 6.61 6.61 0 0 0 -2-1 33.23 33.23 0 0 0 -4.1-.75l-1.3-.24-1.13.5a104.45 104.45 0 0 0 -15.94 8.14c-.73.48-1.45 1-2.17 1.48-.09.32-.17.65-.27 1-.23.81-.49 1.61-.75 2.42.26-.25.54-.49.82-.73.52-.35 1.04-.62 1.54-.88z" fill="#2a6fab"/><path d="m311.35 229.14-.29-.12z" fill="#1c1e3c"/><path d="m321.27 226.89q1.86-1.2 3.75-2.34c1.83-1.09 3.7-2.12 5.59-3.1.07-.31.14-.61.22-.92.24-1 .48-1.93.71-2.9a74.18 74.18 0 0 0 -9.85 6.45c-.74.6-1.46 1.22-2.2 1.83.47.4.94.81 1.4 1.23z" fill="#2a6fab"/><path d="m189.53 125.48c0-.09-.05-.18-.08-.28-.44-1.49-1.41-3.91-2.67-4.29-.87-.25-1.69.57-2.37 1.34-1.86 2.09-3.81 4.1-5.59 6.3-1.64 2-.35 4.42-.35 7a16.6 16.6 0 0 0 .11 3.24 5.52 5.52 0 0 0 1.07 2 16.73 16.73 0 0 0 2.8 2.89c3.73 3 6-1.45 6.76-6.08.6-3.55 1.26-8.6.32-12.12z" fill="#dddac7"/></svg>