<svg viewBox="0 0 508 405" xmlns="http://www.w3.org/2000/svg"><g fill="#1c1e3d"><path d="m37.49 110.34h-4c.27 2.29.57 4.57.83 6.86q4.57 40.37 9.2 80.69 5.65 48.11 11.3 96.11h4.93q-6.06-51.49-12.17-102.94c-3.22-27.06-6.25-54.25-10.09-80.72z"/><path d="m50 110.34h-4.21q4.41 38.82 8.86 77.66 6.18 53 12.42 106h4.93q-6.65-56.46-13.35-112.88c-2.8-23.67-5.48-47.46-8.65-70.78z"/><path d="m62.39 110.34h-4.39q3.84 33.86 7.74 67.66 6.75 58 13.59 116h4.93q-7.26-61.44-14.51-122.82c-2.42-20.32-4.75-40.72-7.36-60.84z"/><path d="m74.75 110.34h-4.53q3.27 28.88 6.6 57.72 7.34 63 14.77 125.94h4.93q-7.8-66.42-15.68-132.76c-2.02-16.98-3.97-34.02-6.09-50.9z"/><path d="m87.07 110.34h-4.64q2.71 23.91 5.48 47.78 7.92 68 15.93 135.88h4.93q-8.37-71.4-16.85-142.71c-1.62-13.65-3.2-27.29-4.85-40.95z"/><path d="m99.35 110.34h-4.7q2.16 18.93 4.35 37.84 8.49 73 17.1 145.82h4.9q-8.94-76.38-18-152.65c-1.22-10.35-2.42-20.68-3.65-31.01z"/><path d="m114.1 131.41q-1.26-10.53-2.49-21.07h-4.73q1.59 13.95 3.2 27.9 8.58 73.66 17.27 147.23c.33 2.8.61 5.71 1 8.53h5.07c-.35-3-.8-5.76-1.13-8.55q-9.03-77.07-18.19-154.04z"/><path d="m125.18 131.41q-1.25-10.53-2.48-21.07h-4.7q1.59 13.95 3.2 27.9 8.58 73.66 17.27 147.23c.33 2.8.61 5.71 1 8.53h5.07c-.35-3-.8-5.76-1.12-8.55q-9.08-77.07-18.24-154.04z"/><path d="m136.27 131.41q-1.25-10.53-2.48-21.07h-4.74q1.6 13.95 3.21 27.9 8.58 73.66 17.27 147.23c.33 2.8.6 5.71 1 8.53h5.07c-.35-3-.8-5.76-1.13-8.55q-9.03-77.07-18.2-154.04z"/><path d="m144.88 110.34h-4c.27 2.29.56 4.57.82 6.86q4.59 40.37 9.21 80.69 5.64 48.11 11.29 96.11h4.94q-6.06-51.49-12.14-102.94c-3.25-27.06-6.28-54.25-10.12-80.72z"/><path d="m157.37 110.34h-4.19q4.41 38.82 8.82 77.66 6.22 53 12.46 106h4.94q-6.65-56.46-13.35-112.88c-2.81-23.67-5.49-47.46-8.68-70.78z"/><path d="m169.78 110.34h-4.39q3.84 33.85 7.74 67.67 6.75 58 13.59 116h4.93q-7.22-61.44-14.51-122.82c-2.42-20.33-4.73-40.73-7.36-60.85z"/><path d="m182.14 110.34h-4.53q3.27 28.88 6.6 57.72 7.33 63 14.77 125.94h4.93q-7.8-66.42-15.69-132.76c-2.01-16.98-3.96-34.02-6.08-50.9z"/><path d="m194.45 110.34h-4.63q2.72 23.91 5.48 47.78 7.92 68 15.93 135.88h4.93q-8.37-71.4-16.85-142.71c-1.62-13.65-3.2-27.29-4.86-40.95z"/><path d="m206.74 110.34h-4.74q2.16 18.93 4.35 37.84 8.49 73 17.1 145.82h4.93q-8.94-76.38-18-152.65c-1.21-10.35-2.38-20.68-3.64-31.01z"/><path d="m221.48 131.41q-1.24-10.53-2.48-21.07h-4.73q1.59 13.95 3.2 27.9 8.58 73.66 17.27 147.23c.33 2.8.61 5.71 1 8.53h5.07c-.36-3-.8-5.76-1.13-8.55q-9.04-77.07-18.2-154.04z"/><path d="m232.57 131.41q-1.24-10.53-2.48-21.07h-4.74q1.6 13.95 3.21 27.9 8.58 73.66 17.27 147.23c.33 2.8.61 5.71 1 8.53h5.07c-.35-3-.8-5.76-1.12-8.55q-9.05-77.07-18.21-154.04z"/><path d="m261.84 285.45q-9-77.07-18.18-154-1.26-10.53-2.48-21.07h-4.74q1.59 13.95 3.21 27.9 8.57 73.66 17.27 147.23c.33 2.8.6 5.71 1 8.53h5.08c-.38-3.04-.83-5.8-1.16-8.59z"/><path d="m252.49 110.34h-4c.27 2.29.57 4.57.83 6.86q4.57 40.37 9.2 80.69 5.65 48.11 11.3 96.11h4.93q-6.06-51.49-12.17-102.94c-3.22-27.06-6.25-54.25-10.09-80.72z"/><path d="m265 110.34h-4.19q4.41 38.82 8.86 77.61 6.16 53.05 12.4 106.05h4.93q-6.64-56.46-13.35-112.88c-2.8-23.67-5.48-47.46-8.65-70.78z"/><path d="m277.39 110.34h-4.39q3.83 33.85 7.73 67.67 6.75 58 13.59 116h4.93q-7.25-61.45-14.5-122.83c-2.42-20.32-4.75-40.72-7.36-60.84z"/><path d="m289.75 110.34h-4.53q3.27 28.88 6.6 57.72 7.33 63 14.77 125.94h4.93q-7.8-66.42-15.68-132.76c-2.02-16.98-3.97-34.02-6.09-50.9z"/><path d="m302.07 110.34h-4.64q2.71 23.91 5.48 47.78 7.92 68 15.93 135.88h4.93q-8.37-71.4-16.85-142.71c-1.62-13.65-3.2-27.29-4.85-40.95z"/><path d="m314.35 110.34h-4.7q2.16 18.93 4.35 37.84 8.49 73 17.1 145.82h4.9q-8.94-76.38-18-152.65c-1.22-10.35-2.42-20.68-3.65-31.01z"/><path d="m329.1 131.41q-1.26-10.53-2.49-21.07h-4.73q1.59 13.95 3.2 27.9 8.58 73.66 17.27 147.23c.33 2.8.61 5.71 1 8.53h5.07c-.35-3-.8-5.76-1.13-8.55q-9.02-77.07-18.19-154.04z"/><path d="m340.18 131.41q-1.24-10.53-2.48-21.07h-4.7q1.59 13.95 3.2 27.9 8.58 73.66 17.27 147.23c.33 2.8.61 5.71 1 8.53h5.07c-.35-3-.8-5.76-1.12-8.55q-9.08-77.07-18.24-154.04z"/><path d="m351.27 131.41q-1.25-10.53-2.48-21.07h-4.74q1.6 13.95 3.21 27.9 8.58 73.66 17.27 147.23c.33 2.8.6 5.71 1 8.53h5.07c-.35-3-.8-5.76-1.13-8.55q-9.03-77.07-18.2-154.04z"/><path d="m359.88 110.34h-4c.27 2.29.56 4.57.82 6.86q4.59 40.37 9.21 80.69 5.64 48.11 11.29 96.11h4.94q-6.06-51.49-12.14-102.94c-3.25-27.06-6.28-54.25-10.12-80.72z"/><path d="m372.37 110.34h-4.19q4.41 38.82 8.82 77.66 6.22 53 12.46 106h4.94q-6.64-56.46-13.35-112.88c-2.81-23.67-5.49-47.46-8.68-70.78z"/><path d="m384.78 110.34h-4.39q3.84 33.85 7.74 67.67 6.75 58 13.59 116h4.93q-7.22-61.44-14.51-122.82c-2.42-20.33-4.73-40.73-7.36-60.85z"/><path d="m397.14 110.34h-4.53q3.27 28.88 6.6 57.72 7.34 63 14.77 125.94h4.93q-7.8-66.42-15.69-132.76c-2.01-16.98-3.96-34.02-6.08-50.9z"/><path d="m409.45 110.34h-4.63q2.71 23.91 5.48 47.78 7.92 68 15.93 135.88h4.93q-8.37-71.4-16.85-142.71c-1.62-13.65-3.2-27.29-4.86-40.95z"/><path d="m421.74 110.34h-4.74q2.16 18.93 4.35 37.84 8.49 73 17.1 145.82h4.93q-8.94-76.38-18-152.65c-1.21-10.35-2.38-20.68-3.64-31.01z"/><path d="m436.48 131.41q-1.25-10.53-2.48-21.07h-4.73q1.59 13.95 3.2 27.9 8.58 73.66 17.27 147.23c.33 2.8.61 5.71 1 8.53h5.07c-.36-3-.8-5.76-1.13-8.55q-9.04-77.07-18.2-154.04z"/><path d="m447.57 131.41q-1.24-10.53-2.48-21.07h-4.74q1.61 13.95 3.21 27.9 8.58 73.66 17.27 147.23c.33 2.8.61 5.71 1 8.53h5.07c-.35-3-.8-5.76-1.12-8.55q-9.05-77.07-18.21-154.04z"/><path d="m476.84 285.45q-9-77.07-18.18-154-1.26-10.53-2.48-21.07h-4.74q1.59 13.95 3.21 27.9 8.57 73.66 17.27 147.23c.33 2.8.6 5.71 1 8.53h5.08c-.38-3.04-.83-5.8-1.16-8.59z"/></g></svg>