<svg viewBox="0 0 410 405" xmlns="http://www.w3.org/2000/svg"><g fill="#1c1e3d"><path d="m375.4 130.77c-7.66 29.25-14.47 59.48-21.47 89.49q-4.87 20.87-9.71 41.74h6.78q3.74-16.12 7.45-32.24 10.72-46.56 21.24-93.35c.42-1.89.87-3.76 1.32-5.64z"/><path d="m363.94 130.77h-6c-6.08 24.35-11.73 49.2-17.5 73.91q-6.68 28.63-13.32 57.32h6.79q5.52-23.91 11-47.82 9.64-41.61 19.03-83.41z"/><path d="m346.92 130.77h-6.3c-4.62 19.32-9.12 38.87-13.62 58.33q-8.54 36.42-17 72.9h6.8q7.32-31.69 14.65-63.4 7.82-33.84 15.47-67.83z"/><path d="m329.89 130.77h-6.44c-3.35 14.22-6.65 28.5-10 42.75q-10.28 44.21-20.53 88.48h6.81q9.13-39.48 18.26-79 6.01-26 11.9-52.23z"/><path d="m312.87 130.77h-6.57q-3.15 13.59-6.31 27.17-12.14 52-24.17 104.06h6.82q10.94-47.26 21.86-94.56 4.22-18.3 8.37-36.67z"/><path d="m295.83 130.77h-6.64c-.89 3.86-1.79 7.73-2.69 11.58q-13.94 59.78-27.78 119.65h6.82q12.75-55 25.46-110.15 2.44-10.51 4.83-21.08z"/><path d="m278.79 130.77h-6.7q-15.29 65.56-30.47 131.23h6.83q14.55-62.83 29.08-125.73c.47-1.83.84-3.67 1.26-5.5z"/><path d="m263.34 130.77h-6.72q-15.28 65.56-30.47 131.23h6.85q15-64.68 29.94-129.43c.13-.57.26-1.2.4-1.8z"/><path d="m241.16 130.77q-15.28 65.56-30.47 131.23h6.84q15.21-65.58 30.35-131.23z"/><path d="m231.35 130.77h-6.35c-4.25 17.8-8.37 35.75-12.54 53.64q-9 38.78-18 77.59h6.82q7.88-34 15.73-68.09 7.21-31.5 14.34-63.14z"/><path d="m214.34 130.77h-6.53c-3 12.67-5.89 25.39-8.85 38.06q-10.85 46.56-21.65 93.17h6.83q9.69-41.82 19.34-83.67 5.46-23.73 10.86-47.56z"/><path d="m197.3 130.77h-6.6q-2.61 11.25-5.22 22.48-12.67 54.33-25.27 108.75h6.84q11.49-49.6 22.94-99.25 3.69-15.96 7.31-31.98z"/><path d="m180.25 130.77h-6.65c-.54 2.3-1.07 4.6-1.61 6.9q-14.48 62.12-28.88 124.33h6.89q13.29-57.39 26.55-114.83c1.22-5.45 2.45-10.94 3.7-16.4z"/><path d="m163.21 130.77h-6.72q-15.28 65.56-30.49 131.23h6.86q15.14-65.17 30.14-130.41c.09-.27.15-.59.21-.82z"/><path d="m139.39 130.77q-15.27 65.56-30.47 131.23h6.85q15.23-65.58 30.36-131.23z"/><path d="m122.29 130.77q-15.29 65.58-30.47 131.23h6.86q15.23-65.56 30.32-131.23z"/><path d="m106.82 130.77q-15.27 65.58-30.47 131.23h6.87q15.23-65.56 30.35-131.23z"/><path d="m91.36 130.77q-15.21 65.36-30.36 130.76c0 .16-.08.31-.11.47h6.88q15.23-65.56 30.34-131.23z"/></g></svg>