<svg viewBox="0 0 217.93 203.07" xmlns="http://www.w3.org/2000/svg"><g transform="translate(-100.77 -74.27)"><path d="m309.59 232.92c4.48-23 8.25-46.85 8.24-70.28 0-19.24-2.57-38.22-9.37-56.3-3.73-9.89-9-19.71-17.72-25.78-7.06-4.92-15.47-6.56-23.66-3.62-8 2.88-15.29 9-20.28 15.78-12.52 16.89-23.69 36.14-40.74 49.11q-2.62 2-5.42 3.77a62 62 0 0 1 -12.83 6.26c-8.58 3-17.45 5.83-26.32 8.17s-18.13 3.82-27.17 5.88a52.76 52.76 0 0 0 -10.72 3.43 38.14 38.14 0 0 0 -18.88 18.9c-1.86 4.1-2.6 8.34-3.57 12.68-1.44 6.47 1.47 14.8 3.95 20.72a65.54 65.54 0 0 0 11.68 18.3c8.94 10 20.52 17.32 32.82 22.62a178.68 178.68 0 0 0 67.6 14.06q4.7.08 9.41-.1c2.22-.08 4.43-.22 6.65-.38a.62.62 0 0 1 .31-.46l.34-.22a.69.69 0 0 1 1.09.54 178.51 178.51 0 0 0 22.19-3.28l-.48-.11a.7.7 0 0 1 .31-1.37l.56.13a.7.7 0 0 1 .3 1.19q6.29-1.37 12.47-3.18c9.39-2.78 20.58-6.09 28.28-12.83a1.36 1.36 0 0 1 -.09-.75.67.67 0 0 1 1.2-.27 26.94 26.94 0 0 0 3.29-3.78 25.42 25.42 0 0 0 1.59-2.57.69.69 0 0 1 -.87-.8l.06-.28a.71.71 0 0 1 1.37 0c2.29-4.69 3.41-9.99 4.41-15.18zm-205.15-39.35a.7.7 0 0 1 -.31 1.37.7.7 0 0 1 .31-1.37zm-1.29 10.12-.22-.35a.63.63 0 0 1 0-.71.62.62 0 0 1 .64-.28h.06a.64.64 0 0 1 .19.08.75.75 0 0 1 .15.16s0 0 0 0l.22.35a.7.7 0 0 1 -1.04.75zm3.22-2.88a.7.7 0 0 1 -.3 1.37.7.7 0 0 1 .3-1.37zm-.69 8.39a.7.7 0 0 1 .3-1.37.7.7 0 0 1 -.3 1.37zm6-26.78a.7.7 0 0 1 .31-1.37.7.7 0 0 1 -.32 1.37zm1.46 14.58a.7.7 0 0 1 -.3 1.37.7.7 0 0 1 .3-1.37zm-2.87 8.9c.65.4 0 1.5-.75 1.17a1 1 0 0 1 -.58-1.11c.12-.76 1.11-.65 1.33-.06zm-3.73 12.67a.7.7 0 0 1 .31-1.37.7.7 0 0 1 -.31 1.37zm2.77-7.08a.7.7 0 0 1 .3-1.36.7.7 0 0 1 -.3 1.36zm4.06-11.49a.7.7 0 0 1 .3-1.37.7.7 0 0 1 -.3 1.37zm-2.26 22a.7.7 0 0 1 .31-1.37.7.7 0 0 1 -.31 1.37zm6.4-13.49a.7.7 0 0 1 -1.36-.31l.06-.28a.7.7 0 0 1 1.36.3zm-2.09 20.67a.7.7 0 0 1 .31-1.36.7.7 0 0 1 -.31 1.32zm2.5-11.4c-.44-.45-.12-1.39.62-1.18a1 1 0 0 1 .76 1c-.04.81-1.3.9-1.38.14zm8.38 9.1a.7.7 0 0 1 .31-1.37.7.7 0 0 1 -.31 1.33zm4.22 21.75a1.4 1.4 0 0 1 -1.15.25.7.7 0 0 1 .3-1.37l.08-.07a.7.7 0 0 1 .77 1.15zm1.49-6.26a.67.67 0 0 1 -.49-.88.71.71 0 0 1 -.13-.76 1 1 0 0 1 .22-.34 1.1 1.1 0 0 1 .18-.14c.06 0 .06 0 0 0 .34-.83 1.57-.17 1.23.65a.87.87 0 0 1 -.22.34l-.08.07a.71.71 0 0 1 -.72 1.02zm4.11-1.16a.87.87 0 1 1 .82-.68.67.67 0 0 1 -.82.64zm6.34 7.39a.7.7 0 0 1 -.31 1.36.7.7 0 0 1 .31-1.4zm-.07 5.56a.64.64 0 0 1 -.51-.72.69.69 0 0 1 .38-1.33.63.63 0 0 1 .51.72.69.69 0 0 1 -.38 1.29zm1.13 2.92a.7.7 0 0 1 .3-1.37.7.7 0 0 1 -.3 1.29zm1.65-4.2a.7.7 0 0 1 -1.36-.3l.06-.28a.7.7 0 0 1 1.37.3zm25.6 9.41a.7.7 0 0 1 .31-1.36.7.7 0 0 1 -.31 1.32zm.59 4a.7.7 0 0 1 .3-1.36.7.7 0 0 1 -.3 1.3zm2.53 3.23c-.48-.06-1 .05-1.47 0-.89-.15-.58-1.52.3-1.37.49.09 1 0 1.48 0 .89.06.58 1.43-.31 1.31zm6.54-13.34a.7.7 0 0 1 .31-1.36.7.7 0 0 1 -.31 1.3zm5.3-1.18a.7.7 0 0 1 .3-1.36.7.7 0 0 1 -.3 1.3zm-1.59 15a.7.7 0 0 1 .3-1.36.7.7 0 0 1 -.3 1.36zm3.82-6.05-1.5-.34a.7.7 0 0 1 .3-1.36l1.5.33a.7.7 0 0 1 -.26 1.35zm1.53 5.56-.34.22a.71.71 0 0 1 -1-.9.56.56 0 0 1 0-.13l.06-.28a.71.71 0 0 1 1.37 0 .67.67 0 0 1 -.09 1.07zm10.19 3.77a.7.7 0 0 1 .31-1.36.7.7 0 0 1 -.31 1.34zm7.1-17.6.38.08a.7.7 0 0 1 -.31 1.37l-.37-.09a.7.7 0 0 1 .3-1.38zm-3 18.53-.75-.17a.7.7 0 0 1 .3-1.36l.75.16a.7.7 0 0 1 -.26 1.35zm4.27-8.84a.7.7 0 0 1 -1.36-.31l.08-.37a.7.7 0 0 1 1.37.3zm8 1a.7.7 0 0 1 -1.21-.6.9.9 0 0 1 1.16-.77.7.7 0 0 1 .06 1.38zm5.43-16.46a.7.7 0 0 1 .3-1.36.7.7 0 0 1 -.29 1.37zm-1.94 17.92a.7.7 0 0 1 .3-1.36.7.7 0 0 1 -.29 1.37zm8.63 4.77a.7.7 0 0 1 -1.37-.31l.09-.37a.7.7 0 0 1 1.36.3zm3.67-7.75-.3-.46a.7.7 0 0 1 1.18-.75l.3.46a.7.7 0 0 1 -1.17.76zm14.84-13.85a.7.7 0 0 1 1.21.6.9.9 0 0 1 -1.18.75.7.7 0 0 1 -.03-1.35zm-7.75 11a.7.7 0 0 1 .31-1.37.7.7 0 0 1 -.31 1.29zm3.08 7.4-.38-.09a.73.73 0 0 1 -.16.21c0-.16 0-.15 0 0a1.5 1.5 0 0 1 0 .3.72.72 0 0 1 -.67.73.7.7 0 0 1 -.73-.66c0-.53-.06-1 .38-1.36a.68.68 0 0 1 .76-.13.64.64 0 0 1 .78-.47l.38.08a.7.7 0 0 1 -.37 1.31zm3.43-11.4-.46.29a.7.7 0 0 1 -.75-1.18l.46-.29a.7.7 0 0 1 .75 1.18zm1.89-3.21a.7.7 0 0 1 .3-1.37.7.7 0 0 1 -.3 1.4zm.21 7.44a.7.7 0 0 1 .3-1.36.7.7 0 0 1 -.3 1.39zm6.83-8.48a.7.7 0 0 1 -.31 1.36.7.7 0 0 1 .31-1.33zm-1.76 10.51a.7.7 0 0 1 .3-1.37.7.7 0 0 1 -.3 1.4zm.3 7.47a.7.7 0 0 1 .31-1.37.7.7 0 0 1 -.31 1.4zm6.86-1.13a.7.7 0 0 1 .31-1.37.7.7 0 0 1 -.31 1.4zm2.22-5.92a.7.7 0 0 1 .3-1.36.7.7 0 0 1 -.29 1.39zm4.55-1.28a.7.7 0 0 1 -1.36-.3l.06-.28a.7.7 0 0 1 1.36.3zm4.47-6-.87-.19a.7.7 0 0 1 .3-1.36l.88.19a.7.7 0 0 1 -.32 1.41zm-.71 10.7a.7.7 0 0 1 .3-1.37.7.7 0 0 1 -.3 1.42zm6.84-20.87a.7.7 0 0 1 .3-1.36.7.7 0 0 1 -.3 1.41zm-.58 10.53a.7.7 0 0 1 .3-1.37.7.7 0 0 1 -.3 1.42zm2 .16a.87.87 0 1 1 .82-.68.68.68 0 0 1 -.79.76zm5.73 2.17a.7.7 0 0 1 .31-1.37.7.7 0 0 1 -.28 1.42zm8.59-4.72a.7.7 0 0 1 -1.37-.3l.13-.57a.7.7 0 0 1 1.36.31zm1.17-3.16a.7.7 0 0 1 .31-1.37.7.7 0 0 1 -.28 1.42zm6.17-4.18s-.07-.15-.1-.22a1 1 0 0 1 -.06-.41c0-.89 1.44-1 1.4-.07 0 0 .07.16.09.23a.91.91 0 0 1 .06.4c-.01.94-1.41 1.04-1.36.12zm2.44-7.81a.7.7 0 0 1 .3-1.36.7.7 0 0 1 -.27 1.41zm2.37-7.49a1 1 0 0 1 -.57-1.11c.12-.75 1.1-.64 1.32-.06.69.44.06 1.55-.72 1.22zm-.18 8.28a.7.7 0 0 1 .3-1.37.7.7 0 0 1 -.27 1.42z" fill="#1b82ce" opacity=".79"/><g fill="#dddac7"><path d="m269.53 104.27a31.63 31.63 0 0 1 .66-14.12c.11-.57.21-1.13.28-1.71 0-1.63-.41-3.27 0-4.9a10.84 10.84 0 0 0 .15-1.62c-.08-.81-.3-1.6-.4-2.41-.12-1.83-.7-3.25-2.91-3.18a44.45 44.45 0 0 0 -24.31 20.16c-8.88 15.42-19.48 29.51-33.65 40.72-8.2 6.49-17.12 11.66-26.3 16.51 0 .3 0 .59-.07.89a147.18 147.18 0 0 1 -1.21 28c-1.17 8-.6 16.31-2.19 24.35-2.95 14.82-7.18 29.35-10.65 44.05-1.13 4.76-2.47 9.67-5.45 13.82a3.42 3.42 0 0 0 -.42 1.72 14.68 14.68 0 0 0 2.46 1.45 154.83 154.83 0 0 0 46.65 9c3.58.11 7.27.88 10.81-.56a3.12 3.12 0 0 0 1.72-1.55 12.9 12.9 0 0 1 1.62-5.14c.17-.51.32-1 .45-1.55.91-3.23 1-6.77 3.37-9.45a3.91 3.91 0 0 0 .55-1.73 4.19 4.19 0 0 0 -.41-1.84c-1.06-2.47-.61-4.84.29-7.27 3.94-10.76 6.12-22 10-32.87 4.65-12.84 9-26.08 10.57-39.88.4-3.44 2.8-6.21 2.94-9.86a44.78 44.78 0 0 1 6.17-22c1.08-2.28 1.32-4.89 2.83-7 .81-1.71 2.23-3.07 2.83-4.91a138.6 138.6 0 0 0 3.62-27.12zm-98.76 158a.7.7 0 0 1 .31-1.36.7.7 0 0 1 -.31 1.34zm.59 4a.7.7 0 0 1 .3-1.36.7.7 0 0 1 -.3 1.32zm2.53 3.23c-.48-.06-1 .05-1.47 0-.89-.15-.58-1.52.3-1.37.49.09 1 0 1.48 0 .89.08.58 1.45-.31 1.33zm6.54-13.34a.7.7 0 0 1 .31-1.36.7.7 0 0 1 -.31 1.32zm5.3-1.18a.7.7 0 0 1 .3-1.36.7.7 0 0 1 -.3 1.32zm-1.59 15a.7.7 0 0 1 .3-1.36.7.7 0 0 1 -.3 1.38zm3.82-6.05-1.5-.34a.7.7 0 0 1 .3-1.36l1.5.33a.7.7 0 0 1 -.26 1.37zm1.53 5.56-.34.22a.71.71 0 0 1 -1-.9.56.56 0 0 1 0-.13l.06-.28a.71.71 0 0 1 1.37 0 .67.67 0 0 1 -.09 1.09zm10.19 3.77a.7.7 0 0 1 .31-1.36.7.7 0 0 1 -.31 1.36zm7.1-17.6.38.08a.7.7 0 0 1 -.31 1.37l-.37-.09a.7.7 0 0 1 .3-1.36zm-3 18.53-.75-.17a.7.7 0 0 1 .3-1.36l.75.16a.7.7 0 0 1 -.26 1.37zm4.27-8.84a.7.7 0 0 1 -1.36-.31l.08-.37a.7.7 0 0 1 1.37.3zm8 1a.7.7 0 0 1 -1.21-.6.9.9 0 0 1 1.16-.75.7.7 0 0 1 .06 1.38zm5.43-16.46a.7.7 0 0 1 .3-1.36.7.7 0 0 1 -.29 1.39zm-1.94 17.92a.7.7 0 0 1 .3-1.36.7.7 0 0 1 -.29 1.39z"/><path d="m227.3 266.32a46.27 46.27 0 0 0 2.94-7.07 8.61 8.61 0 0 0 -1.22 1.67 5.8 5.8 0 0 0 -.45 1.41 7.17 7.17 0 0 1 -1 3.25c-.12.24-.19.49-.27.74z"/><path d="m314.21 147.8a4.54 4.54 0 0 0 2.65-4.25l-.71.89a12.34 12.34 0 0 0 -1.94 3.36z"/><path d="m312.83 145.33c1.21-2.07 2.94-3.32 4-5.47a8.26 8.26 0 0 1 .09-1 122.24 122.24 0 0 0 -16.27-51.79c-4.98-8.67-12.11-13.77-22.65-12.65-1.34.15-2.67.28-4 .41a4.85 4.85 0 0 0 -1.67 1.81h.13a.81.81 0 0 1 .57-.16 5.43 5.43 0 0 1 1.95.44h.06a14.16 14.16 0 0 1 5.79.35c.78.26 1.21 1.44.33 1.91a8.43 8.43 0 0 0 -3.62 4.19 1.51 1.51 0 0 1 -.25.64l-.07.11c-1.2 3.09-1.59 6.82-2.57 9.71a24.79 24.79 0 0 0 -.76 10.92.87.87 0 0 1 .4.6c.07.35.12.7.18 1a1.11 1.11 0 0 1 .63.61 11.53 11.53 0 0 1 0 8.06c0 1.5-.14 3-.3 4.52a.9.9 0 0 1 .34 1c-.1.36-.21.71-.31 1.06v.07c.18 2.89-.86 5.5-1.79 8.18a1.09 1.09 0 0 1 -.85.71 39.14 39.14 0 0 1 -3.53 7.17c-.89 4.25-1.53 8.59-2.63 12.79a62.37 62.37 0 0 1 -6.03 22.48l-.34.73c-1.34 5.24-2.81 10.47-3.65 15.81-.67 4.32-.49 8.66-1 13-.68 5.17-2.33 11.34-7.13 14a29.4 29.4 0 0 1 -2.24 5.33 13.88 13.88 0 0 0 -2 1.64 5.22 5.22 0 0 0 -1 1.42 30.46 30.46 0 0 1 -1.27 3 91.66 91.66 0 0 0 -2.52 13.53.89.89 0 0 1 .54 1.13c-.49 1.7-1 3.42-1.51 5.13-.14.76-.28 1.52-.44 2.28-1.57 7.2-3.62 17.11-9.24 22.78a.59.59 0 0 1 -.38.36 15.45 15.45 0 0 1 -2.39 1.88 11.72 11.72 0 0 0 .66 1.7 21.26 21.26 0 0 0 2.86.26c1.51-.06 3-.16 4.52-.28a.66.66 0 0 1 .18-1l.34-.22a.69.69 0 0 1 .85 1.08 152.87 152.87 0 0 0 22.59-3.81h-.12l-.56-.12a.7.7 0 0 1 .31-1.37l.56.13a.71.71 0 0 1 .24 1.26c6.81-1.66 13.54-3.7 20.22-6 3.73-5.35 5.95-12.41 7.86-17.9a56.06 56.06 0 0 0 1.78-6.61 1 1 0 0 1 0-.34c.2-.9.42-1.87.65-2.87.66-3.44 1.28-6.88 2.27-10.24 1.88-6.32 4.54-12.43 6.61-18.7 3.21-9.68 6.38-19.55 9.1-29.45 1.05-4.76 2.25-9.49 3.36-14.25.72-4.75.91-9.5 1.41-14.34a16.49 16.49 0 0 1 1.71-6.62zm-66.15 105.67a.7.7 0 0 1 1.21.6.9.9 0 0 1 -1.18.75.7.7 0 0 1 -.03-1.35zm-7.75 11a.7.7 0 0 1 .31-1.37.7.7 0 0 1 -.31 1.29zm3.08 7.4-.38-.09a.73.73 0 0 1 -.16.21c0-.16 0-.15 0 0a1.5 1.5 0 0 1 0 .3.72.72 0 0 1 -.67.73.7.7 0 0 1 -.73-.66c0-.53-.06-1 .38-1.36a.68.68 0 0 1 .76-.13.64.64 0 0 1 .78-.47l.38.08a.7.7 0 0 1 -.37 1.31zm3.43-11.4-.46.29a.7.7 0 0 1 -.75-1.18l.46-.29a.7.7 0 0 1 .75 1.18zm1.89-3.21a.7.7 0 0 1 .3-1.37.7.7 0 0 1 -.3 1.4zm.21 7.44a.7.7 0 0 1 .3-1.36.7.7 0 0 1 -.3 1.39zm6.83-8.48a.7.7 0 0 1 -.31 1.36.7.7 0 0 1 .31-1.33zm-1.76 10.51a.7.7 0 0 1 .3-1.37.7.7 0 0 1 -.3 1.4zm.3 7.47a.7.7 0 0 1 .31-1.37.7.7 0 0 1 -.31 1.4zm6.86-1.13a.7.7 0 0 1 .31-1.37.7.7 0 0 1 -.31 1.4zm2.22-5.92a.7.7 0 0 1 .3-1.36.7.7 0 0 1 -.29 1.39zm4.55-1.28a.7.7 0 0 1 -1.36-.3l.06-.28a.7.7 0 0 1 1.36.3zm4.47-6-.87-.19a.7.7 0 0 1 .3-1.36l.88.19a.7.7 0 0 1 -.32 1.41zm-.71 10.7a.7.7 0 0 1 .3-1.37.7.7 0 0 1 -.3 1.42zm6.84-20.87a.7.7 0 0 1 .3-1.36.7.7 0 0 1 -.3 1.41zm-.58 10.53a.7.7 0 0 1 .3-1.37.7.7 0 0 1 -.3 1.42zm2 .16a.87.87 0 1 1 .82-.68.68.68 0 0 1 -.79.76z"/><path d="m164.58 237.66a.88.88 0 0 1 .32-.34c.46-2.28.94-4.55 1.53-6.79q.63-2.47 1.23-4.95c-1.41 5-3.11 10-4.55 15 .46-.99.96-1.94 1.47-2.92z"/><path d="m172.53 198.65c-.74 0-1.47-.68-1-1.46a25.9 25.9 0 0 0 4-11.5 1 1 0 0 1 -.38-1c.16-.76.31-1.55.44-2.33a23.35 23.35 0 0 0 -.37-3.22 1 1 0 0 1 -1.22-1.22c1.48-6.55 3.2-13.14 2.42-19.9a1 1 0 0 1 1.4-1 3.18 3.18 0 0 0 -1.26-1.07c-9 2.42-18 5-27.3 6a104.37 104.37 0 0 0 -17.82 4c-3.14 3-2.74 6.64-1.9 10.36 1.41 2.4.36 4.88.27 7.32a57.29 57.29 0 0 1 -.82 8.47 17.25 17.25 0 0 1 -.09 5 17.45 17.45 0 0 0 -.36 2.39c.67 2.27-.81 4-1.44 5.94a57.09 57.09 0 0 1 -1.27 11.43c-.08 5.54-1.55 10.78-3.36 16-1.3 3.73-2.86 7.47-1.33 11.54a15.34 15.34 0 0 0 4.46 4.44 136.08 136.08 0 0 0 17.47 10.16c2.72 1.27 5.41 2.64 8.18 3.82a1 1 0 0 1 .23-.55 57.49 57.49 0 0 1 5-5.71 14.57 14.57 0 0 0 2.07-5.2c.71-3.48 1.33-6.9 2.31-10.33 2-6.91 4.21-13.74 6.1-20.68 1.62-5.95 3.46-11.75 4.87-17.71a1 1 0 0 1 -.14-.74c.22-1.09.51-2.17.84-3.25zm-46.23 28.19a.7.7 0 0 1 .31-1.37.7.7 0 0 1 -.31 1.37zm4.22 21.75a1.4 1.4 0 0 1 -1.15.25.7.7 0 0 1 .3-1.37l.08-.07a.7.7 0 0 1 .77 1.19zm1.49-6.26a.67.67 0 0 1 -.49-.88.71.71 0 0 1 -.13-.76 1 1 0 0 1 .22-.34 1.1 1.1 0 0 1 .18-.14c.06 0 .06 0 0 0 .34-.83 1.57-.17 1.23.65a.87.87 0 0 1 -.22.34l-.08.07a.71.71 0 0 1 -.72 1.06zm4.11-1.16a.87.87 0 1 1 .82-.68.67.67 0 0 1 -.82.68zm6.34 7.39a.7.7 0 0 1 -.31 1.36.7.7 0 0 1 .31-1.36zm-.07 5.56a.64.64 0 0 1 -.51-.72.69.69 0 0 1 .38-1.33.63.63 0 0 1 .51.72.69.69 0 0 1 -.38 1.33zm1.13 2.92a.7.7 0 0 1 .3-1.37.7.7 0 0 1 -.3 1.33zm1.65-4.2a.7.7 0 0 1 -1.36-.3l.06-.28a.7.7 0 0 1 1.37.3z"/></g><path d="m318.68 161.57c-2.35-.4-2.75 1.3-3.19 3a109.41 109.41 0 0 1 -2.78 19.79c-2.1 8.59-4.48 17.2-6.65 25.74-2.8 11-6.86 21.75-9.58 32.85a40.8 40.8 0 0 1 -2.79 8.24.65.65 0 0 1 .7-.27.7.7 0 0 1 -.31 1.37.68.68 0 0 1 -.44-1c-.38.77-.79 1.53-1.25 2.28-.11.18-.23.36-.35.54a.7.7 0 0 1 1 .77l-.12.56a.7.7 0 0 1 -1.37-.3l.09-.41c-1.19 1.8-2.33 3.76-.94 6.18a27.49 27.49 0 0 0 8.07-3.93 1.79 1.79 0 0 1 -.24-1.15c.14-.89 1.5-.58 1.36.3 0-.11 0-.08 0 0l.24-.2c2.83-.57 4-2.71 4.87-5.15a181.11 181.11 0 0 0 5.39-18.26 269.77 269.77 0 0 0 8.29-70.95zm-18.43 86.51s-.07-.15-.1-.22a1 1 0 0 1 -.06-.41c0-.89 1.44-1 1.4-.07 0 0 .07.16.09.23a.91.91 0 0 1 .06.4c-.04.89-1.44.99-1.39.07zm2.44-7.81a.7.7 0 0 1 .3-1.36.7.7 0 0 1 -.3 1.36zm2.37-7.49a1 1 0 0 1 -.57-1.11c.12-.75 1.1-.64 1.32-.06.66.39.03 1.5-.75 1.17zm-.18 8.28a.7.7 0 0 1 .3-1.37.7.7 0 0 1 -.3 1.37zm.19 7.61a.7.7 0 0 1 -1.36-.3l.06-.28a.7.7 0 0 1 1.37.3z" fill="#dcd9c6"/><path d="m119.83 232.14c1.07-5.08.39-10.45 2.85-15.34a9.28 9.28 0 0 0 .89-5.58 14.33 14.33 0 0 1 1.64-9.93 5.24 5.24 0 0 0 .65-4.41c-2.08-6.09-.24-12 .77-17.89-.89-2.75.81-5.66-.51-8.38-.71-.25-1.49-.85-2.11-.72a28.6 28.6 0 0 0 -18.63 13.38.7.7 0 0 1 -.63 1.14 23.1 23.1 0 0 0 -2 5.12c-1.28 5.08-1.3 10.2-1.44 15.37-.33 11.89 5.33 21.29 12.26 30.18 1.06 1.37 2.34 3.44 4.61 1.34l.15-.16c1.41-1.05 1.16-2.7 1.5-4.12zm-15.39-38.57a.7.7 0 0 1 -.31 1.37.7.7 0 0 1 .31-1.37zm-1.29 10.12-.22-.35a.63.63 0 0 1 0-.71.62.62 0 0 1 .64-.28h.06a.64.64 0 0 1 .19.08.75.75 0 0 1 .15.16s0 0 0 0l.22.35a.7.7 0 0 1 -1.04.75zm3.22-2.88a.7.7 0 0 1 -.3 1.37.7.7 0 0 1 .3-1.37zm-.69 8.39a.7.7 0 0 1 .3-1.37.7.7 0 0 1 -.3 1.37zm6-26.78a.7.7 0 0 1 .31-1.37.7.7 0 0 1 -.32 1.37zm1.46 14.58a.7.7 0 0 1 -.3 1.37.7.7 0 0 1 .3-1.37zm-2.87 8.9c.65.4 0 1.5-.75 1.17a1 1 0 0 1 -.58-1.11c.12-.76 1.11-.65 1.33-.06zm-3.73 12.67a.7.7 0 0 1 .31-1.37.7.7 0 0 1 -.31 1.37zm2.77-7.08a.7.7 0 0 1 .3-1.36.7.7 0 0 1 -.3 1.36zm4.06-11.49a.7.7 0 0 1 .3-1.37.7.7 0 0 1 -.3 1.37zm-2.26 22a.7.7 0 0 1 .31-1.37.7.7 0 0 1 -.31 1.37zm6.4-13.49a.7.7 0 0 1 -1.36-.31l.06-.28a.7.7 0 0 1 1.36.3zm-2.09 20.67a.7.7 0 0 1 .31-1.36.7.7 0 0 1 -.31 1.32zm2.5-11.4c-.44-.45-.12-1.39.62-1.18a1 1 0 0 1 .76 1c-.04.81-1.3.9-1.38.14z" fill="#dddac7"/><path d="m177.81 202.26c.95-4.1 2.64-8 2.91-12.29 1 4.56.39 8.74-2.91 12.29z" fill="#dddac7"/></g></svg>