<svg data-name="Layer 1" xmlns="http://www.w3.org/2000/svg" viewBox="0 0 35.4 45.94">
  <defs><style>.cls-1,.cls-2{fill:#2a2d58;}.cls-2{stroke:#2a2d58;stroke-miterlimit:10;stroke-width:0.75px;}.cls-3{fill:#f1b860;}</style>
</defs><title>online_learning</title><path class="cls-1" d="M22.41,16.31a2.33,2.33,0,0,0,.9-2.18,2.35,2.35,0,0,0-2-2,2.33,2.33,0,0,0-2.58,2.32,2.36,2.36,0,0,0,.91,1.86,0,0,0,0,1,0,0,2.9,2.9,0,0,0-2.19,2.81v2.89h7.21V19.16a2.9,2.9,0,0,0-2.2-2.81S22.4,16.32,22.41,16.31Z" transform="translate(-12.23 -6.47)"/><path class="cls-2" d="M46.83,14.39,39.71,7.27a1.49,1.49,0,0,0-1-.42H14.06A1.45,1.45,0,0,0,12.61,8.3V50.59A1.45,1.45,0,0,0,14.06,52H45.8a1.45,1.45,0,0,0,1.45-1.45V15.42A1.49,1.49,0,0,0,46.83,14.39ZM45.75,49.08a1.45,1.45,0,0,1-1.46,1.45H15.57a1.45,1.45,0,0,1-1.46-1.45V9.81a1.46,1.46,0,0,1,1.46-1.46H36.76a1.46,1.46,0,0,1,1.46,1.46v4.62a1.45,1.45,0,0,0,1.45,1.46h4.62a1.45,1.45,0,0,1,1.46,1.45Z" transform="translate(-12.23 -6.47)"/><path class="cls-3" d="M28.31,11.37h.23a.64.64,0,0,1,.64.63v.24a.64.64,0,0,1-.64.63h-.23a.64.64,0,0,1-.64-.63V12A.64.64,0,0,1,28.31,11.37Z" transform="translate(-12.23 -6.47)"/><path class="cls-3" d="M28.42,14.38H36a.76.76,0,0,1,.75.75h0a.76.76,0,0,1-.75.76H28.42a.76.76,0,0,1-.75-.76h0A.76.76,0,0,1,28.42,14.38Z" transform="translate(-12.23 -6.47)"/><path class="cls-3" d="M30.67,11.37h5.16c.28,0,.51.33.51.75h0c0,.42-.23.75-.51.75H30.67c-.28,0-.51-.33-.51-.75h0C30.16,11.7,30.39,11.37,30.67,11.37Z" transform="translate(-12.23 -6.47)"/><path class="cls-3" d="M42,17.39H28.42a.76.76,0,0,0,0,1.51H42a.76.76,0,0,0,0-1.51Z" transform="translate(-12.23 -6.47)"/><path class="cls-3" d="M28.42,20.53H42a.75.75,0,0,1,.75.75h0A.75.75,0,0,1,42,22H28.42a.76.76,0,0,1-.75-.76h0A.76.76,0,0,1,28.42,20.53Z" transform="translate(-12.23 -6.47)"/><path class="cls-3" d="M20.89,27.18a2.26,2.26,0,1,0,2.26,2.26A2.27,2.27,0,0,0,20.89,27.18Zm0,3a.76.76,0,0,1-.53-1.29.74.74,0,0,1,.82-.16.75.75,0,0,1,.47.69.75.75,0,0,1-.76.76Z" transform="translate(-12.23 -6.47)"/><path class="cls-3" d="M20.89,34.72A2.26,2.26,0,1,0,23.15,37,2.26,2.26,0,0,0,20.89,34.72Zm0,3a.74.74,0,0,1-.69-.47A.75.75,0,1,1,21.65,37a.77.77,0,0,1-.22.54.79.79,0,0,1-.54.22Z" transform="translate(-12.23 -6.47)"/><path class="cls-3" d="M20.89,42.25a2.26,2.26,0,1,0,.87,4.34,2.26,2.26,0,0,0-.87-4.34Zm0,3a.74.74,0,0,1-.69-.47.75.75,0,1,1,1.23.25.79.79,0,0,1-.54.22Z" transform="translate(-12.23 -6.47)"/><path class="cls-3" d="M28.32,28.66H42.14a.71.71,0,0,1,.63.75h0a.7.7,0,0,1-.63.75H28.32a.69.69,0,0,1-.63-.75h0A.7.7,0,0,1,28.32,28.66Z" transform="translate(-12.23 -6.47)"/><path class="cls-3" d="M28.32,36.94H42.14a.71.71,0,0,1,.63.76h0a.71.71,0,0,1-.63.75H28.32a.7.7,0,0,1-.63-.75h0A.7.7,0,0,1,28.32,36.94Z" transform="translate(-12.23 -6.47)"/><path class="cls-3" d="M28.32,44.47H42.14a.71.71,0,0,1,.63.76h0a.71.71,0,0,1-.63.75H28.32a.7.7,0,0,1-.63-.75h0A.7.7,0,0,1,28.32,44.47Z" transform="translate(-12.23 -6.47)"/></svg>
