<svg xmlns="http://www.w3.org/2000/svg" viewBox="0 0 26.576 24.612">
    <g transform="translate(-0.318)">
        <path fill="#fff"
              d="M8.712,24.612H8.358c-1.118,0-2.264-.005-3.372-.01l-.385,0-.361,0H4.231l-.362,0-.392,0c-1.138,0-2.312-.01-3.477-.01.233-.379.466-.752.691-1.113L.7,23.461l.045-.072.067-.107.015-.024c.689-1.1,1.339-2.145,1.952-3.215a1.578,1.578,0,0,0,.173-.566A12.756,12.756,0,0,1,13.792,0h.017a13.038,13.038,0,0,1,9.364,4.063,12.471,12.471,0,0,1,2.583,3.986,11.19,11.19,0,0,1,.81,4.708c-.016.349-.049.694-.1,1.025a10.688,10.688,0,0,1-1.915,5.534,11.964,11.964,0,0,1-5.013,4.057,11.878,11.878,0,0,1-4.465,1.159c-1.928.053-3.887.079-5.99.079H8.712Zm5.108-13.838A1.528,1.528,0,1,0,15.348,12.3,1.533,1.533,0,0,0,13.819,10.774Zm-5.387,0A1.526,1.526,0,0,0,6.909,12.3,1.529,1.529,0,1,0,8.44,10.774Zm10.779,0h0a1.513,1.513,0,0,0-1.075.444,1.525,1.525,0,1,0,1.085-.452v.008Z"
              transform="translate(0.319)"/>
    </g>
</svg>