<svg xmlns="http://www.w3.org/2000/svg" viewBox="0 0 67.48 80.9"><title>contact_icon_white</title><path d="M65.33,45.77a6.44,6.44,0,0,0-9.17.65L38.36,66.94l-.12.14-.69,10.71L48.06,75.6,66,54.91A6.72,6.72,0,0,0,65.33,45.77Zm-2.4,6.41L61.38,54l-3.61-3.13L59.34,49a2.31,2.31,0,0,1,3.36-.24A2.45,2.45,0,0,1,62.93,52.18ZM42,72.65l.2-4L55,53.88,58.61,57,45.94,71.76Z" fill="#fff"/><path d="M60.32,12.74,49.69,2a6.72,6.72,0,0,0-4.78-2H4.31A4.32,4.32,0,0,0,0,4.34V76.56A4.33,4.33,0,0,0,4.31,80.9H32.47a3.15,3.15,0,0,0,3.13-3.26,3.26,3.26,0,0,0-3.33-3H6.86A.61.61,0,0,1,6.25,74V6.91a.62.62,0,0,1,.61-.63H42.68a.61.61,0,0,1,.6.63v7.9a4.34,4.34,0,0,0,4.31,4.34h7.82a.61.61,0,0,1,.61.62V39.28a2.81,2.81,0,0,0,2.79,2.82h.67a2.8,2.8,0,0,0,2.39-1.38,2.13,2.13,0,0,0,.4-1.24v-22A6.7,6.7,0,0,0,60.32,12.74Z" fill="#fff"/><rect x="12.64" y="23.41" width="34.05" height="4.78" rx="2.39" ry="2.39" fill="#fff"/><rect x="12.64" y="34.18" width="34.05" height="4.78" rx="2.39" ry="2.39" fill="#fff"/><rect x="12.64" y="44.94" width="17.64" height="4.78" rx="2.39" ry="2.39" fill="#fff"/><rect x="12.64" y="55.71" width="17.64" height="4.78" rx="2.39" ry="2.39" fill="#fff"/></svg>