<svg id="Layer_1" data-name="Layer 1" xmlns="http://www.w3.org/2000/svg" viewBox="0 0 591.12 248.82"><title>404</title><path d="M792.25,369c-4.27,12.3-6.8,30.75-6.8,58,0,23.37,1.89,40.52,5.16,52.95,5.36,20.4,14.44,28,25,29.19a27.69,27.69,0,0,0,3,.17c13.38,0,24.47-8.55,29.8-36.74q.93-4.9,1.62-10.61a295.67,295.67,0,0,0,1.81-35c0-7.58-.2-14.45-.57-20.72-.21-3.62-.47-7-.8-10.26-4-39.27-16.23-49.29-31.52-49.44h-.34C807.83,346.49,798.3,351.57,792.25,369Z" transform="translate(-523.11 -303.45)" style="fill:none"/><path d="M771.56,348l20.69,21c6-17.39,15.58-22.47,26.42-22.47H819l-23.47-23.9a17.38,17.38,0,0,1-4.84-14.36c-17,6.28-31,18.76-40.92,37.28A17.42,17.42,0,0,1,771.56,348Z" transform="translate(-523.11 -303.45)" style="fill:#f9bc5e"/><path d="M861,350.52l.06.07a17.41,17.41,0,0,0,24.61-.25l2.94-3a84.8,84.8,0,0,0-21.8-27.63l-6.06,6.16A17.41,17.41,0,0,0,861,350.52Z" transform="translate(-523.11 -303.45)" style="fill:#dddac7"/><path d="M866,417.4a27.83,27.83,0,0,0-14.64-11.2c.37,6.27.57,13.14.57,20.72a295.67,295.67,0,0,1-1.81,35,31.84,31.84,0,0,0,7.53-3.65C871.2,449.24,874.21,429.33,866,417.4Z" transform="translate(-523.11 -303.45)" style="fill:#1c1e3d"/><path d="M797.64,535.93l18-26.87c-10.59-1.16-19.67-8.79-25-29.19a19.26,19.26,0,0,0-4.18,4.44l-19.66,29.23a19,19,0,0,1-9.66,7.37c9.94,13.7,22.62,23,37.44,27.73A18.88,18.88,0,0,1,797.64,535.93Z" transform="translate(-523.11 -303.45)" style="fill:#dddac7"/><path d="M866,417.4c8.24,11.93,5.23,31.84-8.35,40.83a31.84,31.84,0,0,1-7.53,3.65q-.69,5.72-1.62,10.61a39.22,39.22,0,0,0,14-5.82c18.21-12.15,23.33-36.36,11.22-54.16a38.58,38.58,0,0,0-23.15-16.57c.33,3.22.59,6.64.8,10.26A27.83,27.83,0,0,1,866,417.4Z" transform="translate(-523.11 -303.45)" style="fill:#2a6fab"/><path d="M766.77,513.54l19.66-29.23a19.26,19.26,0,0,1,4.18-4.44c-3.27-12.43-5.16-29.58-5.16-52.95,0-27.21,2.53-45.66,6.8-58l-20.69-21a17.42,17.42,0,0,0-21.78-2.44C739,365.6,733,392.77,733,426.92c0,41.26,8.81,72.84,24.15,94A19,19,0,0,0,766.77,513.54Z" transform="translate(-523.11 -303.45)" style="fill:#1c1e3d"/><path d="M888.56,347.35l-2.94,3a17.41,17.41,0,0,1-24.61.25l-.06-.07a17.41,17.41,0,0,1-.25-24.64l6.06-6.16c-13.29-10.79-29.57-16.27-48.09-16.27a80.42,80.42,0,0,0-28,4.79,17.38,17.38,0,0,0,4.84,14.36L819,346.5c15.29.15,27.55,10.17,31.52,49.44a38.58,38.58,0,0,1,23.15,16.57c12.11,17.8,7,42-11.22,54.16a39.22,39.22,0,0,1-14,5.82c-5.33,28.19-16.42,36.74-29.8,36.74a27.69,27.69,0,0,1-3-.17l-18,26.87a18.88,18.88,0,0,0-3.09,12.71,79.29,79.29,0,0,0,24.12,3.63,84.48,84.48,0,0,0,11.6-.81l-.46,0A12.84,12.84,0,0,1,817.58,538V538A12.84,12.84,0,0,1,831,525.71l24.64,1.15a12.83,12.83,0,0,0,13.42-12l1.61-24.62a12.84,12.84,0,0,1,13.67-12h.07a12.87,12.87,0,0,1,11.67,10c5.37-17.17,8.28-37.65,8.28-61.33C904.38,393.81,898.72,367.24,888.56,347.35Z" transform="translate(-523.11 -303.45)" style="fill:#1c1e3d"/><path d="M884.43,478.27h-.07a12.84,12.84,0,0,0-13.67,12l-1.61,24.62a12.83,12.83,0,0,1-13.42,12L831,525.71A12.84,12.84,0,0,0,817.58,538V538a12.84,12.84,0,0,0,12.23,13.41l.46,0c30.73-4.27,54.14-25.84,65.83-63.21A12.87,12.87,0,0,0,884.43,478.27Z" transform="translate(-523.11 -303.45)" style="fill:#f9bc5e"/><path d="M1023,377.54l-4.17,8.4q-1.38,2.74-2.74,5.49l-15.83,26-4.71,7.74-11.18,18.37h50.59V404.64c0-15.48,1.51-38.51,2.27-53.61h-1.51C1031.72,359.74,1027.4,368.61,1023,377.54Z" transform="translate(-523.11 -303.45)" style="fill:none"/><path d="M1014,454h0a15.19,15.19,0,0,0-21.44-1.27l-21,18.68a15.2,15.2,0,0,1-21.61-1.46l-18.27-21.27a4.26,4.26,0,0,0-.43-.42v37.34h69.9l11.71-10.44a15,15,0,0,0,4.14-6.07A15.18,15.18,0,0,0,1014,454Z" transform="translate(-523.11 -303.45)" style="fill:#f9bc5e"/><path d="M1068.87,543.21h17.8V506.34a28,28,0,0,0-5.9,2.89A28.88,28.88,0,0,0,1068.87,543.21Z" transform="translate(-523.11 -303.45)" style="fill:#1c1e3d"/><path d="M1000.24,417.42l15.83-26q1.36-2.74,2.74-5.49a23.41,23.41,0,0,0-6.48,2.24A24.26,24.26,0,0,0,1000.24,417.42Z" transform="translate(-523.11 -303.45)" style="fill:#1c1e3d"/><path d="M1059.29,543.21h9.58a28.88,28.88,0,0,1,11.9-34,28,28,0,0,1,5.9-2.89v-9.85a36.81,36.81,0,0,0-10.58,4.69C1060.71,511.21,1054.82,527.81,1059.29,543.21Z" transform="translate(-523.11 -303.45)" style="fill:#dddac7"/><path d="M1012.33,388.18a23.41,23.41,0,0,1,6.48-2.24l4.17-8.4a31.09,31.09,0,0,0-14,3.53c-16.7,8.82-22.28,27-14.3,42.66.25.49.53,1,.8,1.43l4.71-7.74A24.26,24.26,0,0,1,1012.33,388.18Z" transform="translate(-523.11 -303.45)" style="fill:#2a6fab"/><path d="M1056.89,320.71l23.44,23.86a17.43,17.43,0,0,1,0,24.41l-23.44,23.86a17.41,17.41,0,0,0,.25,24.64l.06.07a17.41,17.41,0,0,0,24.61-.25l4.86-4.95V303.45h-34A17.38,17.38,0,0,0,1056.89,320.71Z" transform="translate(-523.11 -303.45)" style="fill:#2a6fab"/><path d="M1086.67,443.53V412.35l-4.86,4.95a17.41,17.41,0,0,1-24.61.25l-.06-.07a17.41,17.41,0,0,1-.25-24.64L1080.33,369a17.43,17.43,0,0,0,0-24.41l-23.44-23.86a17.38,17.38,0,0,1-4.23-17.26H1027.5l7,19.77a17.41,17.41,0,0,1-10.6,22.2h0a17.37,17.37,0,0,1-22.23-10.59l-.74-2.06L931.11,447.69v.44l.09.09a4.26,4.26,0,0,1,.43.42l18.27,21.27a15.2,15.2,0,0,0,21.61,1.46l21-18.68A15.19,15.19,0,0,1,1014,454h0a15.19,15.19,0,0,1-1.25,21.42L1001,485.82h33.93v57.39h24.35c-4.47-15.4,1.42-32,16.8-42a36.81,36.81,0,0,1,10.58-4.69V485.82h27.56V443.53Zm-51.73-38.89v38.89H984.35l11.18-18.37c-.27-.47-.55-.94-.8-1.43-8-15.7-2.4-33.84,14.3-42.66a31.09,31.09,0,0,1,14-3.53c4.42-8.93,8.74-17.8,12.72-26.51h1.51C1036.45,366.13,1034.94,389.16,1034.94,404.64Z" transform="translate(-523.11 -303.45)" style="fill:#1c1e3d"/><path d="M1018.73,346.42a17.28,17.28,0,0,0,5.14-1h0a17.41,17.41,0,0,0,10.6-22.2l-7-19.77h-8.78l-17.81,29.32h0l.74,2.06A17.42,17.42,0,0,0,1018.73,346.42Z" transform="translate(-523.11 -303.45)" style="fill:#f9bc5e"/><path d="M615,377.54l-4.17,8.4q-1.38,2.74-2.74,5.49l-15.83,26-4.71,7.74-11.18,18.37h50.59V404.64c0-15.48,1.51-38.51,2.27-53.61H627.7C623.72,359.74,619.4,368.61,615,377.54Z" transform="translate(-523.11 -303.45)" style="fill:none"/><path d="M606,454h0a15.19,15.19,0,0,0-21.44-1.27l-21,18.68a15.2,15.2,0,0,1-21.61-1.46l-18.27-21.27a4.26,4.26,0,0,0-.43-.42v37.34h69.9l11.71-10.44a15,15,0,0,0,4.14-6.07A15.18,15.18,0,0,0,606,454Z" transform="translate(-523.11 -303.45)" style="fill:#2a6fab"/><path d="M660.87,543.21h17.8V506.34a28,28,0,0,0-5.9,2.89A28.88,28.88,0,0,0,660.87,543.21Z" transform="translate(-523.11 -303.45)" style="fill:#1c1e3d"/><path d="M592.24,417.42l15.83-26q1.36-2.74,2.74-5.49a23.41,23.41,0,0,0-6.48,2.24A24.26,24.26,0,0,0,592.24,417.42Z" transform="translate(-523.11 -303.45)" style="fill:#1c1e3d"/><path d="M651.29,543.21h9.58a28.88,28.88,0,0,1,11.9-34,28,28,0,0,1,5.9-2.89v-9.85a36.81,36.81,0,0,0-10.58,4.69C652.71,511.21,646.82,527.81,651.29,543.21Z" transform="translate(-523.11 -303.45)" style="fill:#f9bc5e"/><path d="M604.33,388.18a23.41,23.41,0,0,1,6.48-2.24l4.17-8.4a31.09,31.09,0,0,0-14,3.53c-16.7,8.82-22.28,27-14.3,42.66.25.49.53,1,.8,1.43l4.71-7.74A24.26,24.26,0,0,1,604.33,388.18Z" transform="translate(-523.11 -303.45)" style="fill:#2a6fab"/><path d="M648.89,320.71l23.44,23.86a17.43,17.43,0,0,1,0,24.41l-23.44,23.86a17.41,17.41,0,0,0,.25,24.64l.06.07a17.41,17.41,0,0,0,24.61-.25l4.86-4.95V303.45h-34A17.38,17.38,0,0,0,648.89,320.71Z" transform="translate(-523.11 -303.45)" style="fill:#dddac7"/><path d="M678.67,443.53V412.35l-4.86,4.95a17.41,17.41,0,0,1-24.61.25l-.06-.07a17.41,17.41,0,0,1-.25-24.64L672.33,369a17.43,17.43,0,0,0,0-24.41l-23.44-23.86a17.38,17.38,0,0,1-4.23-17.26H619.5l7,19.77a17.41,17.41,0,0,1-10.6,22.2h0a17.37,17.37,0,0,1-22.23-10.59l-.74-2.06L523.11,447.69v.44l.09.09a4.26,4.26,0,0,1,.43.42l18.27,21.27a15.2,15.2,0,0,0,21.61,1.46l21-18.68A15.19,15.19,0,0,1,606,454h0a15.19,15.19,0,0,1-1.25,21.42L593,485.82h33.93v57.39h24.35c-4.47-15.4,1.42-32,16.8-42a36.81,36.81,0,0,1,10.58-4.69V485.82h27.56V443.53Zm-51.73-38.89v38.89H576.35l11.18-18.37c-.27-.47-.55-.94-.8-1.43-8-15.7-2.4-33.84,14.3-42.66a31.09,31.09,0,0,1,14-3.53c4.42-8.93,8.74-17.8,12.72-26.51h1.51C628.45,366.13,626.94,389.16,626.94,404.64Z" transform="translate(-523.11 -303.45)" style="fill:#1c1e3d"/><path d="M610.73,346.42a17.28,17.28,0,0,0,5.14-1h0a17.41,17.41,0,0,0,10.6-22.2l-7-19.77h-8.78L592.9,332.77h0l.74,2.06A17.42,17.42,0,0,0,610.73,346.42Z" transform="translate(-523.11 -303.45)" style="fill:#f9bc5e"/></svg>