<svg xmlns="http://www.w3.org/2000/svg" viewBox="0 0 45 45">
  <defs>
    <style>
      .cls-1 {
        fill: #2a2d58;
      }

      .cls-2 {
        fill: #f1b860;
      }
    </style>
  </defs>
  <path class="cls-1" d="M22.507,45H22.5A22.506,22.506,0,0,1,13.723,1.776,22.36,22.36,0,0,1,22.477,0h.031a22.506,22.506,0,0,1,8.755,43.23A22.361,22.361,0,0,1,22.507,45ZM22.5,4.5a17.944,17.944,0,1,0,7.007,1.414A17.888,17.888,0,0,0,22.5,4.5Z" transform="translate(0 0)"/>
  <path data-name="Shape" class="cls-2" d="M3.375,0H0V13.5l11.813,7.087,1.688-2.77-10.125-6Z" transform="translate(19.679 11.25)"/>
</svg>
