<svg width="155px" height="80px" viewBox="0 0 155 80" version="1.1" xmlns="http://www.w3.org/2000/svg" xmlns:xlink="http://www.w3.org/1999/xlink">
    <g stroke="none" stroke-width="1">
        <g transform="translate(-31.000000, -31.000000)">
            <g>
                <path d="M173.338412,70.3263632 C170.186406,70.3263632 168.083377,69.3675322 168.083377,67.5950411 C168.138402,66.6586491 168.612549,65.7969889 169.373916,65.2490855 C170.47265,65.4808908 171.595774,65.5772812 172.717923,65.5365006 L175.159293,65.5365006 C177.49881,65.5365006 178.78291,65.9179648 178.78291,67.4044066 C178.780373,69.0319218 176.491588,70.3249974 173.335875,70.3249974 L173.338412,70.3263632 Z M172.765142,52.9179405 C170.90231,52.9179405 169.517526,51.5764746 169.517526,48.9419331 C169.517526,46.398904 170.90231,45.1097309 172.765142,45.1097309 C174.62778,45.1097309 176.011197,46.4511968 176.011197,48.9419331 C176.008465,51.5751088 174.622707,52.9165747 172.762411,52.9165747 L172.765142,52.9179405 Z M172.239873,74.8092984 C180.359498,74.8092984 185.471117,71.2170966 185.471117,66.2824532 C185.471117,62.0192258 182.266819,60.2467347 176.443393,60.2681981 L172.628947,60.2681981 C170.000844,60.2467347 169.045916,59.6719043 169.045916,58.4744387 C169.005526,57.7745349 169.330794,57.1035093 169.90543,56.7019476 C170.830309,57.0082896 171.79714,57.170046 172.771386,57.1813631 C177.975689,57.1813631 182.082623,54.638334 182.082623,49.1811531 C182.099599,48.094712 181.319695,46.0242691 181.319695,46.0242691 L185.577264,46.0242691 L182.680088,40.951089 L176.383686,40.951089 C175.211196,40.5563565 173.979974,40.3637708 172.742703,40.3823074 C167.684547,40.3823074 163.051953,43.2277761 163.051953,48.869933 C163.059368,51.3003765 164.238882,53.5778442 166.219764,54.9864322 L166.219764,55.3134572 C166.219764,55.3134572 163.641613,57.9398035 163.511271,59.7636118 C163.467369,61.402249 164.306005,62.9380568 165.82952,63.7866437 L165.82952,63.9786441 C163.511271,65.2235244 162.317318,66.8038201 162.317318,68.7685067 C162.301708,72.988417 166.696058,74.8079325 172.237141,74.8079325 L172.239873,74.8092984 Z M139.49191,64.9511337 L146.51241,64.9511337 L146.51241,48.905055 C148.019535,47.4197839 149.107147,46.6061239 150.854467,46.6061239 C152.836325,46.6061239 153.731936,47.6588088 153.731936,51.1085713 L153.731936,64.9511337 L160.756339,64.9511337 L160.756339,49.9029105 C160.756339,44.1200705 158.617409,40.5764541 153.59457,40.5764541 C150.762174,40.7085519 148.100316,41.9674811 146.201385,44.073046 L146.015824,44.073046 L144.136991,40.7559666 L139.488007,40.7559666 L139.488007,64.9511337 L139.49191,64.9511337 Z M133.011312,38.3559622 C135.037267,38.1503032 136.512977,36.340934 136.307123,34.314979 C136.101464,32.289024 134.292095,30.813314 132.265945,31.019168 C130.390819,31.2096074 128.960963,32.7838542 128.951402,34.6687358 C128.967207,36.7284469 130.649747,38.3850354 132.709263,38.3692305 C132.80936,38.36845 132.909068,38.3633768 133.00858,38.3547914 L133.011312,38.3559622 Z M129.341647,64.9511337 L136.36605,64.9511337 L136.36605,40.7559666 L129.341647,40.7559666 L129.341647,64.9511337 Z M104.951357,64.9511337 L111.975761,64.9511337 L111.975761,48.905055 C113.482885,47.4197839 114.570497,46.6061239 116.316452,46.6061239 C118.298504,46.6061239 119.195286,47.6588088 119.195286,51.1085713 L119.195286,64.9511337 L126.21969,64.9511337 L126.21969,49.9029105 C126.21969,44.1200705 124.080759,40.5764541 119.059286,40.5764541 C116.226695,40.7085519 113.564251,41.9674811 111.664931,44.073046 L111.479174,44.073046 L109.612829,40.7559666 L104.951357,40.7559666 L104.951357,64.9511337 Z M88.1708383,64.9511337 L94.6098747,64.9511337 L94.6098747,51.7957921 C95.8730965,48.598713 98.3653938,46.9276855 100.169105,46.9276855 C101.057887,46.9265147 100.962862,46.9276855 100.962862,46.9276855 L104.336137,41.1922601 C103.425696,40.8367473 102.406377,40.6746006 101.427253,40.7159666 C98.9497852,40.7159666 96.3261705,42.2429938 94.5741673,45.4389022 L94.4147523,45.4389022 L94.4147523,40.7559666 L88.1708383,40.7559666 L88.1708383,64.9511337 Z M74.3505198,59.9407829 C72.6785167,59.9407829 71.6268074,59.2225376 71.6268074,57.6890714 C71.6268074,55.8683851 73.2519812,54.4315043 78.2196002,53.7614543 L78.2196002,57.9294621 C77.281257,59.1308302 75.8677909,59.866051 74.3454466,59.9448805 L74.3505198,59.9407829 Z M71.8353932,65.4730859 C74.4260322,65.3685003 76.8820367,64.2904495 78.7128694,62.4145436 L78.9048698,62.4145436 L80.3571652,64.9511337 L85.0488812,64.9511337 L85.0488812,51.2910107 C85.1146374,44.009241 81.7706312,40.5608443 75.7056443,40.5608443 C72.1073937,40.6466981 68.5614359,41.7241636 65.5366497,43.6748014 L68.0732398,48.1706146 C69.9294384,46.9064171 72.1269059,46.3122697 74.3680808,46.1657328 C76.1618403,45.9157811 77.8184287,47.1672957 78.0683804,48.9610551 C78.0986244,49.1776409 78.1070146,49.3967632 78.0935512,49.6151051 C68.7302167,50.5727654 64.7657215,53.3027217 64.7657215,58.2855603 C64.5674772,62.0527868 67.4605558,65.2672318 71.2277823,65.4656712 C71.428368,65.4762078 71.6295391,65.4777688 71.83032,65.4707444 L71.8353932,65.4730859 Z M48.90657,50.3169601 C49.3846196,47.2984179 51.2942817,45.8147078 53.4915541,45.8147078 C56.3104862,45.8147078 57.4574152,47.6826137 57.4574152,50.3169601 L48.9040334,50.3169601 L48.90657,50.3169601 Z M53.9653111,65.3956223 C56.969024,65.3365003 59.8905904,64.4042058 62.373717,62.7128856 L60.0328346,58.4496582 C58.5149781,59.4539527 56.7411211,60.0024415 54.9214104,60.0299538 C51.8494047,60.2816616 49.1280338,58.060194 48.7596429,54.9998956 L62.9469864,54.9998956 C63.145816,53.9745279 63.2416211,52.9319893 63.2330357,51.8873045 C63.2330357,45.41939 59.8890295,40.4857222 53.1539925,40.4857222 C47.4691039,40.4857222 41.9762156,45.2285603 41.9762156,52.9466235 C41.9699717,60.7942479 47.1832497,65.393476 53.9602379,65.393476 L53.9653111,65.3956223 Z M37.451134,65.3523052 C38.6554289,65.3958174 41.8072397,64.8098651 42.935632,64.3860595 L40.1256755,59.5556114 C39.8454799,59.6303433 39.5559184,59.6629287 39.2661617,59.652197 C38.6928924,59.652197 38.0244033,59.1727815 38.0244033,57.6879006 L38.0244033,31.1949732 L31,31.1949732 L31,57.4006806 C31,62.1876163 32.6232225,65.3499637 37.4460608,65.3499637 L37.451134,65.3523052 Z M170.223284,87.9755668 C170.701138,84.9570246 172.612361,83.4719487 174.806902,83.4719487 C177.629542,83.4719487 178.773934,85.3410253 178.773934,87.9755668 L170.223284,87.9755668 Z M176.261344,102.663984 C179.263691,102.602716 182.274233,101.670422 184.756384,99.980077 L182.326331,95.7166544 C180.80906,96.7223149 179.035008,97.2715842 177.214907,97.2983159 C174.142901,97.5494383 171.42153,95.328361 171.051968,92.2682578 L185.237946,92.2682578 C185.438337,91.24289 185.536288,90.2003515 185.530434,89.1556666 C185.530434,82.6877521 182.186428,77.7542795 175.447489,77.7542795 C169.761234,77.7542795 164.268541,82.4955566 164.268541,90.2085466 C164.263468,98.06261 169.470307,102.661838 176.256271,102.661838 L176.261344,102.663984 Z M160.183851,102.81579 C161.389121,102.859107 164.543273,102.27335 165.672446,101.849739 L162.860343,97.0190959 C162.579562,97.0930473 162.289415,97.1250473 161.999073,97.1145107 C161.425414,97.1145107 160.756339,96.636461 160.756339,95.1513851 L160.756339,69.8291916 L153.731924,69.8291916 L153.731936,94.8614333 C153.726863,99.6512959 155.346183,102.813448 160.179948,102.813448 L160.183851,102.81579 Z M140.139716,97.0378276 C138.731908,97.0366569 137.379125,96.4897291 136.36605,95.5119711 L136.36605,85.7874652 C137.335613,84.5051214 138.820689,83.7144857 140.42596,83.6259002 C143.244892,83.6259002 144.534065,85.7874652 144.534065,90.0444487 C144.528992,94.9283603 142.57094,97.035291 140.134838,97.035291 L140.139716,97.0378276 Z M129.344183,111 L136.170928,111 L136.170928,100.205638 C137.65054,101.734032 139.641373,102.62574 141.767621,102.691692 C146.866557,102.691692 151.727054,98.0087563 151.727054,89.8811314 C151.727054,82.5687275 148.200804,77.8387675 142.482939,77.8387675 C139.961959,77.9616945 137.572101,78.9987696 135.760585,80.7560412 L135.570146,80.7560412 L134.224388,78.4145734 L129.341647,78.4145734 L129.341647,110.997463 L129.344183,111 Z M116.27372,97.0834863 C113.360739,97.0834863 111.927761,94.4489448 111.927761,90.3293273 C111.927761,86.2097099 113.360739,83.5749733 116.27372,83.5749733 C119.141042,83.5749733 120.621045,86.2097099 120.621045,90.3293273 C120.621045,94.4489448 119.142213,97.0836814 116.275086,97.0836814 L116.27372,97.0834863 Z M116.27372,102.78496 C122.249731,102.78496 127.787107,98.2341225 127.787107,90.3242541 C127.787107,82.4141906 122.244658,77.869987 116.27372,77.869987 C110.255757,77.869987 104.714674,82.4206297 104.714674,90.3242541 C104.714674,98.2278786 110.256928,102.78496 116.275086,102.78496 L116.27372,102.78496 Z M88.5967903,87.9755668 C89.0748399,84.9570246 90.9846972,83.4719487 93.1831403,83.4719487 C96.0007065,83.4719487 97.1474404,85.3410253 97.1474404,87.9755668 L88.5967903,87.9755668 Z M93.8518245,102.859107 C96.8553423,102.799985 99.7372988,101.867105 102.219645,100.175199 L99.8781772,95.9117768 C98.3607109,96.9170469 96.626854,97.465926 94.8067531,97.4934382 C91.7349425,97.7445607 89.0139618,95.5232882 88.6449855,92.4633801 L102.830963,92.4633801 C103.031159,91.4382074 103.127354,90.3954738 103.118573,89.3507889 C103.118573,82.8828744 99.7743721,77.9494018 93.0393351,77.9494018 C87.3544465,77.9494018 81.8615582,82.6906789 81.8615582,90.4036689 C81.8615582,98.2602689 87.0683972,102.859302 93.8518245,102.859302 L93.8518245,102.859107 Z M68.529826,97.035291 C67.1220185,97.0341203 65.7692355,96.4871925 64.7561605,95.5092394 L64.7561605,85.7851237 C65.726894,84.5033653 67.2119699,83.7129248 68.8172412,83.6233636 C71.6350026,83.6233636 72.9255416,85.7851237 72.9255416,90.0419122 C72.9255416,94.9283603 70.9661233,97.035291 68.529826,97.035291 Z M57.7329279,111 L64.5610382,111 L64.5610382,100.205638 C66.0406507,101.734032 68.0465081,102.62574 70.1727559,102.691692 C75.2716923,102.691692 80.1321891,98.0087563 80.1321891,89.8811314 C80.1321891,82.5687275 76.6059387,77.8387675 70.8880743,77.8387675 C68.3668989,77.9613043 65.9770408,78.9983794 64.1655252,80.7560412 L63.975281,80.7560412 L62.6144979,78.4145734 L57.7317571,78.4145734 L57.7317571,111 L57.7329279,111 Z"></path>
            </g>
        </g>
    </g>
</svg>
