<svg xmlns="http://www.w3.org/2000/svg" viewBox="0 0 1100 800">
  <path d="M781,489v70a2,2,0,0,1-2,2H641l-39,39H523a2,2,0,0,1-2-2V567" style="fill:none;stroke:#396999"/>
  <path d="M675,356l46-45a5,5,0,0,0,1-3V297a5,5,0,0,0-1-3l-43-43a2,2,0,0,1,0-3h0l83-82h52L953,23" style="fill:none;stroke:#69a2d1"/>
  <path d="M938-107V159a4,4,0,0,0,4,4h55a2,2,0,0,1,2,2V312a5,5,0,0,1-1,3l-48,47a5,5,0,0,0-1,3,6,6,0,0,0,1,5l54,53h2v72a2,2,0,0,1-2,2H915l-2,2H901" style="fill:none;stroke:#C9995D"/>
  <path d="M8,128V519a4,4,0,0,0,4,4H141" style="fill:none;stroke:#2c5587"/>
  <path d="M894,374l50-49h99l27,27" style="fill:none;stroke:#2c5587"/>
  <path d="M774,214l50-49h99l27,27" style="fill:none;stroke:#C9995D"/>
  <path d="M755,214h74l92-91h80L930,48a5,5,0,0,1-1-3V17" style="fill:none;stroke:#2c5587"/>
  <path d="M649-308l11,11a5,5,0,0,1,1,3v33L544-145,458-60a5,5,0,0,0-1,3V44a2,2,0,0,0,2,2h50a2,2,0,0,1,2,2V75a2,2,0,0,0,2,2H849a2,2,0,0,1,2,2v37l-43,44H772" style="fill:none;stroke:#C9995D"/>
  <path d="M396,257v18a5,5,0,0,1-1,3L213,458H101a2,2,0,0,0-2,2v23a2,2,0,0,1-2,2H13a2,2,0,0,0-2,2v46a2,2,0,0,0,2,2H43a2,2,0,0,1,2,2v51a5,5,0,0,0,1,3l10,10H173m310,54H631" style="fill:none;stroke:#2c5587"/>
  <path d="M441,246l-32,31H340l-3,4H69L22,235H-39V199a5,5,0,0,0-1-3l-67-66" style="fill:none;stroke:#2c5587"/>
  <path d="M955,182h11l46,46a5,5,0,0,1,1,3v14c0,1,0,2,1,2s1,1,1,2V372a2,2,0,0,1-2,2H875l-12-12H813a2,2,0,0,0-2,2v27a5,5,0,0,1-1,3l-9,9H767l-48,48H617L471,599H281" style="fill:none;stroke:#69a2d1"/>
  <path d="M120-122L265,23H418l32,32a5,5,0,0,1,1,3V253a5,5,0,0,1-1,3l-8,8H418l-21,21-3,3L264,419a5,5,0,0,0-1,3V600" style="fill:none;stroke:#2c5587"/>
  <path d="M750,601h98l15,15h80l59,59h106a2,2,0,0,0,2-2V663a2,2,0,0,0-2-2h-47a2,2,0,0,1-2-2V602a5,5,0,0,0-1-3l-15-14a5,5,0,0,1-1-3V564a5,5,0,0,0-1-3l-12-12h-25l-42-41H917" style="fill:none;stroke:#C9995D"/>
  <path d="M855,194h60a2,2,0,0,1,2,2v29a5,5,0,0,0,1,3l51,51a5,5,0,0,1,1,3V384l105,104" style="fill:none;stroke:#2c5587"/>
  <path d="M638,306l13-12a2,2,0,0,0,0-3h0l-31-31a2,2,0,0,1,0-3h0l19-18h587a2,2,0,0,1,2,2v71" style="fill:none;stroke:#194366"/>
  <path d="M525,223H503l-75-74H382l-47-47H299l-57,72a5,5,0,0,0-1,3v24" style="fill:none;stroke:#69a2d1"/>
  <path d="M871,203l-47,47H723l-31-30H650l-30,29h-3l-15-14H439l-28,28H-123l-12,12" style="fill:none;stroke:#2c5587"/>
  <path d="M585,527l60-59h31l47-46H912a2,2,0,0,0,2-2V303a5,5,0,0,0-1-3l-39-38a5,5,0,0,1-1-3V206a5,5,0,0,0-1-3L761,93H577" style="fill:none;stroke:#2c5587"/>
  <path d="M222,158H182l-69,69a2,2,0,0,0,0,3h0l28,28h66" style="fill:none;stroke:#C9995D"/>
  <path d="M351,559v-5a2,2,0,0,0-2-2H332l-43-43a5,5,0,0,1-1-3V314a5,5,0,0,1,1-3l21-21a5,5,0,0,0,1-3V191a5,5,0,0,0-1-3L122,2V-39a5,5,0,0,0-1-3L109-54" style="fill:none;stroke:#2c5587"/>
  <path d="M522,555H624L799,381h53l51-51a5,5,0,0,0,1-3V121a5,5,0,0,0-1-3L851,67H831a2,2,0,0,1-2-2V19a2,2,0,0,0-2-2H738a2,2,0,0,1-2-2V-4a5,5,0,0,0-1-3L556-185" style="fill:none;stroke:#69a2d1"/>
  <path d="M483,85H403l-92,91H172l-52,51a2,2,0,0,0,0,3h0l21,21a5,5,0,0,1,1,3v16" style="fill:none;stroke:#2c5587"/>
  <path d="M673,438h58l49,49h52l83-83h49l101,100" style="fill:none;stroke:#69a2d1"/>
  <path d="M673,434h59l49,49h49l62-62a5,5,0,0,0,1-3V151a5,5,0,0,0-1-3L791,49H419L260,206H124L87,246a5,5,0,0,0-1,3V434" style="fill:none;stroke:#194366"/>
  <path d="M112,373l18,17h49l26-26H328" style="fill:none;stroke:#C9995D"/>
  <path d="M248,515c1-1,1-1-1-1H49a2,2,0,0,1-2-2V352a2,2,0,0,1,2-2H317l24-24a2,2,0,0,0,0-3h0l-81-80c-1-1-1-1,1-1H401l54-53h95l56-55a5,5,0,0,0,1-3V18a2,2,0,0,1,2-2h32l43-43h13l53-53h20l62,62h81l94,94" style="fill:none;stroke:#2c5587"/>
  <path d="M648,539V506a5,5,0,0,0-1-3l-31-31H571l-74,74H441a2,2,0,0,1-2-2h0V473a2,2,0,0,0-2-2H6l-38,38H-96l-13,13h-17" style="fill:none;stroke:#194366"/>
  <path d="M172,129H393a2,2,0,0,1,2,2v72a2,2,0,0,0,2,2h50l74-74H720l44-43h17l63,62h81l94,93h12l104-89h3l6,6" style="fill:none;stroke:#2c5587"/>
  <path d="M698,527v33a5,5,0,0,1-1,3l-87,87c-1,1-1,1,1,1h71" style="fill:none;stroke:#2c5587"/>
  <path d="M207,110V91a5,5,0,0,0-1-3L175,57H6" style="fill:none;stroke:#C9995D"/>
  <path d="M923,373V119a5,5,0,0,0-1-3L757-48H348L311-10" style="fill:none;stroke:#2c5587"/>
  <path d="M564-226l-13,13v24a5,5,0,0,0,1,3L740,3a5,5,0,0,1,1,3V24a2,2,0,0,0,2,2h88a2,2,0,0,1,2,2V63a2,2,0,0,0,2,2h27l46,46a5,5,0,0,1,1,3V339a5,5,0,0,1-1,3l-54,53H802L628,571H359a2,2,0,0,0-2,2v93a2,2,0,0,1-2,2H131" style="fill:none;stroke:#2c5587"/>
  <path d="M770,653l63-63H965l28-28a5,5,0,0,0,1-3V518a2,2,0,0,1,2-2h53a2,2,0,0,0,2-2V462a5,5,0,0,1,1-3l30-29a5,5,0,0,0,1-3V350a2,2,0,0,1,2-2h38a4,4,0,0,0,4-4V315a5,5,0,0,1,1-3l35-35" style="fill:none;stroke:#396999"/>
  <path d="M976,507l-46,45H698l-82-81H464l-17,17" style="fill:none;stroke:#2c5587"/>
  <path d="M289,640H242a2,2,0,0,0-2,2v27a2,2,0,0,1-2,2H148" style="fill:none;stroke:#194366"/>
  <path d="M-55,225l10,10H109L224,351a2,2,0,0,1,0,3h0l-37,37a2,2,0,0,0,0,3h0l50,49H382l37,37h25" style="fill:none;stroke:#2c5587"/>
  <path d="M-216,225H1a2,2,0,0,0,2-2V123a2,2,0,0,1,2-2H274l20-20a2,2,0,0,0,0-3h0L215,20a5,5,0,0,1-1-3V15a2,2,0,0,1,2-2H359l54-53h3a2,2,0,0,0,1-2v-7" style="fill:none;stroke:#C9995D"/>
  <path d="M128,17l73,73a5,5,0,0,1,1,3v45a5,5,0,0,0,1,3l12,12h17l6-6h93l63-63H559a2,2,0,0,1,2,2V261a5,5,0,0,1-1,3l-11,11H339a2,2,0,0,1-2-2h0V202a2,2,0,0,0-2-2H247a2,2,0,0,1-2-2V166a2,2,0,0,0-2-2h-4l-7-7" style="fill:none;stroke:#2c5587"/>
  <path d="M644-323v211a5,5,0,0,0,1,3l47,46a5,5,0,0,1,1,3v36h-5L670-6a5,5,0,0,0-1,3V120l47,47a5,5,0,0,1,1,3v30a5,5,0,0,1-1,3l-5,5H594a2,2,0,0,0-2,2v36a2,2,0,0,1-2,2H493l-20,19H407" style="fill:none;stroke:#194366"/>
  <path d="M251,555v84a2,2,0,0,1-2,2H192a2,2,0,0,0-2,2v10a2,2,0,0,1-2,2H81" style="fill:none;stroke:#2c5587"/>
  <path d="M13,284L126,397h43L375,604h99l16,16H628" style="fill:none;stroke:#C9995D"/>
  <path d="M276,590l24-24H429l34,34h58" style="fill:none;stroke:#2c5587"/>
  <path d="M633,279l-21-21a5,5,0,0,1-1-3V-79" style="fill:none;stroke:#2c5587"/>
  <path d="M894,92v20a2,2,0,0,1-2,2H795l-50,50a5,5,0,0,0-1,3v56a5,5,0,0,0,1,3l11,11a5,5,0,0,1,1,3V364a2,2,0,0,1-2,2H566l-21-21-16,15H419l-62,61H280l-68,72H171l-62,61a5,5,0,0,0-1,3v98a2,2,0,0,1-2,2H72L24,705" style="fill:none;stroke:#2c5587"/>
  <path d="M185,422v34a5,5,0,0,1-1,3l-56,56H-35" style="fill:none;stroke:#2c5587"/>
  <path d="M980,417l-15-15H912l-14,14c-1,1-1,1-1-1V381a5,5,0,0,0-1-3l-2-2" style="fill:none;stroke:#2c5587"/>
  <path d="M827,238v54a5,5,0,0,0,1,3l86,86h105l23-23h110a2,2,0,0,0,2-2V260a2,2,0,0,1,2-2h39a2,2,0,0,1,2,2v48" style="fill:none;stroke:#2c5587"/>
  <path d="M198,301h-9l-18-18H148L92,228H73" style="fill:none;stroke:#C9995D"/>
  <path d="M959,126l19,19h181a2,2,0,0,1,2,2V249a3,3,0,0,0,3,3h36a2,2,0,0,1,2,2v55" style="fill:none;stroke:#2c5587"/>
  <path d="M3,609H245a2,2,0,0,0,2-2V483a2,2,0,0,0-2-2H215a2,2,0,0,1-2-2h0V452a2,2,0,0,0-2-2H190" style="fill:none;stroke:#2c5587"/>
  <path d="M650,590h13l48-48h31l23,23H880a2,2,0,0,0,2-2V509a5,5,0,0,0-1-3l-20-20-3-3H842a2,2,0,0,1-2-2V405a2,2,0,0,1,2-2h77" style="fill:none;stroke:#2c5587"/>
  <path d="M-65,212V323a5,5,0,0,0,1,3l49,49H14L127,490H301a2,2,0,0,1,2,2v60" style="fill:none;stroke:#2c5587"/>
</svg>
