<svg xmlns="http://www.w3.org/2000/svg" viewBox="0 0 1100 800">
  <path d="M781,489v70a2,2,0,0,1-2,2H641l-39,39H523a2,2,0,0,1-2-2V567" style="fill:none;stroke:#396999"/>
  <path d="M675,356l46-45a5,5,0,0,0,1-3V297a5,5,0,0,0-1-3l-43-43a2,2,0,0,1,0-3h0l83-82h52L953,23" style="fill:none;stroke:#69a2d1"/>
  <path d="M507-77V189a4,4,0,0,0,4,4h55a2,2,0,0,1,2,2V342a5,5,0,0,1-1,3l-48,47a5,5,0,0,0-1,3,6,6,0,0,0,1,5l54,53h2s1,1,1,2v70a2,2,0,0,1-2,2H484l-2,2H470" style="fill:none;stroke:#edb567"/>
  <path d="M8,128V519a4,4,0,0,0,4,4H141" style="fill:none;stroke:#2c5587"/>
  <path d="M894,374l50-49h99l27,27" style="fill:none;stroke:#2c5587"/>
  <path d="M894,374l50-49h99l27,27" style="fill:none;stroke:#edb567"/>
  <path d="M755,214h74l92-91h80L930,48a5,5,0,0,1-1-3V17" style="fill:none;stroke:#2c5587"/>
  <path d="M262-52l11,11a5,5,0,0,1,1,3V-5L157,111,71,196a5,5,0,0,0-1,3V300a2,2,0,0,0,2,2h50a2,2,0,0,1,2,2v27a2,2,0,0,0,2,2H462a2,2,0,0,1,2,2v37l-43,44H385" style="fill:none;stroke:#edb567"/>
  <path d="M565,550v18a5,5,0,0,1-1,3L382,751H270a2,2,0,0,0-2,2v23a2,2,0,0,1-2,2H182a2,2,0,0,0-2,2v46a2,2,0,0,0,2,2h30a2,2,0,0,1,2,2v51a5,5,0,0,0,1,3l10,10H341c1,0,1,1,1,1M483,656H631" style="fill:none;stroke:#2c5587"/>
  <path d="M441,246l-32,31H340l-3,4H69L22,235H-39V199a5,5,0,0,0-1-3l-67-66" style="fill:none;stroke:#2c5587"/>
  <path d="M705,222h11l46,46a5,5,0,0,1,1,3v14c0,1,0,2,1,2s1,1,1,2V412a2,2,0,0,1-2,2H625l-12-12H563a2,2,0,0,0-2,2v27a5,5,0,0,1-1,3l-9,9H517l-48,48H367L221,639H31" style="fill:none;stroke:#69a2d1"/>
  <path d="M145,99L290,244H443l32,32a5,5,0,0,1,1,3V474a5,5,0,0,1-1,3l-8,8H443l-21,21-3,3L289,640a5,5,0,0,0-1,3V821" style="fill:none;stroke:#2c5587"/>
  <path d="M319,381h98l15,15h80l59,59H677a2,2,0,0,0,2-2V443a2,2,0,0,0-2-2H630a2,2,0,0,1-2-2V382a5,5,0,0,0-1-3l-15-14a5,5,0,0,1-1-3V344a5,5,0,0,0-1-3l-12-12H573l-42-41H486" style="fill:none;stroke:#edb567"/>
  <path d="M855,194h60a2,2,0,0,1,2,2v29a5,5,0,0,0,1,3l51,51a5,5,0,0,1,1,3V384l105,104" style="fill:none;stroke:#2c5587"/>
  <path d="M638,306l13-12a2,2,0,0,0,0-3l-31-31a2,2,0,0,1,0-3l19-18h587a2,2,0,0,1,2,2v71" style="fill:none;stroke:#194366"/>
  <path d="M439,486H417l-75-74H296l-47-47H213l-57,72a5,5,0,0,0-1,3v24" style="fill:none;stroke:#69a2d1"/>
  <path d="M882,359l-47,47H734l-31-30H661l-30,29h-3l-15-14H450l-28,28H-112l-12,12" style="fill:none;stroke:#2c5587"/>
  <path d="M293,644l60-59h31l47-46H620a2,2,0,0,0,2-2V420a5,5,0,0,0-1-3l-39-38a5,5,0,0,1-1-3V323a5,5,0,0,0-1-3L469,210H285" style="fill:none;stroke:#2c5587"/>
  <path d="M484,549H444l-69,69a2,2,0,0,0,0,3l28,28h66" style="fill:none;stroke:#edb567"/>
  <path d="M521,562v-5a2,2,0,0,0-2-2H502l-43-43a5,5,0,0,1-1-3V317a5,5,0,0,1,1-3l21-21a5,5,0,0,0,1-3V194a5,5,0,0,0-1-3L292,5V-36a5,5,0,0,0-1-3L279-51" style="fill:none;stroke:#2c5587"/>
  <path d="M276,745H378L553,571h53l51-51a5,5,0,0,0,1-3V311a5,5,0,0,0-1-3l-52-51H585a2,2,0,0,1-2-2V209a2,2,0,0,0-2-2H492a2,2,0,0,1-2-2V186a5,5,0,0,0-1-3L310,5" style="fill:none;stroke:#69a2d1"/>
  <path d="M1003,124H923l-92,91H692l-52,51a2,2,0,0,0,0,3l21,21a5,5,0,0,1,1,3v16" style="fill:none;stroke:#2c5587"/>
  <path d="M673,438h58l49,49h52l83-83h49l101,100" style="fill:none;stroke:#69a2d1"/>
  <path d="M673,434h59l49,49h49l62-62a5,5,0,0,0,1-3V151a5,5,0,0,0-1-3L791,49H419L260,206H124L87,246a5,5,0,0,0-1,3V434" style="fill:none;stroke:#194366"/>
  <path d="M410,714l18,17h49l26-26H626" style="fill:none;stroke:#edb567"/>
  <path d="M307,907c1-1,1-1-1-1H108a2,2,0,0,1-2-2V744a2,2,0,0,1,2-2H376l24-24a2,2,0,0,0,0-3l-81-80c-1-1-1-1,1-1H460l54-53h95l56-55a5,5,0,0,0,1-3V410a2,2,0,0,1,2-2h32l43-43h13l53-53h20l62,62h81l94,94" style="fill:none;stroke:#2c5587"/>
  <path d="M648,429V396a5,5,0,0,0-1-3l-31-31H571l-74,74H441a2,2,0,0,1-2-2h0V363a2,2,0,0,0-2-2H6l-38,38H-96l-13,13h-17" style="fill:none;stroke:#194366"/>
  <path d="M220,357H441a2,2,0,0,1,2,2v72a2,2,0,0,0,2,2h50l74-74H768l44-43h17l63,62h81l94,93h12l104-89h3l6,6" style="fill:none;stroke:#2c5587"/>
  <path d="M600,564l4-2,48-48a6,6,0,0,0,2-4V314a7,7,0,0,0-2-4l-48-48-4-2H502l-4,2-48,48a6,6,0,0,0-2,4V511a6,6,0,0,0,2,4l48,48,4,2h98Z" style="fill:none;stroke:#2c5587"/>
  <path d="M648,527v33a5,5,0,0,1-1,3l-87,87c-1,1-1,1,1,1h71" style="fill:none;stroke:#2c5587"/>
  <path d="M476,273V254a5,5,0,0,0-1-3l-31-31H275" style="fill:none;stroke:#edb567"/>
  <path d="M923,373V119a5,5,0,0,0-1-3L757-48H348L311-10" style="fill:none;stroke:#2c5587"/>
  <path d="M317-50L304-37a6,6,0,0,0-1,3v21a5,5,0,0,0,1,3L493,179a5,5,0,0,1,1,3v18a2,2,0,0,0,2,2h88a2,2,0,0,1,2,2v35a2,2,0,0,0,2,2h27l46,46a5,5,0,0,1,1,3V515a5,5,0,0,1-1,3l-54,53H555L381,747H112a2,2,0,0,0-2,2v93a2,2,0,0,1-2,2H-116" style="fill:none;stroke:#2c5587"/>
  <path d="M415,613l63-63H610l28-28a5,5,0,0,0,1-3V478a2,2,0,0,1,2-2h53a2,2,0,0,0,2-2V422a5,5,0,0,1,1-3l30-29a5,5,0,0,0,1-3V310a2,2,0,0,1,2-2h38a4,4,0,0,0,4-4V275a5,5,0,0,1,1-3l35-35" style="fill:none;stroke:#396999"/>
  <path d="M893,375l-46,45H615l-82-81H381l-17,17" style="fill:none;stroke:#2c5587"/>
  <path d="M289,640H242a2,2,0,0,0-2,2v27a2,2,0,0,1-2,2H148" style="fill:none;stroke:#194366"/>
  <path d="M281,230l10,10H445L560,356a2,2,0,0,1,0,3l-37,37a2,2,0,0,0,0,3h0l50,49H718l37,37h25" style="fill:none;stroke:#2c5587"/>
  <path d="M-116,842H101a2,2,0,0,0,2-2V740a2,2,0,0,1,2-2H374l20-20a2,2,0,0,0,0-3l-79-78a5,5,0,0,1-1-3v-2a2,2,0,0,1,2-2H459l54-53h3a2,2,0,0,0,1-2v-7" style="fill:none;stroke:#edb567"/>
  <path d="M318,258l73,73a5,5,0,0,1,1,3v45a5,5,0,0,0,1,3l12,12h17l6-6h93l63-63H749a2,2,0,0,1,2,2V502a5,5,0,0,1-1,3l-11,11H529a2,2,0,0,1-2-2h0V443a2,2,0,0,0-2-2H437a2,2,0,0,1-2-2V407a2,2,0,0,0-2-2h-4l-7-7" style="fill:none;stroke:#2c5587"/>
  <path d="M650-78V133a5,5,0,0,0,1,3l47,46a5,5,0,0,1,1,3v36h-5l-18,18a5,5,0,0,0-1,3V362a6,6,0,0,0,1,3l47,47a5,5,0,0,1,1,3v30a5,5,0,0,1-1,3l-5,5H600a2,2,0,0,0-2,2v36a2,2,0,0,1-2,2H499l-20,19H413" style="fill:none;stroke:#194366"/>
  <path d="M281,745v84a2,2,0,0,1-2,2H222a2,2,0,0,0-2,2v10a2,2,0,0,1-2,2H111" style="fill:none;stroke:#2c5587"/>
  <path d="M11,362L124,475h43L373,682h99l16,16H626" style="fill:none;stroke:#edb567"/>
  <path d="M276,590l24-24H429l34,34h58" style="fill:none;stroke:#2c5587"/>
  <path d="M633,279l-21-21a5,5,0,0,1-1-3V-79" style="fill:none;stroke:#2c5587"/>
  <path d="M754,192v20a2,2,0,0,1-2,2H655l-50,50a5,5,0,0,0-1,3v56a5,5,0,0,0,1,3l11,11a5,5,0,0,1,1,3V464a2,2,0,0,1-2,2H426l-21-21-16,15H279l-62,61H140L72,593H31l-62,61a5,5,0,0,0-1,3v98a2,2,0,0,1-2,2H-68l-48,48" style="fill:none;stroke:#2c5587"/>
  <path d="M185,422v34a5,5,0,0,1-1,3l-56,56H-35" style="fill:none;stroke:#2c5587"/>
  <path d="M980,417l-15-15H912l-14,14c-1,1-1,1-1-1V381a5,5,0,0,0-1-3l-2-2" style="fill:none;stroke:#2c5587"/>
  <path d="M827,238v54a5,5,0,0,0,1,3l86,86h105l23-23h110a2,2,0,0,0,2-2V260a2,2,0,0,1,2-2h39a2,2,0,0,1,2,2v48" style="fill:none;stroke:#2c5587"/>
  <path d="M13,361H4l-18-18H-37l-56-55h-19" style="fill:none;stroke:#edb567"/>
  <path d="M959,126l19,19h181a2,2,0,0,1,2,2V249a3,3,0,0,0,3,3h36a2,2,0,0,1,2,2v55" style="fill:none;stroke:#2c5587"/>
  <path d="M33,799H275a2,2,0,0,0,2-2V673a2,2,0,0,0-2-2H245a2,2,0,0,1-2-2h0V642a2,2,0,0,0-2-2H220" style="fill:none;stroke:#2c5587"/>
  <path d="M458,496h13l48-48h31l23,23H688a2,2,0,0,0,2-2V415a5,5,0,0,0-1-3l-20-20-3-3H650a2,2,0,0,1-2-2V311a2,2,0,0,1,2-2h77" style="fill:none;stroke:#2c5587"/>
  <path d="M-35,402V513a5,5,0,0,0,1,3l49,49H44L157,680H331a2,2,0,0,1,2,2v60" style="fill:none;stroke:#2c5587"/>

  <!--
  <rect width="2" height="2" x="-1" y="-1" />
  <rect width="2" height="2" x="-1" y="-1" />
  <rect width="2" height="2" x="-1" y="-1" />
  <rect width="2" height="2" x="-1" y="-1" />
  <rect width="2" height="2" x="-1" y="-1" />
  <rect width="2" height="2" x="-1" y="-1" />
  <rect width="2" height="2" x="-1" y="-1" />
  -->
</svg>
