<svg data-name="Layer 1" xmlns="http://www.w3.org/2000/svg" viewBox="0 0 40.91 30.9"><defs><style>.cls-1,.cls-3{fill:#2a2d58;}.cls-1{stroke:#2a2d58;stroke-miterlimit:10;stroke-width:0.25px;}.cls-2{fill:none;stroke:#f1b860;stroke-linecap:round;stroke-linejoin:round;}.cls-4{fill:#f1b860;}</style></defs><title>network_engineer</title><path class="cls-1" d="M30.92,43h-1.5a.16.16,0,0,1-.15-.16V33a1.81,1.81,0,0,0-1.81-1.81H13.25A1.81,1.81,0,0,0,11.44,33v9.91a.16.16,0,0,1-.16.16H10a.49.49,0,0,0-.48.56A1.64,1.64,0,0,0,11.1,45H29.61a1.64,1.64,0,0,0,1.64-1.65.33.33,0,0,0-.33-.33ZM12.1,33a1.15,1.15,0,0,1,1.15-1.15H27.46A1.15,1.15,0,0,1,28.61,33v9.91a.16.16,0,0,1-.16.16H12.26a.16.16,0,0,1-.16-.16ZM29.61,44.34H11.1a1,1,0,0,1-.79-.41.16.16,0,0,1,.13-.25H30.27a.16.16,0,0,1,.13.25,1,1,0,0,1-.79.41Z" transform="translate(-9.35 -14.23)"/><path class="cls-1" d="M27.19,32.72H13.53a.47.47,0,0,0-.47.47v8.58a.47.47,0,0,0,.47.47H27.19a.47.47,0,0,0,.47-.47V33.19A.47.47,0,0,0,27.19,32.72Zm-.32,8.89h-13a.15.15,0,0,1-.15-.16V33.51a.14.14,0,0,1,.15-.15h13a.14.14,0,0,1,.15.15v7.94A.15.15,0,0,1,26.87,41.61Z" transform="translate(-9.35 -14.23)"/><line class="cls-2" x1="12.97" y1="23.86" x2="15.43" y2="21.4"/><line class="cls-2" x1="12.11" y1="23.01" x2="13.79" y2="21.33"/><path class="cls-3" d="M42.45,14.23A7.82,7.82,0,1,0,48,16.52a7.82,7.82,0,0,0-5.52-2.29ZM35.7,22.56h2.67a16.34,16.34,0,0,0,.39,3.12h-2a6.82,6.82,0,0,1-1-3.12ZM43,17.35V15.3a6.53,6.53,0,0,1,1.16.19,16.22,16.22,0,0,1,.72,1.86Zm2.17,1a16.48,16.48,0,0,1,.42,3.13H43V18.39Zm-3.21-1H40.12a15.54,15.54,0,0,1,.72-1.86h0a7.06,7.06,0,0,1,1.12-.18Zm0,1v3.13H39.41a16.48,16.48,0,0,1,.42-3.13Zm-3.56,3.13H35.7a6.86,6.86,0,0,1,1-3.13h2a16.54,16.54,0,0,0-.39,3.13Zm1,1h2.52v3.12h-2.1a16.38,16.38,0,0,1-.42-3.12Zm2.52,4.16v2.06a7.06,7.06,0,0,1-1.12-.18h0a15.68,15.68,0,0,1-.72-1.87Zm1,0h1.88a15.68,15.68,0,0,1-.72,1.87,7.58,7.58,0,0,1-1.16.19Zm0-1V22.56h2.59a16.38,16.38,0,0,1-.42,3.12Zm3.63-3.12h2.59a6.82,6.82,0,0,1-1,3.12H46.21A16.34,16.34,0,0,0,46.6,22.56Zm0-1a16.54,16.54,0,0,0-.39-3.13h1.93a6.86,6.86,0,0,1,1,3.13Zm.72-4.17H45.93c-.13-.45-.28-.91-.46-1.36a6.91,6.91,0,0,1,1.85,1.36ZM39.51,16c-.18.46-.34.93-.48,1.4H37.58A6.68,6.68,0,0,1,39.51,16ZM37.57,26.72H39q.21.72.48,1.41A6.76,6.76,0,0,1,37.57,26.72Zm7.9,1.36a12.79,12.79,0,0,0,.46-1.36h1.39a6.61,6.61,0,0,1-1.84,1.36Z" transform="translate(-9.35 -14.23)"/><path class="cls-4" d="M31.31,17.08h0a.62.62,0,0,1,.62.62h0a.62.62,0,0,1-.62.62h0a.62.62,0,0,1-.62-.62h0A.62.62,0,0,1,31.31,17.08Z" transform="translate(-9.35 -14.23)"/><path class="cls-4" d="M28.84,17.08h0a.62.62,0,0,1,.62.62h0a.62.62,0,0,1-.62.62h0a.62.62,0,0,1-.62-.62h0A.61.61,0,0,1,28.84,17.08Z" transform="translate(-9.35 -14.23)"/><path class="cls-4" d="M26.36,17.08h0a.62.62,0,0,1,.62.62h0a.62.62,0,0,1-.62.62h0a.62.62,0,0,1-.62-.62h0A.62.62,0,0,1,26.36,17.08Z" transform="translate(-9.35 -14.23)"/><path class="cls-4" d="M23.89,17.08h0a.62.62,0,0,1,.62.62h0a.62.62,0,0,1-.62.62h0a.62.62,0,0,1-.62-.62h0A.62.62,0,0,1,23.89,17.08Z" transform="translate(-9.35 -14.23)"/><path class="cls-4" d="M23.89,25.74h0a.62.62,0,0,1,.62.62h0a.62.62,0,0,1-.62.62h0a.62.62,0,0,1-.62-.62h0A.62.62,0,0,1,23.89,25.74Z" transform="translate(-9.35 -14.23)"/><path class="cls-4" d="M23.89,28.21h0a.62.62,0,0,1,.62.62h0a.62.62,0,0,1-.62.62h0a.62.62,0,0,1-.62-.62h0A.62.62,0,0,1,23.89,28.21Z" transform="translate(-9.35 -14.23)"/><path class="cls-4" d="M33.13,40h0a.62.62,0,0,1,.62.62h0a.62.62,0,0,1-.62.62h0a.62.62,0,0,1-.62-.62h0A.62.62,0,0,1,33.13,40Z" transform="translate(-9.35 -14.23)"/><path class="cls-1" d="M26.36,22a2.47,2.47,0,1,0-2.47,2.47A2.46,2.46,0,0,0,26.36,22Zm-2.47,1.23A1.24,1.24,0,1,1,25.12,22a1.24,1.24,0,0,1-.36.87,1.23,1.23,0,0,1-.87.36Z" transform="translate(-9.35 -14.23)"/><path class="cls-1" d="M42.41,40.6a2.47,2.47,0,1,0-2.47,2.47,2.46,2.46,0,0,0,2.47-2.47Zm-3.71,0a1.23,1.23,0,0,1,2.11-.88,1.24,1.24,0,1,1-2.11.88Z" transform="translate(-9.35 -14.23)"/><path class="cls-4" d="M35.61,40h0a.62.62,0,0,1,.62.62h0a.62.62,0,0,1-.62.62h0A.62.62,0,0,1,35,40.6h0A.62.62,0,0,1,35.61,40Z" transform="translate(-9.35 -14.23)"/><path class="cls-4" d="M44.27,40h0a.62.62,0,0,1,.62.62h0a.62.62,0,0,1-.62.62h0a.62.62,0,0,1-.62-.62h0A.62.62,0,0,1,44.27,40Z" transform="translate(-9.35 -14.23)"/><path class="cls-4" d="M44.27,37.5h0a.62.62,0,0,1,.62.62h0a.62.62,0,0,1-.62.62h0a.62.62,0,0,1-.62-.62h0A.62.62,0,0,1,44.27,37.5Z" transform="translate(-9.35 -14.23)"/><path class="cls-4" d="M44.27,35h0a.62.62,0,0,1,.62.62h0a.62.62,0,0,1-.62.62h0a.62.62,0,0,1-.62-.62h0A.62.62,0,0,1,44.27,35Z" transform="translate(-9.35 -14.23)"/><path class="cls-4" d="M44.27,32.56h0a.61.61,0,0,1,.62.61h0a.62.62,0,0,1-.62.62h0a.62.62,0,0,1-.62-.62h0A.61.61,0,0,1,44.27,32.56Z" transform="translate(-9.35 -14.23)"/></svg>
