<svg width="26px" height="24px" viewBox="0 0 26 24" version="1.1" xmlns="http://www.w3.org/2000/svg" xmlns:xlink="http://www.w3.org/1999/xlink">
    <g stroke="none" fill="none" fill-rule="evenodd">
        <g transform="translate(-1584.000000, -18.000000)" fill="#2A2D58" fill-rule="nonzero">
            <g>
                <path d="M1585.18194,18.0007567 C1584.56785,18.0032183 1583.95204,18.584369 1584.00295,19.1449474 C1584.50151,33.6528968 1593.37121,42.0253883 1608.71204,41.9999422 C1609.33785,41.9645576 1609.95783,41.3874499 1609.96037,40.8076654 L1610,35.5578505 C1609.98342,35.0041274 1609.36577,34.4281275 1608.75167,34.4328967 C1606.90936,34.4399736 1604.61554,33.8425275 1602.79731,33.4040661 L1599.24055,36.7597273 C1594.79006,34.2393275 1593.01398,32.5568969 1590.3437,28.3561711 L1593.90046,25.0005191 C1593.42531,23.2743501 1592.54593,20.8707842 1592.70166,18.904572 C1592.55589,18.5519751 1591.93678,17.9762644 1591.26509,18.0007567 L1585.18194,18.0007567 Z"></path>
            </g>
        </g>
    </g>
</svg>
