
<svg width="26px" height="25px" viewBox="0 0 26 25" version="1.1" xmlns="http://www.w3.org/2000/svg" xmlns:xlink="http://www.w3.org/1999/xlink">
    <g>
        <g transform="translate(-1869.000000, -93.000000)" fill-rule="nonzero">
            <g>
                <g transform="translate(1881.939340, 105.646447) rotate(-45.000000) translate(-1881.939340, -105.646447) translate(1872.439340, 91.646447)">
                    <path d="M10.24,18.8 L10.24,18.72 L9.68,18.16 L9.12,18.72 L9.12,18.8 L10.24,18.8 Z M9.12,26.88 L9.68,27.44 L10.24,26.88 L10.24,26.8 L9.12,26.8 L9.12,26.88 Z M11.52,16.4 L11.52,29.2 L7.84,29.2 L7.84,16.4 L11.52,16.4 Z" id="Rectangle-2"></path>
                    <path d="M9.68,19.2 C4.54919723,19.2 0.4,14.9859716 0.4,9.8 C0.4,4.61402844 4.54919723,0.4 9.68,0.4 C14.8108028,0.4 18.96,4.61402844 18.96,9.8 C18.96,14.9859716 14.8108028,19.2 9.68,19.2 Z M9.68,16 C13.032291,16 15.76,13.2296705 15.76,9.8 C15.76,6.37032947 13.032291,3.6 9.68,3.6 C6.32770901,3.6 3.6,6.37032947 3.6,9.8 C3.6,13.2296705 6.32770901,16 9.68,16 Z" id="Oval"></path>
                </g>
            </g>
        </g>
    </g>
</svg>
