<svg width="21px" height="24px" viewBox="0 0 21 24" version="1.1" xmlns="http://www.w3.org/2000/svg" xmlns:xlink="http://www.w3.org/1999/xlink">
    <g stroke="none" stroke-width="1" fill="none" fill-rule="evenodd" opacity="0.262834821">
        <g transform="translate(-1867.000000, -18.000000)" fill="#2A2D58">
            <g>
                <g transform="translate(1858.000000, 11.000000)">
                    <path d="M19.6175,18.1936204 C21.7029552,18.226074 23.6011663,16.9947681 24.4217497,15.0772647 C25.2423332,13.1597612 24.8224983,10.9364623 23.3591748,9.4502386 C21.8958513,7.96401487 19.6793392,7.50970944 17.7493257,8.30042086 C15.8193121,9.09113228 14.5586812,10.969996 14.55875,13.0557037 C14.5458886,14.4085689 15.0721969,15.7108847 16.0214041,16.6749465 C16.9706114,17.6390083 18.2645982,18.1854743 19.6175,18.1936204 Z M19.6175,19.928162 C16.245,19.928162 9.5475,21.794912 9.5,25.203037 C11.7165122,28.6408731 15.5270669,30.7179582 19.6175,30.7179582 C23.7079331,30.7179582 27.5184878,28.6408731 29.735,25.203037 C29.6875,21.797287 22.9741667,19.930537 19.6175,19.930537 L19.6175,19.928162 Z"></path>
                </g>
            </g>
        </g>
    </g>
</svg>
