<svg xmlns="http://www.w3.org/2000/svg" xmlns:xlink="http://www.w3.org/1999/xlink" viewBox="0 0 336 290.445">
    <defs>
        <linearGradient id="testimonial_linear_gradient" x1="1" y1="1.06" x2="0.06" y2="-0.061" gradientUnits="objectBoundingBox">
            <stop offset="0" stop-color="#fff"/>
            <stop offset="1" stop-color="#6d727d"/>
        </linearGradient>
    </defs>
    <path opacity="0.101"
          fill="url(#testimonial_linear_gradient)"
          d="M336,290.445H210V197.367c0-14.045.585-27.545,1.738-40.125a320.9,320.9,0,0,1,5.215-35.71,234.038,234.038,0,0,1,8.691-31.294A175.589,175.589,0,0,1,237.811,63.36,139.009,139.009,0,0,1,253.49,40.9a124.063,124.063,0,0,1,19.226-18.048A126.49,126.49,0,0,1,295.49,9.216,146.621,146.621,0,0,1,321.811,0V41.492a52.167,52.167,0,0,0-9.312,6.4,58.6,58.6,0,0,0-8.07,8.533A84.828,84.828,0,0,0,292.013,79.9a160.314,160.314,0,0,0-7.449,32.17,308.234,308.234,0,0,0-2.483,41v12.9H336V290.444Zm-210,0H0V197.367c0-14.045.585-27.545,1.738-40.125a320.907,320.907,0,0,1,5.214-35.71,234.026,234.026,0,0,1,8.691-31.294A175.573,175.573,0,0,1,27.811,63.36,139.016,139.016,0,0,1,43.49,40.9,124.065,124.065,0,0,1,62.716,22.849,126.488,126.488,0,0,1,85.49,9.216,146.613,146.613,0,0,1,111.811,0V41.492a52.166,52.166,0,0,0-9.312,6.4,58.593,58.593,0,0,0-8.07,8.533A84.835,84.835,0,0,0,82.013,79.9a160.313,160.313,0,0,0-7.449,32.17,308.237,308.237,0,0,0-2.483,41v12.9H126V290.444Z"
          transform="translate(0 -0.001)"/>
</svg>