<svg data-name="Layer 1" xmlns="http://www.w3.org/2000/svg" viewBox="0 0 30.73 30.73"><defs><style>.cls-1{fill:#2a2d58;stroke:#2a2d58;stroke-miterlimit:10;stroke-width:0.25px;}.cls-2{fill:#f1b860;}</style></defs><title>time</title><path class="cls-1" d="M30.35,42A15.25,15.25,0,1,1,45.59,26.77,15.26,15.26,0,0,1,30.35,42Zm0-28.49A13.25,13.25,0,1,0,43.59,26.77,13.26,13.26,0,0,0,30.35,13.53Z" transform="translate(-14.98 -11.41)"/><path class="cls-2" d="M32.22,20.36h0a1,1,0,0,0-1,1l0,5.84-7.86,0h0a1,1,0,0,0,0,2l8.73,0h0a1.06,1.06,0,0,0,.4-.08,1,1,0,0,0,.73-.95l0-6.8A1,1,0,0,0,32.22,20.36Z" transform="translate(-14.98 -11.41)"/></svg>
