<svg data-name="Layer 1" xmlns="http://www.w3.org/2000/svg" viewBox="0 0 37.12 23.63"><defs><style>.cls-1{fill:#2a2d58;}.cls-2{fill:#f1b860;}</style></defs><title>webdesigner</title><path class="cls-1" d="M49.13,40.62H46.59a.27.27,0,0,1-.27-.27V23.45a3.08,3.08,0,0,0-3.09-3.08H19a3.09,3.09,0,0,0-3.09,3.08v16.9a.27.27,0,0,1-.27.27H13.41a.85.85,0,0,0-.83,1A2.8,2.8,0,0,0,15.35,44H46.9a2.8,2.8,0,0,0,2.79-2.81.57.57,0,0,0-.56-.57ZM17.06,23.45a2,2,0,0,1,2-2H43.23a2,2,0,0,1,2,2v16.9a.27.27,0,0,1-.27.27H17.33a.27.27,0,0,1-.27-.27ZM46.9,42.87H15.35A1.68,1.68,0,0,1,14,42.18a.27.27,0,0,1,.22-.43H48a.27.27,0,0,1,.22.43,1.65,1.65,0,0,1-1.35.69Z" transform="translate(-12.58 -20.37)"/><path class="cls-1" d="M42.77,23.07H19.49a.8.8,0,0,0-.8.8V38.5a.8.8,0,0,0,.8.8H42.77a.8.8,0,0,0,.81-.8V23.87A.8.8,0,0,0,42.77,23.07Zm-.54,15.14H20a.26.26,0,0,1-.26-.26V24.41a.26.26,0,0,1,.26-.26h22.2a.27.27,0,0,1,.27.26V38A.25.25,0,0,1,42.23,38.21Z" transform="translate(-12.58 -20.37)"/><path class="cls-1" d="M26.5,25.17h-.78a.39.39,0,0,0-.39.39v.79a.39.39,0,0,0,.39.39h.19v.39h.4v-.39h.19a.39.39,0,0,0,.39-.39v-.2h.39v-.39h-.39v-.2A.39.39,0,0,0,26.5,25.17Zm-.39,1.18h0a.39.39,0,0,1-.39-.4h0a.39.39,0,0,1,.39-.39h0a.39.39,0,0,1,.39.39h0A.39.39,0,0,1,26.11,26.35Z" transform="translate(-12.58 -20.37)"/><path class="cls-1" d="M30.81,26.74h.78a.39.39,0,0,0,.39-.39v-.2h.39v-.39H32v-.2a.39.39,0,0,0-.39-.39h-.78a.39.39,0,0,0-.39.39v.2H30v.39h.4v.2A.39.39,0,0,0,30.81,26.74Zm.39-1.18h0a.39.39,0,0,1,.39.39h0a.39.39,0,0,1-.39.4h0a.39.39,0,0,1-.39-.4h0A.39.39,0,0,1,31.2,25.56Z" transform="translate(-12.58 -20.37)"/><path class="cls-1" d="M31.59,35.35h-.78a.39.39,0,0,0-.39.39v.2H30v.39h.4v.2a.39.39,0,0,0,.39.39h.78a.39.39,0,0,0,.39-.39v-.2h.39v-.39H32v-.2A.39.39,0,0,0,31.59,35.35Zm-.39,1.18h0a.39.39,0,0,1-.39-.39h0a.39.39,0,0,1,.39-.4h0a.39.39,0,0,1,.39.4h0A.39.39,0,0,1,31.2,36.53Z" transform="translate(-12.58 -20.37)"/><path class="cls-1" d="M35.9,25.17a.39.39,0,0,0-.39.39v.2h-.4v.39h.4v.2a.39.39,0,0,0,.39.39h.19v.39h.4v-.39h.19a.39.39,0,0,0,.39-.39v-.79a.39.39,0,0,0-.39-.39Zm.39,1.18h0a.39.39,0,0,1-.39-.4h0a.39.39,0,0,1,.39-.39h0a.39.39,0,0,1,.39.39h0A.39.39,0,0,1,36.29,26.35Z" transform="translate(-12.58 -20.37)"/><path class="cls-1" d="M26.89,35.74a.39.39,0,0,0-.39-.39h-.19V35h-.4v.39h-.19a.39.39,0,0,0-.39.39v.79a.39.39,0,0,0,.39.39h.78a.39.39,0,0,0,.39-.39v-.2h.39v-.39h-.39Zm-.78.79h0a.39.39,0,0,1-.39-.39h0a.39.39,0,0,1,.39-.4h0a.39.39,0,0,1,.39.4h0A.39.39,0,0,1,26.11,36.53Z" transform="translate(-12.58 -20.37)"/><path class="cls-2" d="M27.68,25.76h.78v.39h-.78Z" transform="translate(-12.58 -20.37)"/><path class="cls-2" d="M28.85,25.76h.78v.39h-.78Z" transform="translate(-12.58 -20.37)"/><path class="cls-2" d="M32.77,25.76h.78v.39h-.78Z" transform="translate(-12.58 -20.37)"/><path class="cls-2" d="M33.94,25.76h.78v.39h-.78Z" transform="translate(-12.58 -20.37)"/><path class="cls-2" d="M27.68,35.94h.78v.39h-.78Z" transform="translate(-12.58 -20.37)"/><path class="cls-2" d="M28.85,35.94h.78v.39h-.78Z" transform="translate(-12.58 -20.37)"/><path class="cls-2" d="M32.77,35.94h.78v.39h-.78Z" transform="translate(-12.58 -20.37)"/><path class="cls-2" d="M33.94,35.94h.78v.39h-.78Z" transform="translate(-12.58 -20.37)"/><path class="cls-2" d="M25.91,27.52h.4v.78h-.4Z" transform="translate(-12.58 -20.37)"/><path class="cls-2" d="M25.91,28.7h.4v.78h-.4Z" transform="translate(-12.58 -20.37)"/><path class="cls-1" d="M25.91,32.22h.4v-.39h.19a.39.39,0,0,0,.39-.39v-.79a.39.39,0,0,0-.39-.39h-.19v-.39h-.4v.39h-.19a.39.39,0,0,0-.39.39v.79a.39.39,0,0,0,.39.39h.19Zm.2-1.57h0a.39.39,0,0,1,.39.4h0a.39.39,0,0,1-.39.39h0a.39.39,0,0,1-.39-.39h0A.39.39,0,0,1,26.11,30.65Z" transform="translate(-12.58 -20.37)"/><path class="cls-2" d="M25.91,32.61h.4v.78h-.4Z" transform="translate(-12.58 -20.37)"/><path class="cls-2" d="M25.91,33.79h.4v.78h-.4Z" transform="translate(-12.58 -20.37)"/><path class="cls-2" d="M36.09,27.52h.4v.78h-.4Z" transform="translate(-12.58 -20.37)"/><path class="cls-2" d="M36.09,28.7h.4v.78h-.4Z" transform="translate(-12.58 -20.37)"/><path class="cls-1" d="M36.49,29.87h-.4v.39H35.9a.39.39,0,0,0-.39.39v.79a.39.39,0,0,0,.39.39h.19v.39h.4v-.39h.19a.39.39,0,0,0,.39-.39v-.79a.39.39,0,0,0-.39-.39h-.19Zm-.2,1.57h0a.39.39,0,0,1-.39-.39h0a.39.39,0,0,1,.39-.4h0a.39.39,0,0,1,.39.4h0A.39.39,0,0,1,36.29,31.44Z" transform="translate(-12.58 -20.37)"/><path class="cls-2" d="M36.09,32.61h.4v.78h-.4Z" transform="translate(-12.58 -20.37)"/><path class="cls-2" d="M36.09,33.79h.4v.78h-.4Z" transform="translate(-12.58 -20.37)"/><path class="cls-1" d="M36.49,35h-.4v.39H35.9a.39.39,0,0,0-.39.39v.2h-.4v.39h.4v.2a.39.39,0,0,0,.39.39h.78a.39.39,0,0,0,.39-.39v-.79a.39.39,0,0,0-.39-.39h-.19Zm-.2,1.57h0a.39.39,0,0,1-.39-.39h0a.39.39,0,0,1,.39-.4h0a.39.39,0,0,1,.39.4h0A.39.39,0,0,1,36.29,36.53Z" transform="translate(-12.58 -20.37)"/><path class="cls-2" d="M31.2,27.52a3.53,3.53,0,1,0,3.52,3.53A3.53,3.53,0,0,0,31.2,27.52Zm0,6.66a3.14,3.14,0,1,1,3.13-3.13A3.14,3.14,0,0,1,31.2,34.18Z" transform="translate(-12.58 -20.37)"/><path class="cls-2" d="M31.2,34.71a3.67,3.67,0,1,1,3.66-3.66A3.67,3.67,0,0,1,31.2,34.71Zm0-7a3.39,3.39,0,1,0,3.38,3.39A3.39,3.39,0,0,0,31.2,27.66Zm0,6.66a3.28,3.28,0,1,1,3.27-3.27A3.28,3.28,0,0,1,31.2,34.32Zm0-6.27a3,3,0,1,0,3,3A3,3,0,0,0,31.2,28.05Z" transform="translate(-12.58 -20.37)"/><path class="cls-1" d="M32,29.11l-2.54,2.54-.18,1.29,1.29-.17,2.55-2.55a.82.82,0,0,0,0-1.11.77.77,0,0,0-1.12,0Zm-1.6,3.27-.65.09.08-.64,1.9-1.9.55.55Zm2.44-2.45-.27.27L32,29.66l.28-.28a.36.36,0,0,1,.54,0A.39.39,0,0,1,32.84,29.93Z" transform="translate(-12.58 -20.37)"/></svg>
