<svg height="15" viewBox="0 0 21 15" width="21" xmlns="http://www.w3.org/2000/svg" xmlns:xlink="http://www.w3.org/1999/xlink"><linearGradient id="au_flag_a" x1="50%" x2="50%" y1="0%" y2="100%"><stop offset="0" stop-color="#fff"/><stop offset="1" stop-color="#f0f0f0"/></linearGradient><linearGradient id="au_flag_b" x1="50%" x2="50%" y1="0%" y2="100%"><stop offset="0" stop-color="#0a17a7"/><stop offset="1" stop-color="#030e88"/></linearGradient><linearGradient id="au_flag_c" x1="50%" x2="50%" y1="0%" y2="100%"><stop offset="0" stop-color="#db1e36"/><stop offset="1" stop-color="#d51931"/></linearGradient><g fill="none" fill-rule="evenodd"><path d="m0 0h21v15h-21z" fill="url(#au_flag_a)"/><path d="m0 0h21v15h-21z" fill="url(#au_flag_b)"/><path d="m3 3.22996746-4.3516287-3.72996746h2.01186123l3.5 2.5h.69636936l4.64339811-2.90212382v1.15212382c0 .30250923-.16691445.62653355-.41784028.80576629l-3.08215972 2.20154266v.51272359l3.13722049 2.68904613c.46212212.39610468.20380848 1.04092133-.38722049 1.04092133-.24521386 0-.5447249-.09606598-.74907847-.24203282l-3.16115406-2.25796718h-.69636936l-4.64339811 2.90212382v-1.65943277l3.5-2.5z" fill="url(#au_flag_a)" fill-rule="nonzero"/><path d="m3.5 3-3.5-3h.5l3.5 2.5h1l4-2.5v.25c0 .13807119-.08651733.3117981-.20845938.39889955l-3.29154062 2.35110045v1l3.3118248 2.83870697c.10392629.08907968.0722084.16129303-.0618248.16129303-.13807119 0-.33651733-.0617981-.45845938-.14889956l-3.29154062-2.35110044h-1l-4 2.5v-.5l3.5-2.5z" fill="url(#au_flag_c)"/><path d="m0 2.5v2h3.5v2.50461102c0 .27359578.21403503.49538898.50468445.49538898h.9906311c.27872953 0 .50468445-.2157526.50468445-.49538898v-2.50461102h3.50952148c.27088381 0 .49047852-.21403503.49047852-.50468445v-.9906311c0-.27872953-.21505737-.50468445-.49047852-.50468445h-3.50952148v-2.5h-2v2.5z" fill="url(#au_flag_a)"/><path d="m0 3h4v-.5-2.5h1v2.5.5h4v1h-4v.5 2.5h-1v-2.5-.5h-4z" fill="url(#au_flag_c)"/><g fill="#fff"><path d="m4.5 12.25-.88167788.4635255.16838549-.9817628-.71329238-.6952882.98574583-.1432372.44083894-.8932373.44083894.8932373.98574583.1432372-.71329238.6952882.16838549.9817628z"/><path d="m15 13-.7071068.2071068.2071068-.7071068-.2071068-.7071068.7071068.2071068.7071068-.2071068-.2071068.7071068.2071068.7071068z"/><path d="m15 3.5-.7071068.20710678.2071068-.70710678-.2071068-.70710678.7071068.20710678.7071068-.20710678-.2071068.70710678.2071068.70710678z"/><path d="m18 6.5-.7071068.20710678.2071068-.70710678-.2071068-.70710678.7071068.20710678.7071068-.20710678-.2071068.70710678.2071068.70710678z"/><path d="m12 7.5-.7071068.20710678.2071068-.70710678-.2071068-.70710678.7071068.20710678.7071068-.20710678-.2071068.70710678.2071068.70710678z"/><path d="m16.5 8.75-.3535534.10355339.1035534-.35355339-.1035534-.35355339.3535534.10355339.3535534-.10355339-.1035534.35355339.1035534.35355339z"/></g></g></svg>