<svg id="Layer_1" data-name="Layer 1" xmlns="http://www.w3.org/2000/svg" viewBox="0 0 410 405"><defs><style>.cls-1{fill:#f9bb5e;}.cls-2{fill:#1c1e3d;}.cls-3{fill:#1c1e3c;}.cls-4{fill:#dddac7;}.cls-5{fill:#f9bc5e;}.cls-6{fill:#2a6fab;}</style></defs><title>TLP_Chips_ ELEMENTS</title><path class="cls-1" d="M254.28,107.65c3.77-.46,6.14,1,7.63,4.7a89.73,89.73,0,0,0,5.66,10.87c1.16,2,.86,3.16-1.26,4.06-5.73,2.45-11.4,5-17.15,7.44-1.94.81-9.65-2.27-10.4-3.93-.49-1.06.21-1.88.64-2.7,3.08-5.86,6.27-11.66,9.3-17.55C249.93,108.15,251.51,106.86,254.28,107.65Z"/><path class="cls-2" d="M150.45,241.76l-.58-.09c-8.29-1.6-8.17-.32-6.33-8.38,1.22-5.34,2.17-10.73,3.48-16,.94-3.79,8-6.1,10.86-3.45,3.84,3.61,7.33,7.59,11,11.38,1.27,1.31,1,2.37-.27,3.44q-7.44,6.19-14.85,12.41A3.81,3.81,0,0,1,150.45,241.76Z"/><path class="cls-3" d="M272.8,212.12a61.39,61.39,0,0,0-3.05-7.21c-1.36-3.2-2.81-7.34-5.05-10s-4.79-1.13-6.95,1.25L248.83,206c-1.76,2-6.52,5.55-5.2,8.74a7.48,7.48,0,0,0,2.63,2.85l11.26,8.54c2.62,2,4.35,1.7,6.7-.57C267.79,222.08,274.34,217.57,272.8,212.12Z"/><path class="cls-4" d="M196.41,269.71a60,60,0,0,0-3-7.21c-1.36-3.21-2.81-7.34-5.05-10.05s-4.79-1.13-6.95,1.26l-8.92,9.86c-1.76,1.94-6.52,5.55-5.2,8.74a7.55,7.55,0,0,0,2.63,2.85l11.26,8.54c2.62,2,4.35,1.7,6.7-.58C191.4,279.67,198,275.16,196.41,269.71Z"/><path class="cls-5" d="M88.87,152.45a10.26,10.26,0,0,1,2-.89c2-.49,4.36-2,6.07-.59,1.93,1.56.36,3.9-.16,5.9-2.4,9.25.4,17,6.85,23.71,3.22,3.35,3.1,4.12-.8,6.57-9.88,6.2-22.22.36-24.08-11.13S81,158.27,88.87,152.45Z"/><path class="cls-6" d="M273.44,278a11.32,11.32,0,0,1-.34,2.42c-.73,2.18-.7,5.24-3,6-2.59.9-3.87-1.94-5.45-3.6-7.27-7.66-16.19-9.57-26.26-7.44-5,1.07-5.69.51-5.71-4.58,0-12.91,12.65-21.09,24.55-16.11C269,259.61,272.58,267.17,273.44,278Z"/><path class="cls-6" d="M165.57,159.52c.39-1.89-.41-4.23-1.54-7.2-1.56-4.08-8.89-2.55-12-2.74a8.67,8.67,0,0,0-3.35.21c-4,1.37.23,5.78,1.75,8.23s2.57,5.53,5.59,6a10.67,10.67,0,0,0,5.95-.8C164.19,162.22,165.25,161,165.57,159.52Z"/><path class="cls-3" d="M340,268.2c0-.1-.1-.19-.15-.29.05.11.11.21.16.31Z"/><path class="cls-5" d="M315.19,245.2c1.37.16,2.76.28,4.14.37.45,0,.9.06,1.35.06,1.36-.27,2.72-.71,3.28-1.76a.52.52,0,0,1,.39-.25q-4.39-8.6-8.82-17.18c-1.5-2.89-1.91-3-4.13-.7-3.16,3.27-6.66,6.19-9.75,9.53-.82.88-4.22,3.94-4.1,5.21C297.9,244.05,312.86,244.94,315.19,245.2Z"/><path class="cls-4" d="M218.42,175.66c0-.11-.06-.22-.1-.33-.52-1.75-1.65-4.6-3.13-5-1-.31-2,.66-2.79,1.57-2.18,2.46-4.47,4.81-6.57,7.4-1.93,2.39-.41,5.2-.41,8.22a20.17,20.17,0,0,0,.13,3.82,6.36,6.36,0,0,0,1.26,2.39,18.61,18.61,0,0,0,3.29,3.39c4.39,3.49,7-1.7,8-7.13C218.75,185.73,219.52,179.78,218.42,175.66Z"/></svg>