<svg id="Layer_1" data-name="Layer 1" xmlns="http://www.w3.org/2000/svg" viewBox="0 0 410 405"><defs><style>.cls-1{fill:#1c1e3c;}.cls-2{fill:#2a6fab;}.cls-3{fill:none;}.cls-4{fill:#dddac7;}</style></defs><title>TLP_Chips_ ELEMENTS</title><path class="cls-1" d="M287.65,249.22c-.06-.13-.13-.25-.2-.38l.21.4Z"/><path class="cls-1" d="M287.85,249.84a.75.75,0,0,1-.77-.3,7.42,7.42,0,0,0-.89-1.12,19.83,19.83,0,0,0-1.62-1.42h0a9.35,9.35,0,0,0-4.81-1.51c-2-.07-4,.22-6,.35-6,.38-12.08-.52-18.06-1.41l-7.44-1.11-3.71-.56-1.92-.29-.34,0,.07-.09c-.49.53-1,1-1.48,1.57a29.63,29.63,0,0,1-3,3.23c-2.8,2.48-2.63,4.26.42,6.49,8.57,6.24,17,12.66,25.4,19.11,2.17,1.67,3.71,1.91,5.72-.33,5.41-6,10.86-12,16.64-17.61C287.88,253,288.26,251.44,287.85,249.84Z"/><path class="cls-1" d="M270.81,242.29q2.67.3,5.34.48c.58,0,1.17.07,1.75.08,1.75-.36,3.5-.93,4.23-2.28a.73.73,0,0,1,.5-.33c-3.78-7.39-7.55-14.79-11.38-22.16-1.93-3.71-2.46-3.87-5.33-.9-6.24,6.48-12.36,13.09-18.52,19.65a8.84,8.84,0,0,1,1.6.45A87.49,87.49,0,0,0,270.81,242.29Z"/><path class="cls-2" d="M242.61,242.46l1.92.29,3.71.56,7.44,1.11c6,.89,12,1.79,18.06,1.41,2-.13,4-.42,6-.35a9.35,9.35,0,0,1,4.81,1.51h0a19.83,19.83,0,0,1,1.62,1.42,7.42,7.42,0,0,1,.89,1.12.75.75,0,0,0,.77.3h0a3.31,3.31,0,0,1-.11-.42l-.09-.18-.21-.4c-1-2.09-2.39-4-3.46-6.11-.37-.6-.74-1.21-1.05-1.84l0,0c-.1-.2-.18-.4-.27-.6h0a.73.73,0,0,0-.5.33c-.73,1.35-2.48,1.92-4.23,2.28-.58,0-1.17,0-1.75-.08q-2.67-.18-5.34-.48a87.49,87.49,0,0,1-21.81-5,8.84,8.84,0,0,0-1.6-.45h0l-.18.18c-.39.44-.8.86-1.2,1.29-1.17,1.38-2.39,2.73-3.64,4.05l-.07.09Z"/><path class="cls-3" d="M172.29,254.23v0a17.86,17.86,0,0,1,.43,2.13A18.75,18.75,0,0,0,172.29,254.23Z"/><path class="cls-1" d="M136.66,243.32l-1.42-1.2c-.18-.65-.35-1.29-.54-1.94,1.16,4,2.08,7.93,3.05,11.94.47,1.95,1,3.89,1.64,5.79.37,1.06.77,2.11,1.23,3.13.34.74.79,2.23,1.47,2.71a1.92,1.92,0,0,0,.57.24,16.68,16.68,0,0,0,7.34.21l1.39-.25c3.47-.71,6.89-1.61,10.37-2.28-1.15-.65-2.31-1.3-3.45-2C150.5,255.07,143.55,249.17,136.66,243.32Z"/><path class="cls-1" d="M172.28,254.21a9.32,9.32,0,0,0-2.89-4.14c-1.55-1.27-3.31-2.26-5-3.37-5-3.38-9.26-7.77-13.46-12.13l-5.22-5.41-2.6-2.71-.6-.62c-.64.08-1.27.17-1.91.22-1.86.14-4.14.26-5.72,1.4-2,1.46-2.26,4.37-1.89,6.64a9.67,9.67,0,0,1,0-3.39,159.77,159.77,0,0,0,23.92,23q3.13,2.5,6.36,4.89c.7.52,1.41,1,2.13,1.53.51.23,1,.45,1.54.65.68-.1,1.35-.19,2-.25a4.37,4.37,0,0,0,3.69-3,8.12,8.12,0,0,0,0-1.21A17.86,17.86,0,0,0,172.28,254.21Z"/><path class="cls-1" d="M175.1,222c-2.83-2.27-6.33-1.29-9.56-.65-1.47.29-2.93.62-4.39.94l1.4-.3c2.59,1.92,5.23,3.8,7.92,5.57q2.81,1.83,5.68,3.57l.6.35h0c.1-.34.19-.67.3-1a14.71,14.71,0,0,0,.56-2.17,4.74,4.74,0,0,0,0-.84,8,8,0,0,0-.65-2.71A6.16,6.16,0,0,0,175.1,222Z"/><path class="cls-1" d="M172,232.43a110.85,110.85,0,0,1-15.31-9.16c-1.21.27-2.43.54-3.65.79-1.06.21-2.13.41-3.2.59l.14.2a87.49,87.49,0,0,0,14.23,17.26q1.94,1.86,3.95,3.63c.43.38.88.77,1.34,1.13,1.48.73,3.08,1.29,4.42.87.17-2.22.37-4.45.65-6.68a53.8,53.8,0,0,1,1.37-6.82h0C174.67,233.63,173.35,233.05,172,232.43Z"/><path class="cls-2" d="M169.54,246.87c-.46-.36-.91-.75-1.34-1.13q-2-1.77-3.95-3.63A87.49,87.49,0,0,1,150,224.85l-.14-.2c-1,.18-2.07.33-3.11.47-1.4.31-2.81.54-4.23.71l.6.62,2.6,2.71,5.22,5.41c4.2,4.36,8.44,8.75,13.46,12.13,1.66,1.11,3.42,2.1,5,3.37a9.32,9.32,0,0,1,2.89,4.14v0a18.75,18.75,0,0,1,.42,2.11,8.12,8.12,0,0,1,0,1.21,12.5,12.5,0,0,0,.87-4.38c.1-1.82.21-3.62.35-5.43C172.62,248.16,171,247.6,169.54,246.87Z"/><path class="cls-1" d="M173.45,274.59c0-.17,0-.35,0-.53,0,.19,0,.39,0,.57Z"/><path class="cls-2" d="M163.35,258.63q-3.22-2.38-6.36-4.89a159.77,159.77,0,0,1-23.92-23,9.67,9.67,0,0,0,0,3.39,50,50,0,0,0,1.68,6.09c.19.65.36,1.29.54,1.94l1.42,1.2c6.89,5.85,13.84,11.75,21.65,16.37,1.14.68,2.3,1.33,3.45,2h0c.5-.09,1-.2,1.5-.28,1.26-.21,2.53-.39,3.79-.57h0c-.51-.2-1-.42-1.54-.65C164.76,259.67,164.05,259.15,163.35,258.63Z"/><path class="cls-1" d="M185.77,243.2c0,.15,0,.31,0,.47v0C185.8,243.49,185.78,243.34,185.77,243.2Z"/><path class="cls-2" d="M176.15,231.16q-2.88-1.74-5.68-3.57c-2.69-1.77-5.33-3.65-7.92-5.57l-1.4.3-4.42,1h0A110.85,110.85,0,0,0,172,232.43c1.31.62,2.63,1.2,3.94,1.81h0c.24-.91.5-1.82.77-2.73h0Z"/><path class="cls-3" d="M184.13,142.7h0a17.44,17.44,0,0,1-2.1-.54A18.13,18.13,0,0,0,184.13,142.7Z"/><path class="cls-4" d="M209.48,115.4l1.71-.76q1,.19,2,.36c-4.07-.68-8-1.58-12.07-2.46-2-.43-3.94-.81-5.93-1.05-1.12-.13-2.24-.23-3.36-.26-.81,0-2.35-.26-3.07.14a1.83,1.83,0,0,0-.47.41,16.65,16.65,0,0,0-3.39,6.51l-.39,1.36c-.87,3.43-1.55,6.91-2.47,10.33,1.1-.75,2.19-1.51,3.29-2.24C192.87,122.73,201.22,119,209.48,115.4Z"/><path class="cls-4" d="M184.15,142.7a9.38,9.38,0,0,0,5-.79c1.82-.85,3.48-2,5.21-3,5.23-3,11-4.94,16.78-6.82l7.15-2.33,3.57-1.17.82-.26c.2-.61.4-1.22.64-1.82.68-1.73,1.57-3.83,1.23-5.76-.43-2.45-2.94-3.93-5.15-4.59a10,10,0,0,1,3,1.52,159.74,159.74,0,0,0-31.16,11.48c-2.42,1.15-4.81,2.34-7.19,3.58-.76.41-1.54.82-2.3,1.26-.43.36-.85.73-1.25,1.1-.22.65-.42,1.3-.66,1.93a4.38,4.38,0,0,0,1.09,4.64,7.86,7.86,0,0,0,1.11.5A17.44,17.44,0,0,0,184.15,142.7Z"/><path class="cls-4" d="M211.87,159.28c3.28-1.56,3.93-5.14,4.76-8.32.38-1.45.72-2.91,1.07-4.36-.12.46-.23.93-.34,1.39q-4.31,2.23-8.47,4.7-2.87,1.73-5.69,3.55c-.19.12-.38.26-.58.38h0c.26.24.53.47.79.72a13.07,13.07,0,0,0,1.7,1.44,4.88,4.88,0,0,0,.74.42,8.34,8.34,0,0,0,2.71.6A6.35,6.35,0,0,0,211.87,159.28Z"/><path class="cls-4" d="M203.85,152a110,110,0,0,1,14.92-9.77c.29-1.21.57-2.43.89-3.63s.56-2.1.86-3.14l-.24,0a87.88,87.88,0,0,0-21.74,5.29c-1.68.61-3.34,1.27-5,2-.53.23-1.07.46-1.6.71-1.3,1-2.51,2.21-2.72,3.6,1.94,1.12,3.85,2.28,5.74,3.51a51.4,51.4,0,0,1,5.54,4.21h0C201.62,153.83,202.72,152.89,203.85,152Z"/><path class="cls-2" d="M192,143.43c.53-.25,1.07-.48,1.6-.71,1.65-.69,3.31-1.35,5-2a87.88,87.88,0,0,1,21.74-5.29l.24,0q.43-1.51.93-3c.34-1.4.75-2.77,1.21-4.12l-.82.26-3.57,1.17-7.15,2.33c-5.75,1.88-11.55,3.78-16.78,6.82-1.73,1-3.39,2.16-5.21,3a9.38,9.38,0,0,1-5,.79h0a18.13,18.13,0,0,1-2.08-.54,7.86,7.86,0,0,1-1.11-.5,12.63,12.63,0,0,0,3.57,2.69q2.38,1.32,4.72,2.68C189.44,145.64,190.65,144.45,192,143.43Z"/><path class="cls-1" d="M165.3,134.86l.47.24-.51-.26Z"/><path class="cls-2" d="M184.06,132.73c2.38-1.24,4.77-2.43,7.19-3.58a159.74,159.74,0,0,1,31.16-11.48,10,10,0,0,0-3-1.52,49.92,49.92,0,0,0-6.21-1.15q-1-.16-2-.36l-1.71.76c-8.26,3.64-16.61,7.33-24.17,12.34-1.1.73-2.19,1.49-3.29,2.24h0c-.13.49-.25,1-.39,1.48-.36,1.22-.76,2.44-1.15,3.65l0,0c.4-.37.82-.74,1.25-1.1C182.52,133.55,183.3,133.14,184.06,132.73Z"/><path class="cls-1" d="M188.17,159.64l-.44-.17h0Z"/><path class="cls-2" d="M203.2,156.24q2.82-1.83,5.69-3.55,4.16-2.48,8.47-4.7c.11-.46.22-.93.34-1.39.35-1.47.72-2.93,1.07-4.39h0A110,110,0,0,0,203.85,152c-1.13.91-2.23,1.85-3.34,2.76h0c.71.6,1.41,1.23,2.11,1.87h0C202.82,156.5,203,156.36,203.2,156.24Z"/></svg>