<svg id="Layer_1" data-name="Layer 1" xmlns="http://www.w3.org/2000/svg" viewBox="0 0 508 405"><title>TLP_ ELEMENTS</title><path d="M37.49,110.34h-4c.27,2.29.57,4.57.83,6.86q4.57,40.37,9.2,80.69Q49.17,246,54.82,294h4.93q-6.06-51.49-12.17-102.94C44.36,164,41.33,136.81,37.49,110.34Z" style="fill:#f9bc5e"/><path d="M50,110.34H45.79Q50.2,149.16,54.65,188,60.83,241,67.07,294H72q-6.65-56.46-13.35-112.88C55.85,157.45,53.17,133.66,50,110.34Z" style="fill:#f9bc5e"/><path d="M62.39,110.34H58Q61.84,144.2,65.74,178q6.75,58,13.59,116h4.93Q77,232.56,69.75,171.18C67.33,150.86,65,130.46,62.39,110.34Z" style="fill:#f9bc5e"/><path d="M74.75,110.34H70.22q3.27,28.88,6.6,57.72,7.34,63,14.77,125.94h4.93q-7.8-66.42-15.68-132.76C78.82,144.26,76.87,127.22,74.75,110.34Z" style="fill:#f9bc5e"/><path d="M87.07,110.34H82.43q2.71,23.91,5.48,47.78,7.92,68,15.93,135.88h4.93q-8.37-71.4-16.85-142.71C90.3,137.64,88.72,124,87.07,110.34Z" style="fill:#f9bc5e"/><path d="M99.35,110.34h-4.7q2.16,18.93,4.35,37.84,8.49,73,17.1,145.82H121q-8.94-76.38-18-152.65C101.78,131,100.58,120.67,99.35,110.34Z" style="fill:#f9bc5e"/><path d="M114.1,131.41q-1.26-10.53-2.49-21.07h-4.73q1.59,13.95,3.2,27.9,8.58,73.66,17.27,147.23c.33,2.8.61,5.71,1,8.53h5.07c-.35-3-.8-5.76-1.13-8.55Q123.26,208.38,114.1,131.41Z" style="fill:#f9bc5e"/><path d="M125.18,131.41q-1.25-10.53-2.48-21.07H118q1.59,13.95,3.2,27.9,8.58,73.66,17.27,147.23c.33,2.8.61,5.71,1,8.53h5.07c-.35-3-.8-5.76-1.12-8.55Q134.34,208.38,125.18,131.41Z" style="fill:#f9bc5e"/><path d="M136.27,131.41q-1.25-10.53-2.48-21.07h-4.74q1.6,13.95,3.21,27.9,8.58,73.66,17.27,147.23c.33,2.8.6,5.71,1,8.53h5.07c-.35-3-.8-5.76-1.13-8.55Q145.44,208.38,136.27,131.41Z" style="fill:#f9bc5e"/><path d="M144.88,110.34h-4c.27,2.29.56,4.57.82,6.86q4.59,40.37,9.21,80.69Q156.55,246,162.2,294h4.94Q161.08,242.51,155,191.06C151.75,164,148.72,136.81,144.88,110.34Z" style="fill:#f9bc5e"/><path d="M157.37,110.34h-4.19Q157.59,149.16,162,188,168.22,241,174.46,294h4.94q-6.65-56.46-13.35-112.88C163.24,157.45,160.56,133.66,157.37,110.34Z" style="fill:#f9bc5e"/><path d="M169.78,110.34h-4.39q3.84,33.85,7.74,67.67,6.75,58,13.59,116h4.93q-7.22-61.44-14.51-122.82C174.72,150.86,172.41,130.46,169.78,110.34Z" style="fill:#f9bc5e"/><path d="M182.14,110.34h-4.53q3.27,28.88,6.6,57.72,7.33,63,14.77,125.94h4.93q-7.8-66.42-15.69-132.76C186.21,144.26,184.26,127.22,182.14,110.34Z" style="fill:#f9bc5e"/><path d="M194.45,110.34h-4.63q2.72,23.91,5.48,47.78,7.92,68,15.93,135.88h4.93q-8.37-71.4-16.85-142.71C197.69,137.64,196.11,124,194.45,110.34Z" style="fill:#f9bc5e"/><path d="M206.74,110.34H202q2.16,18.93,4.35,37.84,8.49,73,17.1,145.82h4.93q-8.94-76.38-18-152.65C209.17,131,208,120.67,206.74,110.34Z" style="fill:#f9bc5e"/><path d="M221.48,131.41q-1.24-10.53-2.48-21.07h-4.73q1.59,13.95,3.2,27.9,8.58,73.66,17.27,147.23c.33,2.8.61,5.71,1,8.53h5.07c-.36-3-.8-5.76-1.13-8.55Q230.64,208.38,221.48,131.41Z" style="fill:#f9bc5e"/><path d="M232.57,131.41q-1.24-10.53-2.48-21.07h-4.74q1.6,13.95,3.21,27.9,8.58,73.66,17.27,147.23c.33,2.8.61,5.71,1,8.53h5.07c-.35-3-.8-5.76-1.12-8.55Q241.73,208.38,232.57,131.41Z" style="fill:#f9bc5e"/><path d="M261.84,285.45q-9-77.07-18.18-154-1.26-10.53-2.48-21.07h-4.74q1.59,13.95,3.21,27.9,8.57,73.66,17.27,147.23c.33,2.8.6,5.71,1,8.53H263C262.62,291,262.17,288.24,261.84,285.45Z" style="fill:#f9bc5e"/><path d="M252.49,110.34h-4c.27,2.29.57,4.57.83,6.86q4.57,40.37,9.2,80.69Q264.17,246,269.82,294h4.93q-6.06-51.49-12.17-102.94C259.36,164,256.33,136.81,252.49,110.34Z" style="fill:#f9bc5e"/><path d="M265,110.34h-4.19q4.41,38.82,8.86,77.61Q275.83,241,282.07,294H287q-6.64-56.46-13.35-112.88C270.85,157.45,268.17,133.66,265,110.34Z" style="fill:#f9bc5e"/><path d="M277.39,110.34H273q3.83,33.85,7.73,67.67,6.75,58,13.59,116h4.93Q292,232.56,284.75,171.18C282.33,150.86,280,130.46,277.39,110.34Z" style="fill:#f9bc5e"/><path d="M289.75,110.34h-4.53q3.27,28.88,6.6,57.72,7.33,63,14.77,125.94h4.93q-7.8-66.42-15.68-132.76C293.82,144.26,291.87,127.22,289.75,110.34Z" style="fill:#f9bc5e"/><path d="M302.07,110.34h-4.64q2.71,23.91,5.48,47.78,7.92,68,15.93,135.88h4.93q-8.37-71.4-16.85-142.71C305.3,137.64,303.72,124,302.07,110.34Z" style="fill:#f9bc5e"/><path d="M314.35,110.34h-4.7q2.16,18.93,4.35,37.84,8.49,73,17.1,145.82H336q-8.94-76.38-18-152.65C316.78,131,315.58,120.67,314.35,110.34Z" style="fill:#f9bc5e"/><path d="M329.1,131.41q-1.26-10.53-2.49-21.07h-4.73q1.59,13.95,3.2,27.9,8.58,73.66,17.27,147.23c.33,2.8.61,5.71,1,8.53h5.07c-.35-3-.8-5.76-1.13-8.55Q338.27,208.38,329.1,131.41Z" style="fill:#f9bc5e"/><path d="M340.18,131.41q-1.24-10.53-2.48-21.07H333q1.59,13.95,3.2,27.9,8.58,73.66,17.27,147.23c.33,2.8.61,5.71,1,8.53h5.07c-.35-3-.8-5.76-1.12-8.55Q349.34,208.38,340.18,131.41Z" style="fill:#f9bc5e"/><path d="M351.27,131.41q-1.25-10.53-2.48-21.07h-4.74q1.6,13.95,3.21,27.9,8.58,73.66,17.27,147.23c.33,2.8.6,5.71,1,8.53h5.07c-.35-3-.8-5.76-1.13-8.55Q360.44,208.38,351.27,131.41Z" style="fill:#f9bc5e"/><path d="M359.88,110.34h-4c.27,2.29.56,4.57.82,6.86q4.59,40.37,9.21,80.69Q371.55,246,377.2,294h4.94Q376.08,242.51,370,191.06C366.75,164,363.72,136.81,359.88,110.34Z" style="fill:#f9bc5e"/><path d="M372.37,110.34h-4.19Q372.59,149.16,377,188,383.22,241,389.46,294h4.94q-6.64-56.46-13.35-112.88C378.24,157.45,375.56,133.66,372.37,110.34Z" style="fill:#f9bc5e"/><path d="M384.78,110.34h-4.39q3.84,33.85,7.74,67.67,6.75,58,13.59,116h4.93q-7.22-61.44-14.51-122.82C389.72,150.86,387.41,130.46,384.78,110.34Z" style="fill:#f9bc5e"/><path d="M397.14,110.34h-4.53q3.27,28.88,6.6,57.72,7.34,63,14.77,125.94h4.93q-7.8-66.42-15.69-132.76C401.21,144.26,399.26,127.22,397.14,110.34Z" style="fill:#f9bc5e"/><path d="M409.45,110.34h-4.63q2.71,23.91,5.48,47.78,7.92,68,15.93,135.88h4.93q-8.37-71.4-16.85-142.71C412.69,137.64,411.11,124,409.45,110.34Z" style="fill:#f9bc5e"/><path d="M421.74,110.34H417q2.16,18.93,4.35,37.84,8.49,73,17.1,145.82h4.93q-8.94-76.38-18-152.65C424.17,131,423,120.67,421.74,110.34Z" style="fill:#f9bc5e"/><path d="M436.48,131.41q-1.25-10.53-2.48-21.07h-4.73q1.59,13.95,3.2,27.9,8.58,73.66,17.27,147.23c.33,2.8.61,5.71,1,8.53h5.07c-.36-3-.8-5.76-1.13-8.55Q445.64,208.38,436.48,131.41Z" style="fill:#f9bc5e"/><path d="M447.57,131.41q-1.24-10.53-2.48-21.07h-4.74q1.61,13.95,3.21,27.9,8.58,73.66,17.27,147.23c.33,2.8.61,5.71,1,8.53h5.07c-.35-3-.8-5.76-1.12-8.55Q456.73,208.38,447.57,131.41Z" style="fill:#f9bc5e"/><path d="M476.84,285.45q-9-77.07-18.18-154-1.26-10.53-2.48-21.07h-4.74q1.59,13.95,3.21,27.9,8.57,73.66,17.27,147.23c.33,2.8.6,5.71,1,8.53H478C477.62,291,477.17,288.24,476.84,285.45Z" style="fill:#f9bc5e"/></svg>