<svg id="Layer_1" data-name="Layer 1" xmlns="http://www.w3.org/2000/svg" viewBox="0 0 410 405"><title>TLP_ ELEMENTS</title><path d="M365.4,150.77c-7.66,29.25-14.47,59.48-21.47,89.49q-4.87,20.87-9.71,41.74H341q3.74-16.12,7.45-32.24,10.72-46.56,21.24-93.35c.42-1.89.87-3.76,1.32-5.64Z" style="fill:#f9bc5e"/><path d="M353.94,150.77h-6c-6.08,24.35-11.73,49.2-17.5,73.91q-6.68,28.63-13.32,57.32h6.79q5.52-23.91,11-47.82Q344.55,192.57,353.94,150.77Z" style="fill:#f9bc5e"/><path d="M336.92,150.77h-6.3C326,170.09,321.5,189.64,317,209.1Q308.46,245.52,300,282h6.8q7.32-31.69,14.65-63.4Q329.27,184.76,336.92,150.77Z" style="fill:#f9bc5e"/><path d="M319.89,150.77h-6.44c-3.35,14.22-6.65,28.5-10,42.75Q293.17,237.73,282.92,282h6.81q9.13-39.48,18.26-79Q314,177,319.89,150.77Z" style="fill:#f9bc5e"/><path d="M302.87,150.77H296.3q-3.15,13.59-6.31,27.17-12.14,52-24.17,104.06h6.82q10.94-47.26,21.86-94.56Q298.72,169.14,302.87,150.77Z" style="fill:#f9bc5e"/><path d="M285.83,150.77h-6.64c-.89,3.86-1.79,7.73-2.69,11.58Q262.56,222.13,248.72,282h6.82Q268.29,227,281,171.85,283.44,161.34,285.83,150.77Z" style="fill:#f9bc5e"/><path d="M268.79,150.77h-6.7Q246.81,216.33,231.62,282h6.83Q253,219.17,267.53,156.27C268,154.44,268.37,152.6,268.79,150.77Z" style="fill:#f9bc5e"/><path d="M253.34,150.77h-6.72Q231.34,216.33,216.15,282H223q15-64.68,29.94-129.43C253.07,152,253.2,151.37,253.34,150.77Z" style="fill:#f9bc5e"/><path d="M231.16,150.77Q215.88,216.33,200.69,282h6.84q15.21-65.58,30.35-131.23Z" style="fill:#f9bc5e"/><path d="M221.35,150.77H215c-4.25,17.8-8.37,35.75-12.54,53.64q-9,38.78-18,77.59h6.82q7.88-34,15.73-68.09Q214.22,182.41,221.35,150.77Z" style="fill:#f9bc5e"/><path d="M204.34,150.77h-6.53c-3,12.67-5.89,25.39-8.85,38.06Q178.11,235.39,167.31,282h6.83q9.69-41.82,19.34-83.67Q198.94,174.6,204.34,150.77Z" style="fill:#f9bc5e"/><path d="M187.3,150.77h-6.6q-2.61,11.25-5.22,22.48Q162.81,227.58,150.21,282h6.84q11.49-49.6,22.94-99.25Q183.68,166.79,187.3,150.77Z" style="fill:#f9bc5e"/><path d="M170.25,150.77H163.6c-.54,2.3-1.07,4.6-1.61,6.9Q147.51,219.79,133.11,282H140q13.29-57.39,26.55-114.83C167.77,161.72,169,156.23,170.25,150.77Z" style="fill:#f9bc5e"/><path d="M153.21,150.77h-6.72Q131.21,216.33,116,282h6.86Q138,216.83,153,151.59C153.09,151.32,153.15,151,153.21,150.77Z" style="fill:#f9bc5e"/><path d="M129.39,150.77Q114.12,216.33,98.92,282h6.85Q121,216.42,136.13,150.77Z" style="fill:#f9bc5e"/><path d="M112.29,150.77Q97,216.35,81.82,282h6.86Q103.91,216.44,119,150.77Z" style="fill:#f9bc5e"/><path d="M96.82,150.77Q81.55,216.35,66.35,282h6.87q15.23-65.56,30.35-131.23Z" style="fill:#f9bc5e"/><path d="M81.36,150.77Q66.15,216.13,51,281.53c0,.16-.08.31-.11.47h6.88Q73,216.44,88.11,150.77Z" style="fill:#f9bc5e"/></svg>