<svg id="Layer_1" data-name="Layer 1" xmlns="http://www.w3.org/2000/svg" viewBox="0 0 410 405"><title>TLP_ ELEMENTS</title><path d="M375.4,130.77c-7.66,29.25-14.47,59.48-21.47,89.49q-4.87,20.87-9.71,41.74H351q3.74-16.12,7.45-32.24,10.72-46.56,21.24-93.35c.42-1.89.87-3.76,1.32-5.64Z" style="fill:#dddac7"/><path d="M363.94,130.77h-6c-6.08,24.35-11.73,49.2-17.5,73.91q-6.68,28.63-13.32,57.32h6.79q5.52-23.91,11-47.82Q354.55,172.57,363.94,130.77Z" style="fill:#dddac7"/><path d="M346.92,130.77h-6.3C336,150.09,331.5,169.64,327,189.1Q318.46,225.52,310,262h6.8q7.32-31.69,14.65-63.4Q339.27,164.76,346.92,130.77Z" style="fill:#dddac7"/><path d="M329.89,130.77h-6.44c-3.35,14.22-6.65,28.5-10,42.75Q303.17,217.73,292.92,262h6.81q9.13-39.48,18.26-79Q324,157,329.89,130.77Z" style="fill:#dddac7"/><path d="M312.87,130.77H306.3q-3.15,13.59-6.31,27.17-12.14,52-24.17,104.06h6.82q10.94-47.26,21.86-94.56Q308.72,149.14,312.87,130.77Z" style="fill:#dddac7"/><path d="M295.83,130.77h-6.64c-.89,3.86-1.79,7.73-2.69,11.58Q272.56,202.13,258.72,262h6.82Q278.29,207,291,151.85,293.44,141.34,295.83,130.77Z" style="fill:#dddac7"/><path d="M278.79,130.77h-6.7Q256.8,196.33,241.62,262h6.83Q263,199.17,277.53,136.27C278,134.44,278.37,132.6,278.79,130.77Z" style="fill:#dddac7"/><path d="M263.34,130.77h-6.72Q241.34,196.33,226.15,262H233q15-64.68,29.94-129.43C263.07,132,263.2,131.37,263.34,130.77Z" style="fill:#dddac7"/><path d="M241.16,130.77Q225.88,196.33,210.69,262h6.84q15.21-65.58,30.35-131.23Z" style="fill:#dddac7"/><path d="M231.35,130.77H225c-4.25,17.8-8.37,35.75-12.54,53.64q-9,38.78-18,77.59h6.82q7.88-34,15.73-68.09Q224.22,162.41,231.35,130.77Z" style="fill:#dddac7"/><path d="M214.34,130.77h-6.53c-3,12.67-5.89,25.39-8.85,38.06Q188.11,215.39,177.31,262h6.83q9.69-41.82,19.34-83.67Q208.94,154.6,214.34,130.77Z" style="fill:#dddac7"/><path d="M197.3,130.77h-6.6q-2.61,11.25-5.22,22.48Q172.81,207.58,160.21,262h6.84q11.49-49.6,22.94-99.25Q193.68,146.79,197.3,130.77Z" style="fill:#dddac7"/><path d="M180.25,130.77H173.6c-.54,2.3-1.07,4.6-1.61,6.9Q157.51,199.79,143.11,262H150q13.29-57.39,26.55-114.83C177.77,141.72,179,136.23,180.25,130.77Z" style="fill:#dddac7"/><path d="M163.21,130.77h-6.72Q141.21,196.33,126,262h6.86Q148,196.83,163,131.59C163.09,131.32,163.15,131,163.21,130.77Z" style="fill:#dddac7"/><path d="M139.39,130.77Q124.12,196.33,108.92,262h6.85Q131,196.42,146.13,130.77Z" style="fill:#dddac7"/><path d="M122.29,130.77Q107,196.35,91.82,262h6.86Q113.91,196.44,129,130.77Z" style="fill:#dddac7"/><path d="M106.82,130.77Q91.55,196.35,76.35,262h6.87q15.23-65.56,30.35-131.23Z" style="fill:#dddac7"/><path d="M91.36,130.77Q76.15,196.13,61,261.53c0,.16-.08.31-.11.47h6.88Q83,196.44,98.11,130.77Z" style="fill:#dddac7"/></svg>