<svg id="Layer_1" data-name="Layer 1" xmlns="http://www.w3.org/2000/svg" viewBox="0 0 410 405"><title>TLP_ ELEMENTS</title><path d="M367.4,158.77c-7.66,29.25-14.47,59.48-21.47,89.49q-4.87,20.87-9.71,41.74H343q3.74-16.12,7.45-32.24,10.72-46.56,21.24-93.35c.42-1.89.87-3.76,1.32-5.64Z" style="fill:#2a6fab"/><path d="M355.94,158.77h-6c-6.08,24.35-11.73,49.2-17.5,73.91q-6.68,28.63-13.32,57.32h6.79q5.52-23.91,11-47.82Q346.55,200.57,355.94,158.77Z" style="fill:#2a6fab"/><path d="M338.92,158.77h-6.3C328,178.09,323.5,197.64,319,217.1Q310.46,253.52,302,290h6.8q7.32-31.69,14.65-63.4Q331.27,192.76,338.92,158.77Z" style="fill:#2a6fab"/><path d="M321.89,158.77h-6.44c-3.35,14.22-6.65,28.5-10,42.75Q295.17,245.73,284.92,290h6.81q9.13-39.48,18.26-79Q316,185,321.89,158.77Z" style="fill:#2a6fab"/><path d="M304.87,158.77H298.3q-3.15,13.59-6.31,27.17-12.14,52-24.17,104.06h6.82q10.94-47.26,21.86-94.56Q300.72,177.14,304.87,158.77Z" style="fill:#2a6fab"/><path d="M287.83,158.77h-6.64c-.89,3.86-1.79,7.73-2.69,11.58Q264.56,230.13,250.72,290h6.82Q270.29,235,283,179.85,285.44,169.34,287.83,158.77Z" style="fill:#2a6fab"/><path d="M270.79,158.77h-6.7Q248.81,224.33,233.62,290h6.83Q255,227.17,269.53,164.27C270,162.44,270.37,160.6,270.79,158.77Z" style="fill:#2a6fab"/><path d="M255.34,158.77h-6.72Q233.34,224.33,218.15,290H225q15-64.68,29.94-129.43C255.07,160,255.2,159.37,255.34,158.77Z" style="fill:#2a6fab"/><path d="M233.16,158.77Q217.88,224.33,202.69,290h6.84q15.21-65.58,30.35-131.23Z" style="fill:#2a6fab"/><path d="M223.35,158.77H217c-4.25,17.8-8.37,35.75-12.54,53.64q-9,38.78-18,77.59h6.82q7.88-34,15.73-68.09Q216.22,190.41,223.35,158.77Z" style="fill:#2a6fab"/><path d="M206.34,158.77h-6.53c-3,12.67-5.89,25.39-8.85,38.06Q180.11,243.39,169.31,290h6.83q9.69-41.82,19.34-83.67Q200.94,182.6,206.34,158.77Z" style="fill:#2a6fab"/><path d="M189.3,158.77h-6.6q-2.61,11.25-5.22,22.48Q164.81,235.58,152.21,290h6.84q11.49-49.6,22.94-99.25Q185.68,174.79,189.3,158.77Z" style="fill:#2a6fab"/><path d="M172.25,158.77H165.6c-.54,2.3-1.07,4.6-1.61,6.9Q149.51,227.79,135.11,290H142q13.29-57.39,26.55-114.83C169.77,169.72,171,164.23,172.25,158.77Z" style="fill:#2a6fab"/><path d="M155.21,158.77h-6.72Q133.21,224.33,118,290h6.86Q140,224.83,155,159.59C155.09,159.32,155.15,159,155.21,158.77Z" style="fill:#2a6fab"/><path d="M131.39,158.77Q116.12,224.33,100.92,290h6.85Q123,224.42,138.13,158.77Z" style="fill:#2a6fab"/><path d="M114.29,158.77Q99,224.35,83.82,290h6.86Q105.91,224.44,121,158.77Z" style="fill:#2a6fab"/><path d="M98.82,158.77Q83.55,224.35,68.35,290h6.87q15.23-65.56,30.35-131.23Z" style="fill:#2a6fab"/><path d="M83.36,158.77Q68.15,224.13,53,289.53c0,.16-.08.31-.11.47h6.88Q75,224.44,90.11,158.77Z" style="fill:#2a6fab"/></svg>