<svg id="Layer_1" data-name="Layer 1" xmlns="http://www.w3.org/2000/svg" viewBox="0 0 217.93 203.07"><title>TLP_Thing-13</title><path d="M309.59,232.92c4.48-23,8.25-46.85,8.24-70.28,0-19.24-2.57-38.22-9.37-56.3-3.73-9.89-9-19.71-17.72-25.78-7.06-4.92-15.47-6.56-23.66-3.62-8,2.88-15.29,9-20.28,15.78-12.52,16.89-23.69,36.14-40.74,49.11q-2.62,2-5.42,3.77a62,62,0,0,1-12.83,6.26c-8.58,3-17.45,5.83-26.32,8.17s-18.13,3.82-27.17,5.88a52.76,52.76,0,0,0-10.72,3.43,38.14,38.14,0,0,0-18.88,18.9c-1.86,4.1-2.6,8.34-3.57,12.68-1.44,6.47,1.47,14.8,3.95,20.72a65.54,65.54,0,0,0,11.68,18.3c8.94,10,20.52,17.32,32.82,22.62a178.68,178.68,0,0,0,67.6,14.06q4.7.08,9.41-.1c2.22-.08,4.43-.22,6.65-.38a.62.62,0,0,1,.31-.46l.34-.22A.69.69,0,0,1,235,276a178.51,178.51,0,0,0,22.19-3.28l-.48-.11a.7.7,0,0,1,.31-1.37l.56.13a.7.7,0,0,1,.3,1.19q6.29-1.37,12.47-3.18c9.39-2.78,20.58-6.09,28.28-12.83a1.36,1.36,0,0,1-.09-.75.67.67,0,0,1,1.2-.27,26.94,26.94,0,0,0,3.29-3.78,25.42,25.42,0,0,0,1.59-2.57.69.69,0,0,1-.87-.8l.06-.28a.71.71,0,0,1,1.37,0C307.47,243.41,308.59,238.11,309.59,232.92ZM104.44,193.57a.7.7,0,0,1-.31,1.37A.7.7,0,0,1,104.44,193.57Zm-1.29,10.12-.22-.35h0l0,0a.63.63,0,0,1,0-.71h0a.62.62,0,0,1,.64-.28h0l.06,0a.64.64,0,0,1,.19.08.75.75,0,0,1,.15.16s0,0,0,0l.22.35A.7.7,0,0,1,103.15,203.69Zm3.22-2.88a.7.7,0,0,1-.3,1.37A.7.7,0,0,1,106.37,200.81Zm-.69,8.39a.7.7,0,0,1,.3-1.37A.7.7,0,0,1,105.68,209.2Zm6-26.78a.7.7,0,0,1,.31-1.37A.7.7,0,0,1,111.67,182.42ZM113.14,197a.7.7,0,0,1-.3,1.37A.7.7,0,0,1,113.14,197Zm-2.87,8.9c.65.4,0,1.5-.75,1.17a1,1,0,0,1-.58-1.11C109.06,205.2,110.05,205.31,110.27,205.9Zm-3.73,12.67a.7.7,0,0,1,.31-1.37A.7.7,0,0,1,106.54,218.57Zm2.77-7.08a.7.7,0,0,1,.3-1.36A.7.7,0,0,1,109.31,211.49ZM113.37,200a.7.7,0,0,1,.3-1.37A.7.7,0,0,1,113.37,200Zm-2.26,22a.7.7,0,0,1,.31-1.37A.7.7,0,0,1,111.11,222Zm6.4-13.49a.7.7,0,0,1-1.36-.31l.06-.28a.7.7,0,0,1,1.36.3Zm-2.09,20.67a.7.7,0,0,1,.31-1.36A.7.7,0,0,1,115.42,229.14Zm2.5-11.4c-.44-.45-.12-1.39.62-1.18a1,1,0,0,1,.76,1C119.26,218.41,118,218.5,117.92,217.74Zm8.38,9.1a.7.7,0,0,1,.31-1.37A.7.7,0,0,1,126.3,226.84Zm4.22,21.75a1.4,1.4,0,0,1-1.15.25.7.7,0,0,1,.3-1.37h0l.08-.07A.7.7,0,0,1,130.52,248.59Zm1.49-6.26a.67.67,0,0,1-.49-.88.71.71,0,0,1-.13-.76,1,1,0,0,1,.22-.34,1.1,1.1,0,0,1,.18-.14c.06,0,.06,0,0,0,.34-.83,1.57-.17,1.23.65a.87.87,0,0,1-.22.34l-.08.07A.71.71,0,0,1,132,242.33Zm4.11-1.16a.87.87,0,1,1,.82-.68A.67.67,0,0,1,136.12,241.17Zm6.34,7.39a.7.7,0,0,1-.31,1.36A.7.7,0,0,1,142.46,248.56Zm-.07,5.56a.64.64,0,0,1-.51-.72.69.69,0,0,1,.38-1.33.63.63,0,0,1,.51.72A.69.69,0,0,1,142.39,254.12Zm1.13,2.92a.7.7,0,0,1,.3-1.37A.7.7,0,0,1,143.52,257Zm1.65-4.2a.7.7,0,0,1-1.36-.3l.06-.28a.7.7,0,0,1,1.37.3Zm25.6,9.41a.7.7,0,0,1,.31-1.36A.7.7,0,0,1,170.77,262.25Zm.59,4a.7.7,0,0,1,.3-1.36A.7.7,0,0,1,171.36,266.23Zm2.53,3.23c-.48-.06-1,.05-1.47,0-.89-.15-.58-1.52.3-1.37.49.09,1,0,1.48,0C175.09,268.21,174.78,269.58,173.89,269.46Zm6.54-13.34a.7.7,0,0,1,.31-1.36A.7.7,0,0,1,180.43,256.12Zm5.3-1.18a.7.7,0,0,1,.3-1.36A.7.7,0,0,1,185.73,254.94Zm-1.59,15a.7.7,0,0,1,.3-1.36A.7.7,0,0,1,184.14,270Zm3.82-6.05-1.5-.34a.7.7,0,0,1,.3-1.36l1.5.33A.7.7,0,0,1,188,263.93Zm1.53,5.56-.34.22a.71.71,0,0,1-1-.9.56.56,0,0,1,0-.13l.06-.28a.71.71,0,0,1,1.37,0A.67.67,0,0,1,189.49,269.49Zm10.19,3.77a.7.7,0,0,1,.31-1.36A.7.7,0,0,1,199.68,273.26Zm7.1-17.6.38.08a.7.7,0,0,1-.31,1.37l-.37-.09A.7.7,0,0,1,206.78,255.66Zm-3,18.53-.75-.17a.7.7,0,0,1,.3-1.36l.75.16A.7.7,0,0,1,203.82,274.19Zm4.27-8.84a.7.7,0,0,1-1.36-.31l.08-.37a.7.7,0,0,1,1.37.3Zm8,1a.7.7,0,0,1-1.21-.6A.9.9,0,0,1,216,265,.7.7,0,0,1,216.06,266.38Zm5.43-16.46a.7.7,0,0,1,.3-1.36A.7.7,0,0,1,221.49,249.92Zm-1.94,17.92a.7.7,0,0,1,.3-1.36A.7.7,0,0,1,219.55,267.84Zm8.63,4.77a.7.7,0,0,1-1.37-.31l.09-.37a.7.7,0,0,1,1.36.3Zm3.67-7.75-.3-.46a.7.7,0,0,1,1.18-.75l.3.46A.7.7,0,0,1,231.85,264.86ZM246.68,251a.7.7,0,0,1,1.21.6.9.9,0,0,1-1.18.75A.7.7,0,0,1,246.68,251Zm-7.75,11a.7.7,0,0,1,.31-1.37A.7.7,0,0,1,238.93,261.92Zm3.08,7.4-.38-.09,0,0a.73.73,0,0,1-.16.21c0-.16,0-.15,0,0a1.5,1.5,0,0,1,0,.3.72.72,0,0,1-.67.73.7.7,0,0,1-.73-.66c0-.53-.06-1,.38-1.36a.68.68,0,0,1,.76-.13.64.64,0,0,1,.78-.47l.38.08A.7.7,0,0,1,242,269.32ZM245.44,258l-.46.29a.7.7,0,0,1-.75-1.18l.46-.29A.7.7,0,0,1,245.44,258Zm1.89-3.21a.7.7,0,0,1,.3-1.37A.7.7,0,0,1,247.33,254.82Zm.21,7.44a.7.7,0,0,1,.3-1.36A.7.7,0,0,1,247.54,262.26Zm6.83-8.48a.7.7,0,0,1-.31,1.36A.7.7,0,0,1,254.37,253.78Zm-1.76,10.51a.7.7,0,0,1,.3-1.37A.7.7,0,0,1,252.61,264.29Zm.3,7.47a.7.7,0,0,1,.31-1.37A.7.7,0,0,1,252.91,271.76Zm6.86-1.13a.7.7,0,0,1,.31-1.37A.7.7,0,0,1,259.77,270.63Zm2.22-5.92a.7.7,0,0,1,.3-1.36A.7.7,0,0,1,262,264.71Zm4.55-1.28a.7.7,0,0,1-1.36-.3l.06-.28a.7.7,0,0,1,1.36.3Zm4.47-6-.87-.19a.7.7,0,0,1,.3-1.36l.88.19A.7.7,0,0,1,271,257.45Zm-.71,10.7a.7.7,0,0,1,.3-1.37A.7.7,0,0,1,270.3,268.15Zm6.84-20.87a.7.7,0,0,1,.3-1.36A.7.7,0,0,1,277.14,247.28Zm-.58,10.53a.7.7,0,0,1,.3-1.37A.7.7,0,0,1,276.56,257.81Zm2,.16a.87.87,0,1,1,.82-.68A.68.68,0,0,1,278.59,258Zm5.73,2.17a.7.7,0,0,1,.31-1.37A.7.7,0,0,1,284.32,260.14Zm8.59-4.72a.7.7,0,0,1-1.37-.3l.13-.57a.7.7,0,0,1,1.36.31Zm1.17-3.16a.7.7,0,0,1,.31-1.37A.7.7,0,0,1,294.08,252.26Zm6.17-4.18s-.07-.15-.1-.22a1,1,0,0,1-.06-.41c0-.89,1.44-1,1.4-.07,0,0,.07.16.09.23a.91.91,0,0,1,.06.4C301.6,248.9,300.2,249,300.25,248.08Zm2.44-7.81a.7.7,0,0,1,.3-1.36A.7.7,0,0,1,302.69,240.27Zm2.37-7.49a1,1,0,0,1-.57-1.11c.12-.75,1.1-.64,1.32-.06C306.47,232,305.84,233.11,305.06,232.78Zm-.18,8.28a.7.7,0,0,1,.3-1.37A.7.7,0,0,1,304.88,241.06Z" transform="translate(-100.77 -74.27)" style="fill:#1b82ce;opacity:0.79"/><path d="M269.53,104.27a31.63,31.63,0,0,1,.66-14.12c.11-.57.21-1.13.28-1.71,0-1.63-.41-3.27,0-4.9a10.84,10.84,0,0,0,.15-1.62c-.08-.81-.3-1.6-.4-2.41-.12-1.83-.7-3.25-2.91-3.18A44.45,44.45,0,0,0,243,96.49c-8.88,15.42-19.48,29.51-33.65,40.72-8.2,6.49-17.12,11.66-26.3,16.51,0,.3,0,.59-.07.89a147.18,147.18,0,0,1-1.21,28c-1.17,8-.6,16.31-2.19,24.35-2.95,14.82-7.18,29.35-10.65,44.05-1.13,4.76-2.47,9.67-5.45,13.82a3.42,3.42,0,0,0-.42,1.72,14.68,14.68,0,0,0,2.46,1.45A154.83,154.83,0,0,0,212.17,277c3.58.11,7.27.88,10.81-.56a3.12,3.12,0,0,0,1.72-1.55,12.9,12.9,0,0,1,1.62-5.14c.17-.51.32-1,.45-1.55.91-3.23,1-6.77,3.37-9.45a3.91,3.91,0,0,0,.55-1.73,4.19,4.19,0,0,0-.41-1.84c-1.06-2.47-.61-4.84.29-7.27,3.94-10.76,6.12-22,10-32.87,4.65-12.84,9-26.08,10.57-39.88.4-3.44,2.8-6.21,2.94-9.86a44.78,44.78,0,0,1,6.17-22c1.08-2.28,1.32-4.89,2.83-7,.81-1.71,2.23-3.07,2.83-4.91A138.6,138.6,0,0,0,269.53,104.27Zm-98.76,158a.7.7,0,0,1,.31-1.36A.7.7,0,0,1,170.77,262.25Zm.59,4a.7.7,0,0,1,.3-1.36A.7.7,0,0,1,171.36,266.23Zm2.53,3.23c-.48-.06-1,.05-1.47,0-.89-.15-.58-1.52.3-1.37.49.09,1,0,1.48,0C175.09,268.21,174.78,269.58,173.89,269.46Zm6.54-13.34a.7.7,0,0,1,.31-1.36A.7.7,0,0,1,180.43,256.12Zm5.3-1.18a.7.7,0,0,1,.3-1.36A.7.7,0,0,1,185.73,254.94Zm-1.59,15a.7.7,0,0,1,.3-1.36A.7.7,0,0,1,184.14,270Zm3.82-6.05-1.5-.34a.7.7,0,0,1,.3-1.36l1.5.33A.7.7,0,0,1,188,263.93Zm1.53,5.56-.34.22a.71.71,0,0,1-1-.9.56.56,0,0,1,0-.13l.06-.28a.71.71,0,0,1,1.37,0A.67.67,0,0,1,189.49,269.49Zm10.19,3.77a.7.7,0,0,1,.31-1.36A.7.7,0,0,1,199.68,273.26Zm7.1-17.6.38.08a.7.7,0,0,1-.31,1.37l-.37-.09A.7.7,0,0,1,206.78,255.66Zm-3,18.53-.75-.17a.7.7,0,0,1,.3-1.36l.75.16A.7.7,0,0,1,203.82,274.19Zm4.27-8.84a.7.7,0,0,1-1.36-.31l.08-.37a.7.7,0,0,1,1.37.3Zm8,1a.7.7,0,0,1-1.21-.6A.9.9,0,0,1,216,265,.7.7,0,0,1,216.06,266.38Zm5.43-16.46a.7.7,0,0,1,.3-1.36A.7.7,0,0,1,221.49,249.92Zm-1.94,17.92a.7.7,0,0,1,.3-1.36A.7.7,0,0,1,219.55,267.84Z" transform="translate(-100.77 -74.27)" style="fill:#dddac7"/><path d="M227.3,266.32a46.27,46.27,0,0,0,2.94-7.07,8.61,8.61,0,0,0-1.22,1.67,5.8,5.8,0,0,0-.45,1.41,7.17,7.17,0,0,1-1,3.25C227.45,265.82,227.38,266.07,227.3,266.32Z" transform="translate(-100.77 -74.27)" style="fill:#dddac7"/><path d="M314.21,147.8h0a4.54,4.54,0,0,0,2.65-4.25l-.71.89A12.34,12.34,0,0,0,314.21,147.8Z" transform="translate(-100.77 -74.27)" style="fill:#dddac7"/><path d="M312.83,145.33c1.21-2.07,2.94-3.32,4-5.47a8.26,8.26,0,0,1,.09-1,122.24,122.24,0,0,0-16.27-51.79C295.67,78.4,288.54,73.3,278,74.42c-1.34.15-2.67.28-4,.41a4.85,4.85,0,0,0-1.67,1.81h.13a.81.81,0,0,1,.57-.16,5.43,5.43,0,0,1,1.95.44l.06,0a14.16,14.16,0,0,1,5.79.35c.78.26,1.21,1.44.33,1.91a8.43,8.43,0,0,0-3.62,4.19,1.51,1.51,0,0,1-.25.64l-.07.11c-1.2,3.09-1.59,6.82-2.57,9.71a24.79,24.79,0,0,0-.76,10.92.87.87,0,0,1,.4.6c.07.35.12.7.18,1a1.11,1.11,0,0,1,.63.61,11.53,11.53,0,0,1,0,8.06c0,1.5-.14,3-.3,4.52a.9.9,0,0,1,.34,1c-.1.36-.21.71-.31,1.06,0,0,0,0,0,.07.18,2.89-.86,5.5-1.79,8.18a1.09,1.09,0,0,1-.85.71,39.14,39.14,0,0,1-3.53,7.17c-.89,4.25-1.53,8.59-2.63,12.79A62.37,62.37,0,0,1,260,173l-.34.73c-1.34,5.24-2.81,10.47-3.65,15.81-.67,4.32-.49,8.66-1,13-.68,5.17-2.33,11.34-7.13,14a29.4,29.4,0,0,1-2.24,5.33,13.88,13.88,0,0,0-2,1.64,5.22,5.22,0,0,0-1,1.42,30.46,30.46,0,0,1-1.27,3,91.66,91.66,0,0,0-2.52,13.53.89.89,0,0,1,.54,1.13c-.49,1.7-1,3.42-1.51,5.13-.14.76-.28,1.52-.44,2.28-1.57,7.2-3.62,17.11-9.24,22.78a.59.59,0,0,1-.38.36,15.45,15.45,0,0,1-2.39,1.88,11.72,11.72,0,0,0,.66,1.7,21.26,21.26,0,0,0,2.86.26c1.51-.06,3-.16,4.52-.28a.66.66,0,0,1,.18-1l.34-.22a.69.69,0,0,1,.85,1.08,152.87,152.87,0,0,0,22.59-3.81h-.12l-.56-.12a.7.7,0,0,1,.31-1.37l.56.13a.71.71,0,0,1,.24,1.26c6.81-1.66,13.54-3.7,20.22-6,3.73-5.35,5.95-12.41,7.86-17.9a56.06,56.06,0,0,0,1.78-6.61,1,1,0,0,1,0-.34c.2-.9.42-1.87.65-2.87.66-3.44,1.28-6.88,2.27-10.24,1.88-6.32,4.54-12.43,6.61-18.7,3.21-9.68,6.38-19.55,9.1-29.45,1.05-4.76,2.25-9.49,3.36-14.25.72-4.75.91-9.5,1.41-14.34A16.49,16.49,0,0,1,312.83,145.33ZM246.68,251a.7.7,0,0,1,1.21.6.9.9,0,0,1-1.18.75A.7.7,0,0,1,246.68,251Zm-7.75,11a.7.7,0,0,1,.31-1.37A.7.7,0,0,1,238.93,261.92Zm3.08,7.4-.38-.09,0,0a.73.73,0,0,1-.16.21c0-.16,0-.15,0,0a1.5,1.5,0,0,1,0,.3.72.72,0,0,1-.67.73.7.7,0,0,1-.73-.66c0-.53-.06-1,.38-1.36a.68.68,0,0,1,.76-.13.64.64,0,0,1,.78-.47l.38.08A.7.7,0,0,1,242,269.32ZM245.44,258l-.46.29a.7.7,0,0,1-.75-1.18l.46-.29A.7.7,0,0,1,245.44,258Zm1.89-3.21a.7.7,0,0,1,.3-1.37A.7.7,0,0,1,247.33,254.82Zm.21,7.44a.7.7,0,0,1,.3-1.36A.7.7,0,0,1,247.54,262.26Zm6.83-8.48a.7.7,0,0,1-.31,1.36A.7.7,0,0,1,254.37,253.78Zm-1.76,10.51a.7.7,0,0,1,.3-1.37A.7.7,0,0,1,252.61,264.29Zm.3,7.47a.7.7,0,0,1,.31-1.37A.7.7,0,0,1,252.91,271.76Zm6.86-1.13a.7.7,0,0,1,.31-1.37A.7.7,0,0,1,259.77,270.63Zm2.22-5.92a.7.7,0,0,1,.3-1.36A.7.7,0,0,1,262,264.71Zm4.55-1.28a.7.7,0,0,1-1.36-.3l.06-.28a.7.7,0,0,1,1.36.3Zm4.47-6-.87-.19a.7.7,0,0,1,.3-1.36l.88.19A.7.7,0,0,1,271,257.45Zm-.71,10.7a.7.7,0,0,1,.3-1.37A.7.7,0,0,1,270.3,268.15Zm6.84-20.87a.7.7,0,0,1,.3-1.36A.7.7,0,0,1,277.14,247.28Zm-.58,10.53a.7.7,0,0,1,.3-1.37A.7.7,0,0,1,276.56,257.81Zm2,.16a.87.87,0,1,1,.82-.68A.68.68,0,0,1,278.59,258Z" transform="translate(-100.77 -74.27)" style="fill:#dddac7"/><path d="M164.58,237.66a.88.88,0,0,1,.32-.34c.46-2.28.94-4.55,1.53-6.79q.63-2.47,1.23-4.95c-1.41,5-3.11,10-4.55,15C163.57,239.59,164.07,238.64,164.58,237.66Z" transform="translate(-100.77 -74.27)" style="fill:#dddac7"/><path d="M172.53,198.65c-.74,0-1.47-.68-1-1.46a25.9,25.9,0,0,0,4-11.5,1,1,0,0,1-.38-1c.16-.76.31-1.55.44-2.33a23.35,23.35,0,0,0-.37-3.22,1,1,0,0,1-1.22-1.22c1.48-6.55,3.2-13.14,2.42-19.9a1,1,0,0,1,1.4-1,3.18,3.18,0,0,0-1.26-1.07c-9,2.42-18,5-27.3,6a104.37,104.37,0,0,0-17.82,4c-3.14,3-2.74,6.64-1.9,10.36,1.41,2.4.36,4.88.27,7.32a57.29,57.29,0,0,1-.82,8.47,17.25,17.25,0,0,1-.09,5,17.45,17.45,0,0,0-.36,2.39c.67,2.27-.81,4-1.44,5.94a57.09,57.09,0,0,1-1.27,11.43c-.08,5.54-1.55,10.78-3.36,16-1.3,3.73-2.86,7.47-1.33,11.54a15.34,15.34,0,0,0,4.46,4.44A136.08,136.08,0,0,0,143.07,259c2.72,1.27,5.41,2.64,8.18,3.82a1,1,0,0,1,.23-.55,57.49,57.49,0,0,1,5-5.71,14.57,14.57,0,0,0,2.07-5.2c.71-3.48,1.33-6.9,2.31-10.33,2-6.91,4.21-13.74,6.1-20.68,1.62-5.95,3.46-11.75,4.87-17.71a1,1,0,0,1-.14-.74C171.91,200.81,172.2,199.73,172.53,198.65ZM126.3,226.84a.7.7,0,0,1,.31-1.37A.7.7,0,0,1,126.3,226.84Zm4.22,21.75a1.4,1.4,0,0,1-1.15.25.7.7,0,0,1,.3-1.37h0l.08-.07A.7.7,0,0,1,130.52,248.59Zm1.49-6.26a.67.67,0,0,1-.49-.88.71.71,0,0,1-.13-.76,1,1,0,0,1,.22-.34,1.1,1.1,0,0,1,.18-.14c.06,0,.06,0,0,0,.34-.83,1.57-.17,1.23.65a.87.87,0,0,1-.22.34l-.08.07A.71.71,0,0,1,132,242.33Zm4.11-1.16a.87.87,0,1,1,.82-.68A.67.67,0,0,1,136.12,241.17Zm6.34,7.39a.7.7,0,0,1-.31,1.36A.7.7,0,0,1,142.46,248.56Zm-.07,5.56a.64.64,0,0,1-.51-.72.69.69,0,0,1,.38-1.33.63.63,0,0,1,.51.72A.69.69,0,0,1,142.39,254.12Zm1.13,2.92a.7.7,0,0,1,.3-1.37A.7.7,0,0,1,143.52,257Zm1.65-4.2a.7.7,0,0,1-1.36-.3l.06-.28a.7.7,0,0,1,1.37.3Z" transform="translate(-100.77 -74.27)" style="fill:#dddac7"/><path d="M318.68,161.57c-2.35-.4-2.75,1.3-3.19,3a109.41,109.41,0,0,1-2.78,19.79c-2.1,8.59-4.48,17.2-6.65,25.74-2.8,11-6.86,21.75-9.58,32.85a40.8,40.8,0,0,1-2.79,8.24.65.65,0,0,1,.7-.27.7.7,0,0,1-.31,1.37.68.68,0,0,1-.44-1c-.38.77-.79,1.53-1.25,2.28-.11.18-.23.36-.35.54a.7.7,0,0,1,1,.77l-.12.56a.7.7,0,0,1-1.37-.3l.09-.41c-1.19,1.8-2.33,3.76-.94,6.18a27.49,27.49,0,0,0,8.07-3.93l0,0a1.79,1.79,0,0,1-.24-1.15c.14-.89,1.5-.58,1.36.3h0c0-.11,0-.08,0,0l.24-.2c2.83-.57,4-2.71,4.87-5.15a181.11,181.11,0,0,0,5.39-18.26A269.77,269.77,0,0,0,318.68,161.57Zm-18.43,86.51s-.07-.15-.1-.22a1,1,0,0,1-.06-.41c0-.89,1.44-1,1.4-.07,0,0,.07.16.09.23a.91.91,0,0,1,.06.4C301.6,248.9,300.2,249,300.25,248.08Zm2.44-7.81a.7.7,0,0,1,.3-1.36A.7.7,0,0,1,302.69,240.27Zm2.37-7.49a1,1,0,0,1-.57-1.11c.12-.75,1.1-.64,1.32-.06C306.47,232,305.84,233.11,305.06,232.78Zm-.18,8.28a.7.7,0,0,1,.3-1.37A.7.7,0,0,1,304.88,241.06Zm.19,7.61a.7.7,0,0,1-1.36-.3l.06-.28a.7.7,0,0,1,1.37.3Z" transform="translate(-100.77 -74.27)" style="fill:#dcd9c6"/><path d="M119.83,232.14c1.07-5.08.39-10.45,2.85-15.34a9.28,9.28,0,0,0,.89-5.58,14.33,14.33,0,0,1,1.64-9.93,5.24,5.24,0,0,0,.65-4.41c-2.08-6.09-.24-12,.77-17.89-.89-2.75.81-5.66-.51-8.38-.71-.25-1.49-.85-2.11-.72a28.6,28.6,0,0,0-18.63,13.38.7.7,0,0,1-.63,1.14,23.1,23.1,0,0,0-2,5.12c-1.28,5.08-1.3,10.2-1.44,15.37-.33,11.89,5.33,21.29,12.26,30.18,1.06,1.37,2.34,3.44,4.61,1.34l.15-.16C119.74,235.21,119.49,233.56,119.83,232.14Zm-15.39-38.57a.7.7,0,0,1-.31,1.37A.7.7,0,0,1,104.44,193.57Zm-1.29,10.12-.22-.35h0l0,0a.63.63,0,0,1,0-.71h0a.62.62,0,0,1,.64-.28h0l.06,0a.64.64,0,0,1,.19.08.75.75,0,0,1,.15.16s0,0,0,0l.22.35A.7.7,0,0,1,103.15,203.69Zm3.22-2.88a.7.7,0,0,1-.3,1.37A.7.7,0,0,1,106.37,200.81Zm-.69,8.39a.7.7,0,0,1,.3-1.37A.7.7,0,0,1,105.68,209.2Zm6-26.78a.7.7,0,0,1,.31-1.37A.7.7,0,0,1,111.67,182.42ZM113.14,197a.7.7,0,0,1-.3,1.37A.7.7,0,0,1,113.14,197Zm-2.87,8.9c.65.4,0,1.5-.75,1.17a1,1,0,0,1-.58-1.11C109.06,205.2,110.05,205.31,110.27,205.9Zm-3.73,12.67a.7.7,0,0,1,.31-1.37A.7.7,0,0,1,106.54,218.57Zm2.77-7.08a.7.7,0,0,1,.3-1.36A.7.7,0,0,1,109.31,211.49ZM113.37,200a.7.7,0,0,1,.3-1.37A.7.7,0,0,1,113.37,200Zm-2.26,22a.7.7,0,0,1,.31-1.37A.7.7,0,0,1,111.11,222Zm6.4-13.49a.7.7,0,0,1-1.36-.31l.06-.28a.7.7,0,0,1,1.36.3Zm-2.09,20.67a.7.7,0,0,1,.31-1.36A.7.7,0,0,1,115.42,229.14Zm2.5-11.4c-.44-.45-.12-1.39.62-1.18a1,1,0,0,1,.76,1C119.26,218.41,118,218.5,117.92,217.74Z" transform="translate(-100.77 -74.27)" style="fill:#dddac7"/><path d="M177.81,202.26c.95-4.1,2.64-8,2.91-12.29C181.72,194.53,181.11,198.71,177.81,202.26Z" transform="translate(-100.77 -74.27)" style="fill:#dddac7"/></svg>