<svg xmlns="http://www.w3.org/2000/svg" viewBox="0 0 66.59 78.93"><title>ICONS_nieuwwwwww</title><path d="M58.91,0H10A5.86,5.86,0,0,0,4.18,5.86V9.79H2.77A3,3,0,0,0,0,12.93a3,3,0,0,0,2.77,3.15H4.18v4.31H2.77A3,3,0,0,0,0,23.54a3,3,0,0,0,2.77,3.14H4.18V31H2.77A3,3,0,0,0,0,34.15a3,3,0,0,0,2.77,3.14H4.18v4.32H2.77a3.17,3.17,0,0,0,0,6.29H4.18v4.32H2.77a3.17,3.17,0,0,0,0,6.29H4.18v4.31H2.77a3.17,3.17,0,0,0,0,6.29H4.18v2.15a7.67,7.67,0,0,0,7.67,7.67H58.91a7.67,7.67,0,0,0,7.68-7.67V7.67A7.67,7.67,0,0,0,58.91,0Zm.81,71.26a.81.81,0,0,1-.81.81H11.85a.81.81,0,0,1-.8-.81V8a1.08,1.08,0,0,1,1.08-1.09H58.91a.81.81,0,0,1,.81.81Z" fill="#2a2d58"/><path d="M44.81,18.67H24.31A3.58,3.58,0,0,0,20.66,22a3.43,3.43,0,0,0,3.42,3.59h20.5a3.58,3.58,0,0,0,3.65-3.28A3.43,3.43,0,0,0,44.81,18.67Z" fill="#f1b860"/><path d="M44.81,30.58H24.31a3.57,3.57,0,0,0-3.65,3.27,3.43,3.43,0,0,0,3.42,3.59h20.5a3.57,3.57,0,0,0,3.65-3.28A3.42,3.42,0,0,0,44.81,30.58Z" fill="#f1b860"/><path d="M44.81,42.48H24.31a3.57,3.57,0,0,0-3.65,3.28,3.42,3.42,0,0,0,3.42,3.58h20.5a3.57,3.57,0,0,0,3.65-3.28A3.42,3.42,0,0,0,44.81,42.48Z" fill="#f1b860"/></svg>