<svg enable-background="new 0 0 86 80.9" viewBox="0 0 86 80.9" xmlns="http://www.w3.org/2000/svg"><g fill="#2a2d58"><path d="m41.7 73.7c-18.7 0-33.9-15.2-33.9-33.9s15.2-33.9 33.9-33.9 33.9 15.3 33.9 33.9c0 18.7-15.2 33.9-33.9 33.9zm0-65.3c-17.3 0-31.4 14.1-31.4 31.4s14.1 31.4 31.4 31.4 31.4-14.1 31.4-31.4-14.1-31.4-31.4-31.4z"/><path d="m41.7 64.9c-13.8 0-25-11.2-25-25s11.2-25 25-25 25 11.2 25 25c0 13.7-11.2 25-25 25zm0-47.7c-12.4 0-22.6 10.1-22.6 22.6s10.2 22.6 22.6 22.6 22.6-10.1 22.6-22.6c0-12.4-10.1-22.6-22.6-22.6z"/><path d="m41.7 55.5c-8.6 0-15.7-7-15.7-15.7s7-15.7 15.7-15.7c8.6 0 15.7 7 15.7 15.7s-7 15.7-15.7 15.7zm0-28.9c-7.3 0-13.2 5.9-13.2 13.2s5.9 13.2 13.2 13.2 13.2-5.9 13.2-13.2-5.9-13.2-13.2-13.2z"/><path d="m41.7 46.4c-3.7 0-6.6-3-6.6-6.6 0-3.7 3-6.6 6.6-6.6 3.7 0 6.6 3 6.6 6.6 0 3.7-2.9 6.6-6.6 6.6zm0-10.7c-2.3 0-4.2 1.9-4.2 4.2s1.9 4.2 4.2 4.2 4.2-1.9 4.2-4.2c0-2.4-1.9-4.2-4.2-4.2z"/></g><circle cx="41.7" cy="39.8" fill="#f1b860" r="4.2"/><path d="m65.7 11.5 1.3 6.1 5.5 1.5-5.6 7.1-5.7-1.8-13.7 12.8-2 .6.6-2 13.5-12.7-1-4.6zm-4.3 10 3.6-3.4-.5-2.5-3.6 3.6zm4.8 2.4 2.9-3.6-2.7-.7-3.5 3.3zm.8-16.5-2.7 2.7-7 6.9-.8.8.2 1.1.7 3.5-12.6 11.8-.4.4-.2.5-.6 2-1.2 3.6 3.7-1 2-.6.5-.1.4-.3 12.7-11.9 4.5 1.4 1.3.4.9-1.1 5.6-7.1 2-2.4-3-.8-4.3-1.2-1-4.9z" fill="#fff"/><path d="m72.5 19.2-5.5-1.5-1.3-6.2-7 6.9 1 4.6-13.5 12.8-.6 2 2-.6 13.6-12.8 5.7 1.8zm-11.6-.1 3.6-3.6.5 2.5-3.6 3.5zm2 3.8 3.5-3.3 2.7.7-2.9 3.6z" fill="#f1b860"/></svg>