<svg enable-background="new 0 0 131.7 67.6" viewBox="0 0 131.7 67.6" xmlns="http://www.w3.org/2000/svg"><g fill="#f1b860"><path d="m41.9 48.6c.7 5.6 5.9 9.6 11.5 8.9s9.6-5.9 8.9-11.5-5.9-9.6-11.5-8.9c-1 .1-2 .4-2.9.9l-11.9-15.5c3.6-4.4 3-10.8-1.3-14.5s-10.9-3-14.5 1.4-3 10.8 1.3 14.5c.1.1.3.2.4.3l-7.8 18.2c-5.6-1.2-11.1 2.3-12.3 7.8-1.2 5.6 2.3 11.1 7.8 12.3 5.6 1.2 11.1-2.3 12.3-7.8.8-3.7-.5-7.6-3.4-10.1l8-18.6c1 .2 1.9.2 2.9.1.9-.1 1.8-.4 2.7-.8l11.9 15.6c-1.7 2.2-2.5 5-2.1 7.7z"/><circle cx="82.8" cy="25.7" r="10.3"/><path d="m52 33.5h33.7v5.1h-33.7z" transform="matrix(.8258 -.564 .564 .8258 -8.3417 45.0858)"/><path d="m79.3 19.7h33.7v5.1h-33.7z" transform="matrix(.9857 -.1684 .1684 .9857 -2.3653 16.5183)"/><circle cx="120.1" cy="17.9" r="10.3"/></g><path d="m120.4 58.6-19.2-19.2c7.7-10.1 5.7-24.6-4.5-32.3s-24.6-5.7-32.3 4.5-5.6 24.6 4.6 32.3c7.8 5.9 18.5 6.2 26.7.8l19.3 19.3c1.5 1.5 4 1.4 5.4-.1s1.4-3.8 0-5.3zm-21.9-33c0 8.7-7.1 15.8-15.8 15.8s-15.8-7.1-15.8-15.8 7-15.8 15.7-15.8 15.8 7.1 15.9 15.8z" fill="#2a2d58"/></svg>