<svg enable-background="new 0 0 86 55.4" viewBox="0 0 86 55.4" xmlns="http://www.w3.org/2000/svg"><path d="m83.8 46h-5.5v-38.1c0-4.3-3.5-7.9-7.9-7.9h-54.9c-4.4 0-7.9 3.5-7.9 7.9v38.1h-4.8c-.8 0-1.6.3-2.1.9s-.8 1.4-.7 2.2c.5 3.6 3.5 6.2 7.2 6.2h71.6c4 0 7.2-3.2 7.3-7.2-.1-1.2-1.1-2.1-2.3-2.1zm-71.9-38.1c0-2 1.6-3.6 3.6-3.6h55c1.9 0 3.5 1.6 3.5 3.6v38.1h-62.1z" fill="#2a2d58"/><path d="m65.9 16.6c-1.9-1.6-4.8-1.5-6.4.4 0 0 0 0-.1.1l-12.7 14.2-.1.1-.5 7.5 7.5-1.5 12.7-14.4c1.6-2.1 1.4-4.9-.4-6.4zm-1.7 4.4-1.1 1.2-2.6-2.2 1.1-1.3c.6-.7 1.6-.8 2.3-.2 0 0 .1 0 .1.1.8.7.7 1.8.2 2.4zm-14.9 14.3.1-2.8 9.1-10.3 2.6 2.2-9 10.3z" fill="#f1b860"/><path d="m43.4 31.9h-.4.4c.9-1.9 1.3-4 1.3-6.1-.2-7.3-6.1-13.1-13.4-13.3h-.1c-3.8 0-7.5 1.6-10.2 4.4-2.6 2.9-3.9 6.7-3.6 10.6.5 5.9 6.2 11.7 12.1 12.3 2.5.3 5-.2 7.3-1.2l4.4.6c1.3.2 2.5-.7 2.7-2.1 0-.2 0-.4 0-.6zm-2.3.3.6 4.5v.1h-.1l-4.4-.6c-.5-.1-.9 0-1.4.2-1.9.9-4 1.2-6 1-4.9-.5-9.6-5.3-10.1-10.2-.3-3.2.8-6.4 3-8.8 2.2-2.3 5.2-3.6 8.4-3.6.8 0 1.7.1 2.5.3 3.5.8 6.4 3.3 7.8 6.6 1.3 3 1.2 6.3-.1 9.2-.2.4-.3.8-.2 1.3z" fill="#2a2d58"/><g fill="#f1b860"><path d="m26.7 24.9h6.2c.6 0 1.2-.5 1.2-1.2 0-.6-.5-1.2-1.2-1.2h-6.2c-.6 0-1.2.5-1.2 1.2s.5 1.2 1.2 1.2z"/><path d="m35.4 27.3h-8.7c-.6 0-1.2.5-1.2 1.1s.5 1.2 1.1 1.2h.1 8.7c.6 0 1.2-.5 1.2-1.1s-.5-1.2-1.1-1.2z"/></g></svg>