<svg xmlns="http://www.w3.org/2000/svg" viewBox="0 0 64.25 80.9"><title>ICONS_nieuwwwwww</title><path d="M60.32,12.74,49.68,2a6.71,6.71,0,0,0-4.76-2H4.31A4.32,4.32,0,0,0,0,4.34V76.56A4.33,4.33,0,0,0,4.31,80.9H32.47a3.15,3.15,0,0,0,0-6.29H6.86A.61.61,0,0,1,6.25,74V6.91a.62.62,0,0,1,.61-.63H42.68a.62.62,0,0,1,.6.63v7.9a4.34,4.34,0,0,0,4.31,4.34h7.82a.61.61,0,0,1,.61.62v25a3.13,3.13,0,1,0,6.25,0V17.49A6.7,6.7,0,0,0,60.32,12.74Z" fill="#2a2d58"/><path d="M48,28H40.09a2.13,2.13,0,0,0,0,4.24H48A2.13,2.13,0,0,0,48,28Z" fill="#f1b860"/><path d="M28.41,32.23h5.95a2.13,2.13,0,0,0,0-4.24H28.41a2.13,2.13,0,0,0,0,4.24Z" fill="#f1b860"/><path d="M28.41,24.42h9.91a2.12,2.12,0,0,0,0-4.23H28.41a2.12,2.12,0,0,0,0,4.23Z" fill="#f1b860"/><path d="M44.08,36H29a2.32,2.32,0,0,0-2.47,2.12A2.33,2.33,0,0,0,29,40.27h15.1a2.33,2.33,0,0,0,2.47-2.12A2.32,2.32,0,0,0,44.08,36Z" fill="#f1b860"/><path d="M43.77,44.72H29.24c-1.56,0-2.78.93-2.78,2.12S27.68,49,29.24,49H43.77c1.56,0,2.78-.93,2.78-2.11S45.33,44.72,43.77,44.72Z" fill="#f1b860"/><path d="M36.34,55.4H28.41a2.13,2.13,0,0,0,0,4.24h7.93a2.13,2.13,0,0,0,0-4.24Z" fill="#f1b860"/><path d="M21,49.66a1.4,1.4,0,0,0-1-.2,1.33,1.33,0,0,0-.87.59l-3.7,5.53-1.12-1.12a1.4,1.4,0,0,0-1-.44h0a1.4,1.4,0,0,0-1,.4,1.41,1.41,0,0,0-.41,1,1.4,1.4,0,0,0,.44,1l2.32,2.28a1.37,1.37,0,0,0,1,.42h.14a1.36,1.36,0,0,0,1-.61l4.61-6.92a1.33,1.33,0,0,0,.2-1A1.35,1.35,0,0,0,21,49.66Z" fill="#2a2d58"/><path d="M14.6,29.15a1.36,1.36,0,0,0,1,.41h.13a1.36,1.36,0,0,0,1-.61L21.33,22a1.29,1.29,0,0,0,.2-1A1.38,1.38,0,0,0,19,20.5L15.34,26,14.21,24.9a1.37,1.37,0,0,0-1.93,2Z" fill="#2a2d58"/><path d="M21,34.91a1.36,1.36,0,0,0-1.91.38l-3.7,5.53-1.13-1.13a1.37,1.37,0,0,0-1.93,2l2.32,2.3a1.36,1.36,0,0,0,1,.41h.13a1.32,1.32,0,0,0,1-.6l4.61-6.93a1.29,1.29,0,0,0,.2-1A1.35,1.35,0,0,0,21,34.91Z" fill="#2a2d58"/><path d="M62.49,53.1a5.25,5.25,0,0,0-7.47.53L40.51,70.36l-.1.12-.57,8.73,8.57-1.79L63,60.55A5.46,5.46,0,0,0,62.49,53.1Zm-2,5.23-1.27,1.45-2.93-2.54,1.27-1.47a1.88,1.88,0,0,1,2.74-.2A2,2,0,0,1,60.54,58.33ZM43.47,75l.16-3.26,10.45-12L57,62.26l-10.32,12Z" fill="#2a2d58"/></svg>