<svg enable-background="new 0 0 86 80.9" viewBox="0 0 86 80.9" xmlns="http://www.w3.org/2000/svg"><path d="m81.4 17.4c-.4-1.1-1.3-1.8-2.4-2l-13.3-2-6-11.7c-.8-1.5-2.6-2.1-4.1-1.3-.6.3-1 .7-1.3 1.3l-6 11.7-13.3 2c-1.1.2-2 .9-2.4 2s-.1 2.2.7 3l9.6 9.2-2.2 13-.1.9h.1c.1.8.5 1.6 1.2 2 .9.7 2.1.7 3.1.2l11.9-6.1 12.1 6.1c.4.2.9.3 1.4.3.9 0 1.7-.4 2.2-1.1.6-.7.8-1.5.7-2.4l-2.2-13 9.6-9.2c.8-.7 1.1-1.9.7-2.9zm-16.4 11.6 1.5 8.7-8-4.1c-.9-.4-1.9-.4-2.7 0l-8 4.1 1.5-8.7c.2-.9-.2-1.9-.8-2.6l-6.4-6.2 8.9-1.3c1-.1 1.8-.7 2.2-1.6l4-7.9 4 7.9c.4.9 1.3 1.4 2.2 1.6l8.9 1.3-6.4 6.2c-.7.7-1.1 1.7-.9 2.6z" fill="#2a2d58"/><path d="m47 53.3c-.3-1-1.2-1.7-2.2-1.8l-12.2-1.8-5.6-10.9c-.7-1.4-2.4-1.9-3.7-1.2-.5.3-.9.7-1.2 1.2l-5.5 10.8-12.3 1.8c-1 .1-1.9.9-2.2 1.8-.3 1-.1 2.1.7 2.8l8.8 8.5-2 11.9-.1.8h.1c.1.8.5 1.4 1.1 1.9.8.6 2 .7 2.9.2l11-5.6 11 5.6c.4.2.9.3 1.3.3.8 0 1.5-.4 2.1-1 .5-.6.7-1.4.6-2.2l-2-11.9 8.8-8.5c.7-.7.9-1.7.6-2.7zm-15.1 10.7 1.3 8-7.4-3.8c-.8-.4-1.7-.4-2.5 0l-7.4 3.8 1.3-8c.1-.9-.1-1.8-.8-2.4l-5.8-5.6 8.2-1.2c.9-.1 1.7-.7 2.1-1.5l3.7-7.3 3.7 7.3c.4.8 1.2 1.3 2.1 1.5l8.2 1.2-5.9 5.7c-.7.6-1 1.5-.8 2.3z" fill="#f1b860"/><path d="m78.2 60.4c-.2-.6-.7-1.1-1.4-1.2l-7.7-1.2-3.5-6.8c-.4-.9-1.5-1.2-2.4-.8-.3.2-.6.4-.8.8l-3.4 6.8-7.7 1.2c-.6.1-1.2.5-1.4 1.2-.2.6 0 1.3.4 1.8l5.5 5.4-1.2 7.4-.1.5h.1c.1.5.3.9.7 1.2.5.4 1.2.4 1.8.1l6.9-3.5 6.9 3.5c.3.1.5.2.8.2.5 0 1-.2 1.3-.6s.5-.9.4-1.4l-1.3-7.5 5.6-5.4c.5-.4.7-1.1.5-1.7zm-9.6 6.7.8 5.1-4.7-2.4c-.5-.3-1.1-.3-1.6 0l-4.7 2.4.8-5.1c.1-.6-.1-1.1-.5-1.5l-3.7-3.6 5.2-.8c.6-.1 1-.4 1.3-.9l2.3-4.6 2.3 4.6c.3.5.7.8 1.3.9l5.2.8-3.7 3.6c-.2.4-.4 1-.3 1.5z" fill="#2a2d58"/></svg>