<svg enable-background="new 0 0 78.4 79.5" viewBox="0 0 78.4 79.5" xmlns="http://www.w3.org/2000/svg"><g fill="#f1b860" stroke="#f1b860" stroke-miterlimit="10"><path d="m48.3 35.8c.3-1.1.5-2.1.6-3.3.1-1.1 0-2.1-.2-3.1s-.5-1.9-1-2.9c-.2-.5-.4-1.1-.9-1.5 0-.1 0-.2-.1-.2-.4-.4-.7-1-1.2-1.5s-1.1-1.1-1.7-1.6-1.4-1-2.1-1.3c-.4-.2-.7-.4-1.2-.5-.6-.1-1.2-.4-1.8-.4-.6-.1-1.3-.2-1.9-.2-.3 0-.7 0-1.1 0-.9 0-1.7.1-2.5.3-.7.2-1.5.4-2.1.7-.7.3-1.4.7-2 1.2-.5.3-1 .7-1.5 1.2-.7.7-1.5 1.6-2 2.5s-1.1 1.8-1.3 2.9c-.2.6-.3 1.3-.4 1.9-.1 1.3-.1 2.5 0 3.7 0 .3.1.5.1.9.1.3.2.6.3 1 .1.5.3 1.1.6 1.6.3.7.7 1.4 1.3 2 .5.6 1.1 1.4 1.7 1.9.5.4 1.1.9 1.6 1.2.2.1.2.2.2.3v3.2c.2.7.7 1.3 1.6 1.3h9.8c.5 0 1-.2 1.3-.6.3-.3.4-.7.4-1.2 0-1 0-1.8 0-2.8 0-.2.1-.2.2-.3.5-.3 1-.6 1.4-1.1.5-.4 1-1 1.4-1.4 1.2-1.2 2-2.5 2.5-3.9zm-2-8.8s0 .1 0 0zm-4.6 13.9c-.4.2-.6.6-.6 1.1v3c0 .2 0 .2-.2.2-2.9 0-5.9 0-8.8 0-.1 0-.2 0-.2-.2s0-.4 0-.6c0-.1-.1-.1-.1-.1l.1.1c0-.1 0-.2 0-.2 0-.1 0-.1 0-.2v.2c0-.1 0-.2 0-.3 0-.3 0-.5 0-.9 0-.3 0-.6 0-1v1c0-.4 0-.9 0-1.2 0-.4-.2-.6-.5-.9-.6-.3-1.2-.7-1.7-1.2-.9-.7-1.5-1.5-2.1-2.5-.9-1.5-1.4-3.1-1.5-4.8-.2-2.8.6-5.3 2.5-7.6 1.5-1.8 3.4-3 5.8-3.5 1.8-.4 3.6-.3 5.3.2 2.9.9 5 2.7 6.4 5.3 0 0 0 .1.1.1v.1c.3.9.6 1.6.9 2.6.4 2.5.1 4.7-1 6.8-1.2 2-2.6 3.4-4.4 4.5zm-9.9 3.2s0 .1.1.1c-.1-.1-.1-.1-.1-.1z"/><path d="m41.6 55.9c-1.7 0-3.3 0-5 0s-3.4 0-5 0c-.3 0-.6.1-.9.4-.4.5-.2 1.2.2 1.5.2.1.3.2.3.4 0 .1.1.2.1.3.2.6.6 1.3 1.2 1.8.5.5 1.2 1 1.9 1.3.5.2 1.2.4 1.8.4.4 0 .7 0 1.2-.1.7-.1 1.5-.3 2.1-.7.5-.3 1.1-.7 1.4-1.3.2-.3.4-.5.5-.9.2-.3.3-.7.4-1.2 0-.1 0-.1.1-.1.2-.1.4-.2.5-.4.2-.3.1-.7-.1-1.1-.1-.1-.4-.3-.7-.3zm-1.9 2.3c-1.1 2-3.7 2.6-5.4 1.1-.3-.3-.6-.6-.9-1.1-.1-.2 0-.2.1-.2h3.1s2 0 3.1 0c.1-.1.1-.1 0 .2z"/><path d="m41.5 48.8c-3.3 0-6.7 0-10 0-.2 0-.4.1-.6.2-.4.2-.6 1.1-.3 1.4.2.3.5.4 1 .4h5 5c.4 0 .7-.1 1-.5.3-.8-.3-1.5-1.1-1.5z"/><path d="m41.6 52.4c-3.3 0-6.7 0-10 0-.1 0-.1 0-.2 0-.6 0-1.1.6-1 1.3.2.4.4.7 1.1.7h5.1 2.7s1.6 0 2.5 0c.4 0 .9-.3 1-.6 0-.8-.5-1.4-1.2-1.4z"/><path d="m22.3 19c.2.2.4.3.5.5l1.2 1.2 1.2 1.2s1.4.5 1.7-.1c.1-.3.1-.9-.1-1.1-.4-.3-.7-.7-1.2-1.2-.6-.6-1.3-1.3-1.9-1.9-.2-.2-.4-.3-.7-.3-.4 0-.7.1-.9.5-.4.3-.3.7.2 1.2z"/><path d="m49.8 43.7c-.6-.6-1.3-1.3-1.9-1.9-.1-.1-.2-.3-.4-.4-.4-.3-1-.2-1.4.3-.2.2-.3.9 0 1.2l1.7 1.7 1.3 1.3c.3.3.5.6 1 .5.3 0 .5-.1.7-.3.4-.4.4-1 0-1.4-.3-.3-.6-.6-1-1z"/><path d="m46.5 22.1c.4.2 1 .2 1.3-.1l1.3-1.3c.6-.6 1.3-1.2 1.8-1.8.3-.3.3-.7.1-1.2-.2-.3-.5-.4-.9-.4-.2 0-.5 0-.6.2-.4.4-.7.7-1.2 1.2-.6.6-1.3 1.3-1.8 1.8-.1.1-.2.1-.2.2-.3.3-.3 1 .2 1.4z"/><path d="m25.5 41.4c-.3.2-.5.5-.9.7-.2.2-.4.4-.6.6-.6.6-1.4 1.4-2 2l-.1.1c-.3.7.2 1.4 1 1.4.3 0 .6-.1.9-.3 1-1.1 1.9-2 3-3 .4-.3.4-1 .2-1.4-.5-.2-1.1-.3-1.5-.1z"/><path d="m56.7 31.3c-.1-.4-.5-.6-1-.6-1.5 0-2.9 0-4.4 0-.2 0-.3 0-.5.1s-.4.4-.5.6c-.1.4.2 1.2.9 1.2s1.6 0 2.3 0h2.3c.2 0 .4 0 .5-.2.4-.2.5-.6.4-1.1z"/><path d="m22.6 31.9c.1-.6-.3-1.2-1-1.2-1.5 0-2.9 0-4.4 0-.1 0-.1 0-.2 0-.5.1-.9.4-.9 1s.4 1 1 1h2.2 2.2s1-.3 1.1-.8z"/><path d="m35.5 16.8c0 .6.4 1.1 1 1.1s1-.4 1-1.1 0-1.5 0-2.1c0-.7 0-1.5 0-2.1 0-.1 0-.2 0-.3-.1-.4-.6-.7-1.1-.6-.4.1-.9.5-.9 1s0 .9 0 1.3z"/></g><path d="m74.7 40.8c-.5-1-1.4-2.4-2.6-3.6-2.8-2.6-4.2-5.9-4.3-10.1-.2-9.9-4.5-17.7-12.4-22.4-6.8-4.1-16-5.9-24.5-4.7-9.9 1.4-18.1 6.5-23.2 14.5-5.2 8.1-6.1 17.3-2.7 26.6.9 2.4 2.4 4.5 3.8 6.5.8 1.1 1.5 2.1 2.2 3.2 1.4 2.3 2.7 4.8 3.9 7.4 1 2.2.6 4.5.1 7.1-.2 1.1-.4 2.3-.5 3.5-.2 1.8-.4 3.6-.7 5.5-.2 1.1-.3 2.2-.5 3.3l-.3 2.3h34.7v-2c0-.8 0-1.6 0-2.4 0-1.6 0-3.2 0-4.8 0-.1 0-.1 0-.2h.4c2.2.2 4.4.3 6.7.4 2.2.1 4.4.2 6.6.4 3.1.2 5.9-1.1 7.4-3.4 1.3-2.1 1.4-4.7 0-7.1 0-.1-.1-.3-.1-.5 1.3-1.3 2-2.6 1.9-4 0-1-.4-1.8-.9-2.5.4-.3.9-.5 1.3-.8l1.7-1.1-1.1-1.7c-.4-.6-.7-1.1-1-1.7.8-.5 1.5-1 2.2-1.4 2.6-1.5 3.3-3.9 1.9-6.3zm-5.6 3.2c-1.1.7-2.3 1.4-3.6 2.4l-1.4 1 1.2 2.2c.2.3.3.6.5.9 0 0-.1 0-.1.1-.5.3-1 .6-1.6.9l-2.4 1.5 2.3 1.6c1.2.9 1.3 1.3 1.3 1.3 0 .1-.1.4-.7.9-1.4 1.1-1.2 3.7-.6 4.9.6 1.1.6 2.1.1 2.9-.6 1-2 1.5-3.5 1.5-2.1-.1-4.2-.3-6.3-.4s-4.2-.2-6.2-.4c-1.5-.1-2.5.2-3.3 1-.7.7-1.1 1.8-1 3.1v1.4.7 2.2.4h-24.5c0-.3.1-.6.1-.9.3-1.7.5-3.5.7-5.3.1-1 .2-1.9.4-2.9.5-2.7 1-5.7-.4-8.9-1.2-2.6-2.5-5-3.8-7.3-.7-1.2-1.5-2.2-2.2-3.3-1.3-1.8-2.4-3.4-3.1-5.2-2.8-7.6-2-15.1 2.2-21.7 5.4-8.4 13.4-11.1 19.1-11.9 7.2-1 14.8.5 20.5 3.9 6.3 3.8 9.6 9.8 9.8 17.8.1 4.9 1.9 9 5.1 12.1.6.6 1.1 1.4 1.8 2.5.1.2.2.3.2.3 0 .2-.1.4-.6.7z" fill="#2a2d58"/></svg>