<svg enable-background="new 0 0 78.4 79.5" viewBox="0 0 78.4 79.5" xmlns="http://www.w3.org/2000/svg"><path d="m35.7 38.8c-1.2 0-2.1 1-2.1 2.2l-.1 8.5h-10.5c-1.2 0-2.2 1-2.2 2.2s1 2.2 2.2 2.2h12.3c.3 0 .6-.1.8-.2.9-.3 1.5-1.1 1.4-2.1v-10.7c.3-1-.6-2-1.8-2.1z" fill="#f1b860"/><path d="m71.7 4.2-13.6 6.7 6.5 2.2c-3.6 8.9-13.3 13.6-22.4 11l-18.9-6.4-11.1-3.8 2.1-6.5-13.5 6.8 6.8 13.5 2.1-6.5 11 3.8c-6.1 3-11.1 8.3-13.5 15.3-2.8 8.6-1.1 17.7 3.9 24.5h.2l5.7-5.1v-.1c-3.2-4.7-4.3-10.9-2.3-16.7 3.2-9.5 13.4-14.7 22.9-12 .3.1.7.3 1 .4s.7.2 1 .3c9.2 3.7 14 14.1 10.8 23.6-1.5 4.3-4.3 7.6-7.9 9.8l-3.2-6.5-4.9 14.4 14.4 4.9-2.8-5.8c5.3-3.1 9.6-8.1 11.8-14.3 3.1-9.1 1-18.7-4.7-25.6 8.4-1.9 15.7-7.8 19-16.3l6.4 2.2z" fill="#2a2d58"/><g fill="#f1b860"><path d="m15.3 68.4c-.2 0-.4-.1-.6-.2-.4-.4-.5-1-.1-1.4l3.9-4.7c.3-.4 1-.5 1.4-.1s.5 1 .1 1.4l-3.9 4.6c-.2.3-.5.4-.8.4z"/><path d="m22.1 72.2c-.2.1-.4 0-.6 0-.5-.2-.8-.8-.5-1.3l2.4-5.7c.2-.5.8-.8 1.3-.5.5.2.8.8.5 1.3l-2.4 5.7c-.2.2-.4.4-.7.5z"/><path d="m29.2 73.9c-.2.1-.4.1-.6.1-.5-.1-.9-.6-.9-1.1l.7-6.1c.1-.5.6-.9 1.1-.9.5.1.9.6.9 1.1l-.7 6.1c-.1.4-.3.6-.5.8z"/></g></svg>