<svg xmlns="http://www.w3.org/2000/svg" viewBox="0 0 66.64 80.03"><title>ICONS_nieuwwwwww</title><path d="M21.33,27.15H10.18a1.87,1.87,0,0,1,0-3.73H21.33a1.87,1.87,0,0,1,0,3.73Z" fill="#f1b860"/><circle cx="50.08" cy="16.56" r="10.3" fill="#f1b860"/><path d="M55.22,11.94l0,0a1.08,1.08,0,0,0-.8-.32,1.05,1.05,0,0,0-.73.32l-8,8a1.14,1.14,0,0,0-.33.8,1,1,0,0,0,.33.74,1.07,1.07,0,0,0,1.53,0l8-8A1.09,1.09,0,0,0,55.22,11.94Z" fill="#2a2d58"/><path d="M3.18,68.81H43.64v-39a14.69,14.69,0,0,1-8.26-13.21,16,16,0,0,1,.1-1.7H3.18Z" fill="none"/><path d="M44.77,71.06H7.67V73.3H48.14V31.12a14,14,0,0,1-2.25-.47V69.93A1.13,1.13,0,0,1,44.77,71.06Z" fill="none"/><path d="M49.26,75.55H12.17V77.8H52.63V31a13.84,13.84,0,0,1-2.25.22V74.43A1.12,1.12,0,0,1,49.26,75.55Z" fill="none"/><path d="M53.44,31H52.18a1.44,1.44,0,0,0-1.44,1.44v9.75h0V74.51A1.45,1.45,0,0,1,49.33,76H13.61a1.44,1.44,0,0,1-1.44-1.44V72H44.35a2.72,2.72,0,0,0,2.47-2.7V31.89a2.68,2.68,0,0,0-1.71-2.49l-.2-.08a1.6,1.6,0,0,0-2.2,1.47v36a1.07,1.07,0,0,1-1.07,1.07H5.18a1.07,1.07,0,0,1-1.07-1.07V16.86a1.07,1.07,0,0,1,1.07-1.07H34a2.69,2.69,0,0,0,2.61-2.15v0a1.59,1.59,0,0,0-.31-1.33,1.62,1.62,0,0,0-1.26-.6H3.8A3.8,3.8,0,0,0,0,15.47V69.26A2.72,2.72,0,0,0,2.47,72H8.06v5.37A2.72,2.72,0,0,0,10.53,80H52.4a2.73,2.73,0,0,0,2.48-2.7V32.47A1.45,1.45,0,0,0,53.44,31Z" fill="#2a2d58"/><path d="M50.08,33.13A16.24,16.24,0,0,1,47.89,33a17.39,17.39,0,0,1-2.53-.53,17.13,17.13,0,0,1-2.54-1,16.58,16.58,0,0,1-9.19-16.8,16.93,16.93,0,0,1,.51-2.53,16.55,16.55,0,1,1,21.35,20.1,16.89,16.89,0,0,1-2.54.65,15.49,15.49,0,0,1-2.53.25Zm0-29.41a12.89,12.89,0,0,0-12.36,9.39,14.76,14.76,0,0,0-.39,2,13.76,13.76,0,0,0-.09,1.49A12.78,12.78,0,0,0,44.46,28.1a13,13,0,0,0,2,.77,12.81,12.81,0,0,0,2,.41,12.22,12.22,0,0,0,1.7.13l.27,0a13,13,0,0,0,2-.19A12.84,12.84,0,0,0,50.08,3.72Z" fill="#f1b860"/><path d="M35.88,38.88a3.33,3.33,0,0,0-3.28,4L26.94,47a3.34,3.34,0,0,0-3.06-.06L19,43a3.39,3.39,0,0,0,.1-.77,3.34,3.34,0,0,0-6.68,0,3.28,3.28,0,0,0,1.09,2.46l-2.06,6.7a3.34,3.34,0,1,0,2.72.84l2.06-6.7a3.44,3.44,0,0,0,1-.3l4.88,3.9a3,3,0,0,0-.1.77,3.34,3.34,0,0,0,6.68,0,2.74,2.74,0,0,0-.07-.62l5.67-4.12a3.29,3.29,0,0,0,1.6.42,3.35,3.35,0,0,0,0-6.69Z" fill="#2a2d58"/><path d="M46.79,11.07A1.9,1.9,0,1,0,48.69,13,1.89,1.89,0,0,0,46.79,11.07Z" fill="#2a2d58"/><circle cx="53.38" cy="19.95" r="1.89" fill="#2a2d58"/></svg>