<svg enable-background="new 0 0 701 707" viewBox="0 0 701 707" xml:space="preserve" xmlns="http://www.w3.org/2000/svg" xmlns:xlink="http://www.w3.org/1999/xlink"><circle cx="350" cy="354" fill="#f1b860" r="347.9"/><path d="m660.6 299.2-5.7 15.2 9.4 13.2-7.1 14.5 8.2 14-8.3 13.9 6.9 14.6-9.5 13.1 5.6 15.2-10.7 12.2 4.2 15.6-11.8 11.1 2.8 16-12.7 10.1 1.3 16.1-13.5 8.9-.2 16.2-14.2 7.6-1.6 16.1-14.9 6.3-3 15.9-15.4 5-4.4 15.6-15.8 3.6-5.8 15.1-16.1 2.2-7.1 14.5-16.2.7-8.4 13.8-16.1-.8-9.7 13.1-16-2.3-10.8 12.1-15.7-3.6-11.8 11-15.4-5-12.8 10-14.8-6.4-13.6 8.9-14.2-7.7-14.4 7.5-13.5-8.9-14.9 6.3-12.6-10.1-15.5 4.8-11.6-11.2-15.8 3.5-10.7-12.2-16 2-9.5-13.1-16.2.5-8.2-13.9-16.2-.8-7-14.6-16-2.3-5.7-15.2-15.7-3.7-4.3-15.6-15.4-5.1-2.9-16-14.8-6.4-1.4-16.2-14.2-7.7v-16.2l-13.4-9.1 1.5-16.1-12.6-10.2 2.9-15.9-11.5-11.3 4.3-15.6-10.5-12.3 5.7-15.1-9.4-13.2 7-14.5-8.2-14 8.3-13.9-6.9-14.6 9.5-13.1-5.6-15.2 10.7-12.2-4.1-15.6 11.7-11.2-2.8-15.9 12.7-10.1-1.3-16.1 13.5-8.9.2-16.2 14.2-7.6 1.6-16.1 14.9-6.4 3-15.9 15.4-4.9 4.5-15.6 15.7-3.6 5.8-15.1 16.1-2.2 7.1-14.5 16.2-.7 8.4-13.8 16.2.7 9.6-13 16 2.2 10.8-12 15.8 3.6 11.8-11.1 15.3 5.1 12.8-10 14.9 6.3 13.5-8.8 14.3 7.7 14.3-7.6 13.5 9 14.9-6.3 12.6 10.1 15.5-4.8 11.7 11.2 15.8-3.5 10.6 12.2 16-2 9.5 13.1 16.2-.6 8.3 14 16.1.8 7 14.6 16 2.3 5.7 15.2 15.8 3.7 4.3 15.6 15.3 5.1 2.9 15.9 14.8 6.5 1.5 16.1 14.1 7.8v16.2l13.4 9-1.4 16.1 12.5 10.3-2.9 15.9 11.6 11.3-4.4 15.6z" fill="none" stroke="#2a2d58" stroke-miterlimit="10" stroke-width="5"/><path d="m636.8 306.4-5.9 13.9 9.3 12-7.1 13.3 8.1 12.7-8.2 12.7 7 13.4-9.4 11.8 5.7 14-10.4 11 4.5 14.4-11.4 10 3.2 14.8-12.2 8.9 1.8 15-13 7.8.5 15.1-13.6 6.6-.9 15.1-14.1 5.4-2.2 14.9-14.6 4.1-3.5 14.7-14.9 2.8-4.9 14.3-15 1.4-6.1 13.8-15.1.1-7.4 13.2-15-1.3-8.6 12.5-14.8-2.7-9.6 11.7-14.6-4-10.6 10.8-14.2-5.3-11.5 9.8-13.7-6.5-12.3 8.8-13-7.7-13.1 7.6-12.3-8.9-13.7 6.4-11.4-9.9-14.2 5.1-10.5-10.9-14.6 3.8-9.5-11.8-14.9 2.5-8.3-12.6-15.1 1.2-7.2-13.3-15.1-.2-6-13.9-15.1-1.6-4.7-14.3-14.8-2.9-3.5-14.7-14.5-4.2-2.1-15-14.1-5.5-.7-15.1-13.5-6.7.6-15.1-12.9-8 2-15-12.1-9 3.3-14.8-11.2-10.1 4.6-14.4-10.3-11 5.9-14-9.3-11.9 7.1-13.4-8.1-12.7 8.2-12.6-7-13.4 9.4-11.9-5.7-14 10.4-10.9-4.5-14.5 11.4-9.9-3.2-14.8 12.2-9-1.8-15 13-7.8-.5-15.1 13.6-6.6.9-15.1 14.1-5.3 2.2-15 14.6-4.1 3.6-14.7 14.8-2.7 4.9-14.3 15-1.5 6.1-13.8h15.2l7.3-13.3 15.1 1.4 8.5-12.5 14.9 2.6 9.5-11.7 14.6 4 10.6-10.7 14.2 5.2 11.5-9.8 13.7 6.5 12.3-8.7 13 7.7 13.1-7.6 12.3 8.8 13.7-6.4 11.4 9.9 14.2-5.1 10.5 10.9 14.6-3.8 9.5 11.8 14.9-2.5 8.4 12.6 15-1.1 7.2 13.3 15.2.2 5.9 13.9 15.1 1.5 4.7 14.4 14.9 2.9 3.4 14.7 14.5 4.2 2.1 15 14.1 5.5.7 15.1 13.6 6.7-.7 15.1 12.9 7.9-2 15 12.1 9.1-3.3 14.7 11.2 10.1-4.6 14.4z" fill="#2a2d58"/><path id="a" d="m402.4 67.3c138.8 34 223.9 174 189.9 312.9s-174.1 223.8-312.9 189.8-223.9-174-189.9-312.9 174.1-223.8 312.9-189.8z" fill="none"/><text>  <textPath startOffset="17.3583%" xlink:href="#a"><tspan fill="#2a2d58" font-family="SourceSansPro-Semibold" font-size="66.6811"></tspan><tspan fill="#fff" font-family="SourceSansPro-Semibold" font-size="66.6811"></tspan><tspan fill="#fff" font-family="SourceSansPro-Semibold" font-size="100.0216"></tspan></textPath> </text><path d="m293.7 179.8c.5 2.9 2.1 5.5 4.4 7.2l19.4 13.5c1.3.9 2.3 2 3.1 3.3 1.6 2.6 2.2 5.7 1.5 8.6-.3 1.5-1 2.9-1.8 4.1l-13.6 19.4c-3.4 5.2-2.1 12.1 3 15.7 2.5 1.8 5.6 2.4 8.6 1.9s5.7-2.2 7.5-4.7l26.5-38c.9-1.2 1.5-2.6 1.8-4.1.6-3 .1-6.1-1.5-8.6-.8-1.3-1.9-2.4-3.1-3.3l-37.9-26.5c-5.2-3.6-12.4-2.4-16.1 2.8-1.7 2.7-2.3 5.7-1.8 8.7z" fill="#f1b860"/><path d="m375.8 176.4c.4 2.5 1.8 4.7 3.8 6.2l16.6 11.6c1.1.8 2 1.7 2.7 2.8 1.4 2.2 1.9 4.9 1.3 7.4-.3 1.3-.8 2.5-1.6 3.5l-11.6 16.8c-2.9 4.5-1.8 10.4 2.6 13.5 2.2 1.5 4.8 2.1 7.4 1.6 2.6-.4 4.9-1.9 6.4-4l22.8-32.6c.8-1.1 1.3-2.3 1.6-3.5.5-2.5.1-5.2-1.3-7.4-.7-1.1-1.6-2.1-2.7-2.8l-32.6-22.8c-4.5-3.1-10.7-2-13.8 2.4-1.5 2.1-2.1 4.7-1.6 7.3z" fill="#f1b860"/><path d="m223.1 203.3c.4 2.5 1.8 4.7 3.8 6.2l16.6 11.6c1.1.8 2 1.7 2.7 2.8 1.4 2.2 1.9 4.9 1.3 7.4-.3 1.3-.8 2.5-1.6 3.5l-11.7 16.7c-2.9 4.5-1.8 10.4 2.6 13.5 2.2 1.5 4.8 2.1 7.4 1.6 2.6-.4 4.9-1.9 6.4-4l22.8-32.6c.8-1.1 1.3-2.3 1.6-3.5.5-2.5.1-5.2-1.3-7.4-.7-1.1-1.6-2.1-2.7-2.8l-32.6-22.8c-4.5-3.1-10.7-2-13.8 2.4-1.4 2.2-1.9 4.9-1.5 7.4z" fill="#f1b860"/><g fill="#fff"><path d="m178.4 310.6c10.7-1.9 20.6 1.8 27.5 6.7l-8.6 13.9c-5.1-3.2-9.6-5-15.7-3.9-12 2.1-19.6 14.2-16.5 31.5 3.1 17.7 13.3 26.6 25.8 24.3 7.1-1.3 11.6-5.2 15-10.6l12.8 9.9c-5.7 9.6-14.4 15.6-25.1 17.5-22.3 3.9-43.3-8-48.4-37-4.9-28.4 11-48.4 33.2-52.3z"/><path d="m264.3 342.5c-1.4-5.7-5-8.9-12-7.7-5.6 1-10.7 4.2-16.4 9l-9.1-11.6c7.4-6.5 16.2-11.7 26.5-13.5 16.8-3 27.7 4.9 31.3 25l6.6 37.5-15.9 2.8-2.6-6.5-.4.1c-4.7 5.9-10.3 10.4-17.7 11.7-11.9 2.1-21-5.3-22.9-16.4-2.5-13.7 7.2-23.2 32.6-30.4zm-5.8 30.6c4.5-.8 7-3.4 9.9-7.5l-2-11.5c-13.6 4.3-17.3 9.1-16.5 14.1.7 4.2 4 5.7 8.6 4.9z"/><path d="m298.1 312.4 15.9-2.8 3.3 11.3.5-.1c3.2-9.7 9.6-15.2 16.3-16.4 3.7-.7 6-.5 8-.1l-.2 17.3c-2.5-.2-4.5-.3-7.3.2-4.9.9-10.4 5.1-12.3 14.6l6.7 38.1-19.4 3.4z"/><path d="m378 296.7c18.6-3.3 30.3 8.7 33.4 26.5.6 3.4.8 6.7.7 8.3l-39.3 6.9c3.5 9.6 10.8 12.8 19.6 11.3 4.9-.9 9.1-3.1 13.4-6.9l8.6 10.6c-5.9 5.8-14.2 10.1-22 11.5-18.8 3.3-35.4-6.8-39.2-28.5-3.8-21.2 9.1-36.9 24.8-39.7zm16.3 25.6c-1.3-7.5-5.4-12.3-13.2-10.9-6.1 1.1-10.6 6.1-10.4 15.1z"/><path d="m448.4 284.3c18.6-3.3 30.3 8.7 33.4 26.5.6 3.4.8 6.7.7 8.3l-39.3 6.9c3.5 9.6 10.8 12.8 19.6 11.3 4.9-.9 9.1-3.1 13.4-6.9l8.6 10.6c-5.9 5.8-14.2 10.1-22 11.5-18.8 3.3-35.4-6.8-39.2-28.5-3.9-21.2 9-36.9 24.8-39.7zm16.2 25.6c-1.3-7.5-5.4-12.3-13.2-10.9-6.1 1.1-10.6 6.1-10.4 15.1z"/><path d="m491.9 278.3 15.9-2.8 3.3 11.3.5-.1c3.2-9.7 9.6-15.2 16.3-16.4 3.7-.7 6-.5 8-.1l-.2 17.3c-2.5-.2-4.5-.3-7.3.2-4.9.9-10.4 5.1-12.3 14.6l6.7 38.1-19.4 3.4z"/><path d="m172.4 500.3c7 5.6 16.2 8.3 25.6 6.7 12.2-2.2 18.8-10.1 17.2-19.6-1.8-10-8.9-12.1-17.5-14.3l-13.2-3.3c-7.5-1.8-17.6-5.2-19.8-17.1-2-11.6 6.5-21.5 19.8-23.9 9.8-1.7 18.3 1.3 24.1 5.7l-2.6 4.4c-5.5-4.2-12.6-6.3-20.6-4.9-10.6 1.9-16.7 8.7-15.2 17.5 1.6 9.3 10.3 11.4 16.6 13l13.1 3.2c9.6 2.5 18.4 6.1 20.6 18.4s-6.3 23.4-21.9 26.1c-11.7 2.1-21.6-1.3-29.2-7.3z" stroke="#fff" stroke-miterlimit="10"/><path d="m250.1 439.7c13.9-2.5 24.2 5.9 27.2 23.1.3 1.5.5 2.9.5 4.4l-42.2 7.4c2.8 14.7 13.4 23.8 26.6 21.5 6.3-1.1 11-4.1 14.8-8l2.9 3.8c-4.1 3.6-8.9 7.5-17.4 9-15 2.6-29.1-6.7-32.5-25.8-3.3-19.2 7.1-33.1 20.1-35.4zm22.2 24.2c-2.6-15-10.7-21.5-21.2-19.7-10 1.8-17.4 12-16.1 26.2z" stroke="#fff" stroke-miterlimit="10"/><path d="m288.7 434.4 4.6-.8 2.4 10.8.4-.1c2.6-7.9 7.5-14 14.4-15.2 2.2-.4 3.9-.4 6.1.2l-.4 5.1c-2.1-.4-3.2-.4-5.5 0-5.2.9-10.8 6-13.3 17.8l7 39.9-5.4.9z" stroke="#fff" stroke-miterlimit="10"/><path d="m320.9 428.7 5.9-1 19.7 34.4c2.8 5.3 6 10.8 8.8 15.8l.5-.1c1-5.7 2-11.9 3-17.9l6.7-39 5.5-1-11.4 62.4-6.3 1.1z" stroke="#fff" stroke-miterlimit="10"/><path d="m378.2 399.1c-.5-3.1 1.3-5.3 4-5.7 2.7-.5 5.2 1 5.7 4 .5 2.8-1.4 5.1-4 5.6s-5.2-1.1-5.7-3.9zm5.4 18.5 5.4-.9 10.3 58.6-5.4.9z" stroke="#fff" stroke-miterlimit="10"/><path d="m433.1 407.4c8.1-1.4 13.9 1.2 18.5 4.2l-2.5 4.3c-4.4-2.9-9.3-4.8-15-3.8-12 2.1-19.4 14.4-16.6 29.9 2.7 15.4 13 24.4 25.8 22.1 6.2-1.1 11.1-5.1 14.4-9.5l3.5 3.2c-4.2 5.4-9.8 9.8-17.3 11.1-15.1 2.7-28.6-6.5-32-25.9-3.5-19.7 7-33.1 21.2-35.6z" stroke="#fff" stroke-miterlimit="10"/><path d="m484.6 398.3c13.9-2.5 24.2 5.9 27.2 23.1.3 1.5.5 2.9.5 4.4l-42.2 7.4c2.8 14.7 13.4 23.8 26.6 21.5 6.3-1.1 11-4.1 14.8-8l2.9 3.8c-4.1 3.6-8.9 7.5-17.4 9-15 2.6-29.1-6.7-32.5-25.8-3.3-19.2 7.1-33.1 20.1-35.4zm22.2 24.3c-2.6-15-10.7-21.5-21.2-19.7-10 1.8-17.4 12-16.1 26.2z" stroke="#fff" stroke-miterlimit="10"/><path d="m527.5 441.7c5.7 3.3 11.6 5.6 20 4.2 9.1-1.6 13-7.8 11.9-14-1.3-7.3-9.4-9.2-16.6-10.4-9.5-1.6-19.8-3.4-21.6-13.4-1.5-8.5 4-16.8 16.2-19 6.2-1.1 12.9.4 17.8 3.2l-2.3 4.3c-4.4-2.2-9-3.8-15-2.8-9 1.6-12.3 7.6-11.3 12.9 1.1 6.5 8.5 8.1 15.9 9.4 9.8 1.8 20.3 3.1 22.3 14.6 1.5 8.8-4.2 17.7-16.9 20-8.7 1.5-16.9-.8-22.9-4.3z" stroke="#fff" stroke-miterlimit="10"/></g></svg>