<svg xmlns="http://www.w3.org/2000/svg" viewBox="0 0 86 80.93"><title>ICONS_nieuwwwwww</title><path d="M79.42,57.55l-1.19.16,1.22-.26a39.77,39.77,0,0,0,3.75-18A40.61,40.61,0,0,0,43.79.25h-.35A40.82,40.82,0,0,0,13.53,13.1,40.43,40.43,0,0,0,3,44.31C4.59,61.77,21.31,78.67,38.74,80.46a40.31,40.31,0,0,0,21.42-3.64.25.25,0,0,1,.12,0l12.83,1.87a7.09,7.09,0,0,0,8-7.94Zm-6.76.88L74.39,71.6a.23.23,0,0,1-.06.22.27.27,0,0,1-.25.08L61.26,70a6.9,6.9,0,0,0-4,.63,33.31,33.31,0,0,1-17.77,3C25,72.18,11.1,58.16,9.76,43.67a33.1,33.1,0,0,1,8.77-25.93A33.91,33.91,0,0,1,43.16,7.09,31.92,31.92,0,0,1,50.57,8,34,34,0,0,1,73.64,27.31a33.08,33.08,0,0,1-.35,27.24A7,7,0,0,0,72.66,58.43Z" fill="#2a2d58"/><path d="M30.12,37.05h18.4a3.41,3.41,0,0,0,0-6.82H30.12a3.41,3.41,0,0,0,0,6.82Z" fill="#f1b860"/><path d="M55.88,43.88H30.12a3.41,3.41,0,1,0,0,6.81H55.88a3.41,3.41,0,1,0,0-6.81Z" fill="#f1b860"/></svg>