<svg enable-background="new 0 0 71.9 80.1" viewBox="0 0 71.9 80.1" xmlns="http://www.w3.org/2000/svg"><g fill="#2a2d58"><path d="m47.6 37.4c.6 1.9 1.2 3.7 1.7 5.6.4-.7.8-1.5 1.2-2.2s.7-1.5.6-2.3c-.1-.5-.3-1-.5-1.5 0 0-.1-.1-.1-.1 0-.1-.1-.1-.1-.2s-.1-.1-.1-.2c-.3-.2-.7-.4-1-.7-.1 0-.2 0-.2-.1-.3 0-.6-.1-1-.1-.2 0-.3 0-.5.1-.2.6-.2 1.1 0 1.7z"/><path d="m35.2 27.8c.6.6 1.1 1.3 1.4 2.1.3.9.6 1.8.8 2.8.1-.6.3-1.1.6-1.6s.7-.8 1.2-1.1c1-1.8 2-3.7 2.9-5.5.3-.6.5-1.3.4-2-.2-2-2.2-3.3-4.1-2.6-.9.4-1.5 1-2 1.9-.9 1.8-1.9 3.6-2.9 5.4.8 0 1.3.2 1.7.6z"/><path d="m41 29.3c-.1.2-.2.4-.3.6h.1c1.7-.1 3.3 1.1 3.9 2.8.2.5.3 1.1.5 1.6.4-.7.7-1.3 1.1-2 .7-1.3.4-2.9-.5-3.8-1.5-1.3-3.8-.9-4.8.8z"/><path d="m17.8 63.6c-.2-1-.1-2.5 1.1-4.1 1-1.4 3-3 6.5-2.4.7.1 1.3.3 1.8.5-.1-.5-.3-1-.4-1.4l-3.9-12.5c-.5-1.5-.9-3-1.4-4.5-.6-2-.3-3.9 1-5.4 1.2-1.5 3-2.1 4.8-1.9 0-.6.2-1.3.5-1.9.7-1.5 2.1-2.7 3.8-3.1.5-.1 1-.2 1.4-.1.5-.9.9-1.7 1.4-2.6.3-.6.5-1.3.4-2-.2-1.6-1.6-2.8-3.2-2.6-1.2.1-2.1.8-2.6 1.8-1.3 2.4-2.6 4.9-3.9 7.3-1.5 2.9-3.1 5.8-4.6 8.7-1.2 2.3-2.4 4.6-3.6 6.9 0 0 0 0-.1.1 0 0 0 0 0-.1-.3-1.2-.6-2.4-.9-3.6s-.6-2.3-1.3-3.4c-.9-1.4-2.2-2.2-3.9-1.9-1.9.3-2.8 1.6-2.4 3.5.1.6.4 1.2.7 1.8.7 1.1 1 2.3 1.3 3.5.8 3.7.9 7.3.8 11.1 0 1.3.1 2.5.6 3.7 1 2.4 2.7 4.2 5 5.5l2.1 1.2c-.6-.9-.9-1.5-1-2.1z"/><path d="m31.2 62.7c-.8-2.4-1.5-4.9-2.3-7.3-.9-3.1-1.9-6.2-2.8-9.2-.8-2.6-1.6-5.2-2.4-7.8-.3-1.1-.2-2.2.5-3.1 1-1.2 2.8-1.4 4-.4.6.4.9 1 1.2 1.7 1 3.3 2 6.5 3 9.8.9 2.8 1.7 5.5 2.6 8.3.1.3.2.3.4.2.3-.1.7-.1.8-.3s-.1-.5-.2-.8c-1-3.1-1.9-6.2-2.9-9.4-1.1-3.6-2.2-7.2-3.3-10.8-.3-.9-.4-1.8 0-2.7.8-1.8 3.1-2.3 4.6-1 .5.5.9 1 1.1 1.7 1.2 3.8 2.4 7.7 3.5 11.5 1 3.2 1.9 6.3 2.9 9.5.1.2.1.3.4.2.8-.2.8-.2.6-1-1.2-3.8-2.3-7.6-3.5-11.4-.5-1.6-1-3.3-1.5-4.9-.6-1.8.8-3.7 2.7-3.8 1.3-.1 2.6.9 3.1 2.3.8 2.6 1.6 5.3 2.4 7.9.9 2.8 1.7 5.7 2.6 8.5 0 .1.1.2.1.3 0 .2.1.2.3.2.2-.1.3-.1.5-.2.5-.1.5-.1.3-.6-1.2-3.9-2.4-7.8-3.6-11.7-.4-1.4-.3-2.5.6-3.4.2-.2.5-.4.7-.6.1 0 .2 0 .2-.1.4-.1.8-.2 1.1-.2h.2.2.1c.5.2 1 .3 1.4.7.7.5 1 1.2 1.2 2 .8 2.7 1.6 5.4 2.5 8.1 1.1 3.4 2.1 6.8 3.2 10.2.5 1.6 1.1 3.2 1.3 4.9.5 3 .5 6-.6 8.9-.7 1.8-1.7 3.4-3.3 4.5-.6.4-1.2.7-1.8.9-2.8.9-5.6 1.7-8.5 2.5-2.4.7-4.9.7-7.3-.3-1.1-.5-2.1-1.3-2.9-2.1-2.5-2.6-5.2-5.1-8.3-7.1-1-.7-2.1-1.3-3.3-1.6-.6-.1-1.2-.4-1.7-.7-1.6-1-1.8-2.6-.7-4.1 1-1.4 2.4-1.7 4-1.4 1.2.2 2.2.8 3.3 1.4 1.1.6 2.2 1.2 3.3 1.8-.1 0-.1.1 0 0z"/></g><path d="m41 9c-.2 1.5-.5 3-.7 4.5-.1.5-.4.9-.9.9-.5.1-.9-.2-1.1-.7-.1-.2-.1-.4 0-.6.5-3 .9-6 1.4-9 .1-.6.6-1 1.2-.9s1 .6.9 1.2c-.3 1.6-.6 3.1-.8 4.6z" fill="#f1b860"/><path d="m29.2 14.7c-.1.5-.4.8-.9.9s-.9-.2-1.1-.6c-.4-1-.8-1.9-1.1-2.9-.7-1.9-1.4-3.8-2.2-5.6-.1-.2-.2-.5-.1-.8.2-.4.6-.7 1-.8.5 0 .9.2 1.1.7.3.7.6 1.5.9 2.2.8 2.1 1.6 4.2 2.5 6.4-.1.2 0 .3-.1.5z" fill="#f1b860"/><path d="m49.3 18.9c-.8-.1-1.1-1-.6-1.7 1.9-2.4 3.8-4.8 5.8-7.2.4-.5 1-.5 1.5-.2.4.3.5 1 .1 1.4-.5.6-1 1.2-1.4 1.8-1.3 1.6-2.6 3.2-3.9 4.9-.2.2-.3.4-.5.6-.4.4-.7.5-1 .4z" fill="#f1b860"/><path d="m55.9 27.9c-.5-.1-.8-.4-.9-.8-.1-.5.1-.9.6-1.1.7-.3 1.4-.6 2.1-.8 2.2-.8 4.4-1.7 6.6-2.5.5-.2 1-.1 1.3.3.2.3.3.8 0 1.2-.2.2-.4.4-.7.5-1.5.6-3.1 1.2-4.6 1.8-1.3.5-2.5 1-3.8 1.5-.3-.1-.5-.1-.6-.1z" fill="#f1b860"/><path d="m19.1 22.1c-.2 0-.4-.1-.6-.3-1.7-1.4-3.4-2.7-5-4.1-.7-.5-1.3-1.1-2-1.6-.5-.4-.6-1-.2-1.5.3-.4 1-.5 1.5-.1 2.3 1.9 4.7 3.8 7 5.6.7.6.7 1.4 0 1.8-.3.2-.5.3-.7.2z" fill="#f1b860"/></svg>