<svg enable-background="new 0 0 262.6 192.7" viewBox="0 0 262.6 192.7" xmlns="http://www.w3.org/2000/svg"><path d="m130.1 126.6c23.8 0 47.6.5 71.4-.2 15.5-.4 27.5-8.1 34.3-23.1 5.9-13.1 2.6-28.2-7.9-38.6-4-4-8.6-7-13.9-8.9-1.2-.4-1.8-1.1-2-2.6-1.6-22.4-12.7-38-32.3-46.6-21.2-9.3-45.1-3.4-60.7 14.2-1.2 1.4-2.2 1.9-4.1 1.4-13.7-3.3-26.4-1-37.6 8.1-6.4 5.3-11 12-13.3 20.2-.6 2-1.4 2.8-3.6 2.7-14.3-.3-27 9.7-31.4 24-3.9 12.8-2.4 24.8 5.3 35.7 6.5 9.2 15.4 13.8 26.5 13.8 23-.1 46.2 0 69.3-.1zm-.1-9.2c-23.3 0-46.6 0-69.9 0-6.3 0-11.7-2.4-16.2-6.9-8.2-8.3-10.5-21.6-5.8-32.5 4.4-10.2 13.2-16 23.6-15.5 2.3.1 4.5.8 6.6 1.5 1.9.6 2.6.1 2.6-1.9 0-1 .1-2 .2-3 1.5-11.4 7.3-19.7 17.1-24.9 9.9-5.3 20.1-5.3 30.2-.7 1.5.7 2.3.4 3.2-.9 1.4-2.1 2.8-4.1 4.5-5.9 13-13.8 28.6-17.8 46.3-12.7 19.3 5.6 32 24.4 30.6 45.2-.2 3.3-.2 3.3 2.8 3.9 5.5 1.2 10.4 3.6 14.8 7.4 10.7 9.3 11.9 25.1 2.6 35.9-6.6 7.6-15.1 10.9-24.8 10.9-22.7.1-45.5.1-68.4.1z" fill="#2a2d58"/><g fill="#f1b860"><path d="m121.5 127.1h8.5v47h-8.5z" transform="matrix(-1 0 0 -1 251.4628 301.197)"/><path d="m152.2 127.1h8.5v25.9h-8.5z" transform="matrix(-1 0 0 -1 312.813 280.1154)"/><path d="m85.6 127.1h8.5v14.8h-8.5z" transform="matrix(-1 0 0 -1 179.6419 268.9795)"/><path d="m80.5 136.8h8.5v18.7h-8.5z" transform="matrix(0 -1 1 0 -61.4004 230.8264)"/><path d="m164.8 140.4h8.5v33.7h-8.5z" transform="matrix(0 -1 1 0 11.766 326.2646)"/><circle cx="125.9" cy="181.5" r="8.9"/><circle cx="67.7" cy="146.1" r="8.9"/><circle cx="193.6" cy="157.2" r="8.9"/></g></svg>