<svg enable-background="new 0 0 85.3 53.3" viewBox="0 0 85.3 53.3" xmlns="http://www.w3.org/2000/svg"><path d="m85.1 26.7.1-.6c0-.1 0-.2 0-.3s0-.2 0-.3l-.2-.7c-.1-.1-.1-.2-.1-.3-.1-.1-.1-.2-.2-.3l-17.3-17.4c-.6-.6-1.5-1-2.4-1s-1.7.4-2.4 1c-.6.6-1 1.4-1 2.2 0 .9.3 1.7 1 2.4l14.6 14.7-14.6 14.8c-1.3 1.3-1.3 3.4.1 4.7 1.3 1.3 3.5 1.2 4.7-.1l17-17.2.1-.1h.1l.3-.5.4-.5-.1-.1v-.1c-.1-.1-.1-.2-.1-.3z" fill="#2a2d58"/><path d="m.7 25.6-.1.6v.3.3l.2.6c0 .1.1.2.1.3.1.1.2.2.3.3l17.3 17.4c.6.6 1.5 1 2.4 1s1.7-.4 2.4-1c.6-.6 1-1.4 1-2.2 0-.9-.3-1.7-1-2.4l-14.7-14.7 14.6-14.8c1.3-1.3 1.3-3.4-.1-4.7s-3.5-1.2-4.7.1l-17 17.3-.1.1-.3.5-.4.5.1.1v.1z" fill="#2a2d58"/><path d="m51.4 3.2-9.1 46.6" style="fill:none;stroke:#f1b860;stroke-width:6;stroke-linecap:round;stroke-linejoin:round;stroke-miterlimit:10"/></svg>