<svg xmlns="http://www.w3.org/2000/svg" viewBox="0 0 86 80.93"><title>ICONS_nieuwwwwww</title><path d="M61.35,46.26H52.08a1.88,1.88,0,0,0,0,3.74h9.27a1.88,1.88,0,0,0,0-3.74Z" fill="#f1b860"/><path d="M58.52,54.77H49.25a1.88,1.88,0,0,0,0,3.73h9.27a1.88,1.88,0,0,0,0-3.73Z" fill="#f1b860"/><path d="M46.93,38.92h7a1.88,1.88,0,0,0,0-3.73h-7a1.88,1.88,0,0,0,0,3.73Z" fill="#f1b860"/><path d="M46.93,29.79H58.52a1.88,1.88,0,0,0,0-3.73H46.93a1.88,1.88,0,0,0,0,3.73Z" fill="#f1b860"/><path d="M26.55,58.5h14.7a1.88,1.88,0,1,0,0-3.73H26.55a1.88,1.88,0,1,0,0,3.73Z" fill="#f1b860"/><path d="M44.36,46.26H26.7a1.91,1.91,0,1,0,0,3.74H44.36a1.91,1.91,0,1,0,0-3.74Z" fill="#f1b860"/><path d="M68.09.64H18.59a6.9,6.9,0,0,0-6.9,6.9V74a6.9,6.9,0,0,0,6.9,6.9h49.5A6.9,6.9,0,0,0,75,74V7.55A6.9,6.9,0,0,0,68.09.64Zm-.3,74.1H18.89a1,1,0,0,1-1-1V7.84a1,1,0,0,1,1-1h48.9a1,1,0,0,1,1,1v65.9A1,1,0,0,1,67.79,74.74Z" fill="#2a2d58"/><path d="M35.76,26.32a4.78,4.78,0,1,0-5.77,0,0,0,0,0,1,0,.08,6,6,0,0,0-4.54,5.81v6H40.32v-6a6,6,0,0,0-4.54-5.81A0,0,0,0,1,35.76,26.32Z" fill="#2a2d58"/><path d="M47.44,18.51h.79c1.2,0,2.18.67,2.18,1.49v.55c0,.82-1,1.49-2.18,1.49h-.79c-1.21,0-2.18-.67-2.18-1.49V20C45.26,19.18,46.23,18.51,47.44,18.51Z" fill="#f1b860"/></svg>