<svg xmlns="http://www.w3.org/2000/svg" viewBox="0 0 98.57 63.49"><title>ICONS_nieuwwwwww</title><path d="M64.77,43.18a1.23,1.23,0,0,0-.87-.36H53.27a1.24,1.24,0,1,0,0,2.47H63.9a1.24,1.24,0,0,0,.87-2.11Z" fill="#2a2d58"/><path d="M66.54,24.33V21.85a8,8,0,0,0-15.92,0v2.48a2.87,2.87,0,0,0-1.69,2.61V37.12A2.87,2.87,0,0,0,51.79,40H65.37a2.88,2.88,0,0,0,2.87-2.87V26.94A2.88,2.88,0,0,0,66.54,24.33ZM56.36,21.85a2.22,2.22,0,0,1,4.44,0v2.22H56.36Zm2.22-4.57A4.57,4.57,0,0,0,54,21.85v2.22H53V21.85a5.62,5.62,0,1,1,11.23,0v2.22H63.15V21.85A4.58,4.58,0,0,0,58.58,17.28Zm7.32,9.66V37.12a.53.53,0,0,1-.53.53H51.79a.52.52,0,0,1-.52-.53V26.94a.52.52,0,0,1,.52-.53H65.37A.53.53,0,0,1,65.9,26.94Z" fill="#2a2d58"/><path d="M58.58,27.47a2.86,2.86,0,0,0-1.17,5.47V36.6h2.34V32.94a2.86,2.86,0,0,0-1.17-5.47Z" fill="#f1b860"/><path d="M41,24.92a.53.53,0,0,1-.53-.53v-5a2.87,2.87,0,1,0-2.34,0v5A2.87,2.87,0,0,0,41,27.26h4.56V24.92Z" fill="#f1b860"/><path d="M35.92,30a2.23,2.23,0,0,1-2.23-2.22V24.46a2.87,2.87,0,1,0-2.34,0v3.33a4.57,4.57,0,0,0,4.57,4.56h9.65V30Z" fill="#f1b860"/><path d="M30.83,35.1a3.92,3.92,0,0,1-3.92-3.92V29.55a2.87,2.87,0,1,0-2.35,0v1.63a6.27,6.27,0,0,0,6.27,6.26H45.57V35.1Z" fill="#f1b860"/><path d="M96.09,52.68h-6.3V9a9,9,0,0,0-9-9h-63a9,9,0,0,0-9,9V52.68H3.18A3.19,3.19,0,0,0,.8,53.76,3.23,3.23,0,0,0,0,56.32a8.3,8.3,0,0,0,8.2,7.17H90.3a8.31,8.31,0,0,0,8.27-8.33A2.49,2.49,0,0,0,96.09,52.68ZM13.69,9A4.08,4.08,0,0,1,17.77,5h63A4.09,4.09,0,0,1,84.84,9V52.68H13.69Z" fill="#2a2d58"/></svg>