<svg xmlns="http://www.w3.org/2000/svg" viewBox="0 0 86 80.93"><title>ICONS_nieuwwwwww</title><path d="M79.55,74.25a2.31,2.31,0,0,0-1.65-.68H58a2.32,2.32,0,0,0,0,4.63H77.9a2.32,2.32,0,0,0,2.31-2.31A2.28,2.28,0,0,0,79.55,74.25Z" fill="#2a2d58"/><path d="M82.86,32.92V28.27a14.92,14.92,0,0,0-29.84,0v4.65a5.41,5.41,0,0,0-3.18,4.89V56.89a5.39,5.39,0,0,0,5.38,5.37H80.66A5.39,5.39,0,0,0,86,56.89V37.81A5.37,5.37,0,0,0,82.86,32.92ZM63.77,28.27a4.17,4.17,0,1,1,8.33,0v4.16H63.77Zm4.17-8.56a8.56,8.56,0,0,0-8.55,8.56v4.16h-2V28.27a10.53,10.53,0,1,1,21.06,0v4.16h-2V28.27A8.57,8.57,0,0,0,67.94,19.71Zm13.71,18.1V56.89a1,1,0,0,1-1,1H55.22a1,1,0,0,1-1-1V37.81a1,1,0,0,1,1-1H80.66A1,1,0,0,1,81.65,37.81Z" fill="#2a2d58"/><path d="M67.94,38.79a5.36,5.36,0,0,0-2.2,10.26V55.9h4.39V49.05a5.36,5.36,0,0,0-2.19-10.26Z" fill="#f1b860"/><path d="M35,34a1,1,0,0,1-1-1V23.61a5.39,5.39,0,1,0-4.39,0V33A5.38,5.38,0,0,0,35,38.41h8.55V34Z" fill="#f1b860"/><path d="M25.46,43.56a4.17,4.17,0,0,1-4.17-4.16V33.15a5.38,5.38,0,1,0-4.39,0V39.4A8.57,8.57,0,0,0,25.46,48h18.1V43.56Z" fill="#f1b860"/><path d="M15.92,53.1a7.35,7.35,0,0,1-7.35-7.34V42.69a5.38,5.38,0,1,0-4.39,0v3.07A11.75,11.75,0,0,0,15.92,57.49H43.55V53.1Z" fill="#f1b860"/></svg>