<svg xmlns="http://www.w3.org/2000/svg" viewBox="0 0 97.45 62.77"><title>ICONS_nieuwwwwww</title><path d="M95,52.08H88.77V8.93A9,9,0,0,0,79.83,0H17.57A8.94,8.94,0,0,0,8.64,8.93V52.08H3.14A3.11,3.11,0,0,0,.79,53.15,3.19,3.19,0,0,0,0,55.68a8.2,8.2,0,0,0,8.1,7.09H89.27a8.22,8.22,0,0,0,8.18-8.24A2.45,2.45,0,0,0,95,52.08ZM13.53,8.93a4,4,0,0,1,4-4H79.83a4,4,0,0,1,4,4V52.08H13.53Z" fill="#2a2d58"/><path d="M65.3,40.16,63.18,38A3.14,3.14,0,1,0,62,39.16l2.15,2.15a.83.83,0,0,0,.57.23.85.85,0,0,0,.58-.23A.83.83,0,0,0,65.3,40.16ZM60.47,38A1.57,1.57,0,1,1,62,36.41,1.57,1.57,0,0,1,60.47,38Z" fill="#f1b860"/><path d="M39.18,15.16a2.29,2.29,0,1,0,2.29,2.29A2.3,2.3,0,0,0,39.18,15.16Z" fill="#f1b860"/><path d="M50.34,15a1.1,1.1,0,0,0-1.1,1.1v2.62a1.1,1.1,0,1,0,2.2,0V16.14a1.1,1.1,0,0,0-.32-.78A1.08,1.08,0,0,0,50.34,15Z" fill="#f1b860"/><path d="M57.94,15.31a1.1,1.1,0,0,0-1.88.78v2.62a1.1,1.1,0,0,0,2.2,0V16.09A1.14,1.14,0,0,0,57.94,15.31Z" fill="#f1b860"/><path d="M50.34,29.16a1.1,1.1,0,0,0-1.1,1.1v2.62a1.1,1.1,0,1,0,2.2,0V30.26A1.1,1.1,0,0,0,50.34,29.16Z" fill="#f1b860"/><path d="M39.18,29.28a2.29,2.29,0,1,0,2.29,2.29A2.3,2.3,0,0,0,39.18,29.28Z" fill="#f1b860"/><path d="M59.58,20.52A2.07,2.07,0,0,0,60.2,19V15.86a2.07,2.07,0,0,0-.62-1.48,2,2,0,0,0-1.48-.61H37.41a2.1,2.1,0,0,0-2.09,2.09V19a2.1,2.1,0,0,0,2.09,2.09H58.1A2.09,2.09,0,0,0,59.58,20.52Z" fill="none"/><path d="M58.74,28a1.89,1.89,0,0,0-.67-.11H37.36a2,2,0,0,0-1.44.6,2,2,0,0,0-.6,1.46v3.16a2,2,0,0,0,.6,1.46,2,2,0,0,0,1.44.6H52.07A9.59,9.59,0,0,1,58.74,28Z" fill="none"/><path d="M61.46,30.32a6.92,6.92,0,0,0,0,13.84,7,7,0,0,0,4.89-2,6.93,6.93,0,0,0,0-9.78A7,7,0,0,0,61.46,30.32Z" fill="none"/><path d="M49.05,37.89v1.62A4.13,4.13,0,0,1,51.58,42h1.55a9.45,9.45,0,0,1-1.25-4.1Z" fill="none"/><path d="M62.23,27.69a4.74,4.74,0,0,0-4.13-2.44H49.05V23.73h9a4.81,4.81,0,0,0,3.35-1.39A4.71,4.71,0,0,0,62.79,19V15.82a4.72,4.72,0,0,0-1.38-3.36,4.77,4.77,0,0,0-3.32-1.38H37.36a4.73,4.73,0,0,0-4.73,4.74V19a4.75,4.75,0,0,0,4.74,4.75h9v1.52h-9A4.73,4.73,0,0,0,32.63,30v3.16a4.73,4.73,0,0,0,4.75,4.74h9v1.62A4.1,4.1,0,0,0,43.86,42H38.1a3,3,0,1,0-5.32,2.73,3,3,0,0,0,2.65,1.61,2.91,2.91,0,0,0,2.68-1.66h5.74a4.1,4.1,0,0,0,7.74,0h3.85a9.27,9.27,0,0,0,6,2.14,9.58,9.58,0,0,0,.77-19.13ZM37.41,21.13A2.1,2.1,0,0,1,35.32,19V15.86a2.1,2.1,0,0,1,2.09-2.09H58.1a2,2,0,0,1,1.48.61,2.07,2.07,0,0,1,.62,1.48V19a2.1,2.1,0,0,1-2.1,2.09Zm0,14.08h0a2,2,0,0,1-1.44-.6,2,2,0,0,1-.6-1.46V30a2,2,0,0,1,.6-1.46,2,2,0,0,1,1.44-.6H58.07a1.89,1.89,0,0,1,.67.11,9.59,9.59,0,0,0-6.67,7.17ZM51.58,42a4.13,4.13,0,0,0-2.53-2.49V37.89h2.83A9.45,9.45,0,0,0,53.13,42Zm14.77.13a7,7,0,0,1-4.89,2,6.92,6.92,0,0,1,0-13.84,7,7,0,0,1,4.89,2,6.93,6.93,0,0,1,0,9.78Z" fill="#2a2d58"/></svg>