<svg xmlns="http://www.w3.org/2000/svg" viewBox="0 0 86 80.93"><title>ICONS_nieuwwwwww</title><path d="M73.17,64.75,68.45,60a7,7,0,0,0,1-3.64,7,7,0,1,0-7,7,6.86,6.86,0,0,0,3.32-.85l4.78,4.79a1.81,1.81,0,0,0,2.56,0A1.81,1.81,0,0,0,73.17,64.75ZM62.42,59.89a3.5,3.5,0,1,1,3.49-3.5A3.5,3.5,0,0,1,62.42,59.89Z" fill="#f1b860"/><path d="M15,9.07a5.1,5.1,0,1,0,5.1,5.1A5.1,5.1,0,0,0,15,9.07Z" fill="#f1b860"/><path d="M39.87,8.81a2.45,2.45,0,0,0-2.45,2.45v5.83a2.45,2.45,0,0,0,4.9,0V11.26a2.5,2.5,0,0,0-.71-1.73A2.47,2.47,0,0,0,39.87,8.81Z" fill="#f1b860"/><path d="M56.78,9.41a2.45,2.45,0,0,0-4.18,1.73V17a2.45,2.45,0,0,0,4.9,0V11.14A2.46,2.46,0,0,0,56.78,9.41Z" fill="#f1b860"/><path d="M39.87,40.26a2.45,2.45,0,0,0-2.45,2.45v5.82a2.45,2.45,0,0,0,4.9,0V42.71A2.45,2.45,0,0,0,39.87,40.26Z" fill="#f1b860"/><path d="M15,40.52a5.1,5.1,0,1,0,5.1,5.11A5.11,5.11,0,0,0,15,40.52Z" fill="#f1b860"/><path d="M60.45,21a4.64,4.64,0,0,0,1.36-3.3V10.64A4.68,4.68,0,0,0,57.15,6H11.07a4.67,4.67,0,0,0-4.66,4.67v7.07a4.66,4.66,0,0,0,4.66,4.66H57.15A4.66,4.66,0,0,0,60.45,21Z" fill="none"/><path d="M58.58,37.75a4.54,4.54,0,0,0-1.51-.23H11a4.6,4.6,0,0,0-3.22,1.33A4.49,4.49,0,0,0,6.41,42.1v7A4.54,4.54,0,0,0,11,53.73H43.71A21.33,21.33,0,0,1,58.58,37.75Z" fill="none"/><path d="M64.62,42.84a15.42,15.42,0,1,0,10.89,4.52A15.52,15.52,0,0,0,64.62,42.84Z" fill="none"/><path d="M37,59.7v3.61a9.21,9.21,0,0,1,5.63,5.53h3.44a21.13,21.13,0,0,1-2.77-9.13Z" fill="none"/><path d="M66.35,37a10.59,10.59,0,0,0-9.21-5.43H37v-3.4H57.08a10.6,10.6,0,0,0,7.45-3.09,10.44,10.44,0,0,0,3.06-7.48v-7A10.48,10.48,0,0,0,57.11,0H11A10.53,10.53,0,0,0,.43,10.54v7A10.53,10.53,0,0,0,11,28.15H31v3.4H11a10.62,10.62,0,0,0-7.43,3.07A10.46,10.46,0,0,0,.43,42.1v7a10.61,10.61,0,0,0,3.09,7.49A10.72,10.72,0,0,0,11,59.7H31v3.6a9.1,9.1,0,0,0-5.6,5.54H12.62a6.67,6.67,0,1,0-5.95,9.68,6.53,6.53,0,0,0,6-3.71H25.42a9.12,9.12,0,0,0,17.22,0h8.58a20.63,20.63,0,0,0,13.4,4.77A21.33,21.33,0,0,0,66.35,37ZM11.07,22.37a4.66,4.66,0,0,1-4.66-4.66V10.64A4.67,4.67,0,0,1,11.07,6H57.15a4.68,4.68,0,0,1,4.66,4.67v7.07a4.64,4.64,0,0,1-4.66,4.66ZM11,53.73h0a4.54,4.54,0,0,1-4.55-4.58v-7a4.49,4.49,0,0,1,1.33-3.25A4.6,4.6,0,0,1,11,37.52H57.07a4.54,4.54,0,0,1,1.51.23,21.33,21.33,0,0,0-14.87,16ZM42.63,68.84A9.21,9.21,0,0,0,37,63.31V59.7h6.3a21.13,21.13,0,0,0,2.77,9.13Zm32.88.29A15.4,15.4,0,1,1,64.62,42.84a15.52,15.52,0,0,1,10.89,4.52,15.39,15.39,0,0,1,0,21.77Z" fill="#2a2d58"/></svg>