<svg enable-background="new 0 0 516.9 464" viewBox="0 0 516.9 464" xmlns="http://www.w3.org/2000/svg"><path d="m281.6 2.4h-244.6c-7.8 0-14.2 6.3-14.2 14.2v152.7c0 7.8 6.3 14.2 14.2 14.2h112.5v18.8c-29.3 1.8-51.7 11.7-51.7 23.6h123c0-11.9-22.4-21.8-51.7-23.6v-18.8h112.5c7.8 0 14.2-6.3 14.2-14.2v-152.7c-.1-7.8-6.4-14.2-14.2-14.2zm-130.8 162c0-4.7 3.8-8.5 8.5-8.5s8.5 3.8 8.5 8.5-3.8 8.5-8.5 8.5-8.5-3.8-8.5-8.5zm127.8-19h-238.7v-126h238.7z" fill="#2a2d58"/><g fill="#f1b860"><path d="m252.3 43.9c-2.2-2.2-5.7-2.2-7.9 0l-28.9 28.9c-2.2 2.2-2.2 5.8 0 8 1.1 1 2.5 1.6 4 1.6s2.9-.6 4-1.6l28.9-28.9c1.1-1 1.7-2.5 1.7-4-.1-1.5-.8-2.9-1.8-4z"/><path d="m230 40.2c-2.2-2.2-5.7-2.2-7.9 0l-19.8 19.8c-1.1 1-1.7 2.5-1.7 4 0 3.1 2.5 5.6 5.6 5.6 1.5 0 2.9-.6 4-1.6l19.8-19.9c2.2-2.2 2.2-5.7 0-7.9z"/><path d="m344.1 296.6v57.2h110v-57.2zm55 35.2c-3.7 0-6.7-3-6.7-6.7s3-6.7 6.7-6.7 6.7 3 6.7 6.7c-.1 3.7-3.1 6.7-6.7 6.7z"/><path d="m344.1 375.4v57.2h110v-57.2zm55 35.2c-3.7 0-6.7-3-6.7-6.7s3-6.7 6.7-6.7 6.7 3 6.7 6.7c-.1 3.8-3.1 6.7-6.7 6.7z"/></g><path d="m502.8 237h-10.8-185.8-10.8-269.6-10.8c-7.8 0-14.2 6.3-14.2 14.2v10.8 186.1c0 7.8 6.3 14.2 14.2 14.2h10.8c7.8 0 14.2-6.3 14.2-14.2v-171.9h241.3v171.9c0 7.8 6.3 14.2 14.2 14.2h10.8c7.8 0 14.2-6.3 14.2-14.2v-171.9h157.5v171.9c0 7.8 6.3 14.2 14.2 14.2h10.8c7.8 0 14.2-6.3 14.2-14.2v-186.1-10.8c-.3-7.8-6.6-14.2-14.4-14.2z" fill="#2a2d58"/><path d="m59.7 292.6h199.2v21.9h-199.2z" fill="#2a2d58"/></svg>