<svg xmlns="http://www.w3.org/2000/svg" viewBox="0 0 86 80.93"><title>ICONS_nieuwwwwww</title><path d="M80.77,35.69l-2.89-4.3a2.12,2.12,0,0,1-.18-.93l.34-5.3a8.69,8.69,0,0,0-4.77-8.26l-4.7-2.35A1.15,1.15,0,0,1,68,14l-2.35-4.7a8.64,8.64,0,0,0-8.27-4.77l-5.21.34a1.27,1.27,0,0,1-.86-.23L47,1.78a8.58,8.58,0,0,0-9.54,0L33.14,4.66a2.74,2.74,0,0,1-1,.2l-5.3-.34a8.66,8.66,0,0,0-8.26,4.77L16.19,14a1.11,1.11,0,0,1-.57.56l-4.7,2.35a8.69,8.69,0,0,0-4.76,8.28l.33,5.21a1.37,1.37,0,0,1-.22.86L3.42,35.61a8.56,8.56,0,0,0,0,9.54l2.87,4.27a2.76,2.76,0,0,1,.21,1l-.34,5.3A8.68,8.68,0,0,0,10.93,64l4.7,2.35a1.53,1.53,0,0,1,.56.57l2.35,4.7a8.71,8.71,0,0,0,8.27,4.76L32,76.06a1.3,1.3,0,0,1,.87.23l4.35,2.85a8.54,8.54,0,0,0,9.55,0l4.32-2.91a2,2,0,0,1,.82-.25l5.3.34a8.63,8.63,0,0,0,8.26-4.77l2.36-4.7a1.06,1.06,0,0,1,.56-.56l4.7-2.35a8.69,8.69,0,0,0,4.77-8.24l-.18-5.16a1.28,1.28,0,0,1,.23-.88l2.85-4.44A8.57,8.57,0,0,0,80.77,35.69ZM70.64,56.09a1.27,1.27,0,0,1-.7,1.2l-4.72,2.36a9.26,9.26,0,0,0-3.86,3.88L59,68.27a1.15,1.15,0,0,1-1.21.65l-5.28-.26a8.55,8.55,0,0,0-5.25,1.45l-4.33,2.83a1.39,1.39,0,0,1-1.42,0l-4.36-2.85a8.53,8.53,0,0,0-4.77-1.46L26.55,69a1.25,1.25,0,0,1-1.19-.69L23,63.58a9.2,9.2,0,0,0-3.88-3.86l-4.74-2.37a1.16,1.16,0,0,1-.65-1.2l.34-5.3a8.42,8.42,0,0,0-1.45-5.25L9.78,41.27a1.39,1.39,0,0,1,0-1.42l2.84-4.35a8.44,8.44,0,0,0,1.47-5.28l-.34-5.31a1.26,1.26,0,0,1,.69-1.19l4.73-2.37A9.18,9.18,0,0,0,23,17.48l2.38-4.75a1.12,1.12,0,0,1,1.19-.65l5.3.34A8.49,8.49,0,0,0,37.12,11l4.33-2.83a1.41,1.41,0,0,1,1.43,0L47.22,11a8.52,8.52,0,0,0,5.28,1.47l5.31-.34a1.27,1.27,0,0,1,1.2.7l2.36,4.72a9.2,9.2,0,0,0,3.88,3.86L70,23.73a1.16,1.16,0,0,1,.65,1.2l-.34,5.14a8.37,8.37,0,0,0,1.45,5.24l2.85,4.36a1.23,1.23,0,0,1,0,1.46L71.76,45.5a8.47,8.47,0,0,0-1.46,5.28Z" fill="#2a2d58"/><path d="M33.68,38.14a6.63,6.63,0,1,0-6.63-6.63A6.56,6.56,0,0,0,33.68,38.14ZM31.5,31.51a2.11,2.11,0,0,1,2.18-2.13,2.19,2.19,0,0,1,2.18,2.18,2.16,2.16,0,0,1-2.18,2.13A2.19,2.19,0,0,1,31.5,31.51Z" fill="#f1b860"/><path d="M49.84,42.78a6.63,6.63,0,1,0,6.63,6.63A6.56,6.56,0,0,0,49.84,42.78ZM52,49.36a2.16,2.16,0,0,1-2.18,2.18A2.18,2.18,0,1,1,52,49.36Z" fill="#f1b860"/><path d="M56.31,26l0,0a2.7,2.7,0,0,0-1.9-.77,2.35,2.35,0,0,0-1.73.77L27.23,51.29a2.6,2.6,0,0,0-.77,1.9,2.39,2.39,0,0,0,.77,1.74,2.52,2.52,0,0,0,3.63,0L56.21,29.58A2.57,2.57,0,0,0,56.31,26Z" fill="#f1b860"/></svg>