<svg enable-background="new 0 0 252.6 63.6" viewBox="0 0 252.6 63.6" xmlns="http://www.w3.org/2000/svg"><path d="m181.1 2.7h-65.3c-5.7 0-10.4 5.1-10.4 11.3v38.7c0 6.2 4.6 11.3 10.4 11.3h65.3c5.7 0 10.4-5.1 10.4-11.3v-38.7c-.1-6.3-4.7-11.3-10.4-11.3zm3.5 50c.1 2.1-1.4 3.9-3.5 4h-65.3c-2.1-.1-3.6-1.9-3.5-4 0-11.2 0-30.9.1-37.5l33.8 26.5c1.3 1.2 3.2 1.2 4.5 0l33.8-26.5c0 6.5.1 26.2.1 37.5zm-67-42.5c6 0 19.6-.1 30.9-.1s24.9 0 30.9.1l-31 23.8z" fill="#2a2d58"/><path d="m237 27.7v-.2c6.4-4.8 7.8-14 2.8-20.5-4.8-6.4-14-7.8-20.5-2.8s-7.8 14-2.8 20.5c.8 1 1.8 2 2.8 2.8v.2c-8.2 2-13.8 9.4-14 17.8v18.5h45.5v-18.4c0-8.7-5.6-15.9-13.8-17.9z" fill="#f1b860"/><g style="fill:none;stroke:#f1b860;stroke-width:10;stroke-linecap:round;stroke-linejoin:round;stroke-miterlimit:10"><path d="m88.4 52.8h-82.5"/><path d="m88.4 35.5h-52.1"/><path d="m88.4 18.2h-32.1"/></g></svg>