<svg enable-background="new 0 0 78.4 79.5" viewBox="0 0 78.4 79.5" xmlns="http://www.w3.org/2000/svg"><path d="m51.7 9h-3.3c-1.1 0-2-.9-2-2v-5c0-1.1.9-2 2-2h3.3c1.1 0 2 .9 2 2v5c0 1.1-.9 2-2 2z" fill="#f1b860"/><path d="m25 9h-3.3c-1.1 0-2-.9-2-2v-5c0-1.1.9-2 2-2h3.3c1.1 0 2 .9 2 2v5c0 1.1-.9 2-2 2z" fill="#f1b860"/><path d="m59.3 6.1h-.7v3.4c0 .4-.1.7-.3 1-.5 1.1-1.5 1.8-2.8 1.8h-11c-1.7 0-3-1.3-3-3v-3.2h-9.6v3.4c0 1.7-1.3 3-3 3h-11c-1.7 0-3-1.3-3-3v-3.4h-.9c-7.8 0-14 6.3-14 14v45.3c0 7.8 6.3 14 14 14h45.3c7.8 0 14-6.3 14-14v-45.2c.1-7.8-6.2-14.1-14-14.1zm5.1 55.1c0 5.2-4.2 9.4-9.4 9.4h-36.6c-5.2 0-9.4-4.2-9.4-9.4v-36.7c0-5.2 4.2-9.4 9.4-9.4h36.6c5.2 0 9.4 4.2 9.4 9.4z" fill="#2a2d58"/><path d="m277.4 111.3c-2.1-.1-3.3-.8-4-2.2-1.3-2.6-1.9-5.4-2.5-8.2-.2-1.1.6-1.9 1.4-2.5.5-.4 1-.7 1.5-.9 1.8-.7 2.5-.4 3.2 1.4.4.9.7 1.8 1.1 2.7.4 1 .9 1 1.5.1 1.6-2.5 3.3-5 4.9-7.4 2.9-4.4 5.7-8.8 9-13 2.3-2.9 5.3-3.7 8.7-4 .4 0 .7 0 .9.4.2.5-.1.7-.4 1-3.4 3.9-6.7 7.8-9.7 11.9-4.3 5.8-8.3 11.8-11.8 18.1-.9 1.7-2.3 2.6-3.8 2.6z" fill="#e6ba6f"/><g fill="#f1b860"><path d="m19.9 30.2h-3.3c-1.7 0-3-1.3-3-3v-3.3c0-1.7 1.3-3 3-3h3.3c1.7 0 3 1.3 3 3v3.3c0 1.6-1.4 3-3 3z"/><path d="m32 30.2h-3.3c-1.7 0-3-1.3-3-3v-3.3c0-1.7 1.3-3 3-3h3.3c1.7 0 3 1.3 3 3v3.3c0 1.6-1.3 3-3 3z"/><path d="m44.2 30.2h-3.3c-1.7 0-3-1.3-3-3v-3.3c0-1.7 1.3-3 3-3h3.3c1.7 0 3 1.3 3 3v3.3c0 1.6-1.4 3-3 3z"/><path d="m56.3 30.2h-3.3c-1.7 0-3-1.3-3-3v-3.3c0-1.7 1.3-3 3-3h3.3c1.7 0 3 1.3 3 3v3.3c0 1.6-1.3 3-3 3z"/><path d="m19.9 42h-3.3c-1.7 0-3-1.3-3-3v-3.3c0-1.7 1.3-3 3-3h3.3c1.7 0 3 1.3 3 3v3.3c0 1.7-1.4 3-3 3z"/><path d="m32 42h-3.3c-1.7 0-3-1.3-3-3v-3.3c0-1.7 1.3-3 3-3h3.3c1.7 0 3 1.3 3 3v3.3c0 1.7-1.3 3-3 3z"/><path d="m44.2 42h-3.3c-1.7 0-3-1.3-3-3v-3.3c0-1.7 1.3-3 3-3h3.3c1.7 0 3 1.3 3 3v3.3c0 1.7-1.4 3-3 3z"/><path d="m56.3 42h-3.3c-1.7 0-3-1.3-3-3v-3.3c0-1.7 1.3-3 3-3h3.3c1.7 0 3 1.3 3 3v3.3c0 1.7-1.3 3-3 3z"/><path d="m20.1 53.9h-3.3c-1.7 0-3-1.3-3-3v-3.3c0-1.7 1.3-3 3-3h3.3c1.7 0 3 1.3 3 3v3.3c0 1.6-1.3 3-3 3z"/><path d="m32.3 53.9h-3.3c-1.7 0-3-1.3-3-3v-3.3c0-1.7 1.3-3 3-3h3.3c1.7 0 3 1.3 3 3v3.3c0 1.6-1.4 3-3 3z"/><path d="m44.4 53.9h-3.3c-1.7 0-3-1.3-3-3v-3.3c0-1.7 1.3-3 3-3h3.3c1.7 0 3 1.3 3 3v3.3c0 1.6-1.3 3-3 3z"/><path d="m56.6 53.9h-3.3c-1.7 0-3-1.3-3-3v-3.3c0-1.7 1.3-3 3-3h3.3c1.7 0 3 1.3 3 3v3.3c0 1.6-1.3 3-3 3z"/><path d="m20.1 65.7h-3.3c-1.7 0-3-1.3-3-3v-3.3c0-1.7 1.3-3 3-3h3.3c1.7 0 3 1.3 3 3v3.3c0 1.7-1.3 3-3 3z"/><path d="m32.3 65.7h-3.3c-1.7 0-3-1.3-3-3v-3.3c0-1.7 1.3-3 3-3h3.3c1.7 0 3 1.3 3 3v3.3c0 1.7-1.4 3-3 3z"/><path d="m44.4 65.7h-3.3c-1.7 0-3-1.3-3-3v-3.3c0-1.7 1.3-3 3-3h3.3c1.7 0 3 1.3 3 3v3.3c0 1.7-1.3 3-3 3z"/><path d="m56.6 65.7h-3.3c-1.7 0-3-1.3-3-3v-3.3c0-1.7 1.3-3 3-3h3.3c1.7 0 3 1.3 3 3v3.3c0 1.7-1.3 3-3 3z"/></g></svg>