<svg xmlns="http://www.w3.org/2000/svg" viewBox="0 0 86 80.93"><title>ICONS_nieuwwwwww</title><path d="M66.58,7.45h-47a1.09,1.09,0,0,0-1.09,1.09V72.22a.81.81,0,0,0,.81.81H66.58a.81.81,0,0,0,.81-.81v-64A.81.81,0,0,0,66.58,7.45ZM52.16,50.17H31.55a3.45,3.45,0,0,1-3.45-3.6,3.6,3.6,0,0,1,3.67-3.3H52.39a3.46,3.46,0,0,1,3.45,3.61A3.61,3.61,0,0,1,52.16,50.17Zm0-12H31.55a3.45,3.45,0,0,1-3.45-3.6,3.6,3.6,0,0,1,3.67-3.3H52.39a3.46,3.46,0,0,1,3.45,3.61A3.61,3.61,0,0,1,52.16,38.2Zm0-12H31.55a3.45,3.45,0,0,1-3.45-3.6,3.6,3.6,0,0,1,3.67-3.3H52.39a3.46,3.46,0,0,1,3.45,3.61A3.61,3.61,0,0,1,52.16,26.23Z" fill="none"/><path d="M66.58.55H17.43a5.91,5.91,0,0,0-4.9,2.68c-1.22,1.85-.82,4.29-.79,6.37.08,5.1,0,10.19,0,15.28V71.79c0,2.38.31,4.2,2.08,5.94a7.74,7.74,0,0,0,5.39,2.2H66.58a7.71,7.71,0,0,0,7.71-7.71v-64A7.71,7.71,0,0,0,66.58.55Zm.81,71.67a.81.81,0,0,1-.81.81H19.25a.81.81,0,0,1-.81-.81V8.54a1.09,1.09,0,0,1,1.09-1.09H66.58a.81.81,0,0,1,.81.81Z" fill="#2a2d58"/><path d="M52.39,19.33H31.77a3.6,3.6,0,0,0-3.67,3.3,3.45,3.45,0,0,0,3.45,3.6H52.16a3.61,3.61,0,0,0,3.68-3.29A3.46,3.46,0,0,0,52.39,19.33Z" fill="#f1b860"/><path d="M52.39,31.3H31.77a3.6,3.6,0,0,0-3.67,3.3,3.45,3.45,0,0,0,3.45,3.6H52.16a3.61,3.61,0,0,0,3.68-3.29A3.46,3.46,0,0,0,52.39,31.3Z" fill="#f1b860"/><path d="M52.39,43.27H31.77a3.6,3.6,0,0,0-3.67,3.3,3.45,3.45,0,0,0,3.45,3.6H52.16a3.61,3.61,0,0,0,3.68-3.29A3.46,3.46,0,0,0,52.39,43.27Z" fill="#f1b860"/></svg>