<svg xmlns="http://www.w3.org/2000/svg" viewBox="0 0 86 80.93"><title>ICONS_nieuwwwwww</title><path d="M42.58,71.41c0,.12.06.24.08.37v-.37Z" fill="#2a2d58"/><path d="M57.15,53.21H42.37a1.46,1.46,0,0,1,0-2.92H57.15a1.46,1.46,0,0,1,0,2.92Z" fill="#f1b860"/><path d="M49.31,46.05h-6.7a1.48,1.48,0,1,1,0-2.92h6.7a1.48,1.48,0,1,1,0,2.92Z" fill="#f1b860"/><path d="M56.66,60.17H42.37a1.46,1.46,0,1,1,0-2.91H56.66a1.46,1.46,0,0,1,0,2.91Z" fill="#f1b860"/><path d="M24.89,20.49H22a1.46,1.46,0,1,1,0-2.91h2.87a1.46,1.46,0,1,1,0,2.91Z" fill="#f1b860"/><path d="M40.91,20.49H30.2a1.46,1.46,0,1,1,0-2.91H40.91a1.46,1.46,0,1,1,0,2.91Z" fill="#f1b860"/><path d="M81.83,60.61,72,50.81a12.22,12.22,0,1,0-9.9,5.07A12.07,12.07,0,0,0,68.72,54l9.89,9.88a2.28,2.28,0,1,0,3.22-3.22Zm-11.94-17A7.93,7.93,0,1,1,62,35.73,7.94,7.94,0,0,1,69.89,43.66Z" fill="#2a2d58"/><path d="M40.5,23.38c1.65,0,3.3.05,4.94.05H49V9.56a1.63,1.63,0,0,0-1.63-1.63H15.47A7.59,7.59,0,0,1,16,10.62V53a2.77,2.77,0,0,0,1.85,2.7,2.63,2.63,0,0,0,2.42-.39,2.73,2.73,0,0,0,1.12-2.17V31a7.46,7.46,0,0,1,2.31-5.38c1.82-1.73,4.31-2,6.27-2.13,3.48-.15,7-.11,10.44-.07Z" fill="none"/><path d="M31.46,55.56V31.18a2.86,2.86,0,0,0-2.19-2.86,2.62,2.62,0,0,0-2.2.58,2.72,2.72,0,0,0-1,2.07V53.16a7.11,7.11,0,0,1-.54,2.7h5.63A.29.29,0,0,0,31.46,55.56Z" fill="none"/><path d="M82.44,70.41H72.62v-7a2.25,2.25,0,0,0-4.49,0v7H41.48a3,3,0,0,1,.7,1.59l.1.77a3.07,3.07,0,0,1-2.67,3.42,2.81,2.81,0,0,1-.71,0A2.86,2.86,0,0,1,36.66,75a2.47,2.47,0,0,1-.6-1.63V31a7.63,7.63,0,0,0-.49-2.69H68.11a2.42,2.42,0,1,0,0-4.84H53.82V9.63A6.44,6.44,0,0,0,47.39,3.2H9.73C8.36,3.2,4.21,3.2,2,7a7.46,7.46,0,0,0-1,3.76v2l.18,1.57h9.93V54.23a6.36,6.36,0,0,0,6.36,6.35H31.34V73.51a7.5,7.5,0,0,0,2.28,5.38,7.18,7.18,0,0,0,5,2H76.12a6.63,6.63,0,0,0,5.79-3.55,8.86,8.86,0,0,0,1-3.64C82.88,73.4,83.05,70.41,82.44,70.41ZM25.53,55.86a7.11,7.11,0,0,0,.54-2.7V31a2.72,2.72,0,0,1,1-2.07,2.62,2.62,0,0,1,2.2-.58,2.86,2.86,0,0,1,2.19,2.86V55.56a.29.29,0,0,1-.3.3Zm4.4-32.41c-2,.08-4.45.4-6.27,2.13A7.46,7.46,0,0,0,21.35,31v22.2a2.73,2.73,0,0,1-1.12,2.17,2.63,2.63,0,0,1-2.42.39A2.77,2.77,0,0,1,16,53V10.62a7.59,7.59,0,0,0-.49-2.69H47.34A1.63,1.63,0,0,1,49,9.56V23.43H45.44c-1.64,0-3.29,0-4.94-.05h-.13C37,23.34,33.41,23.3,29.93,23.45Z" fill="#2a2d58"/></svg>