<svg enable-background="new 0 0 78.4 79.5" viewBox="0 0 78.4 79.5" xmlns="http://www.w3.org/2000/svg"><path d="m55 34.7-2.8.3c-.2-.7-.5-1.4-.8-2l2.3-1.8c1-.8 1.3-2.2.6-3l-3.8-3.8c-.7-.7-2.2-.5-3 .6l-1.8 2.3c-.6-.3-1.3-.6-2-.8l.3-2.9c.1-1.3-.7-2.5-1.7-2.5h-5.3c-1.1 0-1.9 1.2-1.7 2.5l.3 2.8c-.7.2-1.4.5-2 .8l-1.9-2.2c-.8-1-2.2-1.3-3-.6l-3.7 3.8c-.7.7-.5 2.2.6 3l2.3 1.8c-.3.6-.6 1.3-.8 2l-2.9-.3c-1.3-.1-2.5.7-2.5 1.7v5.3c0 1.1 1.2 1.9 2.5 1.7l2.8-.3c.2.7.5 1.4.8 2l-2.3 1.8c-1 .8-1.3 2.2-.6 3l3.8 3.8c.7.7 2.2.5 3-.6l1.8-2.3c.6.3 1.3.6 2 .8l-.3 2.9c-.1 1.3.7 2.5 1.7 2.5h5.3c1.1 0 1.9-1.2 1.7-2.5l-.3-2.8c.7-.2 1.4-.5 2-.8l1.8 2.3c.8 1 2.2 1.3 3 .6l3.8-3.8c.7-.7.5-2.2-.6-3l-2.3-1.8c.3-.6.6-1.3.8-2l2.9.3c1.3.1 2.5-.7 2.5-1.7v-5.3c0-1.2-1.2-2-2.5-1.8zm-15.4 9c-2.6 0-4.6-2.1-4.6-4.6s2.1-4.6 4.6-4.6c2.6 0 4.6 2.1 4.6 4.6s-2.1 4.6-4.6 4.6z" fill="#2a2d58"/><g fill="#f1b860"><circle cx="39.6" cy="39.1" r="3.1"/><circle cx="39.6" cy="39.1" r="2.1"/><path d="m40.4 20h-1.8c-.5 0-.9-.4-.9-.9v-2.5c0-.5.4-.9.9-.9h1.8c.5 0 .9.4.9.9v2.5c.1.5-.4.9-.9.9z"/></g><circle cx="39.6" cy="6.1" fill="none" r="3.1" stroke="#2a2d58" stroke-miterlimit="10" stroke-width="2"/><path d="m40.4 15.1h-1.8c-.5 0-.9-.4-.9-.9v-2.5c0-.5.4-.9.9-.9h1.8c.5 0 .9.4.9.9v2.5c.1.5-.4.9-.9.9z" fill="#f1b860"/><path d="m26.7 24.9-1.2 1.2c-.4.4-.9.4-1.3 0l-1.8-1.8c-.4-.4-.4-.9 0-1.3l1.2-1.2c.4-.4.9-.4 1.3 0l1.8 1.8c.4.4.4 1 0 1.3z" fill="#f1b860"/><circle cx="16.3" cy="15.7" fill="none" r="3.1" stroke="#2a2d58" stroke-miterlimit="10" stroke-width="2"/><path d="m23.3 21.5-1.3 1.2c-.4.4-.9.4-1.3 0l-1.7-1.8c-.4-.4-.4-.9 0-1.3l1.2-1.2c.4-.4.9-.4 1.3 0l1.8 1.8c.3.3.3.9 0 1.3z" fill="#f1b860"/><path d="m20.5 38.1v1.8c0 .5-.4.9-.9.9h-2.5c-.5 0-.9-.4-.9-.9v-1.8c0-.5.4-.9.9-.9h2.5c.5 0 .9.4.9.9z" fill="#f1b860"/><circle cx="6.6" cy="39" fill="none" r="3.1" stroke="#2a2d58" stroke-miterlimit="10" stroke-width="2"/><path d="m15.6 38.1v1.8c0 .5-.4.9-.9.9h-2.5c-.5 0-.9-.4-.9-.9v-1.8c0-.5.4-.9.9-.9h2.5c.5 0 .9.4.9.9z" fill="#f1b860"/><path d="m25.4 51.8 1.2 1.2c.4.4.4.9 0 1.3l-1.8 1.8c-.4.4-.9.4-1.3 0l-1.2-1.2c-.4-.4-.4-.9 0-1.3l1.8-1.8c.4-.3 1-.3 1.3 0z" fill="#f1b860"/><circle cx="16.2" cy="62.3" fill="none" r="3.1" stroke="#2a2d58" stroke-miterlimit="10" stroke-width="2"/><path d="m21.9 55.3 1.2 1.2c.4.4.4.9 0 1.3l-1.8 1.8c-.4.4-.9.4-1.3 0l-1.2-1.2c-.4-.4-.4-.9 0-1.3l1.8-1.8c.4-.4 1-.4 1.3 0z" fill="#f1b860"/><path d="m38.6 58h1.8c.5 0 .9.4.9.9v2.5c0 .5-.4.9-.9.9h-1.8c-.5 0-.9-.4-.9-.9v-2.5c0-.5.4-.9.9-.9z" fill="#f1b860"/><circle cx="39.5" cy="72" fill="none" r="3.1" stroke="#2a2d58" stroke-miterlimit="10" stroke-width="2"/><path d="m38.6 63h1.8c.5 0 .9.4.9.9v2.5c0 .5-.4.9-.9.9h-1.8c-.5 0-.9-.4-.9-.9v-2.5c0-.5.4-.9.9-.9z" fill="#f1b860"/><path d="m52.3 53.1 1.2-1.2c.4-.4.9-.4 1.3 0l1.8 1.8c.4.4.4.9 0 1.3l-1.2 1.2c-.4.4-.9.4-1.3 0l-1.8-1.8c-.4-.4-.4-.9 0-1.3z" fill="#f1b860"/><circle cx="62.8" cy="62.4" fill="none" r="3.1" stroke="#2a2d58" stroke-miterlimit="10" stroke-width="2"/><path d="m55.8 56.6 1.2-1.2c.4-.4.9-.4 1.3 0l1.8 1.8c.4.4.4.9 0 1.3l-1.2 1.2c-.4.4-.9.4-1.3 0l-1.8-1.8c-.4-.4-.4-.9 0-1.3z" fill="#f1b860"/><path d="m58.5 40v-1.8c0-.5.4-.9.9-.9h2.5c.5 0 .9.4.9.9v1.8c0 .5-.4.9-.9.9h-2.5c-.5 0-.9-.4-.9-.9z" fill="#f1b860"/><circle cx="72.5" cy="39.1" fill="none" r="3.1" stroke="#2a2d58" stroke-miterlimit="10" stroke-width="2"/><path d="m63.4 40v-1.8c0-.5.4-.9.9-.9h2.5c.5 0 .9.4.9.9v1.8c0 .5-.4.9-.9.9h-2.5c-.5 0-.9-.4-.9-.9z" fill="#f1b860"/><path d="m53.6 26.3-1.2-1.3c-.4-.4-.4-.9 0-1.3l1.8-1.8c.4-.4.9-.4 1.3 0l1.2 1.2c.4.4.4.9 0 1.3l-1.8 1.8c-.4.4-.9.4-1.3.1z" fill="#f1b860"/><circle cx="62.8" cy="15.8" fill="none" r="3.1" stroke="#2a2d58" stroke-miterlimit="10" stroke-width="2"/><path d="m57.1 22.8-1.2-1.2c-.4-.4-.4-.9 0-1.3l1.8-1.8c.4-.4.9-.4 1.3 0l1.2 1.2c.4.4.4.9 0 1.3l-1.8 1.8c-.4.3-1 .3-1.3 0z" fill="#f1b860"/></svg>