<svg enable-background="new 0 0 78.4 79.5" viewBox="0 0 78.4 79.5" xmlns="http://www.w3.org/2000/svg"><path d="m60.5 63.5c.1-.1.1-.1 0 0 .1-.1 0 0 0 0z" fill="#f1b860"/><path d="m60.6 63.4s-.1.1 0 0c-.1.1-.2.1-.2.1-1.3.8-2.7 1.6-4.1 2.2-.2.1-.3.1-.5.2-.3.1-.6.3-.9.4s-.7.3-1 .4c-.1.1-.3.1-.4.2-.2 0-.4.1-.5.1-1.1.4-2.3.7-3.5 1-.2 0-.3.1-.5.1s-.3.1-.5.1-.3.1-.5.1c-.1 0-.3 0-.4.1-.4.1-.8.1-1.1.2-.4 0-.7.1-1.1.1v3.8h5.5c.8 0 1.4.6 1.4 1.4v3.1c0 .8-.6 1.4-1.4 1.4h-16.5c-.8 0-1.4-.6-1.4-1.4v-3.1c0-.8.6-1.4 1.4-1.4h5.8v-3.7h-.1c-.8 0-1.7-.1-2.5-.2-17.1-2.2-30-16.9-30-34.2 0-2.7.3-5.5 1-8.1 2.5-10.9 10.3-19.9 20.7-24 .2-.1.5-.2.7-.3h.1c.2-.1.5-.2.7-.3s.4-.1.6-.2h.1c.1 0 .2-.1.3-.1.2-.1.4-.1.6-.2h.1.3c.6 0 1.1.4 1.2.9.2.7-.2 1.4-.9 1.6h-.1c-.2 0-.3.1-.5.2-.3.1-.7.2-1 .3-.2.1-.4.1-.5.2-.2.1-.5.2-.7.3-9.7 3.8-16.9 12.1-19.3 22.1-.6 2.4-.9 5-.9 7.5 0 16 12 29.6 27.8 31.6.7.1 1.5.2 2.3.2v-.5c0-1 .8-1.8 1.8-1.8h1.5c1 0 1.8.8 1.8 1.8v.3c.2 0 .5-.1.7-.1.4 0 .7-.1 1.1-.2.1 0 .2 0 .3-.1.2 0 .3-.1.5-.1s.4-.1.5-.1.3-.1.4-.1c1.3-.3 2.7-.7 4-1.2.1 0 .3-.1.4-.2s.3-.1.4-.2c.1 0 .2-.1.4-.1 1.1-.5 2.2-1 3.3-1.5.2-.1.5-.3.7-.4.4-.2.8-.4 1.1-.7.6-.4 1.3-.2 1.7.3.5 1 .4 1.8-.2 2.2z" fill="#f1b860"/><path d="m65 16.9c-5.5-7.2-13.9-11.4-23-11.4-1.6 0-3.3.1-4.9.4-2 .3-3.9.9-5.8 1.6-8.6 3.5-15.1 11-17.3 20-.5 2.2-.8 4.5-.8 6.8 0 14.5 10.8 26.8 25.1 28.6.7.1 1.4.2 2.1.2h1.6c1.3 0 2.5-.1 3.7-.2 4.7-.6 9.2-2.4 13.1-5.1 7.6-5.4 12.1-14.2 12.1-23.5-.1-6.3-2.1-12.4-5.9-17.4zm-27.1-6.7c1.4-.2 2.7-.3 4.1-.3 7.4 0 14.3 3.3 19 9.1-.2.1-.3.2-.5.3-.9.8-1 2.3-1.9 3.1-.2.2-.5.4-.5.7 0 .2.1.3.2.5.6 1.1 1.2 2.1 1.8 3.2-1.5 0-2.7 1.3-4 2.2-1.6 1.1-3.5 1.6-5.4 1.5-.8-.1-1.7-.3-2.4.1-.5.2-.8.7-1.2 1.1-.9 1.2-1.9 2.4-2.8 3.6-.1-1.8-1.4-3.3-2.5-4.6-1.1-1.4-2.2-3.1-1.8-4.8.4-1.8 2.3-2.8 3.1-4.5.5-1.1.5-2.4 0-3.5-.4-.8-1.2-1.4-2-1.2-.2.1-.5.2-.7.1-.5-.2 0-1.1-.3-1.5-.2-.5-.7-.3-1.1-.3-.4-.1-.7-.4-1-.7-.8-1-1.5-2.4-1.7-3.7.5-.2 1.1-.3 1.6-.4zm2.8 48.6c-.7 0-1.2-.1-1.8-.2-12.1-1.6-21.3-12-21.3-24.3 0-2 .2-3.9.7-5.8.1-.3.1-.5.2-.8.1-.1.2-.2.3-.2.9-.5 2.2-.1 2.6.8 1 .2 2.1.4 3.1.7.3.1.6.1.9.3.9.6 1.1 2.1 2.1 2.4.8.2 1.5-.4 2.2-.8.5-.3 1-.5 1.6-.4.5.1 1 .7.8 1.2-.3.6-1.2.7-1.6 1.1-.4.5-.3 1.1-.4 1.7-.2 1-.9 1.8-1.6 2.5-.9.9-1.7 1.8-2.6 2.8-.4.4-.8.8-1.1 1.2-.4.5-.8 1.1-.9 1.8-.3 1.2.3 2.7 1.5 2.9.3.1.7 0 1 .2.4.2.5.7.6 1.1.4 1.2 1.6 2 2.8 2 .3-.1.4-.4.6-.6.3-.6.5-1.3 1-1.6.3-.2.7-.2 1.1-.1 1.4.2 2.7.8 3.8 1.7.2-.2.4-.4.5-.6.6 1.9 1.1 3.8 1.5 5.8.2 1.2.5 2.6 1.6 3.2.3.2.8.3 1.1.5.2.2.3.4.4.6s.2.5.2.7c-.4.2-.6.2-.9.2zm22.7-16.7c-.6 1.6-1.6 3-2.7 4-.9.9-2 1.5-2.7 2.6-.5.7-.8 1.5-1.3 2.1-1 1.4-2.5 2.2-4 2.4-.7.1-1.4.1-2 0-2.2-.3-4.2-1.5-6.2-2.7-.4-.2-.8-.6-.6-1.1l-.2.6c.7-2.3.3-5-1-6.8-.4-.6-1-1.2-1-2 0-.7.4-1.4.8-1.9.1-.2.3-.4.5-.5.4-.2.8.2 1.1.6.5.6.8 1.3 1.4 1.9.5.5 1.3.8 1.9.5.7-.3 1.1-1.3 1.8-1.4s1.2.5 1.8.9c1.5 1 3.4 0 4.8-1.2s2.8-2.6 4.5-2.8c.8 0 1.5.2 2.3.2s1.6-.3 2-1c-.2 2-.5 3.9-1.2 5.6z" fill="#2a2d58"/></svg>