<svg xmlns="http://www.w3.org/2000/svg" viewBox="0 0 82.17 55.91"><title>ICONS_nieuwwwwww</title><circle cx="74.34" cy="38.42" r="1.95" fill="none"/><path d="M9.44,20.11,17,23.36a3,3,0,0,1,1.83,2.79V38.68c0,2.26,8.15,8.79,20.74,8.79s20.74-6.53,20.74-8.79V26.15a3,3,0,0,1,1.84-2.79l7.58-3.25L39.6,7.2Zm43,6.06A3,3,0,1,1,55,31.66L41,38.22a3.09,3.09,0,0,1-2.48,0c-5.84-2.51-14.7-6.32-15.23-6.53a3,3,0,0,1-1.78-3.86,3.07,3.07,0,0,1,3.92-1.81c.11,0,.33.12,14.23,6.09Z" fill="none"/><path d="M21.52,27.87a3,3,0,0,0,1.78,3.86c.53.21,9.39,4,15.23,6.53a3.09,3.09,0,0,0,2.48,0l14-6.56a3,3,0,1,0-2.56-5.49l-12.8,6c-13.9-6-14.12-6-14.23-6.09A3.07,3.07,0,0,0,21.52,27.87Z" fill="#2a2d58"/><path d="M78.74,34.5c0-.06,0-.11,0-.16V21.12a3,3,0,0,0,0-.42A4.49,4.49,0,0,1,76,24.26l-3.33,1.43v8.38a6,6,0,1,0,6,.43Zm-3.4,6.87a1.95,1.95,0,1,1,2-1.95A1.94,1.94,0,0,1,75.34,41.37Z" fill="#f1b860"/><path d="M78.16,20.7a3.92,3.92,0,0,0,0-.59A4.52,4.52,0,0,0,75.47,16L41.38,1.36a4.56,4.56,0,0,0-3.55,0L3.74,16a4.51,4.51,0,0,0,0,8.3l9.06,3.88V38.68c0,7.64,13,14.85,26.8,14.85s26.81-7.21,26.81-14.85V28.14l5.74-2.45,3.32-1.43A4.49,4.49,0,0,0,78.16,20.7Zm-16,2.66a3,3,0,0,0-1.84,2.79V38.68c0,2.26-8.14,8.79-20.74,8.79s-20.74-6.53-20.74-8.79V26.15A3,3,0,0,0,17,23.36L9.44,20.11,39.6,7.2,69.76,20.11Z" fill="#2a2d58"/></svg>