<svg xmlns="http://www.w3.org/2000/svg" viewBox="0 0 86 80.93"><title>ICONS_nieuwwwwww</title><path d="M56,20.44a1.67,1.67,0,0,1-1.59-1.15,3.34,3.34,0,0,0-2-2.1,3.25,3.25,0,0,0-3.77,1.25A1.66,1.66,0,0,1,46,16.55a6.57,6.57,0,0,1,7.65-2.48,6.68,6.68,0,0,1,4,4.2,1.66,1.66,0,0,1-1.08,2.09A1.8,1.8,0,0,1,56,20.44Z" fill="#f1b860"/><path d="M25.54,26.68a1.66,1.66,0,0,1-1.65-1.51,4.52,4.52,0,0,1,3.39-4.85,5.23,5.23,0,0,1,4.23.89,1.66,1.66,0,1,1-2,2.69,1.93,1.93,0,0,0-1.49-.35,1.19,1.19,0,0,0-.87,1.33,1.67,1.67,0,0,1-1.51,1.8Z" fill="#f1b860"/><path d="M70.77,22.1A1,1,0,0,1,70.2,21a15.41,15.41,0,0,0,.22-3.86C69.9,8.24,61.65,1,52.05,1A19,19,0,0,0,35.72,9.73a1,1,0,0,1-1.3.36,14.89,14.89,0,0,0-8.35-1.54,14.51,14.51,0,0,0-12,8.65,12,12,0,0,0-.82,5.26,1,1,0,0,1-.47.86,15,15,0,0,0-7,12.55c0,6,3.69,11.19,9.53,13.7a1,1,0,0,1,.54.57A55.52,55.52,0,0,0,38.7,78.78l0,0c.59.38,1.18.77,1.8,1.14l.91.54a1,1,0,0,0,1,0l.32-.19.08,0,.54-.33q1.08-.65,2.1-1.32l.17-.12c.53-.34,1.06-.7,1.56-1l.94-.67.56-.42a53.85,53.85,0,0,0,19-25.42,1,1,0,0,1,.65-.61c7-2,11.42-7.53,11.42-14.45A15.18,15.18,0,0,0,70.77,22.1ZM64.24,42.35A48.75,48.75,0,0,1,45.45,71.88l-.12.1c-.64.47-1.3.93-2,1.39l-.49.33a1.73,1.73,0,0,1-1.87,0A50,50,0,0,1,19.74,42.42a1.71,1.71,0,0,1,1.05-2A121.64,121.64,0,0,0,41.13,30.19a1.72,1.72,0,0,1,1.8,0A159.86,159.86,0,0,0,63.22,40.39,1.75,1.75,0,0,1,64.24,42.35Zm5.33,1.49c.32-1.47.57-2.89.76-4.24l.12-.82A1.72,1.72,0,0,0,69.39,37l-.76-.31A155.46,155.46,0,0,1,43.45,24l-.59-.37a1.71,1.71,0,0,0-1.89,0l-.57.4a116.51,116.51,0,0,1-25,12.57l-.79.3a1.73,1.73,0,0,0-1.11,1.86l.13.84c.11.78.25,1.62.42,2.5a8.74,8.74,0,0,1-2.61-6.24,9.51,9.51,0,0,1,6-8.76l1.4-.6a1,1,0,0,0,.57-1.15l-.37-1.47a8.33,8.33,0,0,1,.16-4.5,9,9,0,0,1,7.41-5.33,8.68,8.68,0,0,1,1-.06,9.06,9.06,0,0,1,6.75,2.92l2.23,2.49A1,1,0,0,0,38.32,19l.81-3.25c1.35-5.42,6.66-9.21,12.92-9.21,6.73,0,12.49,4.91,12.85,11a9.73,9.73,0,0,1-1,5l-.92,2a1,1,0,0,0,.7,1.39l2.18.45c4.92,1,8.35,4.95,8.35,9.57A9,9,0,0,1,69.57,43.84Z" fill="#2a2d58"/><path d="M42,42.51a2.6,2.6,0,0,0-2.6,2.6v2.61h5.21V45.11A2.6,2.6,0,0,0,42,42.51Z" fill="none"/><path d="M49.79,47.88V45.11A7.83,7.83,0,0,0,42,37.29h0a7.83,7.83,0,0,0-7.82,7.82v2.77a2.61,2.61,0,0,0-1.73,2.45V60.75A2.61,2.61,0,0,0,35,63.36H48.92a2.61,2.61,0,0,0,2.6-2.61V50.33A2.6,2.6,0,0,0,49.79,47.88ZM42,59a2.61,2.61,0,1,1,2.61-2.61A2.61,2.61,0,0,1,42,59Zm2.61-11.26H39.36V45.11a2.61,2.61,0,0,1,5.21,0Z" fill="#f1b860"/><circle cx="41.96" cy="56.37" r="2.61" fill="#fff"/></svg>