<svg xmlns="http://www.w3.org/2000/svg" viewBox="0 0 97.45 62.77"><title>ICONS_nieuwwwwww</title><path d="M55.36,20.44a.68.68,0,0,1-.64-.47,1.41,1.41,0,0,0-.81-.86,1.34,1.34,0,0,0-1.54.51.67.67,0,0,1-.94.17.68.68,0,0,1-.17-.94,2.7,2.7,0,0,1,3.12-1A2.75,2.75,0,0,1,56,19.55a.67.67,0,0,1-.43.85A.52.52,0,0,1,55.36,20.44Z" fill="#f1b860"/><path d="M43,23a.67.67,0,0,1-.67-.62,1.83,1.83,0,0,1,1.38-2,2.15,2.15,0,0,1,1.72.36.68.68,0,0,1,.15.95.67.67,0,0,1-.94.15A.78.78,0,0,0,44,21.7a.47.47,0,0,0-.35.54A.69.69,0,0,1,43,23Z" fill="#f1b860"/><path d="M61.37,21.11a.41.41,0,0,1-.24-.45,6.26,6.26,0,0,0,.1-1.57,7.38,7.38,0,0,0-7.49-6.57,7.73,7.73,0,0,0-6.65,3.56.39.39,0,0,1-.52.14,6.08,6.08,0,0,0-3.4-.62,5.89,5.89,0,0,0-4.87,3.52A5,5,0,0,0,38,21.26a.39.39,0,0,1-.18.35,6,6,0,0,0,1,10.69.39.39,0,0,1,.22.23,22.64,22.64,0,0,0,9.27,11.66h0l.73.46.37.22a.4.4,0,0,0,.42,0l.12-.07,0,0,.22-.13.85-.54.07,0,.64-.44.38-.27.23-.17a22,22,0,0,0,7.74-10.35.4.4,0,0,1,.26-.25A6,6,0,0,0,65,26.72,6.19,6.19,0,0,0,61.37,21.11Zm-2.66,8.25a19.92,19.92,0,0,1-7.65,12l-.05,0L50.2,42l-.19.13a.7.7,0,0,1-.76,0,20.35,20.35,0,0,1-8.66-12.72.7.7,0,0,1,.42-.81,49.65,49.65,0,0,0,8.29-4.17.67.67,0,0,1,.73,0,65.55,65.55,0,0,0,8.26,4.16A.71.71,0,0,1,58.71,29.36Zm2.17.6c.13-.59.23-1.17.31-1.72l.05-.33a.71.71,0,0,0-.44-.75L60.49,27a63.57,63.57,0,0,1-10.25-5.15L50,21.73a.7.7,0,0,0-.77,0L49,21.9A47,47,0,0,1,38.81,27l-.33.12a.71.71,0,0,0-.44.76l.05.34c0,.32.1.66.17,1a3.57,3.57,0,0,1-1.06-2.54,3.87,3.87,0,0,1,2.46-3.57l.56-.24a.41.41,0,0,0,.24-.47l-.15-.6A3.39,3.39,0,0,1,40.37,20a3.65,3.65,0,0,1,3-2.17,2.82,2.82,0,0,1,.41,0A3.68,3.68,0,0,1,46.55,19l.91,1a.4.4,0,0,0,.69-.17l.33-1.33a5.27,5.27,0,0,1,5.26-3.75A5.1,5.1,0,0,1,59,19.23a4,4,0,0,1-.39,2l-.38.83a.41.41,0,0,0,.29.56l.89.18a4.07,4.07,0,0,1,3.4,3.9A3.64,3.64,0,0,1,60.88,30Z" fill="#2a2d58"/><path d="M49.64,29.42a1.06,1.06,0,0,0-1.06,1.06v1.06H50.7V30.48A1.07,1.07,0,0,0,49.64,29.42Z" fill="none"/><path d="M52.82,31.61V30.48a3.19,3.19,0,0,0-3.18-3.18h0a3.19,3.19,0,0,0-3.19,3.18v1.13a1.06,1.06,0,0,0-.7,1v4.24a1.05,1.05,0,0,0,1.06,1.06h5.66a1.06,1.06,0,0,0,1.06-1.06V32.61A1.06,1.06,0,0,0,52.82,31.61Zm-3.18,4.52a1.07,1.07,0,1,1,1.06-1.06A1.06,1.06,0,0,1,49.64,36.13Zm1.06-4.59H48.58V30.48a1.06,1.06,0,0,1,2.12,0Z" fill="#f1b860"/><circle cx="49.64" cy="35.07" r="1.06" fill="#fff"/><path d="M95,52.08H88.77V8.93A9,9,0,0,0,79.83,0H17.57A8.94,8.94,0,0,0,8.64,8.93V52.08H3.14A3.11,3.11,0,0,0,.79,53.15,3.19,3.19,0,0,0,0,55.68a8.2,8.2,0,0,0,8.1,7.09H89.27a8.22,8.22,0,0,0,8.18-8.24A2.45,2.45,0,0,0,95,52.08ZM13.53,8.93a4,4,0,0,1,4-4H79.83a4,4,0,0,1,4,4V52.08H13.53Z" fill="#2a2d58"/></svg>