<svg enable-background="new 0 0 59.6 79.7" viewBox="0 0 59.6 79.7" xmlns="http://www.w3.org/2000/svg"><path d="m39.9 57.3c0-.6-.5-1-1-1h-19.9c-.6 0-1 .5-1 1 0 .6.5 1 1 1h-.1c-.4 1-.3 2 .4 2.9.2.3.1.4 0 .6-1 1.4-.7 3.3.7 4.3.3.2.3.4.2.7-.7 1.8.5 4 2.4 4.2.4 0 .4.1.4.5-.4 2 .4 4.6 3.1 5.4 1.9.6 3.9.6 5.8 0 1.7-.5 2.7-1.6 3-3.3.2-.8.2-1.7-.1-2.6.5 0 .8-.1 1.2-.2 1.4-.6 2.1-2 1.9-3.5-.1-.4-.2-.9.2-1.3 1-.9 1.3-2 1-3.3-.1-.2-.2-.5-.4-.7-.4-.4-.3-.7.1-1.1.4-.8.5-1.6.3-2.5 0-.1 0-.1-.1-.2h-.1c.5.2 1-.3 1-.9zm-9.7 18c-.4.1-.9.1-1.2.1-.9 0-1.8-.1-2.5-.4-1.5-.6-1.7-1.8-1.6-3 .1-.5.5-.8 1.1-.9h5.9c.7 0 1.1.5 1.1 1.2 0 1.8-.8 2.7-2.8 3zm5.5-6.7c-.2.4-.6.5-1 .5-3.9 0-7.8 0-11.6 0-1 0-1.4-.9-1-1.7.2-.4.6-.5 1-.5h11.6c1 0 1.5.8 1 1.7zm.3-3.8c-4.4 0-8.7 0-13.1 0h-.1c-.3 0-.6 0-.9 0-.9.1-1.5-1.1-.9-1.7.2-.4.5-.5.9-.5h14.1c.7 0 1.1.5 1.1 1.1s-.5 1.1-1.1 1.1zm0-4.2c-4.7 0-9.4 0-14.2 0-.1 0-.2 0-.2 0-.8-.3-1-.9-.6-1.6.2-.4.5-.5.9-.5h14.1c.7 0 1.1.5 1.1 1.1 0 .5-.5 1-1.1 1z" fill="#2a2d58"/><g fill="#f1b860" stroke="#f1b860" stroke-miterlimit="10"><path d="m47.8 25.8c-2.1-10.3-12.1-16.8-22.4-15-10 1.8-16.9 11.2-15.7 21.3.6 5.1 2.9 9.3 6.9 12.7.2.2.3.3.3.6v2c0 2 .8 3.5 2.3 4.7 0 0 0 0 .1.1v.4c0 .4.4.8.8.8h17.9c.4 0 .8-.4.8-.8v-.6c.1-.1.2-.2.3-.2 1.1-.9 1.8-2.2 2-3.6.1-.9.1-1.8 0-2.7 0-.3.1-.6.4-.8 5.6-5.1 7.9-11.4 6.3-18.9zm-17.1 25.3c-1.2 0-2.4 0-3.6 0-.4 0-.5-.2-.4-.5 0-.2 0-.3 0-.5 0-4.7 0-9.5 0-14.2 0-.4.1-.5.5-.4 1.2.1 2.4.1 3.6 0 .2 0 .4-.1.4.3v14.8c0 .3 0 .5-.5.5zm9-7.7c-.5.4-.8.9-.7 1.5v2.8c-.1 1.2-.7 2.2-1.8 2.8-.6.4-1.2.5-1.8.5-.9 0-1.7 0-2.6 0-.4 0-.5-.2-.4-.5 0-1.3 0-2.5 0-3.8 0-3.7 0-7.3 0-11 0-.5.1-.6.6-.7.6-.1 1.2-.3 1.7-.7.8-.5 1.2-1.3 1-2.1s-.8-1.4-1.8-1.5c-.1 0-.3 0-.4 0-1.6-.1-2.4.7-2.3 2.1 0 .4.1.9-.1 1.1-.2.3-.7.1-1.1.1-1 .1-2 0-3 0-.3 0-.3-.1-.3-.4 0-.5 0-.9 0-1.4 0-.9-.7-1.5-1.5-1.6-.6-.1-1.2-.1-1.8.2-1.3.5-1.6 2.1-.6 3 .7.7 1.5.9 2.4 1.1.3.1.3.1.3.4v14.9.1c.1.4-.1.5-.5.5-1.1-.1-2.2.1-3.3-.1-1.6-.4-2.7-1.7-2.8-3.3 0-1 0-1.9 0-2.9 0-.5-.2-.9-.6-1.2-3.7-2.9-5.9-6.7-6.5-11.3-1.3-8.9 4.9-17.7 13.8-19.3 9.5-1.8 18.4 4 20.3 13.4 1.3 7.1-.8 12.8-6.2 17.3zm-7.3-10.3c0-.2 0-.4 0-.5 0-.3.2-.5.5-.5.4 0 .8 0 1.1.1.5.2.6.7.3 1-.5.5-1.1.6-1.7.7-.2 0-.2-.1-.2-.2 0-.2 0-.4 0-.6zm-7 0c0 .9 0 .9-.8.6-.4-.1-.7-.2-1-.5-.4-.4-.3-1 .2-1.1.4-.1.8-.1 1.2-.1.3 0 .4.2.4.5.1.2 0 .4 0 .6z"/><path d="m23.8 6.7c-.4.1-.9-.1-1-.6l-.8-2.8c-.1-.4.1-.9.6-1 .4-.1.9.1 1 .6l.7 2.8c.2.4-.1.9-.5 1z" stroke-width="2"/><path d="m12.8 12.8c-.4.4-.8.3-1.1 0l-2-2.1c-.4-.4-.3-.8 0-1.1.4-.4.8-.3 1.1 0l2 2.1c.5.3.4.7 0 1.1z" stroke-width="2"/><path d="m6.5 23.5c-.1.5-.6.7-1 .5l-2.8-.8c-.5-.1-.7-.6-.5-1 .1-.5.6-.7 1-.5l2.8.8c.4.1.6.6.5 1z" stroke-width="2"/><path d="m53.1 24.1c-.1-.4.1-.9.6-1l2.8-.7c.4-.1.9.1 1 .6.1.4-.1.9-.6 1l-2.8.7c-.5.1-.9-.1-1-.6z" stroke-width="2"/><path d="m47 13.3c-.4-.4-.3-.8 0-1.1l2.1-2c.4-.4.8-.3 1.1 0 .4.4.3.8 0 1.1l-2.1 2c-.2.3-.8.2-1.1 0z" stroke-width="2"/><path d="m36.3 6.9c-.5-.1-.7-.6-.5-1l.7-2.9c.1-.5.6-.7 1-.5.5.1.7.6.5 1l-.8 2.8c-.1.4-.6.6-.9.6z" stroke-width="2"/></g></svg>