<svg enable-background="new 0 0 71.9 80.1" viewBox="0 0 71.9 80.1" xmlns="http://www.w3.org/2000/svg"><g fill="#f1b860"><path d="m24.5 29h10c.8 0 1.5-.7 1.5-1.5s-.7-1.5-1.5-1.5h-10c-.8 0-1.5.7-1.5 1.5s.7 1.5 1.5 1.5z"/><path d="m24.5 38h14c.8 0 1.5-.7 1.5-1.5s-.7-1.5-1.5-1.5h-14c-.8 0-1.5.7-1.5 1.5s.7 1.5 1.5 1.5z"/><path d="m31.5 44h-7c-.8 0-1.5.7-1.5 1.5s.7 1.5 1.5 1.5h7c.8 0 1.5-.7 1.5-1.5s-.7-1.5-1.5-1.5z"/></g><path d="m49.9 43.2v-25.2c0-1.7-1.3-3-3-3h-26.9c-1.7 0-3 1.3-3 3v42c0 1.7 1.3 3 3 3h17.5c2 1.6 4.5 2.5 7.2 2.5 6.5 0 11.8-5.3 11.8-11.8 0-4.6-2.7-8.6-6.6-10.5zm-2.7 3c.4.2.6.6.6 1.1.2 1-.8 2.2-2.2 2.1-.1 0-.4 0-.6-.1-.5-.2-.8-.6-.8-1.1-.1-.9.4-1.8 1.3-2.1.7-.2 1.2-.2 1.7.1zm-14.2 7.6c0 2.3.7 4.4 1.8 6.2h-14.8v-42h26.9v24.2c-.7-.1-1.4-.2-2.2-.2-6.4 0-11.7 5.3-11.7 11.8zm15 4.5c-1.1 1.1-2.4 2-3.9 2.5-.2.1-.4.1-.6.2-.2 0-.3 0-.5 0 0 0 0 0-.1 0-.5-.1-.6-.5-.7-.9-.1-.6 0-1.1.2-1.6.4-1.5.7-3 1.1-4.4 0-.1 0-.2 0-.3 0-.2 0-.2-.2-.2-.3 0-.5.2-.8.3s-.7.3-1 .5c-.1 0-.1.1-.2 0-.1-.2-.2-.3-.3-.5 0-.1 0-.1 0-.1.7-.6 1.5-1.1 2.3-1.6.7-.4 1.4-.7 2.1-.9.2-.3.4-.3.6-.3.6-.1.8.3.9.7.1.5 0 1.1-.2 1.6-.4 1.4-.7 2.9-1.1 4.3-.1.2-.1.4-.1.6 0 .3.1.4.4.3.5-.2 1-.4 1.5-.8.1-.1.2-.1.2 0 .1.1.2.3.3.4.1.2.1.2.1.2z" fill="#2a2d58"/></svg>