<svg xmlns="http://www.w3.org/2000/svg" viewBox="0 0 86 80.93"><title>ICONS_nieuwwwwww</title><path d="M73.52.69H38.85A12.48,12.48,0,0,0,26.37,13.17V18a.22.22,0,0,1-.22.22H12.56A12.48,12.48,0,0,0,.08,30.65v25.8a12.27,12.27,0,0,0,11.14,12.2.22.22,0,0,1,.2.21v5.71a5.58,5.58,0,0,0,.95,3.24A5.66,5.66,0,0,0,17,80.24a5.55,5.55,0,0,0,3.93-1.63l9.84-9.84a.22.22,0,0,1,.15-.06h16A12.48,12.48,0,0,0,59.36,56.23h0a.23.23,0,0,1,.39-.16l5.08,5.1a5.68,5.68,0,0,0,6.49.95,5.79,5.79,0,0,0,3-5.22V51.39a.22.22,0,0,1,.2-.22A12.26,12.26,0,0,0,85.66,39V12.82A12.16,12.16,0,0,0,73.52.69ZM46.89,62H29.41A3.4,3.4,0,0,0,27,63l-8.48,8.6a.22.22,0,0,1-.38-.16V65.68A3.73,3.73,0,0,0,14.44,62H12.56a5.74,5.74,0,0,1-5.74-5.73V30.66a5.74,5.74,0,0,1,5.74-5.74H46.88a5.74,5.74,0,0,1,5.74,5.74V56.23A5.74,5.74,0,0,1,46.89,62ZM67.24,54l-7.81-7.85a.2.2,0,0,1-.07-.16V30.65A12.48,12.48,0,0,0,46.88,18.17H33.33a.22.22,0,0,1-.22-.22V13.17a5.74,5.74,0,0,1,5.73-5.73H73.17a5.73,5.73,0,0,1,5.73,5.74V39.36a5.39,5.39,0,0,1-5.38,5.12H70.94a3.37,3.37,0,0,0-3.37,3.38l.05,6A.22.22,0,0,1,67.24,54Z" fill="#2a2d58"/><path d="M40.14,47.19H17.23a2.8,2.8,0,1,0,0,5.6H40.14a2.8,2.8,0,1,0,0-5.6Z" fill="#f1b860"/><path d="M17.23,41.05H32.84a2.8,2.8,0,1,0,0-5.6H17.23a2.8,2.8,0,1,0,0,5.6Z" fill="#f1b860"/></svg>