<svg enable-background="new 0 0 141.5 145.6" viewBox="0 0 141.5 145.6" xmlns="http://www.w3.org/2000/svg"><g fill="#2a2d58"><path d="m31.1 106.9v-.2c4.3-3.3 5.2-9.5 1.9-13.8s-9.5-5.2-13.8-1.9-5.2 9.5-1.9 13.8c.5.7 1.2 1.4 1.9 1.9v.2c-5.5 1.4-9.3 6.3-9.4 12v12.4h30.6v-12.4c.1-5.7-3.8-10.6-9.3-12z"/><path d="m75.3 106.9v-.2c4.3-3.3 5.2-9.5 1.9-13.8s-9.5-5.2-13.8-1.9-5.2 9.5-1.9 13.8c.5.7 1.2 1.4 1.9 1.9v.2c-5.5 1.4-9.3 6.3-9.4 12v12.4h30.6v-12.4c.1-5.7-3.8-10.6-9.3-12z"/><path d="m75.3 28.8v-.2c4.3-3.3 5.2-9.5 1.9-13.8s-9.5-5.2-13.8-1.9-5.2 9.5-1.9 13.8c.5.7 1.2 1.4 1.9 1.9v.2c-5.5 1.4-9.3 6.3-9.4 12v12.4h30.6v-12.4c.1-5.7-3.8-10.6-9.3-12z"/><path d="m119.5 106.9v-.2c4.3-3.3 5.2-9.5 1.9-13.8s-9.5-5.2-13.8-1.9-5.2 9.5-1.9 13.8c.5.7 1.2 1.4 1.9 1.9v.2c-5.5 1.4-9.3 6.3-9.4 12v12.4h30.6v-12.4c0-5.7-3.8-10.6-9.3-12z"/></g><path d="m109.7 67.7h-36.6v-9.7h-7.3v9.8h-36.6c-4.6 0-8.4 3.7-8.4 8.4v8.5h7.5v-8.1c0-.7.5-1.2 1.2-1.2h36.3v9.5h7.3v-9.5h36.2c.7 0 1.2.5 1.2 1.2v8.1h7.5v-8.5c.1-4.7-3.7-8.5-8.3-8.5z" fill="#f1b860"/></svg>