<svg enable-background="new 0 0 701 707" viewBox="0 0 701 707" xmlns="http://www.w3.org/2000/svg" xmlns:xlink="http://www.w3.org/1999/xlink"><linearGradient id="a" gradientUnits="userSpaceOnUse" x1="328.9178" x2="373.1676" y1="420.4197" y2="420.4197"><stop offset="0" stop-color="#383a4e"/><stop offset=".3055" stop-color="#e9eaee"/><stop offset=".3132" stop-color="#e4e5e8"/><stop offset=".3441" stop-color="#d3d4d7"/><stop offset=".3821" stop-color="#c7c8cb"/><stop offset=".434" stop-color="#c0c1c4"/><stop offset=".564" stop-color="#bebfc2"/><stop offset=".8788" stop-color="#383a4e"/></linearGradient><g fill="#2a2d58"><path d="m564.8 608.4h-428.9c-24.9 0-45.1-19.6-45.1-43.8v-416.1c0-24.1 20.2-43.8 45.1-43.8h428.9c24.9 0 45.1 19.6 45.1 43.8v416.2c0 24.1-20.2 43.7-45.1 43.7zm-428.9-489.1c-16.6 0-30.1 13.1-30.1 29.2v416.2c0 16.1 13.5 29.2 30.1 29.2h428.9c16.6 0 30.1-13.1 30.1-29.2v-416.2c0-16.1-13.5-29.2-30.1-29.2z"/><path d="m564.8 608.4h-428.9c-24.9 0-45.1-19.6-45.1-43.8v-416.1c0-24.1 20.2-43.8 45.1-43.8h428.9c24.9 0 45.1 19.6 45.1 43.8v416.2c0 24.1-20.2 43.7-45.1 43.7zm-428.9-489.1c-16.6 0-30.1 13.1-30.1 29.2v416.2c0 16.1 13.5 29.2 30.1 29.2h428.9c16.6 0 30.1-13.1 30.1-29.2v-416.2c0-16.1-13.5-29.2-30.1-29.2z"/><path d="m663.5 236.5-132.6 395.8c-7.7 23-33.2 35.6-56.9 28.1l-407.8-128.6c-23.7-7.5-36.7-32.2-29-55.2l132.5-395.8c7.7-23 33.2-35.6 56.9-28.1l407.9 128.6c23.7 7.5 36.7 32.2 29 55.2zm-612 244.7c-5.1 15.3 3.5 31.8 19.3 36.8l407.9 128.6c15.8 5 32.8-3.4 37.9-18.7l132.6-395.9c5.1-15.3-3.5-31.8-19.3-36.8l-408-128.6c-15.8-5-32.8 3.4-37.9 18.7z"/><path d="m329.4 30.5 347 244.6c20.1 14.2 24.6 41.6 10 61.2l-252.1 336.7c-14.6 19.5-42.9 23.9-63 9.7l-347-244.7c-20.1-14.2-24.6-41.6-10-61.2l252.1-336.6c14.6-19.6 42.9-23.9 63-9.7zm50.7 640.3c13.4 9.5 32.3 6.6 42-6.5l252.1-336.7c9.7-13 6.8-31.3-6.7-40.8l-347-244.6c-13.4-9.5-32.3-6.6-42 6.5l-252 336.7c-9.7 13-6.8 31.3 6.7 40.8z"/><path d="m24.3 275.1 347-244.6c20.1-14.2 48.4-9.8 63 9.7l252.1 336.7c14.6 19.5 10.1 47-10 61.2l-347 244.6c-20.1 14.2-48.4 9.8-63-9.7l-252.1-336.7c-14.6-19.6-10.2-47 10-61.2zm643.3 151.1c13.4-9.5 16.4-27.7 6.7-40.8l-252.2-336.7c-9.7-13-28.6-15.9-42-6.5l-347 244.6c-13.4 9.5-16.4 27.7-6.7 40.8l252.1 336.7c9.7 13 28.6 15.9 42 6.5z"/><path d="m169.7 632.3-132.5-395.8c-7.7-23 5.3-47.7 29-55.2l407.9-128.6c23.7-7.5 49.2 5.1 56.9 28.1l132.5 395.8c7.7 23-5.3 47.7-29 55.2l-407.9 128.6c-23.7 7.5-49.2-5.1-56.9-28.1zm346.9-547c-5.1-15.3-22.1-23.7-37.9-18.7l-407.9 128.6c-15.8 5-24.4 21.5-19.3 36.8l132.5 395.8c5.1 15.3 22.1 23.7 37.9 18.7l407.9-128.6c15.8-5 24.4-21.5 19.3-36.8z"/><path d="m204.5 229h14v52.6c0 1.5.3 2.5.8 3 .5.6 1.1.9 1.7.9h.8c.2 0 .5-.1.9-.2l1.7 10.4c-.8.3-1.7.6-2.9.8s-2.6.3-4.1.3c-2.4 0-4.4-.4-6.1-1.1-1.7-.8-3-1.8-3.9-3.2-1-1.4-1.7-3-2.1-4.9s-.7-4.1-.7-6.5v-52.1z"/><path d="m223.4 272.1c0-3.8.6-7.2 1.9-10.3s2.9-5.7 5-7.8 4.4-3.8 7.1-4.9 5.4-1.7 8.3-1.7c3.4 0 6.3.6 8.8 1.7s4.6 2.7 6.3 4.8c1.7 2 2.9 4.4 3.8 7.2.8 2.8 1.2 5.8 1.2 9 0 1.3-.1 2.4-.2 3.5-.1 1-.3 1.9-.4 2.4h-28.2c.6 3.6 2 6.2 4.2 7.9 2.2 1.6 4.9 2.4 8 2.4 3.4 0 6.8-1 10.2-3.1l4.7 8.5c-2.4 1.7-5.1 2.9-8 3.9s-5.9 1.4-8.7 1.4c-3.4 0-6.5-.6-9.4-1.7s-5.5-2.7-7.6-4.9c-2.2-2.1-3.8-4.7-5-7.8-1.3-3.1-2-6.6-2-10.5zm30.5-4.9c0-2.7-.6-4.9-1.8-6.7-1.2-1.7-3.2-2.6-6.1-2.6-2.2 0-4.2.7-5.9 2.2s-2.8 3.8-3.3 7h17.1z"/><path d="m266.8 282.5c0-4.9 2.1-8.8 6.3-11.6s10.9-4.7 20.3-5.6c-.1-2.1-.8-3.8-1.9-5s-3-1.9-5.5-1.9c-2 0-4.1.4-6.1 1.1-2 .8-4.2 1.8-6.5 3.1l-4.9-9.2c3-1.8 6.2-3.3 9.6-4.5 3.3-1.1 6.9-1.7 10.6-1.7 6.1 0 10.7 1.7 13.9 5.2s4.8 8.8 4.8 16.1v27h-11.4l-1-4.9h-.3c-2 1.8-4.2 3.2-6.4 4.3-2.3 1.1-4.7 1.7-7.4 1.7-2.2 0-4.1-.4-5.8-1.1s-3.2-1.7-4.4-3-2.1-2.8-2.8-4.5-1.1-3.4-1.1-5.5zm13.4-1c0 1.5.5 2.6 1.5 3.4 1 .7 2.3 1.1 3.9 1.1s3-.3 4.2-1c1.1-.7 2.3-1.7 3.6-2.9v-8.3c-5 .7-8.5 1.7-10.4 3s-2.8 2.9-2.8 4.7z"/><path d="m313.1 248.5h11.4l1 8.3h.4c1.7-3.2 3.8-5.6 6.2-7.1s4.8-2.3 7.2-2.3c1.3 0 2.4.1 3.3.2.9.2 1.6.4 2.3.7l-2.3 12.1c-.9-.3-1.7-.4-2.5-.6-.8-.1-1.7-.2-2.7-.2-1.8 0-3.6.6-5.6 1.9-1.9 1.3-3.5 3.5-4.8 6.8v27.4h-14v-47.2z"/><path d="m345.5 248.5h11.5l1 6h.4c2-1.9 4.2-3.6 6.7-5 2.4-1.4 5.2-2.1 8.5-2.1 5.1 0 8.9 1.7 11.2 5 2.3 3.4 3.5 8 3.5 14v29.3h-14v-27.5c0-3.4-.5-5.8-1.4-7-.9-1.3-2.4-1.9-4.4-1.9-1.8 0-3.3.4-4.6 1.2s-2.7 1.9-4.2 3.4v31.9h-14v-47.3z"/><path d="m399 241.5c-2.3 0-4.3-.7-5.8-2-1.5-1.4-2.3-3.1-2.3-5.3s.8-3.9 2.3-5.2 3.5-2 5.8-2c2.4 0 4.4.7 5.9 2s2.2 3.1 2.2 5.2c0 2.2-.7 3.9-2.2 5.3-1.5 1.3-3.5 2-5.9 2zm-6.9 7h14v47.2h-14z"/><path d="m412.6 248.5h11.4l1 6h.4c2-1.9 4.2-3.6 6.7-5 2.4-1.4 5.2-2.1 8.5-2.1 5.1 0 8.9 1.7 11.2 5 2.3 3.4 3.5 8 3.5 14v29.3h-14v-27.5c0-3.4-.5-5.8-1.4-7-.9-1.3-2.4-1.9-4.4-1.9-1.8 0-3.3.4-4.6 1.2s-2.7 1.9-4.2 3.4v31.9h-14v-47.3z"/><path d="m458 303.8c0-3.8 2.3-7 6.8-9.5v-.4c-1.3-.8-2.3-1.9-3.1-3.1-.8-1.3-1.2-2.9-1.2-4.9 0-1.7.5-3.3 1.5-4.9s2.3-2.9 3.8-3.9v-.4c-1.7-1.1-3.1-2.8-4.4-4.9s-2-4.6-2-7.4c0-2.9.5-5.3 1.6-7.5 1.1-2.1 2.5-3.9 4.3-5.3s3.9-2.5 6.2-3.2 4.8-1 7.3-1c2.8 0 5.2.4 7.3 1.1h17.2v10.2h-7.5c.4.7.8 1.6 1.1 2.7s.4 2.3.4 3.5c0 2.7-.5 5.1-1.4 7.1-1 2-2.3 3.6-3.9 4.9-1.7 1.3-3.6 2.3-5.9 2.9s-4.7 1-7.3 1c-1.8 0-3.7-.3-5.7-1-.6.5-1.1 1-1.3 1.5-.3.5-.4 1.2-.4 2 0 1.2.5 2.1 1.6 2.7s2.9.9 5.6.9h7.6c5.8 0 10.3.9 13.4 2.8s4.6 4.9 4.6 9.2c0 2.5-.6 4.7-1.9 6.8-1.2 2.1-3 3.8-5.3 5.3s-5 2.7-8.3 3.5c-3.2.9-6.9 1.3-10.9 1.3-2.8 0-5.4-.2-7.8-.7s-4.5-1.2-6.3-2.1c-1.8-1-3.2-2.2-4.2-3.7-1-1.6-1.5-3.4-1.5-5.5zm11.5-2.2c0 1.8 1 3.1 2.9 4s4.4 1.4 7.6 1.4 5.8-.6 7.8-1.7 3-2.5 3-4.1c0-1.5-.6-2.4-1.9-2.9-1.2-.5-3-.8-5.4-.8h-4.9c-1.7 0-3 0-4-.1s-1.9-.2-2.7-.4c-1.5 1.4-2.4 3-2.4 4.6zm9.4-29.3c1.8 0 3.4-.6 4.6-2 1.2-1.3 1.9-3.3 1.9-5.9 0-2.5-.6-4.4-1.9-5.7-1.2-1.3-2.8-2-4.6-2s-3.4.6-4.6 1.9-1.9 3.2-1.9 5.7c0 2.7.6 4.6 1.9 5.9 1.2 1.4 2.7 2.1 4.6 2.1z"/><path d="m245 372.3v13.8h-14v-64.7h11.4l1 4.7h.4c1.8-1.6 3.9-3 6.2-4.1s4.7-1.7 7.2-1.7c2.9 0 5.4.6 7.7 1.7s4.2 2.8 5.8 4.9 2.8 4.6 3.7 7.6c.9 2.9 1.3 6.2 1.3 9.8 0 4.1-.6 7.7-1.7 10.8s-2.6 5.8-4.5 8-4 3.9-6.4 5-4.8 1.7-7.4 1.7c-2 0-4-.4-5.9-1.3s-3.7-2.1-5.3-3.7zm0-17c1.3 1.1 2.5 1.9 3.8 2.4 1.3.4 2.5.7 3.7.7 2.4 0 4.5-1.1 6.2-3.3s2.6-5.7 2.6-10.6c0-8.5-2.7-12.8-8.2-12.8-2.7 0-5.4 1.4-8.1 4.3z"/><path d="m277.1 345c0-3.8.6-7.2 1.9-10.3s2.9-5.7 5-7.8 4.4-3.8 7.1-4.9 5.4-1.7 8.3-1.7c3.4 0 6.3.6 8.8 1.7s4.6 2.7 6.3 4.8c1.7 2 2.9 4.4 3.8 7.2.8 2.8 1.2 5.8 1.2 9 0 1.3-.1 2.4-.2 3.5-.1 1-.3 1.9-.4 2.4h-28.3c.6 3.6 2 6.2 4.2 7.9 2.2 1.6 4.9 2.4 8 2.4 3.4 0 6.8-1 10.2-3.1l4.7 8.5c-2.4 1.7-5.1 2.9-8 3.9s-5.9 1.4-8.7 1.4c-3.4 0-6.5-.6-9.4-1.7s-5.5-2.7-7.6-4.9c-2.2-2.1-3.8-4.7-5-7.8-1.3-3.1-1.9-6.6-1.9-10.5zm30.5-4.9c0-2.7-.6-4.9-1.8-6.7-1.2-1.7-3.2-2.6-6.1-2.6-2.2 0-4.2.7-5.9 2.2s-2.8 3.8-3.3 7h17.1z"/><path d="m320.4 345c0-3.9.6-7.4 1.9-10.5s3-5.7 5.1-7.8 4.6-3.7 7.4-4.8 5.7-1.7 8.7-1.7 5.9.6 8.6 1.7c2.8 1.1 5.2 2.7 7.3 4.8s3.8 4.7 5.1 7.8 1.9 6.6 1.9 10.5-.6 7.4-1.9 10.5-3 5.7-5.1 7.8-4.6 3.7-7.3 4.8c-2.8 1.1-5.6 1.7-8.6 1.7s-5.9-.6-8.7-1.7-5.3-2.7-7.4-4.8-3.8-4.7-5.1-7.8-1.9-6.6-1.9-10.5zm14.4 0c0 4.1.7 7.4 2.1 9.8s3.6 3.6 6.5 3.6 5-1.2 6.5-3.6 2.2-5.7 2.2-9.8-.7-7.4-2.2-9.8-3.6-3.6-6.5-3.6-5.1 1.2-6.5 3.6-2.1 5.7-2.1 9.8z"/><path d="m383.9 372.3v13.8h-14v-64.7h11.4l1 4.7h.4c1.8-1.6 3.9-3 6.2-4.1s4.7-1.7 7.2-1.7c2.9 0 5.4.6 7.7 1.7s4.2 2.8 5.8 4.9 2.8 4.6 3.7 7.6c.9 2.9 1.3 6.2 1.3 9.8 0 4.1-.6 7.7-1.7 10.8s-2.6 5.8-4.5 8-4 3.9-6.4 5-4.8 1.7-7.4 1.7c-2 0-4-.4-5.9-1.3s-3.7-2.1-5.3-3.7zm0-17c1.3 1.1 2.5 1.9 3.8 2.4 1.3.4 2.5.7 3.7.7 2.4 0 4.5-1.1 6.2-3.3s2.6-5.7 2.6-10.6c0-8.5-2.7-12.8-8.2-12.8-2.7 0-5.4 1.4-8.1 4.3z"/><path d="m417.2 301.9h14v52.6c0 1.5.3 2.5.8 3 .5.6 1.1.9 1.7.9h.8c.2 0 .5-.1.9-.2l1.7 10.4c-.8.3-1.7.6-2.9.8s-2.6.3-4.1.3c-2.4 0-4.4-.4-6.1-1.1-1.7-.8-3-1.8-3.9-3.2-1-1.4-1.7-3-2.1-4.9s-.7-4.1-.7-6.5v-52.1z"/><path d="m435.3 345c0-3.8.6-7.2 1.9-10.3s2.9-5.7 5-7.8 4.4-3.8 7.1-4.9 5.4-1.7 8.3-1.7c3.4 0 6.3.6 8.8 1.7s4.6 2.7 6.3 4.8c1.7 2 2.9 4.4 3.8 7.2.8 2.8 1.2 5.8 1.2 9 0 1.3-.1 2.4-.2 3.5-.1 1-.3 1.9-.4 2.4h-28.3c.6 3.6 2 6.2 4.2 7.9 2.2 1.6 4.9 2.4 8 2.4 3.4 0 6.8-1 10.2-3.1l4.7 8.5c-2.4 1.7-5.1 2.9-8 3.9s-5.9 1.4-8.7 1.4c-3.4 0-6.5-.6-9.4-1.7s-5.5-2.7-7.6-4.9c-2.2-2.1-3.8-4.7-5-7.8-1.3-3.1-1.9-6.6-1.9-10.5zm30.4-4.9c0-2.7-.6-4.9-1.8-6.7-1.2-1.7-3.2-2.6-6.1-2.6-2.2 0-4.2.7-5.9 2.2s-2.8 3.8-3.3 7h17.1z"/></g><path d="m105 452h490.7v79.2h-490.7z" fill="none"/><text fill="#2a2d58" font-family="'SourceSansPro-Regular'" font-size="64.044" letter-spacing="1" transform="translate(242.0767 497.5527)">ALUMNI</text><path d="m328.9 420.4h44.3" fill="none" stroke="url(#a)" stroke-miterlimit="10" stroke-width="5"/></svg>