<svg enable-background="new 0 0 99.2 200.5" viewBox="0 0 99.2 200.5" xmlns="http://www.w3.org/2000/svg"><path d="m83.1 11.8h-67.1c-7.8 0-14.2 6-14.2 13.5v159.7c0 7.5 6.3 13.5 14.2 13.5h67c7.8 0 14.2-6 14.2-13.5v-159.7c0-7.5-6.3-13.5-14.1-13.5zm-33.5 179.6c-4.1 0-7.4-3.1-7.4-7s3.3-7 7.4-7 7.4 3.1 7.4 7-3.4 7-7.4 7zm40.6-22.6h-81.3v-138.6h81.3z" fill="#2a2d58"/><path d="m20.1 139.3h59" fill="#2a2d58"/><path d="m79 141.3h-59c-1.1 0-2-.9-2-2s.9-2 2-2h59c1.1 0 2 .9 2 2s-.9 2-2 2z" fill="#2a2d58"/><circle cx="33.9" cy="139.1" fill="#f1b860" r="5.7"/><path d="m78.3 55.3-10.5-10.6c-1.2-1.3-2.9-2-4.7-2h-40.1c-2.4 0-4.3 1.9-4.3 4.3v71.2c0 2.4 1.9 4.3 4.3 4.3h27.8c1.7-.1 3-1.6 2.9-3.3-.1-1.6-1.3-2.8-2.9-2.9h-25.3c-.3 0-.6-.3-.6-.6v-66.2c0-.3.3-.6.6-.6h35.3c.3 0 .6.3.6.6v7.8c0 2.4 1.9 4.3 4.3 4.3h7.7c.3 0 .6.3.6.6v24.7c-.1 1.7 1.2 3.2 2.9 3.3s3.2-1.2 3.3-2.9c0-.1 0-.2 0-.3v-27c0-1.8-.7-3.5-1.9-4.7z" fill="#2a2d58"/><g fill="#f1b860"><path d="m66.1 70.3h-7.8c-1.2.1-2 1.1-1.9 2.3.1 1 .9 1.8 1.9 1.9h7.8c1.2-.1 2-1.1 1.9-2.3-.1-1-.9-1.8-1.9-1.9z"/><path d="m46.8 74.5h5.9c1.2-.1 2-1.1 1.9-2.3-.1-1-.9-1.8-1.9-1.9h-5.9c-1.2.1-2 1.1-1.9 2.3.1 1 .9 1.8 1.9 1.9z"/><path d="m46.8 66.8h9.8c1.2-.1 2-1.1 1.9-2.2-.1-1-.9-1.9-1.9-1.9h-9.8c-1.2.1-2 1.1-1.9 2.2 0 1 .8 1.8 1.9 1.9z"/><path d="m62.2 78.2h-14.8c-1.2-.1-2.3.8-2.4 2.1.1 1.3 1.2 2.2 2.4 2.1h14.9c1.2.1 2.3-.8 2.4-2.1-.1-1.2-1.2-2.2-2.5-2.1z"/><path d="m61.9 86.8h-14.3c-1.5 0-2.7.9-2.7 2.1s1.2 2.1 2.7 2.1h14.3c1.5 0 2.7-.9 2.7-2.1.1-1.1-1.1-2.1-2.7-2.1z"/><path d="m54.6 97.4h-7.8c-1.2.1-2 1.1-1.9 2.3.1 1 .9 1.8 1.9 1.9h7.8c1.2-.1 2-1.1 1.9-2.3-.1-1-.9-1.8-1.9-1.9z"/></g><path d="m39.5 91.7c-.3-.2-.6-.3-1-.2s-.7.3-.9.6l-3.6 5.4-1.1-1.1c-.3-.3-.6-.4-1-.4-.4 0-.7.1-1 .4s-.4.6-.4 1 .2.7.4 1l2.3 2.2c.3.3.6.4 1 .4h.1c.4 0 .8-.3 1-.6l4.5-6.8c.2-.3.3-.6.2-1 0-.4-.2-.7-.5-.9z" fill="#2a2d58"/><path d="m33.1 71.5c.3.3.6.4 1 .4h.1c.4 0 .8-.3 1-.6l4.5-6.9c.2-.3.3-.6.2-1-.1-.7-.8-1.2-1.6-1.1-.4.1-.7.3-.9.6l-3.6 5.4-1.1-1.1c-.5-.5-1.4-.5-1.9 0s-.5 1.4 0 1.9z" fill="#2a2d58"/><path d="m39.5 77.2c-.6-.4-1.4-.3-1.9.3l-3.7 5.5-1.1-1.1c-.5-.5-1.4-.5-1.9 0s-.5 1.4 0 1.9l2.3 2.3c.3.3.6.4 1 .4h.1c.4 0 .8-.3 1-.6l4.5-6.8c.2-.3.3-.6.2-1 0-.4-.2-.7-.5-.9z" fill="#2a2d58"/><path d="m80.4 95.1c-2.1-1.9-5.4-1.7-7.3.5 0 0 0 0-.1.1l-14.3 16.5-.1.1-.6 8.6 8.5-1.8 14.4-16.6c1.8-2.3 1.6-5.5-.5-7.4zm-2 5.2-1.3 1.4-2.9-2.5 1.3-1.5c.6-.8 1.8-.9 2.6-.3 0 0 .1.1.1.1.8.7.9 1.9.2 2.8zm-16.8 16.4.2-3.2 10.3-11.8 2.9 2.5-10.2 11.8z" fill="#2a2d58"/></svg>