<svg xmlns="http://www.w3.org/2000/svg" viewBox="0 0 80.41 37.96"><title>ICONS_nieuwwwwww</title><path d="M27.33,18.05a1.6,1.6,0,0,1-.76-.16l-.63-.3a2.55,2.55,0,0,0-1.46-.29l-.39.06a5.54,5.54,0,0,0,.71-1.57H26a.73.73,0,1,0,0-1.45H24.87c-.07,0-.11,0-.13-.08-.13-.28-.26-.55-.38-.83a2.92,2.92,0,0,1-.22-1A1.27,1.27,0,0,1,25.3,11.1a2.57,2.57,0,0,1,1.29.1,1.2,1.2,0,0,1,.53.35.64.64,0,0,1,0,.95.63.63,0,0,0,0,.95.76.76,0,0,0,1,0,1.84,1.84,0,0,0,.55-2A2.29,2.29,0,0,0,27.24,10a4.1,4.1,0,0,0-2.7-.11A2.26,2.26,0,0,0,22.69,12a4.49,4.49,0,0,0,.41,2.22.67.67,0,0,1,.07.17h-1a.76.76,0,0,0-.78.73.75.75,0,0,0,.78.71H23.3a1.05,1.05,0,0,1-.08.18l-.8,1.36c-.15.26-.33.5-.48.77a2.23,2.23,0,0,0-.22.61.75.75,0,0,0,.69.86,1.71,1.71,0,0,0,1-.3c.2-.13.39-.27.6-.38a1.49,1.49,0,0,1,1.42,0l.67.33a2.61,2.61,0,0,0,1.2.26Z" fill="#2a2d58"/><path d="M49.06,25.23h1.07a.67.67,0,0,1-.07.17c-.24.45-.49.9-.74,1.35-.14.26-.31.51-.44.77a2.21,2.21,0,0,0-.21.61.73.73,0,0,0,.64.85,1.55,1.55,0,0,0,.95-.29c.19-.13.36-.27.56-.38a1.28,1.28,0,0,1,1.31,0l.62.33a2.2,2.2,0,0,0,2.18-.05,6.65,6.65,0,0,0,.63-.39.67.67,0,1,0-.77-1.09l-.3.19a1.27,1.27,0,0,1-1.33,0l-.58-.3a2.3,2.3,0,0,0-1.36-.28l-.35.06a6,6,0,0,0,.65-1.57h1.1a.7.7,0,0,0,.7-.73.71.71,0,0,0-.71-.72h-1a.12.12,0,0,1-.13-.08c-.11-.28-.24-.56-.34-.83a3.18,3.18,0,0,1-.21-1A1.24,1.24,0,0,1,52,20.56a2.23,2.23,0,0,1,1.2.1,1.06,1.06,0,0,1,.49.35.66.66,0,0,1,0,.94.67.67,0,0,0,0,.95.66.66,0,0,0,1,0,1.93,1.93,0,0,0,.51-2,2.2,2.2,0,0,0-1.32-1.44,3.54,3.54,0,0,0-2.5-.12,2.22,2.22,0,0,0-1.71,2.07A4.81,4.81,0,0,0,50,23.62l.07.16h-1a.73.73,0,0,0,0,1.45Z" fill="#2a2d58"/><path d="M73.1,19.89a1.33,1.33,0,0,0-1.38-1.27,1.82,1.82,0,0,1-2-1.66,1.33,1.33,0,0,0-1.38-1.27H39.11A1.33,1.33,0,0,0,37.73,17a1.82,1.82,0,0,1-1.95,1.66,1.33,1.33,0,0,0-1.38,1.27V28.1a1.33,1.33,0,0,0,1.38,1.28A1.82,1.82,0,0,1,37.72,31a1.33,1.33,0,0,0,1.39,1.27H68.39A1.33,1.33,0,0,0,69.77,31a1.82,1.82,0,0,1,2-1.66A1.33,1.33,0,0,0,73.1,28.1ZM70.34,21v6a4.52,4.52,0,0,0-3.11,2.75h-27A4.52,4.52,0,0,0,37.16,27V21a4.52,4.52,0,0,0,3.11-2.75h27A4.5,4.5,0,0,0,70.34,21Z" fill="#f1b860"/><path d="M9.32,17.55V11.17a4.61,4.61,0,0,0,3.16-2.9h0l27.19,0a4.28,4.28,0,0,0,2.88,2.7v1.64h2.66v-2a1.91,1.91,0,0,0-1.69-1.85,1.88,1.88,0,0,1-1.62-1.36,2.17,2.17,0,0,0-2.09-1.66H11.41a1.44,1.44,0,0,0-1,.41A1.31,1.31,0,0,0,10,7a1.57,1.57,0,0,1-.48,1.14,2.11,2.11,0,0,1-1.49.6,1.35,1.35,0,0,0-1.39,1.32v8A1.9,1.9,0,0,0,8.35,20,1.88,1.88,0,0,1,10,21.34,2.19,2.19,0,0,0,12.08,23H29.26V20.45H12.48A4.6,4.6,0,0,0,9.32,17.55Z" fill="#f1b860"/><path d="M76.45,9.5h-.68a5.65,5.65,0,0,0-.58,0H53.32V5.22A5.22,5.22,0,0,0,48.1,0H5.22A5.22,5.22,0,0,0,0,5.22V23.28A5.22,5.22,0,0,0,5.22,28.5H27.09V34a4,4,0,0,0,4,4h45.4a4,4,0,0,0,4-4V13.46A4,4,0,0,0,76.45,9.5ZM5.22,25.17a1.9,1.9,0,0,1-1.9-1.89V5.22a1.91,1.91,0,0,1,1.9-1.9H48.1A1.91,1.91,0,0,1,50,5.22V9.5H31.05a4,4,0,0,0-4,4V25.17Zm27.09,9.47a1.9,1.9,0,0,1-1.9-1.9V13.46a.65.65,0,0,1,.64-.64H75.53a1.91,1.91,0,0,1,1.56,1.87V32.74a1.91,1.91,0,0,1-1.9,1.9Z" fill="#2a2d58"/></svg>