<svg xmlns="http://www.w3.org/2000/svg" viewBox="0 0 86 80.93"><title>ICONS_nieuwwwwww</title><path d="M36.21,48.37H10.6a1.12,1.12,0,0,0-1.12,1.11V65.57a1.12,1.12,0,0,0,1.12,1.12H36.21a1.12,1.12,0,0,0,1.11-1.12V49.48A1.11,1.11,0,0,0,36.21,48.37ZM11.14,65V50.08a.06.06,0,0,1,0-.06H35.61a.06.06,0,0,1,.06.06V65a.06.06,0,0,1-.06,0H11.19A0,0,0,0,1,11.14,65Z" fill="#2a2d58"/><path d="M27.9,60a.78.78,0,0,1-.54-1.32l5.29-5.29a.77.77,0,0,1,1.09,1.09l-5.29,5.29A.78.78,0,0,1,27.9,60Z" fill="#f1b860"/><path d="M26.1,57.93a.75.75,0,0,1-.54-.22.77.77,0,0,1,0-1.1l3.6-3.6a.77.77,0,0,1,1.09,1.09l-3.6,3.61A.77.77,0,0,1,26.1,57.93Z" fill="#f1b860"/><path d="M80.79,14.12A16.56,16.56,0,0,0,69.06,9.25h0a16.61,16.61,0,1,0,11.73,4.87Zm1.84,13.19a13.48,13.48,0,0,1-2,5.7H77.35a34.15,34.15,0,0,0,.7-5.7Zm0-2.94H78.05a34.28,34.28,0,0,0-.7-5.7h3.31A13.58,13.58,0,0,1,82.63,24.37Zm-12.1-8.64V12.28a15.08,15.08,0,0,1,1.76.31,33.38,33.38,0,0,1,1.22,3.14Zm0,8.64v-5.7h3.81a32.3,32.3,0,0,1,.78,5.7Zm7.69-8.64H76.59c-.16-.54-.34-1.07-.52-1.59A14.06,14.06,0,0,1,78.22,15.73Zm-3.1,11.58a32.3,32.3,0,0,1-.78,5.7H70.53v-5.7ZM78.22,36a13.43,13.43,0,0,1-2.15,1.59c.18-.51.35-1,.52-1.59Zm-4.71,0a32.35,32.35,0,0,1-1.22,3.14,13.24,13.24,0,0,1-1.76.31V36ZM67.6,36V39.4A15.78,15.78,0,0,1,66,39.14,32.9,32.9,0,0,1,64.77,36ZM64.77,15.73A30.35,30.35,0,0,1,66,12.55a14.09,14.09,0,0,1,1.58-.27v3.45Zm2.83,2.94v5.7H63.17a32.3,32.3,0,0,1,.78-5.7Zm-5.35,19A13.44,13.44,0,0,1,59.91,36h1.78C61.86,36.53,62.05,37.1,62.25,37.65ZM67.6,27.31V33H64a32.3,32.3,0,0,1-.78-5.7ZM59.91,15.73A13.44,13.44,0,0,1,62.25,14c-.2.55-.38,1.12-.56,1.7Zm1,17.28H57.46a13.6,13.6,0,0,1-2-5.7h4.73A35.24,35.24,0,0,0,60.94,33ZM55.5,24.37a13.7,13.7,0,0,1,2-5.7h3.48a35.38,35.38,0,0,0-.71,5.7Z" fill="#2a2d58"/><path d="M30.56,36.47A1.67,1.67,0,1,0,28.9,34.8,1.68,1.68,0,0,0,30.56,36.47Z" fill="#f1b860"/><path d="M30.56,38.26a1.67,1.67,0,1,0,1.68,1.67A1.66,1.66,0,0,0,30.56,38.26Z" fill="#f1b860"/><path d="M32.57,21a5.23,5.23,0,1,0,3.22,4.83A5.2,5.2,0,0,0,32.57,21ZM33,25.82a2.45,2.45,0,0,1-.72,1.74,2.47,2.47,0,1,1-1.75-4.21A2.47,2.47,0,0,1,33,25.82Z" fill="#2a2d58"/><path d="M65.86,59.51a5.23,5.23,0,1,0-2,10.06A5.31,5.31,0,0,0,67.56,68a5.23,5.23,0,0,0-1.7-8.53Zm.28,5.77a2.47,2.47,0,1,1-2.28-3.41,2.46,2.46,0,0,1,2.28,3.41Z" fill="#2a2d58"/><path d="M46,15.16a1.67,1.67,0,1,0,1.67,1.67A1.67,1.67,0,0,0,46,15.16Z" fill="#f1b860"/><path d="M40.83,15.16a1.67,1.67,0,1,0,1.67,1.67A1.67,1.67,0,0,0,40.83,15.16Z" fill="#f1b860"/><path d="M35.7,15.16a1.67,1.67,0,1,0,1.67,1.67A1.67,1.67,0,0,0,35.7,15.16Z" fill="#f1b860"/><path d="M30.56,15.16a1.67,1.67,0,1,0,1.68,1.67A1.66,1.66,0,0,0,30.56,15.16Z" fill="#f1b860"/><path d="M49.74,62.67a1.67,1.67,0,1,0,1.67,1.67A1.67,1.67,0,0,0,49.74,62.67Z" fill="#f1b860"/><path d="M54.88,62.67a1.67,1.67,0,1,0,1.67,1.67A1.67,1.67,0,0,0,54.88,62.67Z" fill="#f1b860"/><path d="M72.84,62.67a1.67,1.67,0,1,0,1.67,1.67A1.67,1.67,0,0,0,72.84,62.67Z" fill="#f1b860"/><path d="M72.84,57.54a1.67,1.67,0,1,0,1.67,1.67A1.67,1.67,0,0,0,72.84,57.54Z" fill="#f1b860"/><path d="M72.84,52.4a1.67,1.67,0,1,0,1.67,1.67A1.67,1.67,0,0,0,72.84,52.4Z" fill="#f1b860"/><path d="M72.84,50.61a1.67,1.67,0,1,0-1.67-1.67A1.67,1.67,0,0,0,72.84,50.61Z" fill="#f1b860"/><path d="M40.05,48a1.92,1.92,0,0,0-1.92-1.92H8.66A1.93,1.93,0,0,0,6.73,48V68.44H40.05Z" fill="none"/><path d="M45.31,68.44h-3V48a4.23,4.23,0,0,0-4.22-4.21H8.66A4.22,4.22,0,0,0,4.44,48V68.44H1.83a1.46,1.46,0,0,0-1.11.5,1.48,1.48,0,0,0-.36,1.19,3.88,3.88,0,0,0,3.83,3.35h38.4a3.89,3.89,0,0,0,3.87-3.89A1.16,1.16,0,0,0,45.31,68.44ZM6.73,48a1.93,1.93,0,0,1,1.93-1.92H38.13A1.92,1.92,0,0,1,40.05,48V68.44H6.73Z" fill="#2a2d58"/></svg>