<svg xmlns="http://www.w3.org/2000/svg" viewBox="0 0 98.57 63.49"><title>ICONS_nieuwwwwww</title><path d="M67.62,20.65H65.93a.56.56,0,0,1-.56-.56.65.65,0,1,0-1.29,0,1.85,1.85,0,0,0,1.85,1.84H66v.6a.65.65,0,1,0,1.29,0v-.6h.3a1.84,1.84,0,0,0,1.84-1.84v-.41a1.84,1.84,0,0,0-1.84-1.84H65.93a.56.56,0,0,1-.56-.56V17a.56.56,0,0,1,.56-.57h1.69a.56.56,0,0,1,.56.57v.12a.64.64,0,1,0,1.28,0V17a1.84,1.84,0,0,0-1.84-1.85h-.2v-.56a.65.65,0,1,0-1.29,0v.56h-.2A1.85,1.85,0,0,0,64.08,17v.32a1.85,1.85,0,0,0,1.85,1.84h1.69a.56.56,0,0,1,.56.56v.41A.57.57,0,0,1,67.62,20.65Z" fill="#2a2d58"/><path d="M71.1,31.16l-2.43-4.77a1.43,1.43,0,0,0-1.92-.61,1.35,1.35,0,0,0-.7.82,1.42,1.42,0,0,0,.08,1.09l1.38,2.7H61.17l-3.81-7.46h1.4a1.43,1.43,0,0,0,0-2.85H32.45a1.43,1.43,0,0,0-1.27.78L25.92,31.17a1.39,1.39,0,0,0,0,1.38,1.42,1.42,0,0,0,1.22.69h4V43.76a1.43,1.43,0,0,0,1.43,1.43H64.46a1.43,1.43,0,0,0,1.42-1.43V33.24h4A1.42,1.42,0,0,0,71,32.56,1.4,1.4,0,0,0,71.1,31.16ZM63,33.24v9.1H56.46V27.43l2.57,5a1.44,1.44,0,0,0,1.27.78ZM52.71,22.93,48.9,30.39H29.52l3.81-7.46ZM34.09,33.24H49.77A1.41,1.41,0,0,0,51,32.46l2.57-5v14.9H34.09Z" fill="#f1b860"/><path d="M43.52,38.53a.61.61,0,0,0-.45-.21h-6c-.45,0-.78.5-.78,1.15s.34,1.15.78,1.15h6c.45,0,.79-.49.79-1.14A1.35,1.35,0,0,0,43.52,38.53Z" fill="#2a2d58"/><path d="M95.87,52H89.64V8.83A9,9,0,0,0,80.7-.1H18.44A8.94,8.94,0,0,0,9.51,8.83V52H4a3.11,3.11,0,0,0-2.35,1.07A3.18,3.18,0,0,0,.9,55.58,8.2,8.2,0,0,0,9,62.66H90.14a8.21,8.21,0,0,0,8.18-8.23A2.45,2.45,0,0,0,95.87,52ZM14.4,8.83a4,4,0,0,1,4-4H80.7a4,4,0,0,1,4,4V52H14.4Z" fill="#2a2d58"/><path d="M66.77,10a8.51,8.51,0,1,0,8.51,8.5A8.51,8.51,0,0,0,66.77,10Zm0,14.82a6.32,6.32,0,1,1,6.32-6.32A6.32,6.32,0,0,1,66.77,24.83Z" fill="#2a2d58"/></svg>