<svg xmlns="http://www.w3.org/2000/svg" viewBox="0 0 85.57 60.9"><title>ICONS_nieuwwwwww</title><path d="M72.11,18.59h-2.9a1,1,0,0,1-1-1,1.11,1.11,0,0,0-2.21,0,3.18,3.18,0,0,0,3.18,3.18h.17v1a1.11,1.11,0,0,0,2.21,0v-1h.52a3.18,3.18,0,0,0,3.18-3.18v-.69a3.18,3.18,0,0,0-3.18-3.17h-2.9a1,1,0,0,1-1-1v-.55a1,1,0,0,1,1-1h2.9a1,1,0,0,1,1,1v.2a1.11,1.11,0,1,0,2.21,0v-.2a3.18,3.18,0,0,0-3.18-3.18h-.34v-1a1.11,1.11,0,0,0-2.22,0v1h-.34A3.18,3.18,0,0,0,66,12.24v.55A3.19,3.19,0,0,0,69.21,16h2.9a1,1,0,0,1,1,1v.69A1,1,0,0,1,72.11,18.59Z" fill="#2a2d58"/><path d="M78.17,36.66,74,28.45a2.53,2.53,0,0,0-3.39-1.09,2.48,2.48,0,0,0-1.25,1.46,2.51,2.51,0,0,0,.15,1.92l2.32,4.54H61.05L54.57,22.59h2.3a2.52,2.52,0,1,0,0-5H11.58a2.51,2.51,0,0,0-2.24,1.37L.28,36.67a2.49,2.49,0,0,0,.09,2.45,2.52,2.52,0,0,0,2.15,1.21H9.44V58.38A2.52,2.52,0,0,0,12,60.9H66.67a2.52,2.52,0,0,0,2.52-2.52V40.33h6.72a2.53,2.53,0,0,0,2.25-3.67Zm-14,3.67V55.86H53V30.55L57.26,39a2.56,2.56,0,0,0,2.25,1.37ZM46.33,22.59l-6.48,12.7H6.64l6.49-12.7ZM14.48,40.33H41.39A2.51,2.51,0,0,0,43.64,39l4.29-8.4v25.3H14.48Z" fill="#f1b860"/><path d="M29.83,48.59a1.07,1.07,0,0,0-.78-.35H18.72c-.77,0-1.36.85-1.36,2s.6,2,1.36,2H29c.78,0,1.36-.85,1.36-2A2.29,2.29,0,0,0,29.83,48.59Z" fill="#2a2d58"/><path d="M70.66,29.83A14.92,14.92,0,1,1,85.57,14.91,14.94,14.94,0,0,1,70.66,29.83Zm0-25.51A10.6,10.6,0,1,0,81.25,14.91,10.61,10.61,0,0,0,70.66,4.32Z" fill="#2a2d58"/></svg>