<svg xmlns="http://www.w3.org/2000/svg" viewBox="0 0 98.57 63.49"><title>ICONS_nieuwwwwww</title><path d="M29.36,43.32V27a1.86,1.86,0,0,0-1.86-1.86H2.33A1.87,1.87,0,0,0,.47,27v34.4a1.87,1.87,0,0,0,1.86,1.86H27.5a1.86,1.86,0,0,0,1.86-1.86v-18ZM5.67,54.18V29.65H24.16V54.18Z" fill="#2a2d58"/><path d="M72,13.42h0a1.87,1.87,0,0,0-2.63,0L59.73,23a1.88,1.88,0,0,0-.55,1.32,1.84,1.84,0,0,0,.55,1.31,1.85,1.85,0,0,0,2.63,0L72,16.05A1.87,1.87,0,0,0,72,13.42Z" fill="#f1b860"/><path d="M64.61,12.19h0a1.87,1.87,0,0,0-2.63,0l-6.54,6.54a1.86,1.86,0,0,0,2.63,2.63l6.54-6.54A1.87,1.87,0,0,0,64.61,12.19Z" fill="#f1b860"/><circle cx="14.83" cy="58.57" r="2.14" fill="#f1b860"/><path d="M89.29,46.52H83.94V8.31A8.16,8.16,0,0,0,75.79.16H20.37a8.17,8.17,0,0,0-8.16,8.15V25.09H17V8.31a3.4,3.4,0,0,1,3.4-3.39H75.79a3.39,3.39,0,0,1,3.39,3.39V46.52H29.36v9.91H84.19a7.52,7.52,0,0,0,7.48-7.53A2.39,2.39,0,0,0,89.29,46.52Z" fill="#2a2d58"/></svg>