<svg xmlns="http://www.w3.org/2000/svg" viewBox="0 0 98.57 63.49"><title>ICONS_nieuwwwwww</title><path d="M96.09,52.68h-6.3V9a9,9,0,0,0-9-9h-63a9,9,0,0,0-9,9V52.68H3.18A3.19,3.19,0,0,0,.8,53.76,3.23,3.23,0,0,0,0,56.32a8.3,8.3,0,0,0,8.2,7.17H90.3a8.31,8.31,0,0,0,8.27-8.33A2.49,2.49,0,0,0,96.09,52.68ZM13.69,9A4.08,4.08,0,0,1,17.77,5h63A4.09,4.09,0,0,1,84.84,9V52.68H13.69Z" fill="#2a2d58"/><path d="M61.55,19.67V31.31a1.21,1.21,0,0,0,1.21,1.21h0A1.21,1.21,0,0,0,64,31.31V18.6a2.87,2.87,0,0,0-.84-2l-5-5a2.86,2.86,0,0,0-2-.85H37.25a1.77,1.77,0,0,0-1.76,1.77V46.09a1.76,1.76,0,0,0,1.76,1.77h13.1a1.21,1.21,0,0,0,1.21-1.21h0a1.21,1.21,0,0,0-1.21-1.21H38.43a.52.52,0,0,1-.52-.53V13.68a.53.53,0,0,1,.52-.54H55.1a.54.54,0,0,1,.53.54v3.68a1.76,1.76,0,0,0,1.76,1.77H61A.53.53,0,0,1,61.55,19.67Z" fill="#2a2d58"/><path d="M57.58,23.74H53.89a.74.74,0,0,0,0,1.48h3.69a.74.74,0,0,0,0-1.48Z" fill="#f1b860"/><path d="M48.46,25.22h2.77a.74.74,0,0,0,0-1.48H48.46a.74.74,0,0,0,0,1.48Z" fill="#f1b860"/><path d="M48.46,21.59h4.61a.75.75,0,0,0,0-1.49H48.46a.75.75,0,0,0,0,1.49Z" fill="#f1b860"/><path d="M55.75,27.48h-7a.76.76,0,1,0,0,1.48h7a.76.76,0,1,0,0-1.48Z" fill="#f1b860"/><path d="M55.61,31.52H48.85c-.59,0-1.05.32-1.05.74s.46.74,1.05.74h6.76c.59,0,1-.32,1-.74S56.2,31.52,55.61,31.52Z" fill="#f1b860"/><path d="M52.15,36.49H48.46a.74.74,0,0,0,0,1.48h3.69a.74.74,0,0,0,0-1.48Z" fill="#f1b860"/><path d="M45,34.06a.62.62,0,0,0-.48-.09.64.64,0,0,0-.41.27l-1.72,2.58-.52-.53a.65.65,0,0,0-.46-.2h0a.64.64,0,0,0-.45.19.66.66,0,0,0-.19.46.68.68,0,0,0,.21.46L42,38.26a.64.64,0,0,0,.45.19h.06a.65.65,0,0,0,.47-.28L45.17,35a.62.62,0,0,0,.09-.48A.64.64,0,0,0,45,34.06Z" fill="#2a2d58"/><path d="M42,24.52a.64.64,0,0,0,.45.19h.06a.65.65,0,0,0,.47-.28l2.15-3.23a.62.62,0,0,0,.09-.48.6.6,0,0,0-.27-.4.63.63,0,0,0-.48-.1.64.64,0,0,0-.41.27l-1.72,2.58-.52-.53a.64.64,0,0,0-.89,0,.63.63,0,0,0,0,.89Z" fill="#2a2d58"/><path d="M45,27.2a.63.63,0,0,0-.48-.1.65.65,0,0,0-.41.28L42.38,30l-.52-.53a.64.64,0,0,0-.89,0,.63.63,0,0,0,0,.89L42,31.4a.64.64,0,0,0,.45.19h.06a.65.65,0,0,0,.47-.28l2.15-3.23A.64.64,0,0,0,45,27.2Z" fill="#2a2d58"/><path d="M64.32,35.18a2.42,2.42,0,0,0-1.79-.61,2.45,2.45,0,0,0-1.68.85l-6.76,7.79,0,0-.27,4.07,4-.84,6.81-7.85A2.54,2.54,0,0,0,64.32,35.18Zm-.91,2.43-.59.68L61.46,37.1l.59-.68a.87.87,0,0,1,1.28-.09A.93.93,0,0,1,63.41,37.61Zm-7.94,7.76.08-1.52,4.85-5.6,1.37,1.19L57,45Z" fill="#2a2d58"/></svg>