<svg xmlns="http://www.w3.org/2000/svg" viewBox="0 0 64.12 77.97"><title>ICONS_nieuwwwwww</title><path d="M62.26,57.87c-3.42-6.63-7.4-10.41-11.83-11.24-5.17-1-9.09,2.06-12,4.28l-.53.4c-4-2.31-14-16.38-14.82-21l3.94-3A11,11,0,0,0,30.17,12.6c-1.45-2.6-4.43-7.14-6.79-9.17C20.28.72,16.27-.52,12.9.2A11.7,11.7,0,0,0,7.7,2.73l-.17.13C-1,10.3-2.35,23,3.9,38.59a77.45,77.45,0,0,0,20.15,28C32.86,74.21,40.74,78,47.93,78a20,20,0,0,0,6.82-1.19,15,15,0,0,0,8-6.59C64.73,66.66,64.55,62.28,62.26,57.87Zm-4.94,9.29a8.9,8.9,0,0,1-4.68,3.75c-6.67,2.41-14.69-.54-24.52-9A71.12,71.12,0,0,1,9.67,36.23C6.69,28.78,3,15.17,11.54,7.65A5.55,5.55,0,0,1,14,6.34l.17,0c1.42-.32,3.52.43,5.13,1.84,1.45,1.24,4,4.9,5.45,7.54l.07.12a4.8,4.8,0,0,1-1.31,6.4l-4.85,3.7a4.55,4.55,0,0,0-1.82,4.28c.42,6.59,12.6,24,18.89,27A4.74,4.74,0,0,0,40.78,57q.73-.54,1.5-1.14c2.77-2.13,4.75-3.5,7-3.08s5,3.35,7.44,8C57.64,62.51,58.48,65.06,57.32,67.16Z" fill="#2a2d58"/></svg>