<svg enable-background="new 0 0 78.4 79.5" viewBox="0 0 78.4 79.5" xmlns="http://www.w3.org/2000/svg"><path d="m65 27.3c0-.2 0-.2 0-.5-.2-3.1-.2-3.1-3.4-3.5-1.2 0-2.7-.2-3.4-.9-2.2-2.1-2.2-4.5-.5-7.1.5-.7 1-2.1.7-2.4-1.5-1.7-3.2-3.3-4.9-4.3-.5-.5-2.2.7-3.2 1.4-2.9 2.5-7.3 1-8.3-2.7-1-3.5-1-3.5-4.7-3.3-.2 0-.5 0-.7 0-3.4.2-3.2.2-3.7 3.5 0 .9-.2 2.4-1 3.1-2.4 2.4-4.7 2.6-7.6.7-1.7-1.2-2.9-1.2-4.4.5-2.7 3.5-4.2 3.1-.2 7.3 1.5 1.4 0 5.9-2 6.8-.2.2-.7.2-1.2.2-4.2.9-4.2.9-3.9 5.2v.2c.2 3.3.2 3.3 3.7 3.5 4.2.2 6.1 4 3.9 7.6-2 2.8-2 2.8.7 5 .2.2.3.3.5.5l5-8.3c-2.6-2.8-4.2-6.6-4.2-10.7 0-8.9 7.5-16.1 16.7-16.1s16.7 7.2 16.7 16.1c0 4.1-1.6 7.8-4.2 10.6l4.9 8.3c.5-.3 1-.9 1.8-1.7 3.7-3.8 2.7-3.5.2-6.4-1.7-2.4-.2-6.8 2.7-7.6 3.7-.9 4.7 0 4-5z" fill="#e9ba6d"/><path d="m58.8 66.5c-.2-.5-.5-1-.7-1.5-1.1-2.4-2.3-4.8-3.4-7.2-.8-1.7-1.7-3.4-2.5-5.2-1.1-2.1-2.1-4.3-3.2-6.4-1.1-2.3-2.3-4.5-3.4-6.8-.1-.3-.3-.6-.3-.9 0-3 0-6 0-9 0-.3.1-.4.3-.4h.3c.7-.1 1.3-.7 1.3-1.5 0-.9-.6-1.7-1.4-1.7-.6 0-1.1 0-1.7 0h-2.7v29.2h5.2 2.9.5v8.5c1.1.6 1.8 1.7 1.8 3 0 1.9-1.6 3.5-3.6 3.5s-3.6-1.5-3.6-3.5c0-1.3.7-2.4 1.8-3v-5.1h-5.2v4.6 2.9.6h-9.9c-.6 1-1.7 1.6-3 1.6-2 0-3.6-1.5-3.6-3.5 0-1.9 1.6-3.5 3.6-3.5 1.4 0 2.6.8 3.2 1.9h6.2v-37.1h-.9c-.5 0-1 0-1.5 0-.7 0-1.4 0-2.1 0-1 .1-1.5 1.3-1.2 2.2.3.8.8 1 1.5 1 .2 0 .3.1.3.4v9c0 .2-.1.4-.1.5-.4.8-.9 1.7-1.3 2.5-.9 1.7-1.7 3.4-2.5 5.1-.7 1.3-1.3 2.6-1.9 3.9-.5 1.1-1.1 2.2-1.6 3.3-.7 1.5-1.5 3.1-2.2 4.6-.8 1.6-1.5 3.2-2.3 4.8-.3.6-.5 1.1-.8 1.7l-.7 1.4c-.1.2-.1.3-.2.5 0 .1-.1.3-.1.4-.5 1.8-.6 3.6 0 5.4.3.9.8 1.6 1.5 2.2.9.7 1.8.9 2.8.9h29.9c.6 0 1.3-.1 1.9-.3.9-.3 1.7-.9 2.2-1.9.6-1 .8-2.1.8-3.2.2-1.4.1-2.7-.4-3.9z" fill="#2a2d58"/></svg>