<svg xmlns="http://www.w3.org/2000/svg" viewBox="0 0 80.14 80.14"><title>ICONS_nieuwwwwww</title><path d="M66.65,38.81a3.24,3.24,0,0,0-3.25-2.55H53.6a3.24,3.24,0,0,0-3.25,2.55,3.13,3.13,0,0,0,3.07,3.7H63.58A3.13,3.13,0,0,0,66.65,38.81Z" fill="#2a2d58"/><path d="M75.06,27.32a11.58,11.58,0,0,0-7.94-3h-.34a.08.08,0,0,1-.08-.07V7.81A7.24,7.24,0,0,0,59.46.57H20.11a7.24,7.24,0,0,0-7.24,7.24V24.29a.07.07,0,0,1-.07.07h-.62A11.21,11.21,0,0,0,1,35.56v23.5a11.21,11.21,0,0,0,11.21,11.2h8.47a.15.15,0,0,1,.15.15v4.51a3.28,3.28,0,0,0,3.28,3.28H55.5a3.28,3.28,0,0,0,3.27-3.28v-4.5a.15.15,0,0,1,.15-.15h8.47A11.21,11.21,0,0,0,78.6,59.06V35.42A11,11,0,0,0,75.06,27.32Zm-48,43.84v-8a.82.82,0,0,1,.82-.81H51.68a.83.83,0,0,1,.84.83v7.92a.86.86,0,0,1-.85.86H27.84A.79.79,0,0,1,27.05,71.16ZM19.12,23.43V7.81a1,1,0,0,1,1-1H59.46a1,1,0,0,1,1,1V23.5a.86.86,0,0,1-.86.86H20.06A.94.94,0,0,1,19.12,23.43ZM55.5,56.09H24.08a3.27,3.27,0,0,0-3.28,3.27v4.51a.15.15,0,0,1-.15.15H12.18a5,5,0,0,1-5-5V35.57a5,5,0,0,1,5-5H67.39a5,5,0,0,1,5,5V59.06a5,5,0,0,1-5,5H58.93a.16.16,0,0,1-.16-.15V59.36A3.26,3.26,0,0,0,55.5,56.09Z" fill="#2a2d58"/><path d="M48,16.71H31.55a2.46,2.46,0,1,1,0-4.91H48a2.46,2.46,0,1,1,0,4.91Z" fill="#f1b860"/></svg>