<svg xmlns="http://www.w3.org/2000/svg" viewBox="0 0 86 80.93"><title>ICONS_nieuwwwwww</title><path d="M68,53.26A3.74,3.74,0,1,0,71.7,57,3.75,3.75,0,0,0,68,53.26Z" fill="none"/><path d="M23.82,12.19s-.07,0-.1,0H5V16.5H25.48ZM10.17,15.63h-1a1.3,1.3,0,0,1,0-2.6h1a1.3,1.3,0,0,1,0,2.6Zm6.91,0H16A1.3,1.3,0,1,1,16,13h1a1.3,1.3,0,0,1,0,2.6Z" fill="none"/><path d="M57.72,41.79a2.25,2.25,0,0,1,3.13,0l1,1.06V41.45a2.22,2.22,0,0,1,1.87-2.21,2.64,2.64,0,0,1,.48,0h2V21H5v32.9H49.61v-.28a2.13,2.13,0,0,1,2.12-2.13H54L52.49,50a2.22,2.22,0,0,1,.09-3.17Zm-45.31-16H43.69a1.78,1.78,0,0,1,0,3.56H12.41a1.78,1.78,0,1,1,0-3.56Zm0,8.11H24.87a1.79,1.79,0,0,1,0,3.57H12.41a1.79,1.79,0,0,1,0-3.57Zm19,11.68h-19a1.79,1.79,0,0,1,0-3.57h19a1.79,1.79,0,0,1,0,3.57Zm15.81,0H36.73a1.8,1.8,0,0,1,0-3.57H47.2a1.8,1.8,0,0,1,0,3.57Zm3.36-8.11H30.89a1.79,1.79,0,1,1,0-3.57H50.56a1.79,1.79,0,1,1,0,3.57Z" fill="none"/><path d="M76.69,53.42c-.52-1.16-.93-2.54.07-3.57l1.36-1.42-2-1.9-1.51,1.54c-1.26,1.29-4,.25-5.24-.65-.41-.29-.36-.86-.36-1.31V43.68H66.32v2.1c0,1.31-1.13,1.85-2.16,2.34s-2.47,1-3.44,0l-1.51-1.54-2,1.9L58.71,50c1.09,1.14.32,2.53-.16,3.74s-1,2.21-2.33,2.21H54.06v2.71h2.16c1.5,0,1.94,1.3,2.46,2.44s1,2.51.06,3.53l-1.48,1.54,2,1.89,1.45-1.51c1-1.08,2.38-.54,3.56-.08s2.1,1.07,2.1,2.32v2.13h2.74V68.75a2.13,2.13,0,0,1,1.52-2c1.34-.41,2.87-1.5,4.1-.24L76.2,68l2-1.9-1.47-1.54a2.17,2.17,0,0,1-.32-2.53c.73-1.3.92-3.44,2.84-3.44h2.12V55.91H79.2C77.71,55.91,77.22,54.57,76.69,53.42ZM68,62.88A5.89,5.89,0,1,1,73.86,57,5.9,5.9,0,0,1,68,62.88Z" fill="none"/><polygon points="66.24 16.5 66.24 12.15 28.58 12.15 30.27 16.5 66.24 16.5" fill="none"/><path d="M10.17,13h-1a1.3,1.3,0,0,0,0,2.6h1a1.3,1.3,0,0,0,0-2.6Z" fill="#f1b860"/><path d="M17.08,13H16a1.3,1.3,0,1,0,0,2.6h1a1.3,1.3,0,0,0,0-2.6Z" fill="#f1b860"/><path d="M12.41,29.35H43.69a1.78,1.78,0,0,0,0-3.56H12.41a1.78,1.78,0,1,0,0,3.56Z" fill="#f1b860"/><path d="M12.41,37.47H24.87a1.79,1.79,0,0,0,0-3.57H12.41a1.79,1.79,0,0,0,0,3.57Z" fill="#f1b860"/><path d="M47.2,42H36.73a1.8,1.8,0,0,0,0,3.57H47.2a1.8,1.8,0,0,0,0-3.57Z" fill="#f1b860"/><path d="M50.56,33.9H30.89a1.79,1.79,0,1,0,0,3.57H50.56a1.79,1.79,0,1,0,0-3.57Z" fill="#f1b860"/><path d="M31.39,42h-19a1.79,1.79,0,0,0,0,3.57h19a1.79,1.79,0,0,0,0-3.57Z" fill="#f1b860"/><path d="M68,51.11a5.89,5.89,0,1,0,5.9,5.9A5.9,5.9,0,0,0,68,51.11Zm0,9.62A3.74,3.74,0,1,1,71.7,57,3.74,3.74,0,0,1,68,60.73Z" fill="#f1b860"/><path d="M83.65,51.46H81.4L82.89,50a2.24,2.24,0,0,0,.62-1.63,2.13,2.13,0,0,0-.69-1.52l-5.14-5a2.23,2.23,0,0,0-1.58-.64h0a2.22,2.22,0,0,0-1.59.66l-1,1V41.35a2.13,2.13,0,0,0-2.12-2.13h-.7V19.08a1.75,1.75,0,0,0,0-.61V11.34A3.64,3.64,0,0,0,67.05,7.7H4.26A3.68,3.68,0,0,0,.58,11.37v43.3a3.66,3.66,0,0,0,3.65,3.65H49.6V61a2.12,2.12,0,0,0,2.13,2.12H54l-1.55,1.59a2.13,2.13,0,0,0-.6,1.57,2.2,2.2,0,0,0,.68,1.56l5.18,5a2.12,2.12,0,0,0,1.57.6,2.22,2.22,0,0,0,1.56-.68l1-1v1.53A2.12,2.12,0,0,0,64,75.33h7.4a2.12,2.12,0,0,0,2.12-2.12V71.68l1,1a2.25,2.25,0,0,0,1.6.69,2.38,2.38,0,0,0,1.56-.61l5.14-5a2.27,2.27,0,0,0,.71-1.6,2.19,2.19,0,0,0-.62-1.58l-1.52-1.57h2.28A2.12,2.12,0,0,0,85.77,61V53.58A2.12,2.12,0,0,0,83.65,51.46ZM66.24,12.15V16.5h-36l-1.69-4.35ZM5,12.15H23.72s.08,0,.1,0l1.66,4.31H5ZM52.49,50,54,51.45H51.73a2.13,2.13,0,0,0-2.12,2.13v.28H5V21h61.2V39.23h-2a2.64,2.64,0,0,0-.48,0,2.22,2.22,0,0,0-1.87,2.21v1.41l-1-1.06a2.25,2.25,0,0,0-3.13,0l-5.14,5A2.22,2.22,0,0,0,52.49,50Zm28.83,8.67H79.2c-1.92,0-2.11,2.14-2.84,3.44a2.17,2.17,0,0,0,.32,2.53l1.47,1.54-2,1.9-1.52-1.56c-1.23-1.26-2.76-.17-4.1.24a2.13,2.13,0,0,0-1.52,2v2.13H66.32V68.75c0-1.25-1.06-1.9-2.1-2.32s-2.52-1-3.56.08L59.21,68l-2-1.89,1.48-1.54c1-1,.44-2.42-.06-3.53s-1-2.44-2.46-2.44H54.06V55.91h2.16c1.31,0,1.91-1.13,2.33-2.21s1.25-2.6.16-3.74l-1.48-1.53,2-1.9,1.51,1.54c1,1,2.35.57,3.44,0s2.16-1,2.16-2.34v-2.1h2.74v2.43c0,.45,0,1,.36,1.31,1.22.9,4,1.94,5.24.65l1.51-1.54,2,1.9-1.36,1.42c-1,1-.59,2.41-.07,3.57s1,2.49,2.51,2.49h2.12Z" fill="#2a2d58"/></svg>