<svg xmlns="http://www.w3.org/2000/svg" viewBox="0 0 98.57 63.49"><title>ICONS_nieuwwwwww</title><path d="M64.85,37.31a2,2,0,1,0,2.05,2A2.05,2.05,0,0,0,64.85,37.31Z" fill="none"/><path d="M40.72,14.86s0,0,0,0H30.45v2.38H41.63Zm-7.46,1.88h-.57a.71.71,0,0,1,0-1.42h.57a.71.71,0,1,1,0,1.42Zm3.78,0h-.57a.71.71,0,1,1,0-1.42H37a.71.71,0,1,1,0,1.42Z" fill="none"/><path d="M59.26,31a1.24,1.24,0,0,1,1.71,0l.56.58v-.77a1.2,1.2,0,0,1,1-1.21h1.36v-10H30.46v18H54.82v-.15A1.16,1.16,0,0,1,56,36.33H57.2l-.8-.82a1.22,1.22,0,0,1,.05-1.74ZM34.49,22.3h17.1a1,1,0,0,1,0,1.94H34.49a1,1,0,1,1,0-1.94Zm0,4.43H41.3a1,1,0,0,1,0,1.95H34.49a1,1,0,1,1,0-1.95Zm10.37,6.38H34.49a1,1,0,1,1,0-1.95H44.86a1,1,0,1,1,0,1.95Zm8.64,0H47.78a.92.92,0,0,1-.86-1,.93.93,0,0,1,.86-1H53.5a.92.92,0,0,1,.86,1A.91.91,0,0,1,53.5,33.11Zm1.85-4.43H44.59a1,1,0,1,1,0-1.95H55.35a1,1,0,0,1,0,1.95Z" fill="none"/><path d="M69.63,37.4a1.66,1.66,0,0,1,0-1.95l.74-.78-1.07-1-.82.85c-.69.7-2.2.14-2.87-.36-.22-.16-.19-.47-.19-.71V32.07H64v1.15c0,.72-.62,1-1.18,1.28s-1.35.52-1.88,0l-.83-.85-1.08,1,.81.84c.6.62.17,1.38-.09,2s-.55,1.21-1.27,1.21H57.26v1.48h1.18c.82,0,1.06.71,1.34,1.34s.57,1.37,0,1.93l-.81.84,1.06,1,.8-.82c.56-.59,1.3-.3,1.94,0S64,45.1,64,45.78V47h1.5V45.78a1.15,1.15,0,0,1,.83-1.11c.73-.23,1.57-.82,2.24-.13l.83.85,1.07-1-.81-.84a1.18,1.18,0,0,1-.17-1.38c.4-.71.5-1.89,1.55-1.89h1.16V38.76H71C70.19,38.76,69.92,38,69.63,37.4Zm-4.78,5.17a3.22,3.22,0,1,1,3.23-3.21A3.22,3.22,0,0,1,64.85,42.57Z" fill="none"/><polygon points="63.91 17.22 63.91 14.84 43.33 14.84 44.25 17.22 63.91 17.22" fill="none"/><path d="M33.26,15.32h-.57a.71.71,0,0,0,0,1.42h.57a.71.71,0,1,0,0-1.42Z" fill="#f1b860"/><path d="M37,15.32h-.57a.71.71,0,1,0,0,1.42H37a.71.71,0,1,0,0-1.42Z" fill="#f1b860"/><path d="M34.49,24.24h17.1a1,1,0,0,0,0-1.94H34.49a1,1,0,1,0,0,1.94Z" fill="#f1b860"/><path d="M34.49,28.68H41.3a1,1,0,0,0,0-1.95H34.49a1,1,0,1,0,0,1.95Z" fill="#f1b860"/><path d="M53.5,31.16H47.78a.93.93,0,0,0-.86,1,.92.92,0,0,0,.86,1H53.5a.91.91,0,0,0,.86-1A.92.92,0,0,0,53.5,31.16Z" fill="#f1b860"/><path d="M55.35,26.73H44.59a1,1,0,1,0,0,1.95H55.35a1,1,0,0,0,0-1.95Z" fill="#f1b860"/><path d="M44.86,31.16H34.49a1,1,0,1,0,0,1.95H44.86a1,1,0,1,0,0-1.95Z" fill="#f1b860"/><path d="M64.85,36.14a3.22,3.22,0,1,0,3.23,3.22A3.22,3.22,0,0,0,64.85,36.14Zm0,5.26a2,2,0,1,1,2.05-2A2,2,0,0,1,64.85,41.4Z" fill="#f1b860"/><path d="M73.43,36.33H72.2L73,35.5a1.26,1.26,0,0,0,.34-.89,1.22,1.22,0,0,0-.38-.83l-2.81-2.73a1.24,1.24,0,0,0-.86-.35h0a1.27,1.27,0,0,0-.88.36l-.54.57V30.8a1.16,1.16,0,0,0-1.16-1.16h-.38v-11a.94.94,0,0,0,0-.34V14.4a2,2,0,0,0-2-2H30a2,2,0,0,0-2,2V38.08a2,2,0,0,0,2,2H54.82v1.44A1.16,1.16,0,0,0,56,42.68h1.25l-.84.86a1.14,1.14,0,0,0-.33.86,1.19,1.19,0,0,0,.37.86L59.26,48a1.16,1.16,0,0,0,.86.32,1.19,1.19,0,0,0,.86-.37l.54-.56v.84a1.16,1.16,0,0,0,1.16,1.16h4.05a1.16,1.16,0,0,0,1.16-1.16v-.84l.54.56a1.23,1.23,0,0,0,.87.37,1.26,1.26,0,0,0,.86-.33L73,45.27a1.3,1.3,0,0,0,.39-.87,1.21,1.21,0,0,0-.34-.86l-.83-.86h1.24a1.16,1.16,0,0,0,1.16-1.16v-4A1.16,1.16,0,0,0,73.43,36.33ZM63.91,14.84v2.38H44.25l-.92-2.38Zm-33.46,0H40.67s0,0,0,0l.91,2.36H30.45Zm26,20.67.8.82H56a1.16,1.16,0,0,0-1.16,1.16v.15H30.46v-18H63.91v10H62.55a1.2,1.2,0,0,0-1,1.21v.77L61,31.05a1.24,1.24,0,0,0-1.71,0l-2.81,2.73a1.22,1.22,0,0,0-.05,1.74Zm15.76,4.73H71c-1,0-1.15,1.18-1.55,1.89a1.18,1.18,0,0,0,.17,1.38l.81.84-1.07,1-.83-.85c-.67-.69-1.51-.1-2.24.13a1.15,1.15,0,0,0-.83,1.11V47H64V45.78c0-.68-.58-1-1.15-1.26s-1.38-.55-1.94,0l-.8.82-1.06-1,.81-.84c.53-.56.24-1.32,0-1.93s-.52-1.34-1.34-1.34H57.26V38.76h1.18c.72,0,1-.62,1.27-1.21s.69-1.42.09-2L59,34.67l1.08-1,.83.85c.53.54,1.28.31,1.88,0S64,33.94,64,33.22V32.07h1.5v1.34c0,.24,0,.55.19.71.67.5,2.18,1.06,2.87.36l.82-.85,1.07,1-.74.78a1.66,1.66,0,0,0,0,1.95c.29.63.56,1.36,1.37,1.36h1.16Z" fill="#2a2d58"/><path d="M96.09,52.68h-6.3V9a9,9,0,0,0-9-9h-63a9,9,0,0,0-9,9V52.68H3.18A3.19,3.19,0,0,0,.8,53.76,3.23,3.23,0,0,0,0,56.32a8.3,8.3,0,0,0,8.2,7.17H90.3a8.31,8.31,0,0,0,8.27-8.33A2.49,2.49,0,0,0,96.09,52.68ZM13.69,9A4.08,4.08,0,0,1,17.77,5h63A4.09,4.09,0,0,1,84.84,9V52.68H13.69Z" fill="#2a2d58"/></svg>