<svg xmlns="http://www.w3.org/2000/svg" viewBox="0 0 86.31 58.47"><title>ICONS_nieuwwwwww</title><path d="M84.32,40.21A21.14,21.14,0,0,0,66.88,31h0a21.28,21.28,0,0,0-8.75,1.85A24.35,24.35,0,0,0,43.17,28a24.27,24.27,0,0,0-15,4.9A21,21,0,0,0,19.6,31h-.15A21.14,21.14,0,0,0,2,40.2a10.91,10.91,0,0,0-2,6.39v9.19a2.61,2.61,0,0,0,2.62,2.69H83.7a2.63,2.63,0,0,0,2.61-2.67V46.6A10.87,10.87,0,0,0,84.32,40.21ZM24,36.86a28.22,28.22,0,0,0-1.91,2.55,11,11,0,0,0-1.81,6.11v7.72H5.23V46.58a5.69,5.69,0,0,1,1.06-3.37,16,16,0,0,1,13.21-7A15.72,15.72,0,0,1,24,36.86Zm36.76,8.67v7.71H25.53V45.52a5.78,5.78,0,0,1,.95-3.22,19.88,19.88,0,0,1,33.36,0A5.78,5.78,0,0,1,60.78,45.53Zm3.42-6.11a28.22,28.22,0,0,0-1.91-2.55,15.65,15.65,0,0,1,4.53-.64,16,16,0,0,1,13.22,7,5.77,5.77,0,0,1,1,3.37l0,6.64H66v-7.7A10.91,10.91,0,0,0,64.2,39.42Z" fill="#2a2d58"/><path d="M48,1A12.74,12.74,0,1,0,55.9,12.75h0A12.69,12.69,0,0,0,48,1ZM50.1,15.63a7.5,7.5,0,0,1-6.94,4.63h0a7.54,7.54,0,0,1-7.51-7.17v-.34A7.51,7.51,0,1,1,50.1,15.63Z" fill="#f1b860"/><path d="M22.08,8.46A11.06,11.06,0,1,0,28.9,18.68h0A11,11,0,0,0,22.08,8.46Zm1.13,12.43A5.81,5.81,0,0,1,12,18.68v-.46a5.82,5.82,0,1,1,11.19,2.67Z" fill="#f1b860"/><path d="M73.53,7.41a11.05,11.05,0,1,0,6.81,10.22h0A11,11,0,0,0,73.53,7.41Zm1.12,12.43a5.81,5.81,0,0,1-11.18-2.21v-.46a5.82,5.82,0,1,1,11.18,2.67Z" fill="#f1b860"/></svg>