<svg enable-background="new 0 0 78.4 79.5" viewBox="0 0 78.4 79.5" xmlns="http://www.w3.org/2000/svg"><path d="m55 10.7c-.8-4.4-4.7-7.8-9.5-8.5-4.4-.7-8.8-.8-13.3-.5-2.8.3-5.5.7-8.1 1.7-2.8 1.2-4.6 3.2-5 6.3-.1 1.9-.1 3.8-.1 5.6 0 1.5.5 2 2 2h14.5v1.9h-1c-6.7 0-13.4 0-20 0-5.3 0-9.2 2.4-11.3 7.3-.7 1.7-1.1 3.6-1.5 5.5-1.2 5.8-.5 11.5 1.5 17 1.6 4.2 4.6 6.8 9.3 7 1.9.1 3.8 0 5.7 0 1.1 0 1.7-.6 1.7-1.8 0-2.3 0-4.6 0-6.9 0-.8 0-1.5.2-2.3.9-4 4.5-6.9 8.8-6.9h15.8c.9 0 1.8-.1 2.7-.3 4.7-1.2 7.7-5 7.7-10.2 0-5 0-9.9 0-14.9.1-.6.1-1.3-.1-2zm-25.8 0c-.1.1-.2.2-.3.2-.2.1-.5.3-.7.3-.1 0-.2 0-.3 0h-.2c-.1 0-.2 0-.3 0-.2 0-.4-.1-.5-.2-.6-.4-1.1-1.1-1.1-1.8 0-.1 0-.3.1-.4 0-.2.1-.4.2-.5s.1-.2.2-.3c0-.1.1-.1.1-.2s.1-.1.1-.1c.4-.3.8-.5 1.3-.5h.3c.4.1.8.3 1.1.6.1.1.3.3.3.5.2.3.2.6.2.9.1.6-.2 1.1-.5 1.5z" fill="#f1b860"/><path d="m76.1 35.4c-.5-2.7-1.1-5.3-2.5-7.7-1.5-2.6-3.7-4.2-6.6-4.5-2.3-.2-4.7-.1-7-.1-1.5 0-2.1.5-2.1 2 0 2.2-.1 4.4 0 6.5.2 5-4.2 9.5-9.3 9.3-5.2-.2-10.4 0-15.5 0-6 0-10.4 4.4-10.4 10.3v15.2c0 .8.1 1.7.3 2.5.8 3.2 3 5.2 5.9 6.5 5 2.3 10.3 3 15.8 2.3 3.3-.4 6.6-1.3 9.5-3 2.4-1.4 4-3.4 4.5-6.2.3-1.5.2-3 .3-4.5.1-1.6-.5-2.2-2.1-2.2h-14.5v-2h1.1 21.6c4.1 0 6.9-1.7 8.6-5.3.7-1.4 1.2-3 1.8-4.5 1.7-4.7 1.6-9.7.6-14.6zm-29.5 33.6c0-.2.1-.4.2-.5s.1-.2.2-.3c0 0 .1-.1.1-.2s.1-.1.1-.1c.4-.3.8-.5 1.3-.5h.3c.4.1.8.3 1.1.6.1.1.2.3.4.5.2.3.2.6.2.9 0 .5-.2 1-.6 1.4-.1.1-.2.2-.3.2-.2.2-.4.3-.7.3-.1 0-.2 0-.3 0h-.2c-.1 0-.2 0-.3 0-.2 0-.4-.1-.5-.2-.6-.4-1.1-1.1-1.1-1.8 0-.1 0-.2.1-.3z" fill="#2a2d58"/></svg>