<svg xmlns="http://www.w3.org/2000/svg" viewBox="0 0 86 80.93"><title>ICONS_nieuwwwwww</title><path d="M81.33,45.23a8.66,8.66,0,0,0,0-9.63l-2.87-4.27a2,2,0,0,1-.17-.86l.34-5.28a8.77,8.77,0,0,0-4.82-8.34l-4.68-2.34a1,1,0,0,1-.5-.51L66.27,9.32A8.74,8.74,0,0,0,57.92,4.5l-5.18.34a1.14,1.14,0,0,1-.8-.21L47.6,1.8A8.66,8.66,0,0,0,38,1.8L33.73,4.65a2.47,2.47,0,0,1-1,.19L27.47,4.5a8.8,8.8,0,0,0-8.34,4.82L16.79,14a1,1,0,0,1-.51.51L11.6,16.85A8.76,8.76,0,0,0,6.79,25.2l.33,5.18a1.19,1.19,0,0,1-.2.8L4.08,35.52a8.67,8.67,0,0,0,0,9.64L6.94,49.4a2.83,2.83,0,0,1,.19,1l-.34,5.28A8.78,8.78,0,0,0,11.6,64l4.69,2.34a1.36,1.36,0,0,1,.5.51l2.35,4.68a8.74,8.74,0,0,0,8.35,4.81L32.67,76a1.16,1.16,0,0,1,.79.2L37.8,79a8.65,8.65,0,0,0,9.65,0l4.29-2.89a2.09,2.09,0,0,1,.75-.24l5.28.34a8.78,8.78,0,0,0,8.34-4.81l2.34-4.68a1,1,0,0,1,.51-.51l4.68-2.34a8.75,8.75,0,0,0,4.82-8.32l-.18-5.14c0-.51.12-.68.14-.69ZM71,56a1.15,1.15,0,0,1-.63,1.07l-4.7,2.36a9.25,9.25,0,0,0-3.9,3.91l-2.37,4.72a1,1,0,0,1-1.09.58l-5.26-.25a8.43,8.43,0,0,0-5.3,1.46l-4.3,2.82a1.29,1.29,0,0,1-1.3,0l-4.34-2.83A8.61,8.61,0,0,0,33,68.38l-5.79.34a1.12,1.12,0,0,1-1.07-.62l-2.36-4.71a9.31,9.31,0,0,0-3.91-3.9l-4.73-2.36a1,1,0,0,1-.58-1.08l.34-5.28a8.55,8.55,0,0,0-1.46-5.3l-2.82-4.3a1.29,1.29,0,0,1,0-1.3l2.83-4.32a8.56,8.56,0,0,0,1.48-5.34l-.34-5.29a1.13,1.13,0,0,1,.63-1.07l4.71-2.36a9.37,9.37,0,0,0,3.9-3.91l2.36-4.73a1,1,0,0,1,1.08-.57l5.28.33a8.44,8.44,0,0,0,5.29-1.46l4.31-2.82a1.29,1.29,0,0,1,1.29,0l4.33,2.83a8.55,8.55,0,0,0,5.33,1.48l5.3-.34a1.16,1.16,0,0,1,1.07.63l2.35,4.71a9.33,9.33,0,0,0,3.92,3.9l4.72,2.36A1,1,0,0,1,71,24.94l-.34,5.13a8.49,8.49,0,0,0,1.47,5.29L75,39.7A1.07,1.07,0,0,1,75,41l-2.85,4.36a8.55,8.55,0,0,0-1.48,5.33Z" fill="#2a2d58"/><path d="M62.51,34.32a2.91,2.91,0,0,0-2.36-2L50,30.82l-4.62-9a3,3,0,0,0-5.27,0l-4.62,9L25.26,32.35a2.91,2.91,0,0,0-2.36,2,2.88,2.88,0,0,0,.73,3L31,44.39l-1.67,9.92a2.86,2.86,0,0,0,1.18,2.85,2.95,2.95,0,0,0,3.07.22l9.16-4.64,9.17,4.65a3.09,3.09,0,0,0,1.41.31h0a3,3,0,0,0,2.19-1,2.83,2.83,0,0,0,.65-2.35l-1.67-9.92,7.33-7.09A2.88,2.88,0,0,0,62.51,34.32ZM48.38,43.83l1,5.73-5.3-2.69a3,3,0,0,0-2.69,0l-5.3,2.69,1-5.73a2.9,2.9,0,0,0-.85-2.55L32,37.23l5.83-.87A3,3,0,0,0,40,34.79l2.67-5.21,2.68,5.22a3,3,0,0,0,2.2,1.56l5.84.87-4.2,4.05A2.93,2.93,0,0,0,48.38,43.83Zm4.87,12.7Z" fill="#f1b860"/></svg>