<svg enable-background="new 0 0 952 707" viewBox="0 0 952 707" xmlns="http://www.w3.org/2000/svg"><path d="m851.7 87.7c6.8 2.6 14.7 3.6 20.9 7.1 12.4 7.2 18.3 16.3 18.3 27.5-.1 68.6 0 137.2 0 205.8v183.3c0 17.1-14.1 29.6-37.4 33.4-3.4.5-7 .6-10.5.6-126.2 0-252.5.1-378.7-.1-7.4 0-12.1 1.5-17.1 5.5-24.7 20-50.2 39.6-75.4 59.3-20.7 16.3-41.2 32.6-61.8 48.9-.7.5-1 1.3-1.5 2-.6-.2-1.3-.5-1.9-.7 1.4-10 2.8-20.1 4.4-30.1 2.4-15.5 5-31.1 7.5-46.6 1.7-10.7 3-21.5 5.1-32.2 1-5.3-2-6.2-8.9-6.2-59.6.2-119.2-.3-178.8.3-23.3.3-48.7-13.5-48.7-33.5.6-130.1.5-260.1 0-390.2-.1-15.8 14.8-29.7 36.7-33.1 1-.2 1.9-.7 2.8-1z" fill="#f1b860"/><path d="m829.5 64c6.8 2.6 14.7 3.6 20.9 7.1 12.4 7.2 18.3 16.3 18.3 27.5-.1 68.6 0 137.2 0 205.8v183.3c0 17.1-14.1 29.6-37.4 33.4-3.4.5-7 .6-10.5.6-126.2 0-252.5.1-378.7-.1-7.4 0-12.1 1.5-17.1 5.5-24.7 20-50.2 39.6-75.4 59.3-20.7 16.3-41.2 32.6-61.8 48.9-.7.5-1 1.3-1.5 2-.6-.2-1.3-.5-1.9-.7 1.4-10 2.8-20.1 4.4-30.1 2.4-15.5 5-31.1 7.5-46.6 1.7-10.7 3-21.5 5.1-32.2 1-5.3-2-6.2-8.9-6.2-59.6.2-119.2-.3-178.8.3-23.3.3-48.7-13.5-48.7-33.5.6-130.1.5-260.1 0-390.2-.1-15.7 14.8-29.7 36.7-33.1 1-.2 1.9-.7 2.8-1z" fill="#2a2d58"/><path d="m175.3 277.2-16.7-30.3h-11.7v30.3h-13.7v-77.4h26c4 0 7.8.4 11.2 1.2 3.5.8 6.5 2.1 9.1 3.8 2.6 1.8 4.6 4.1 6 7 1.5 2.9 2.2 6.5 2.2 10.9 0 5.9-1.4 10.7-4.2 14.3s-6.6 6.2-11.3 7.8l18.5 32.3h-15.4zm-28.4-41.2h10.9c5.4 0 9.4-1.1 12.2-3.3s4.1-5.5 4.1-9.9c0-4.5-1.4-7.6-4.1-9.3-2.8-1.7-6.8-2.6-12.2-2.6h-10.9z" fill="#f1b860"/><path d="m197.7 248.2c0-4.7.7-9 2.2-12.8s3.5-7 6-9.6 5.3-4.6 8.6-6c3.2-1.4 6.5-2.1 9.9-2.1 3.9 0 7.4.7 10.4 2s5.5 3.2 7.5 5.7c2 2.4 3.5 5.4 4.6 8.8 1 3.4 1.5 7.1 1.5 11.1 0 2.7-.2 4.8-.6 6.4h-36.9c.6 5.3 2.5 9.3 5.5 12.2 3 2.8 6.9 4.3 11.7 4.3 2.5 0 4.9-.4 7-1.1 2.2-.7 4.3-1.8 6.5-3.1l4.6 8.5c-2.8 1.8-5.8 3.3-9.2 4.5s-6.9 1.8-10.7 1.8c-4 0-7.8-.7-11.2-2.1-3.5-1.4-6.5-3.4-9.1-6s-4.6-5.8-6.1-9.5c-1.5-3.9-2.2-8.2-2.2-13zm38.9-5.2c0-4.7-1-8.3-2.9-10.9s-4.9-3.9-8.9-3.9c-3.5 0-6.5 1.2-9.1 3.7s-4.2 6.2-4.9 11.1z" fill="#f1b860"/><path d="m290.8 204.4c-2.1-.9-4.3-1.4-6.4-1.4-4.9 0-7.3 3.3-7.3 9.8v6.3h11.4v10.8h-11.4v47.3h-13.6v-47.3h-7.8v-10.2l7.8-.6v-6c0-3 .4-5.8 1.1-8.3.7-2.6 1.9-4.8 3.4-6.6 1.6-1.9 3.6-3.3 6-4.3s5.3-1.5 8.8-1.5c2.1 0 4 .2 5.9.6s3.5.9 4.8 1.4z" fill="#f1b860"/><path d="m293.7 248.2c0-4.7.7-9 2.2-12.8s3.5-7 6-9.6 5.3-4.6 8.6-6c3.2-1.4 6.5-2.1 9.9-2.1 3.9 0 7.4.7 10.4 2s5.5 3.2 7.5 5.7c2 2.4 3.5 5.4 4.6 8.8 1 3.4 1.5 7.1 1.5 11.1 0 2.7-.2 4.8-.6 6.4h-36.9c.6 5.3 2.5 9.3 5.5 12.2 3 2.8 6.9 4.3 11.7 4.3 2.5 0 4.9-.4 7-1.1 2.2-.7 4.3-1.8 6.5-3.1l4.6 8.5c-2.8 1.8-5.8 3.3-9.2 4.5s-6.9 1.8-10.7 1.8c-4 0-7.8-.7-11.2-2.1-3.5-1.4-6.5-3.4-9.1-6s-4.6-5.8-6.1-9.5c-1.5-3.9-2.2-8.2-2.2-13zm38.9-5.2c0-4.7-1-8.3-2.9-10.9s-4.9-3.9-8.9-3.9c-3.5 0-6.5 1.2-9.1 3.7s-4.2 6.2-4.9 11.1z" fill="#f1b860"/><path d="m357.5 219.1h11.2l.9 10.3h.5c2.1-3.8 4.5-6.7 7.5-8.7 2.9-2 5.9-3 9-3 2.8 0 5 .4 6.6 1.2l-2.4 11.8c-1-.3-2-.6-2.8-.7-.9-.2-1.9-.2-3.2-.2-2.3 0-4.7.9-7.2 2.7s-4.7 4.9-6.5 9.3v35.5h-13.6z" fill="#f1b860"/><path d="m423.4 261.6c0-6.2 2.7-11 8.2-14.4 5.4-3.4 14.1-5.8 26-7.1 0-1.5-.2-2.9-.6-4.3s-1-2.6-1.8-3.7-1.9-1.9-3.2-2.5-2.9-.9-4.9-.9c-2.9 0-5.7.6-8.5 1.7-2.7 1.1-5.3 2.4-7.9 4l-5-9.1c3.2-2.1 6.8-3.8 10.8-5.3s8.3-2.2 13-2.2c7.3 0 12.8 2.1 16.3 6.4 3.6 4.3 5.3 10.5 5.3 18.6v34.4h-11.1l-1.1-6.4h-.4c-2.6 2.2-5.4 4.1-8.3 5.6-3 1.5-6.2 2.2-9.6 2.2-5.1 0-9.3-1.6-12.5-4.7-3.1-3.1-4.7-7.2-4.7-12.3zm13.2-1.1c0 2.6.8 4.5 2.3 5.7s3.5 1.8 6 1.8c2.4 0 4.5-.6 6.5-1.7s4-2.7 6.2-4.7v-13c-3.9.5-7.3 1.1-9.9 1.9-2.7.8-4.8 1.7-6.5 2.7-1.6 1-2.8 2.1-3.5 3.4-.7 1.2-1.1 2.5-1.1 3.9z" fill="#f1b860"/><path d="m541.7 204.4c-2.1-.9-4.3-1.4-6.4-1.4-4.9 0-7.3 3.3-7.3 9.8v6.3h11.4v10.8h-11.4v47.3h-13.6v-47.3h-7.8v-10.2l7.8-.6v-6c0-3 .4-5.8 1.1-8.3.7-2.6 1.9-4.8 3.4-6.6 1.6-1.9 3.6-3.3 6-4.3s5.3-1.5 8.8-1.5c2.1 0 4 .2 5.9.6s3.5.9 4.8 1.4z" fill="#f1b860"/><path d="m549.5 219.1h11.2l.9 10.3h.5c2.1-3.8 4.5-6.7 7.5-8.7 2.9-2 5.9-3 9-3 2.8 0 5 .4 6.6 1.2l-2.4 11.8c-1-.3-2-.6-2.8-.7-.9-.2-1.9-.2-3.2-.2-2.3 0-4.7.9-7.2 2.7s-4.7 4.9-6.5 9.3v35.5h-13.6z" fill="#f1b860"/><path d="m600.5 208.9c-2.4 0-4.5-.7-6-2.1-1.6-1.4-2.4-3.3-2.4-5.6s.8-4.2 2.4-5.6c1.6-1.5 3.6-2.2 6-2.2s4.5.7 6 2.2c1.6 1.5 2.4 3.3 2.4 5.6s-.8 4.1-2.4 5.6c-1.5 1.4-3.5 2.1-6 2.1zm-6.8 10.2h13.6v58.1h-13.6z" fill="#f1b860"/><path d="m620.9 248.2c0-4.7.7-9 2.2-12.8s3.5-7 6-9.6 5.3-4.6 8.6-6c3.2-1.4 6.5-2.1 9.9-2.1 3.9 0 7.4.7 10.4 2s5.5 3.2 7.5 5.7c2 2.4 3.5 5.4 4.6 8.8 1 3.4 1.5 7.1 1.5 11.1 0 2.7-.2 4.8-.6 6.4h-36.9c.6 5.3 2.5 9.3 5.5 12.2 3 2.8 6.9 4.3 11.7 4.3 2.5 0 4.9-.4 7-1.1 2.2-.7 4.3-1.8 6.5-3.1l4.6 8.5c-2.8 1.8-5.8 3.3-9.2 4.5s-6.9 1.8-10.7 1.8c-4 0-7.8-.7-11.2-2.1-3.5-1.4-6.5-3.4-9.1-6s-4.6-5.8-6.1-9.5c-1.5-3.9-2.2-8.2-2.2-13zm38.9-5.2c0-4.7-1-8.3-2.9-10.9s-4.9-3.9-8.9-3.9c-3.5 0-6.5 1.2-9.1 3.7s-4.2 6.2-4.9 11.1z" fill="#f1b860"/><path d="m684.7 219.1h11.2l.9 7.8h.5c2.6-2.5 5.4-4.7 8.5-6.5 3-1.8 6.6-2.7 10.6-2.7 6.2 0 10.8 2 13.6 6s4.3 9.7 4.3 17.1v36.5h-13.6v-34.7c0-4.8-.7-8.2-2.1-10.2s-3.7-3-7-3c-2.5 0-4.8.6-6.7 1.8s-4.1 3-6.6 5.4v40.6h-13.6z" fill="#f1b860"/><path d="m747.4 248.2c0-4.7.7-9 2.1-12.8s3.2-7 5.5-9.6 4.9-4.6 7.9-6 6-2.1 9.2-2.1c3.3 0 6.1.6 8.4 1.7s4.6 2.7 6.9 4.7l-.5-9.3v-21.1h13.6v83.6h-11.2l-.9-6.3h-.5c-2.1 2.1-4.6 3.9-7.5 5.4-2.8 1.5-5.8 2.2-9 2.2-7.3 0-13.2-2.7-17.5-8-4.4-5.3-6.5-12.7-6.5-22.4zm14.1-.1c0 6.3 1.1 11.1 3.4 14.4 2.2 3.3 5.5 4.9 9.8 4.9s8.4-2.2 12.2-6.5v-27.1c-2.1-1.8-4-3.1-6-3.8-1.9-.7-3.9-1.1-5.9-1.1-3.8 0-7 1.7-9.6 5s-3.9 8.1-3.9 14.2z" fill="#f1b860"/><g fill="#fff"><path d="m132.2 381.6c0-5.3 2.5-9.3 7.5-12.1s12.8-4.8 23.5-6c.1-1.8-.1-3.6-.3-5.4-.3-1.8-.9-3.5-1.7-4.9s-2-2.6-3.5-3.5-3.4-1.3-5.7-1.3c-3.3 0-6.2.6-8.9 1.9s-4.8 2.5-6.4 3.7l-2-3.3c.9-.6 1.9-1.3 3.1-2s2.6-1.4 4.1-2 3.1-1.1 4.9-1.5 3.7-.6 5.6-.6c2.9 0 5.3.5 7.2 1.4 1.9 1 3.5 2.3 4.7 3.9 1.2 1.7 2 3.6 2.5 5.8s.7 4.6.7 7.2v30.7h-3.7l-.5-6.2h-.2c-2.5 1.9-5.1 3.6-7.9 5.1s-5.8 2.2-9 2.2c-1.9 0-3.7-.3-5.4-.8s-3.1-1.3-4.4-2.4-2.3-2.4-3-4.1c-.9-1.6-1.2-3.5-1.2-5.8zm4.6-.2c0 3.5 1 5.9 3 7.4s4.4 2.2 7.1 2.2c2.8 0 5.5-.7 8-2s5.3-3.3 8.3-5.8v-16.3c-4.9.6-9.1 1.3-12.4 2.2-3.4.9-6.1 1.9-8.1 3.1-2.1 1.2-3.5 2.6-4.4 4.1-1.1 1.5-1.5 3.2-1.5 5.1z"/><path d="m184.7 345.6h3.8l.4 7.4h.3c2.5-2.5 5-4.5 7.6-6.1s5.6-2.4 8.9-2.4c5 0 8.7 1.5 11 4.5s3.5 7.6 3.5 13.9v30.8h-4.4v-30.2c0-5.1-.8-8.9-2.5-11.3s-4.5-3.6-8.4-3.6c-2.9 0-5.5.7-7.8 2.2s-5 3.7-7.9 6.7v36.2h-4.4v-48.1z"/><path d="m233.9 369.7c0-3.9.6-7.4 1.7-10.5s2.7-5.8 4.6-8c2-2.2 4.2-3.9 6.8-5 2.6-1.2 5.3-1.7 8.1-1.7 2.9 0 5.5.5 7.6 1.5 2.2 1 4.4 2.5 6.8 4.3l-.2-8.8v-19.8h4.4v71.9h-3.8l-.4-6.2h-.3c-1.9 1.9-4.2 3.6-6.8 5.1s-5.5 2.2-8.7 2.2c-6.1 0-10.9-2.1-14.5-6.4-3.5-4.3-5.3-10.5-5.3-18.6zm4.7 0c0 3.2.3 6.1 1 8.7s1.7 4.8 3 6.6 3 3.3 4.9 4.3c2 1 4.2 1.5 6.7 1.5 2.7 0 5.2-.7 7.6-2 2.4-1.4 4.9-3.3 7.4-5.8v-28.5c-2.5-2.3-4.9-3.9-7.1-4.8s-4.5-1.4-6.8-1.4c-2.4 0-4.6.5-6.7 1.6s-3.8 2.6-5.3 4.5-2.7 4.2-3.5 6.8c-.8 2.7-1.2 5.5-1.2 8.5z"/><path d="m312.2 321.7h4.4v20.8l-.2 9.4c2.5-2.1 5.1-3.8 7.9-5.3s5.7-2.2 8.7-2.2c6.4 0 11.2 2.2 14.4 6.6s4.8 10.4 4.8 17.8c0 4.1-.6 7.7-1.7 10.9s-2.7 5.9-4.6 8.1c-2 2.2-4.2 3.9-6.8 5.1s-5.2 1.7-8 1.7c-2.3 0-4.7-.5-7.2-1.5s-4.9-2.4-7.1-4.1h-.2l-.5 4.5h-3.7v-71.8zm4.3 63c2.7 2.3 5.2 3.9 7.7 4.8s4.6 1.4 6.5 1.4c2.4 0 4.6-.5 6.7-1.6s3.8-2.6 5.3-4.5 2.6-4.2 3.4-6.9 1.2-5.7 1.2-8.9c0-2.9-.3-5.7-.9-8.2s-1.4-4.7-2.6-6.5-2.8-3.3-4.7-4.3-4.3-1.5-7-1.5c-2.4 0-4.9.7-7.5 2-2.6 1.4-5.3 3.3-8.2 5.8v28.4z"/><path d="m362.5 369.7c0-3.9.6-7.5 1.7-10.6 1.2-3.1 2.7-5.8 4.7-7.9 2-2.2 4.2-3.8 6.7-5s5.1-1.7 7.7-1.7c5.7 0 10.2 1.9 13.5 5.8s4.9 9.3 4.9 16.4v1.8s-.1 1.2-.2 1.8h-34.5c.1 3 .5 5.8 1.4 8.3.9 2.6 2.1 4.8 3.6 6.6 1.6 1.8 3.4 3.3 5.6 4.3s4.7 1.5 7.4 1.5c2.6 0 4.9-.4 7-1.1 2.1-.8 4-1.8 5.8-3.1l1.8 3.4c-1.9 1.1-4 2.2-6.3 3.2s-5.2 1.5-8.7 1.5c-3.1 0-5.9-.6-8.6-1.7s-5-2.8-7-4.9c-2-2.2-3.6-4.8-4.7-7.9-1.2-3.2-1.8-6.8-1.8-10.7zm35.1-2.9c0-6.2-1.3-10.8-3.8-13.9s-6-4.6-10.3-4.6c-2.1 0-4 .4-5.9 1.3s-3.5 2.1-5 3.7-2.7 3.5-3.7 5.8-1.6 4.9-1.8 7.7z"/><path d="m434.7 345.6h3.8l.4 8.9h.3c1.6-3 3.5-5.4 5.8-7.3s4.9-2.8 7.7-2.8c.9 0 1.8.1 2.5.2s1.5.4 2.3.8l-1 4c-.8-.3-1.5-.5-2.1-.6s-1.4-.2-2.3-.2c-2.1 0-4.4.9-6.7 2.7-2.4 1.8-4.5 5-6.3 9.5v32.7h-4.4z"/><path d="m461.4 369.7c0-3.9.6-7.5 1.7-10.6 1.2-3.1 2.7-5.8 4.7-7.9 2-2.2 4.2-3.8 6.7-5s5.1-1.7 7.7-1.7c5.7 0 10.2 1.9 13.5 5.8s4.9 9.3 4.9 16.4v1.8s-.1 1.2-.2 1.8h-34.6c.1 3 .5 5.8 1.4 8.3.9 2.6 2.1 4.8 3.6 6.6 1.6 1.8 3.4 3.3 5.6 4.3s4.7 1.5 7.4 1.5c2.6 0 4.9-.4 7-1.1 2.1-.8 4-1.8 5.8-3.1l1.8 3.4c-1.9 1.1-4 2.2-6.3 3.2s-5.2 1.5-8.7 1.5c-3.1 0-5.9-.6-8.6-1.7s-5-2.8-7-4.9c-2-2.2-3.6-4.8-4.7-7.9-1.2-3.2-1.7-6.8-1.7-10.7zm35-2.9c0-6.2-1.3-10.8-3.8-13.9s-6-4.6-10.3-4.6c-2.1 0-4 .4-5.9 1.3s-3.5 2.1-5 3.7-2.7 3.5-3.7 5.8-1.6 4.9-1.8 7.7z"/><path d="m508 345.6h4.8l8.6 31.1c.6 2.2 1.2 4.3 1.7 6.4s1.1 4.2 1.6 6.3h.4c.5-2.1 1.1-4.2 1.7-6.3s1.2-4.2 1.8-6.4l8.7-31.1h5.3l8.7 31.1c.6 2.2 1.2 4.3 1.8 6.4s1.2 4.2 1.8 6.3h.4c.5-2.1 1.1-4.2 1.7-6.3s1.2-4.2 1.7-6.4l8.5-31.1h4.5l-13.8 48h-5.8l-8.4-29.8c-.7-2.3-1.3-4.6-1.8-6.8s-1.1-4.5-1.8-6.8h-.4c-.5 2.3-1.1 4.6-1.7 6.9s-1.3 4.6-2 6.9l-8.3 29.6h-5.3z"/><path d="m579.6 381.6c0-5.3 2.5-9.3 7.5-12.1s12.8-4.8 23.5-6c.1-1.8-.1-3.6-.3-5.4-.3-1.8-.9-3.5-1.7-4.9s-2-2.6-3.5-3.5-3.4-1.3-5.7-1.3c-3.3 0-6.2.6-8.9 1.9s-4.8 2.5-6.4 3.7l-2-3.3c.9-.6 1.9-1.3 3.1-2s2.6-1.4 4.1-2 3.1-1.1 4.9-1.5 3.7-.6 5.6-.6c2.9 0 5.3.5 7.2 1.4 1.9 1 3.5 2.3 4.7 3.9 1.2 1.7 2 3.6 2.5 5.8s.7 4.6.7 7.2v30.7h-3.7l-.5-6.2h-.2c-2.5 1.9-5.1 3.6-7.9 5.1s-5.8 2.2-9 2.2c-1.9 0-3.7-.3-5.4-.8s-3.1-1.3-4.4-2.4-2.3-2.4-3-4.1c-.9-1.6-1.2-3.5-1.2-5.8zm4.6-.2c0 3.5 1 5.9 3 7.4s4.4 2.2 7.1 2.2c2.8 0 5.5-.7 8-2s5.3-3.3 8.3-5.8v-16.3c-4.9.6-9.1 1.3-12.4 2.2-3.4.9-6.1 1.9-8.1 3.1-2.1 1.2-3.5 2.6-4.4 4.1-1.1 1.5-1.5 3.2-1.5 5.1z"/><path d="m632.1 345.6h3.8l.4 8.9h.3c1.6-3 3.5-5.4 5.8-7.3s4.9-2.8 7.7-2.8c.9 0 1.8.1 2.5.2s1.5.4 2.3.8l-1 4c-.8-.3-1.5-.5-2.1-.6s-1.4-.2-2.3-.2c-2.1 0-4.4.9-6.7 2.7-2.4 1.8-4.5 5-6.3 9.5v32.7h-4.4z"/><path d="m658.8 369.7c0-3.9.6-7.4 1.7-10.5s2.7-5.8 4.6-8c2-2.2 4.2-3.9 6.8-5 2.6-1.2 5.3-1.7 8.1-1.7 2.9 0 5.5.5 7.6 1.5 2.2 1 4.4 2.5 6.8 4.3l-.2-8.8v-19.8h4.4v71.9h-3.6l-.4-6.2h-.3c-1.9 1.9-4.2 3.6-6.8 5.1s-5.5 2.2-8.7 2.2c-6.1 0-10.9-2.1-14.5-6.4-3.7-4.3-5.5-10.5-5.5-18.6zm4.7 0c0 3.2.3 6.1 1 8.7s1.7 4.8 3 6.6 3 3.3 4.9 4.3c2 1 4.2 1.5 6.7 1.5 2.7 0 5.2-.7 7.6-2 2.4-1.4 4.9-3.3 7.4-5.8v-28.5c-2.5-2.3-4.9-3.9-7.1-4.8s-4.5-1.4-6.8-1.4c-2.4 0-4.6.5-6.7 1.6s-3.8 2.6-5.3 4.5-2.7 4.2-3.5 6.8c-.7 2.7-1.2 5.5-1.2 8.5z"/><path d="m713.2 369.7c0-3.9.6-7.5 1.7-10.6 1.2-3.1 2.7-5.8 4.7-7.9 2-2.2 4.2-3.8 6.7-5s5.1-1.7 7.7-1.7c5.7 0 10.2 1.9 13.5 5.8s4.9 9.3 4.9 16.4v1.8s-.1 1.2-.2 1.8h-34.6c.1 3 .5 5.8 1.4 8.3.9 2.6 2.1 4.8 3.6 6.6 1.6 1.8 3.4 3.3 5.6 4.3s4.7 1.5 7.4 1.5c2.6 0 4.9-.4 7-1.1 2.1-.8 4-1.8 5.8-3.1l1.8 3.4c-1.9 1.1-4 2.2-6.3 3.2s-5.2 1.5-8.7 1.5c-3.1 0-5.9-.6-8.6-1.7s-5-2.8-7-4.9c-2-2.2-3.6-4.8-4.7-7.9-1.1-3.2-1.7-6.8-1.7-10.7zm35.1-2.9c0-6.2-1.3-10.8-3.8-13.9s-6-4.6-10.3-4.6c-2.1 0-4 .4-5.9 1.3s-3.5 2.1-5 3.7-2.7 3.5-3.7 5.8-1.6 4.9-1.8 7.7z"/><path d="m761.5 369.7c0-3.9.6-7.4 1.7-10.5s2.7-5.8 4.6-8c2-2.2 4.2-3.9 6.8-5 2.6-1.2 5.3-1.7 8.1-1.7 2.9 0 5.5.5 7.6 1.5 2.2 1 4.4 2.5 6.8 4.3l-.2-8.8v-19.8h4.4v71.9h-3.8l-.4-6.2h-.3c-1.9 1.9-4.2 3.6-6.8 5.1s-5.5 2.2-8.7 2.2c-6.1 0-10.9-2.1-14.5-6.4-3.5-4.3-5.3-10.5-5.3-18.6zm4.7 0c0 3.2.3 6.1 1 8.7s1.7 4.8 3 6.6 3 3.3 4.9 4.3c2 1 4.2 1.5 6.7 1.5 2.7 0 5.2-.7 7.6-2 2.4-1.4 4.9-3.3 7.4-5.8v-28.5c-2.5-2.3-4.9-3.9-7.1-4.8s-4.5-1.4-6.8-1.4c-2.4 0-4.6.5-6.7 1.6s-3.8 2.6-5.3 4.5-2.7 4.2-3.5 6.8c-.8 2.7-1.2 5.5-1.2 8.5z"/></g><path d="m531.3 589.7c-.6-2-2.4-3.5-4.5-3.8l-19.2-2.8-8.8-17c-1.5-2.8-5-3.8-7.7-2.3-1 .5-1.8 1.3-2.3 2.3l-8.8 17-19.4 2.9c-2.1.3-3.8 1.8-4.5 3.8s-.1 4.2 1.4 5.7l14 13.3-3.2 18.8c-.4 2.1.5 4.2 2.2 5.4s4 1.4 5.8.4l17.3-8.8 17.4 8.8c.8.4 1.7.6 2.7.6 1.6 0 3.1-.7 4.1-1.9 1.1-1.2 1.5-2.9 1.2-4.5l-3.2-18.8 13.9-13.4c1.8-1.5 2.3-3.7 1.6-5.7zm-26.8 18 1.9 10.9-10-5.1c-1.6-.8-3.5-.8-5.1 0l-10 5.1 1.9-10.9c.3-1.8-.3-3.6-1.6-4.8l-8-7.7 11-1.6c1.8-.3 3.3-1.4 4.1-3l5.1-9.9 5.1 9.9c.8 1.6 2.4 2.7 4.2 3l11.1 1.6-8 7.7c-1.4 1.3-2 3-1.7 4.8z" fill="#f1b860"/><path d="m618.4 589.7c-.6-2-2.4-3.5-4.5-3.8l-19.2-2.8-8.8-17c-1.5-2.8-5-3.8-7.7-2.3-1 .5-1.8 1.3-2.3 2.3l-8.8 17-19.4 2.9c-2.1.3-3.8 1.8-4.5 3.8s-.1 4.2 1.4 5.7l14 13.3-3.2 18.8c-.4 2.1.5 4.2 2.2 5.4s4 1.4 5.8.4l17.3-8.8 17.4 8.8c.8.4 1.7.6 2.7.6 1.6 0 3.1-.7 4.1-1.9 1.1-1.2 1.5-2.9 1.2-4.5l-3.2-18.8 13.9-13.4c1.8-1.5 2.3-3.7 1.6-5.7zm-26.8 18 1.9 10.9-10-5.1c-1.6-.8-3.5-.8-5.1 0l-10 5.1 1.9-10.9c.3-1.8-.3-3.6-1.6-4.8l-8-7.7 11-1.6c1.8-.3 3.3-1.4 4.1-3l5.1-9.9 5.1 9.9c.8 1.6 2.4 2.7 4.2 3l11.1 1.6-8 7.7c-1.4 1.3-2 3-1.7 4.8z" fill="#f1b860"/><path d="m705.5 588.8c-.6-2-2.4-3.5-4.5-3.8l-19.2-2.8-8.8-17c-1.5-2.8-5-3.8-7.7-2.3-1 .5-1.8 1.3-2.3 2.3l-8.8 17-19.4 2.9c-2.1.3-3.8 1.8-4.5 3.8s-.1 4.2 1.4 5.7l14 13.3-3.2 18.8c-.4 2.1.5 4.2 2.2 5.4s4 1.4 5.8.4l17.3-8.8 17.4 8.8c.8.4 1.7.6 2.7.6 1.6 0 3.1-.7 4.1-1.9 1.1-1.2 1.5-2.9 1.2-4.5l-3.2-18.8 13.9-13.4c1.8-1.5 2.3-3.7 1.6-5.7zm-26.8 18 1.9 10.9-10-5.1c-1.6-.8-3.5-.8-5.1 0l-10 5.1 1.9-10.9c.3-1.8-.3-3.6-1.6-4.8l-8-7.7 11-1.6c1.8-.3 3.3-1.4 4.1-3l5.1-9.9 5.1 9.9c.8 1.6 2.4 2.7 4.2 3l11.1 1.6-8 7.7c-1.4 1.3-2 3.1-1.7 4.8z" fill="#f1b860"/><path d="m792.6 589.7c-.6-2-2.4-3.5-4.5-3.8l-19.2-2.8-8.8-17c-1.5-2.8-5-3.8-7.7-2.3-1 .5-1.8 1.3-2.3 2.3l-8.8 17-19.3 2.9c-2.1.3-3.8 1.8-4.5 3.8s-.1 4.2 1.4 5.7l14 13.3-3.2 18.8c-.4 2.1.5 4.2 2.2 5.4s4 1.4 5.8.4l17.3-8.8 17.4 8.8c.8.4 1.7.6 2.7.6 1.6 0 3.1-.7 4.1-1.9 1.1-1.2 1.5-2.9 1.2-4.5l-3.2-18.8 13.9-13.4c1.7-1.5 2.2-3.7 1.5-5.7zm-26.8 18 1.9 10.9-10-5.1c-1.6-.8-3.5-.8-5.1 0l-10 5.1 1.9-10.9c.3-1.8-.3-3.6-1.6-4.8l-8-7.7 11-1.6c1.8-.3 3.3-1.4 4.1-3l5.1-9.9 5.1 9.9c.8 1.6 2.4 2.7 4.2 3l11.1 1.6-8 7.7c-1.4 1.3-2 3-1.7 4.8z" fill="#f1b860"/><path d="m879.7 588.8c-.6-2-2.4-3.5-4.5-3.8l-19.2-2.8-8.8-17c-1.5-2.8-5-3.8-7.7-2.3-1 .5-1.8 1.3-2.3 2.3l-8.8 17-19.4 2.9c-2.1.3-3.8 1.8-4.5 3.8s-.1 4.2 1.4 5.7l14 13.3-3.2 18.8c-.4 2.1.5 4.2 2.2 5.4s4 1.4 5.8.4l17.3-8.8 17.4 8.8c.8.4 1.7.6 2.7.6 1.6 0 3.1-.7 4.1-1.9 1.1-1.2 1.5-2.9 1.2-4.5l-3.2-18.8 13.9-13.4c1.8-1.5 2.3-3.7 1.6-5.7zm-26.8 18 1.9 10.9-10-5.1c-1.6-.8-3.5-.8-5.1 0l-10 5.1 1.9-10.9c.3-1.8-.3-3.6-1.6-4.8l-8-7.7 11-1.6c1.8-.3 3.3-1.4 4.1-3l5.1-9.9 5.1 9.9c.8 1.6 2.4 2.7 4.2 3l11.1 1.6-8 7.7c-1.4 1.3-2 3.1-1.7 4.8z" fill="#f1b860"/></svg>