<svg enable-background="new 0 0 141.5 145.6" viewBox="0 0 141.5 145.6" xmlns="http://www.w3.org/2000/svg"><g fill="#2a2d58"><path d="m70.4 73.4-12.6-7.9 11.6-15.8-55.1 4.9c-4.7.4-8.2 4.3-7.8 8.7l2.1 23.6 73.2-6.6-1.8-20.1z"/><path d="m120.7 45.1-20.9 1.9 14 13.5-11 10-12-11.5 1.8 20.5 39.3-3.5-2.1-23.6c-.3-4.6-4.4-7.8-9.1-7.3z"/><path d="m93.6 89.5 2.8 31.6 30.8-2.8c4.7-.4 8.2-4.3 7.8-8.7l-2-23.6s-39.4 3.5-39.4 3.5z"/><path d="m82.7 90.5-73.2 6.6 2.1 23.6c.4 4.4 4.5 7.6 9.2 7.2l64.8-5.8z"/></g><path d="m109.2 12.3c-.6 0-1 .1-1.5.1-.2 0-.4 0-.5 0h-.1c-6.8.8-12.5 3.9-18.1 9.9-2.5 2.6-4.6 5.6-6.3 8.7-2.3-2.8-4.8-5.4-7.7-7.5-6.6-4.9-12.8-6.9-19.6-6.5h-.1c-.2 0-.4 0-.5 0-.5 0-.9.1-1.5.1-5.7 1-9.3 4.8-9.1 9.7.1 2.6 1.3 5.1 3.4 7.2 2.7 2.7 6.2 4.9 10.9 6.8 5.8 2.3 11.6 3.5 18 4.3l-14.4 20.3 7.4 4.6 15-20.6 18.3 17.6 6.4-5.9-18-17.2c6-2 11.7-4.2 17-7.5 4.3-2.7 7.4-5.4 9.6-8.6 1.7-2.5 2.4-5.1 2.1-7.7-.8-4.7-4.9-7.8-10.7-7.8zm-50.2 19.4c-1.4-.7-3-1.7-4.2-3-1.4-1.4-1.4-1.9-1.1-2.4.2-.5.8-.7 2.5-1 4.1-.1 8 1.2 12 3.9 3 2 5.7 4.6 8 7.5-6.3-1-12-2.3-17.2-5zm51.1-8c-1 1.4-2.4 2.7-3.6 3.7-4.6 3.7-10 5.9-16 8.1 1.7-3.4 3.8-6.3 6.5-8.8 3.6-3.5 7.1-5.3 11.2-5.9 1.7-.1 2.3.1 2.6.5.3.3.4.8-.7 2.4z" fill="#f1b860"/><path d="m28.9 107.6c-.5-.3-.9-.5-1.3-.7-.4-.1-.8-.2-1.3-.1s-.9.2-1.1.4-.3.5-.3 1c0 .3.2.5.5.7s.7.3 1.2.5 1 .3 1.6.5 1.1.4 1.6.7.9.7 1.3 1.1c.4.5.6 1 .7 1.7.1 1.1-.1 2.1-.6 3s-1.4 1.6-2.6 2l.3 2.4-2.7.3-.3-2.3c-.7 0-1.4-.1-2.2-.3s-1.5-.5-2.2-1l1.4-2.9c.7.4 1.3.6 1.9.8.5.1 1.1.2 1.6.1.6-.1 1-.2 1.2-.5.2-.2.3-.6.3-1 0-.3-.2-.6-.6-.8-.3-.2-.7-.4-1.2-.6s-1-.4-1.6-.5c-.6-.2-1.1-.4-1.6-.7s-.9-.7-1.3-1.1-.6-1-.7-1.7c-.1-1.2.1-2.2.6-3 .6-.8 1.4-1.5 2.5-1.8l-.3-2.4 2.7-.3.3 2.3c.8 0 1.5.2 2.1.4s1.2.6 1.7 1.1z" fill="#f1b860"/></svg>