<svg enable-background="new 0 0 80.4 74.5" viewBox="0 0 80.4 74.5" xmlns="http://www.w3.org/2000/svg"><g fill="#2a2d58"><path d="m55.7 30v1.1c.2 11.8.5 23.6.7 35.4 0 .9 0 .9-.8.9-1.1 0-2.2 0-3.4.1-.5 0-.7-.2-.7-.7-.1-3.7-.1-7.4-.2-11.1-.1-7.3-.3-14.6-.4-22 0-.6.1-.9.6-1.2 1.4-.8 2.7-1.7 4.2-2.5z"/><path d="m45.1 36.4c.2 10.4.4 20.7.6 31.1-.2 0-.3 0-.5.1-1.2 0-2.4 0-3.7.1-.6 0-.8-.2-.7-.7 0 0 0 0 0-.1-.2-9-.3-17.9-.5-26.9 0-.5.1-.8.6-1.1 1.3-.8 2.6-1.6 3.9-2.3.1-.1.1-.2.3-.2z"/><path d="m34.6 42.7v.8c.1 7.8.3 15.6.4 23.4 0 .8 0 .8-.8.8-1.3 0-2.7.1-4.1.1 0-.3 0-.5 0-.7-.1-7-.3-14-.4-20.9 0-.4.1-.7.4-.9 1.5-.8 2.9-1.7 4.5-2.6z"/><path d="m19.5 68c0-.3 0-.5 0-.8-.1-4.9-.2-9.8-.3-14.6 0-.5.1-.8.5-1 1.4-.8 2.8-1.7 4.2-2.5 0 .3.1.4.1.6.1 5.9.2 11.7.3 17.6 0 .5-.1.7-.6.7-1.3-.1-2.7 0-4.2 0z"/></g><path d="m60.3 33.3c.9.2 1.8.1 2.6-.4.8-.4 1.3-1.2 1.6-2.1l3.4-13.2c.1-.4.1-.9.1-1.3-.1-.9-.6-1.7-1.3-2.2-.4-.3-.8-.5-1.2-.6l-13.2-3.4c-1.8-.5-3.7.6-4.1 2.4-.2.9-.1 1.8.4 2.6.4.8 1.2 1.3 2.1 1.6l5.2 1.4-18.8 11c-1.7.9-2.3 2.9-1.5 4.6.9 1.7 2.9 2.3 4.6 1.5.1-.1.2-.1.3-.2l18.8-11-1.4 5.2c-.5 1.8.6 3.6 2.4 4.1z" fill="#f1b860"/><path d="m62.8 17.9-47.4 27.8" style="fill:none;stroke:#f1b860;stroke-width:7;stroke-linecap:round;stroke-linejoin:round;stroke-miterlimit:10"/></svg>