<svg enable-background="new 0 0 66.9 40.1" viewBox="0 0 66.9 40.1" xmlns="http://www.w3.org/2000/svg"><path d="m37.3 26.4c0 .2-.1.4-.1.6-.1 1.4 1 2.5 2.3 2.6l4.4.2c2.1 1.4 4.5 2.3 7 2.5 5.9.5 12.6-4.2 14.1-9.9 1-3.8.4-7.8-1.6-11.1-2.2-3.2-5.5-5.5-9.2-6.2l-.2-.1c-7.2-1.1-14.1 3.5-15.6 10.7-.4 2.1-.4 4.2.2 6.2l.4.1h-.4zm3.6-5c-.8-3.1-.3-6.4 1.6-9.1 2-3 5.3-4.9 8.9-5.1.8-.1 1.7 0 2.5.2 3.1.6 5.9 2.4 7.6 5 1.7 2.8 2.2 6.1 1.4 9.2-1.4 4.7-6.9 8.6-11.8 8.2-2-.2-4-.8-5.7-2.1-.5-.3-.8-.5-1.3-.4l-4.4-.2h-.1v-.1l1.4-4.3c0-.5 0-.9-.1-1.3z" fill="#2a2d58"/><path d="m46.9 15.9c0-.7.5-1.2 1.1-1.2h5.4c.6 0 1.1.6 1.1 1.2 0 .7-.5 1.2-1.1 1.2h-5.4c-.6 0-1.1-.5-1.1-1.2z" fill="#f1b860"/><path d="m55.7 19.5c.5 0 1 .6 1 1.2s-.5 1.1-1.1 1.1h-7.6-.1c-.5 0-1-.6-1-1.2s.5-1.1 1.1-1.1z" fill="#f1b860"/><path d="m-53.8 48.5v.6c.2 1.4 1.4 2.3 2.7 2.1l4.4-.6c2.3 1 4.8 1.5 7.3 1.2 5.9-.6 11.6-6.4 12.1-12.3.3-3.9-1-7.7-3.6-10.6-2.7-2.8-6.4-4.4-10.2-4.4h-.1c-7.3.2-13.2 6-13.4 13.3 0 2.1.4 4.2 1.3 6.1h.4-.4zm2.6-5.6c-1.3-2.9-1.4-6.2-.1-9.2 1.4-3.3 4.3-5.8 7.8-6.6.8-.2 1.7-.3 2.5-.3 3.2 0 6.2 1.3 8.4 3.6 2.2 2.4 3.3 5.6 3 8.8-.5 4.9-5.2 9.7-10.1 10.2-2 .2-4.1-.1-6-1-.5-.2-.9-.3-1.4-.2l-4.4.6h-.1v-.1l.6-4.5c.1-.5 0-.9-.2-1.3z" fill="#2a2d58"/><g fill="#f1b860"><path d="m-44.9 35.3c0-.7.5-1.2 1.1-1.2h5.4c.6 0 1.1.6 1.1 1.2 0 .7-.5 1.2-1.1 1.2h-5.4c-.7 0-1.1-.5-1.1-1.2z"/><path d="m-36.1 38.9c.5 0 1 .6 1 1.2s-.5 1.1-1.1 1.1h-7.6-.1c-.5 0-1-.6-1-1.2s.5-1.1 1.1-1.1z"/><path d="m34.9 20.5c-.2-.5-.7-1.1-1.2-1.7-1.3-1.2-2-2.7-2-4.7-.1-4.6-2.1-8.2-5.8-10.4-3.1-1.9-7.4-2.7-11.4-2.2-4.6.7-8.4 3-10.8 6.7-2.4 3.8-2.8 8-1.3 12.4.4 1.1 1.1 2.1 1.8 3 .4.5.7 1 1 1.5.7 1.1 1.3 2.2 1.8 3.4.5 1 .3 2.1 0 3.3.1.6 0 1.2-.1 1.7-.1.8-.2 1.7-.3 2.6-.1.5-.1 1-.2 1.5l-.1 1.1h16.1v-.9c0-.4 0-.7 0-1.1 0-.7 0-1.5 0-2.2 0 0 0 0 0-.1h.2c1 .1 2 .1 3.1.2 1 0 2 .1 3.1.2 1.4.1 2.7-.5 3.4-1.6.6-1 .7-2.2 0-3.3 0 0 0-.1 0-.2.6-.6.9-1.2.9-1.9 0-.5-.2-.8-.4-1.2.2-.1.4-.2.6-.4l.8-.5-.5-.8c-.2-.3-.3-.5-.5-.8.4-.2.7-.5 1-.7 1.1-.7 1.5-1.8.8-2.9zm-2.6 1.5c-.5.3-1.1.7-1.7 1.1l-.6.5.6 1c.1.1.1.3.2.4-.2.1-.5.3-.7.4l-1.1.7 1.1.7c.6.4.6.6.6.6s0 .2-.3.4c-.7.5-.6 1.7-.3 2.3.3.5.3 1 0 1.3-.3.5-.9.7-1.6.7-1 0-2-.1-2.9-.2-1 0-2-.1-2.9-.2-.7 0-1.2.1-1.5.5-.3.3-.5.8-.5 1.4v.7.3 1 .2h-11.6c0-.1 0-.3 0-.4.1-.8.2-1.6.3-2.5 0-.5.1-.9.2-1.3.2-1.3.5-2.7-.2-4.1-.6-1.2-1.2-2.3-1.8-3.4-.3-.6-.7-1-1-1.5-.6-.8-1.1-1.6-1.4-2.4-1.3-3.5-.9-7 1-10.1 2.5-3.9 6.2-5.2 8.9-5.5 3.4-.5 6.9.2 9.5 1.8 2.9 1.8 4.5 4.6 4.6 8.3 0 2.3.9 4.2 2.4 5.6.3.3.5.7.8 1.2 0 .1.1.1.1.1.1.2 0 .3-.2.4z"/></g></svg>