<svg xmlns="http://www.w3.org/2000/svg" viewBox="0 0 86 80.93"><title>ICONS_nieuwwwwww</title><path d="M74.81,37.34l10.41-5.28-6.43-3.55,2.65-1.1a2.1,2.1,0,0,0,1.16-1.16,2.14,2.14,0,0,0-2.79-2.8l-3.44,1.42L79,15.68,68,21.26l-2.31,8-.91.37A34,34,0,0,0,39.31,11.15v-4h.35a2.27,2.27,0,0,0,2.27-2.27,2,2,0,0,0-2-2H29.14a2,2,0,0,0-2,2,2.27,2.27,0,0,0,2.27,2.27h.35v4A33.71,33.71,0,0,0,14,17.81L10,13.88,3.28,20.64l4,4A33.38,33.38,0,0,0,.8,44.9c.19,17.47,14.53,32.41,32,33.3.6,0,1.19,0,1.78,0A33.74,33.74,0,0,0,66.43,33.61l.92-.38ZM34,7.19h1v3.62H34Zm20.11,59.3a29.16,29.16,0,0,1-23,7.29A29.54,29.54,0,0,1,5.26,47.88a29.49,29.49,0,0,1,29.26-32.8A29.62,29.62,0,0,1,60.83,31.31l-2.15.88A27.28,27.28,0,0,0,31.6,17.52c-11.48,1.2-22.46,11.86-24,23.28a27.15,27.15,0,0,0,53.61,8.52,26.37,26.37,0,0,0-.92-13.17l2.16-.9A29.06,29.06,0,0,1,64,44.53,29.49,29.49,0,0,1,54.13,66.49Zm-5.29-4.61.24.24a22.87,22.87,0,0,1-12.42,5.15v-.36a2.14,2.14,0,1,0-4.27,0v.36A22.87,22.87,0,0,1,20,62.12l.25-.24a2.15,2.15,0,0,0,0-3,2.2,2.2,0,0,0-3,0l-.24.24a22.87,22.87,0,0,1-5.15-12.42h.36a2.14,2.14,0,1,0,0-4.27h-.36A23,23,0,0,1,16.91,30l.28.25a2.12,2.12,0,0,0,3.09-.1,2,2,0,0,0,0-2.9L20,27A22.87,22.87,0,0,1,32.39,21.8v.36a2.14,2.14,0,1,0,4.27,0V21.8A22.87,22.87,0,0,1,49.08,27l-.24.24a2.15,2.15,0,0,0,0,3,2.19,2.19,0,0,0,3,0l.25-.25a22.61,22.61,0,0,1,2.59,3.88l-14.45,6a7.41,7.41,0,0,0-12.95,6.37,7.31,7.31,0,0,0,5.41,5.51,7.43,7.43,0,0,0,9.2-7.19,6.42,6.42,0,0,0-.05-.74l14.47-6a22.52,22.52,0,0,1,.91,4.58h-.41a2.08,2.08,0,0,0-2.08,2.08A2.2,2.2,0,0,0,57,46.67h.3a22.79,22.79,0,0,1-5.15,12.42l-.24-.24a2.18,2.18,0,0,0-3,0,2.14,2.14,0,0,0,0,3ZM36.74,46.73a3.12,3.12,0,1,1,.82-3A3.13,3.13,0,0,1,36.74,46.73Z" fill="#2a2d58"/><path d="M35.52,40.7a4,4,0,0,0-4.81,4.81,3.9,3.9,0,0,0,2.84,2.84,3.95,3.95,0,0,0,2-7.65Z" fill="#f1b860"/></svg>