<svg xmlns="http://www.w3.org/2000/svg" viewBox="0 0 85.34 53.3"><title>ICONS_nieuwwwwww</title><path d="M42.54,0a13.7,13.7,0,1,0,13.7,13.69A13.71,13.71,0,0,0,42.54,0Zm9.09,13.69A9.08,9.08,0,1,1,49,7.26,9,9,0,0,1,51.63,13.69Z" fill="#f1b860"/><path d="M71.18,19.32a8.76,8.76,0,1,0,8.76,8.76A8.77,8.77,0,0,0,71.18,19.32Zm4.16,8.76a4.16,4.16,0,1,1-4.16-4.16A4.21,4.21,0,0,1,75.34,28.08Z" fill="#2a2d58"/><path d="M13.86,19.32a8.76,8.76,0,1,0,8.76,8.76A8.77,8.77,0,0,0,13.86,19.32ZM18,28.08a4.16,4.16,0,1,1-4.16-4.16A4.11,4.11,0,0,1,18,28.08Z" fill="#2a2d58"/><path d="M71.28,38.29A13.94,13.94,0,0,0,61.78,42l-.52.48.31.64a20,20,0,0,1,1,2.58l.52,1.57,1.1-1.23a9.44,9.44,0,0,1,16.49,6.29v.95h4.61v-.95A14.08,14.08,0,0,0,71.28,38.29Z" fill="#2a2d58"/><path d="M14.06,38.29A14.08,14.08,0,0,0,0,52.35v.95H4.6v-.95A9.38,9.38,0,0,1,20.94,46L22,47.2l.51-1.55a21.74,21.74,0,0,1,1.08-2.6l.31-.64-.53-.48A13.83,13.83,0,0,0,14.06,38.29Z" fill="#2a2d58"/><path d="M42.54,19.79a5.45,5.45,0,0,1-5.7-5.15,1.44,1.44,0,0,1,2.87,0,2.6,2.6,0,0,0,2.83,2.28,2.6,2.6,0,0,0,2.83-2.28,1.44,1.44,0,0,1,2.87,0A5.45,5.45,0,0,1,42.54,19.79Z" fill="#f1b860"/><path d="M65.49,50.61a22.24,22.24,0,0,0-2.25-8.35,23,23,0,0,0-41.37-.09A24,24,0,0,0,20.7,45a23.06,23.06,0,0,0-1.13,5.93,2.35,2.35,0,0,0-.06.51l0,1.81h45l1,0V51.08A1.59,1.59,0,0,0,65.49,50.61ZM25.55,45.17a18.43,18.43,0,0,1,35.06,3.55c0,.08,0,.15,0,.22H24.42c0-.12,0-.25.07-.37a18.6,18.6,0,0,1,1.06-3.4Z" fill="#f1b860"/></svg>