<svg enable-background="new 0 0 99.2 200.5" viewBox="0 0 99.2 200.5" xmlns="http://www.w3.org/2000/svg"><path d="m83.1 11.8h-67.1c-7.8 0-14.2 6-14.2 13.5v159.7c0 7.5 6.3 13.5 14.2 13.5h67c7.8 0 14.2-6 14.2-13.5v-159.7c0-7.5-6.3-13.5-14.1-13.5zm-33.5 179.6c-4.1 0-7.4-3.1-7.4-7s3.3-7 7.4-7 7.4 3.1 7.4 7-3.4 7-7.4 7zm40.6-22.6h-81.3v-138.6h81.3z" fill="#2a2d58"/><path d="m58.7 83.6v-.3c6.5-5 7.9-14.4 2.9-21-5-6.5-14.4-7.9-21-2.9s-7.9 14.4-2.9 21c.8 1.1 1.8 2.1 2.9 2.9v.3c-8.4 2.1-14.1 9.6-14.3 18.2v18.8h46.5v-18.8c.2-8.6-5.8-16.1-14.1-18.2z" fill="#f1b860"/><path d="m20.1 139.3h59" fill="#2a2d58"/><path d="m79 141.3h-59c-1.1 0-2-.9-2-2s.9-2 2-2h59c1.1 0 2 .9 2 2s-.9 2-2 2z" fill="#2a2d58"/><circle cx="33.9" cy="139.1" fill="#f1b860" r="5.7"/></svg>