<svg enable-background="new 0 0 78.4 79.5" viewBox="0 0 78.4 79.5" xmlns="http://www.w3.org/2000/svg"><path d="m67.4 18c-.8-1.1-2-2.2-3.7-3-7.6-3.7-19.4-4.8-26.7 5.4v.1c-1 2.4-2.1 4.9-3.1 7.4-1.1 2.5-2.1 4.9-3.1 7.3.1.3.6.9 1.3 1.2.2.1.3.1.5.1.7 0 1.4-.5 1.9-1.3 0-.1.1-.1.1-.2.7-1.2 1.3-2.3 1.9-3.4 0-.1.1-.1.1-.2.8-1.5 1.8-3.1 3.8-4.4 0 0 .1 0 .1-.1 1.2-.7 2.3-1.1 3.5-1.1 1.6 0 3.1.7 4.4 2l14.1 14.1c3.8-3 6.4-6.6 7.3-10 1.5-5 .8-10.3-2.4-13.9z" fill="#2a2d58"/><path d="m65.8 51.4c-1.2-1.2-2.4-2.4-3.6-3.6h-.1v-.1c-5.6-5.6-11.2-11.2-16.8-16.8-.9-.9-1.5-.9-2.6-.3-1.2.8-1.8 1.8-2.4 2.9-.6 1.3-1.3 2.4-2.1 3.7-1.5 2.8-4.6 4.1-7.4 3.2-2.4-.8-4.4-3.1-4.4-5.4 0-.5.1-1 .4-1.5 2.1-4.9 4.2-9.9 6.3-14.7-6.7-6.5-16.5-7.3-22.1-1.8-3.7 3.7-4.6 9.3-2.8 14.6.3.9.8 1.9 1.4 2.6l12.6 11.8 1.6-1.5c.3-.3.7-.5 1.1-.7.7-.3 1.5-.5 2.2-.5 1.5 0 2.9.6 4.1 1.7.7.7 1.2 1.4 1.5 2.2.8.3 1.5.8 2 1.4.6.6 1.1 1.3 1.3 2.1.8.3 1.4.7 2.1 1.3s1.2 1.4 1.5 2.2c.7.3 1.4.8 2 1.4 1.8 1.8 2.3 4.2 1.3 6.4-.2.5-.4.9-.7 1.2l-.7.7 4.2 4 1.6 1.6c.8.8 1.8.6 2.7-.3.8-.8.9-1.9.3-2.7-1.4-1.5-2.9-2.9-4.4-4.5-.3-.3-.4-.4-.6-.6-.4-.6-.4-1.4.1-1.9s1.3-.6 1.9-.3c.3.1.5.4.8.6l4.4 4.4c.8.8 1.9.8 2.8 0 .9-.9.9-1.9.1-2.8-1.4-1.5-2.9-2.9-4.5-4.5-.4-.4-.8-.9-.8-1.4 0-1.2 1.4-1.9 2.4-1.3.3.1.5.4.6.6 1.5 1.4 2.9 2.9 4.5 4.4.8.8 1.9.6 2.7-.1.8-.9.9-1.9.1-2.7-1.5-1.5-3.1-3.1-4.5-4.5-.4-.4-.8-.9-.6-1.5.1-1.3 1.5-1.8 2.6-1.2.3.1.4.4.6.5 1.4 1.4 2.9 2.8 4.4 4.4.6.8 1.9.8 2.8-.1.8-.6.8-1.7.1-2.6z" fill="#f1b860"/><path d="m32.3 61.8c0 .2-.1.2-.1.3-.4 1.1 0 2.3 1 3 .9.6 2 .5 2.8-.1l3.4-3.7s0-.1 0-.2c.5-1 .3-2-.5-2.8s-1.7-1-2.8-.6c-.1.1-.2.1-.3 0 .6-1 .4-2.1-.4-2.9-.9-.9-1.9-.9-3-.5.5-1.2.3-2.2-.5-3-.8-.9-1.8-.9-2.9-.5.1-.2.1-.2.1-.3.4-1 .2-2.1-.6-2.8-.7-.7-1.6-.9-2.5-.5l-4.3 4.2c-.4.7-.4 1.5 0 2.3.3.6.7.9 1.3 1.2.7.3 1.4.3 2.1-.1-.5 1.2-.3 2.1.5 3 .9.9 1.9 1 3 .5-.5 1.2-.3 2.1.5 3 1.1.8 2.1 1 3.2.5z" fill="#2a2d58"/></svg>