<svg xmlns="http://www.w3.org/2000/svg" viewBox="0 0 86 80.93"><title>ICONS_nieuwwwwww</title><path d="M43.76,67h0a6.8,6.8,0,0,0-7.17,4.23H27a7.09,7.09,0,0,1-7-7.13V59.51H14.74v4.63A12.35,12.35,0,0,0,27,76.6h9.63a6.74,6.74,0,0,0,7.18,4.23,7,7,0,0,0,0-13.79ZM44,75.1a1.58,1.58,0,0,1-1.74.35,1.63,1.63,0,0,1,.61-3.13h0a1.59,1.59,0,0,1,1.47,1A1.65,1.65,0,0,1,44,75.1Z" fill="#f1b860"/><path d="M77.49,34.89A35.65,35.65,0,0,0,60,5.78a34.21,34.21,0,0,0-34.17,0A35.63,35.63,0,0,0,8.26,34.89,13.33,13.33,0,0,0,.41,47.17v1A13.52,13.52,0,0,0,13.78,61.86l6.18,0V37.32C20,28.84,24,20.93,30.6,16.69a22.67,22.67,0,0,1,24.55,0c6.56,4.24,10.64,12.15,10.64,20.63V59.12a2.65,2.65,0,0,0,1.72,2.49l.65.24h4.42a2.26,2.26,0,0,0,.52,0A13.36,13.36,0,0,0,85.34,48.43V47.15A13.35,13.35,0,0,0,77.49,34.89ZM72,39a8.9,8.9,0,0,1,6.08,3,9.2,9.2,0,0,1,1.79,8.51,9,9,0,0,1-6.09,6l-2.47.12H71V39A8.68,8.68,0,0,1,72,39ZM14.9,33.71H13.56c0-.22,0-.4,0-.44.05-.57.13-1.14.22-1.71a30.4,30.4,0,0,1,1.81-6.62,30.07,30.07,0,0,1,1.28-2.76,26.26,26.26,0,0,1,1.42-2.41c.51-.78,1.06-1.54,1.63-2.26s1.2-1.43,1.84-2.1,1.33-1.32,2-1.92S25.26,12.3,26,11.76s1.54-1.06,2.32-1.52S30,9.34,30.78,9a27.6,27.6,0,0,1,2.56-1.05c.75-.27,1.53-.5,2.31-.71a28.64,28.64,0,0,1,7.12-.89,29.32,29.32,0,0,1,17.65,5.9A30.51,30.51,0,0,1,72.17,33.7l-1.32,0a29.58,29.58,0,0,0-8.68-18.06,27.73,27.73,0,0,0-5.71-4.31,28.23,28.23,0,0,0-27.2,0A29.4,29.4,0,0,0,14.9,33.71ZM14.75,39V56.54h-.87a8.35,8.35,0,0,1-8.25-8.42v-.95a8,8,0,0,1,3.2-6.44,10.66,10.66,0,0,1,2.54-1.3,7.17,7.17,0,0,1,2.2-.45h1.18Z" fill="#2a2d58"/></svg>