<svg enable-background="new 0 0 153.5 186.2" viewBox="0 0 153.5 186.2" xmlns="http://www.w3.org/2000/svg"><path d="m6.7 84.3h30v92.1h-30z" fill="#f1b860"/><path d="m36.2 54.8h10.4v69.5h-10.4z" fill="#f1b860" transform="matrix(0 1 -1 0 130.9456 48.0894)"/><g fill="#2a2d58"><path d="m90 104.9c-.2 0-.3 0-.5 0-8.8 0-17.7 0-26.5 0-1.8 0-3.4.2-5.2.9-3.4 1.4-5.7 3.9-6.8 7.3-.5 1.4-.7 2.9-.7 4.5v49.5c0 2.3.5 4.5 2 6.4 1.6 1.8 3.4 2.9 5.9 2.9 1.6 0 2.9 0 4.3-.7 2.7-1.4 4.3-3.6 5-6.6.2-.9.2-1.6.2-2.5 0-12.5 0-25.2 0-37.7.5.2.5 0 .5-.5h.7 21.1z"/><path d="m107.8 47.5c-9.8 0-17.8 7.9-17.8 17.8v45.5c0 9.8 7.9 17.8 17.8 17.8 9.8 0 17.8-7.9 17.8-17.8v-45.5c-.1-9.8-8-17.8-17.8-17.8z"/><path d="m70.1 104.9h37.3v23.6h-37.3z"/><path d="m107.8 9.5c-9.1 0-16.3 7.5-16.3 16.3 0 9.1 7.5 16.3 16.3 16.3 9.1 0 16.3-7.5 16.3-16.3 0-9-7.3-16.3-16.3-16.3z"/></g><path d="m139.1 147.2h-50.8c-3 0-5.5-2.5-5.5-5.5s2.5-5.5 5.5-5.5h45.3v-65.4c0-3 2.5-5.5 5.5-5.5s5.5 2.5 5.5 5.5v70.9c0 3-2.4 5.5-5.5 5.5z" fill="#f1b860"/><path d="m142.6 176.4-14.9-15v-14.2h-10.1v14.2l-15 15z" fill="#f1b860"/><path d="m80.6 71.5-24.6.6c-3.4.1-6.2-2.6-6.3-6-.1-3.4 2.6-6.2 6-6.3l24.6-.6c3.4-.1 6.2 2.6 6.3 6 .1 3.4-2.6 6.2-6 6.3z" fill="#2a2d58"/><path d="m103.6 61.4-20.3 9.3c-3.1 1.4-6.8.1-8.2-3-1.4-3.1-.1-6.8 3-8.2l20.3-9.3c3.1-1.4 6.8-.1 8.2 3 1.5 3.1.1 6.8-3 8.2z" fill="#2a2d58"/><path d="m37.2 81h30.9c1.7 0 3-1.4 3-3 0-1.7-1.4-3-3-3h-30.9c-1.7 0-3 1.4-3 3 0 1.7 1.4 3 3 3z" fill="#2a2d58"/><path d="m24.8 45.2 10 30.8c.5 1.6 2.2 2.5 3.8 1.9 1.6-.5 2.5-2.2 1.9-3.8l-10-30.8c-.5-1.6-2.2-2.5-3.8-1.9-1.6.5-2.5 2.3-1.9 3.8z" fill="#2a2d58"/></svg>