<svg enable-background="new 0 0 86 80.9" viewBox="0 0 86 80.9" xmlns="http://www.w3.org/2000/svg"><path d="m44.1 39.5c-.2-1.1-.1-2.1.1-3s.6-1.7 1-2.5.9-1.5 1.5-2.1 1.1-1.2 1.6-1.8.9-1.2 1.3-1.7c.3-.6.5-1.1.5-1.7 0-1-.3-1.7-.9-2.2s-1.4-.8-2.3-.8-1.7.2-2.4.6-1.3.9-2 1.6l-3.9-3.5c1.1-1.3 2.3-2.3 3.8-3.1s3.1-1.2 4.9-1.2c1.3 0 2.6.2 3.7.5 1.2.3 2.2.8 3 1.5s1.5 1.5 2 2.5.7 2.2.7 3.6c0 1-.2 1.9-.5 2.6-.2.8-.7 1.5-1.2 2.2s-1.1 1.3-1.7 1.9-1.1 1.3-1.6 1.9c-.5.7-.9 1.4-1.2 2.1s-.4 1.6-.3 2.5h-6.1zm-1.1 7.2c0-1.3.4-2.3 1.2-3.2.8-.8 1.8-1.3 3-1.3s2.2.4 3 1.3c.8.8 1.2 1.9 1.2 3.2 0 1.2-.4 2.3-1.2 3.1s-1.8 1.3-3 1.3-2.2-.4-3-1.3c-.8-.8-1.2-1.9-1.2-3.1z" fill="#e9ba6d"/><g fill="#2a2d58"><path d="m71.5 24.7c0-.5.1-1.1.1-1.6 0-12.5-10.1-22.7-22.7-22.7-9.8 0-18.5 6.3-21.6 15.6-12.5.4-22.4 10.8-22 23.3.1 4.9 1.8 9.3 4.5 12.9-1.4.7-2.5 1.8-3.2 3.2-1.4 2.9-.6 6.3 1.8 8.3-.8.4-1.4 1.1-1.8 1.9-1.2 2.6.6 6 4 7.7 3.5 1.6 7.3.9 8.5-1.7.5-1 .5-2.2.1-3.4 3.4 1.6 7.5.1 9.2-3.3.6-1.2.7-2.4.6-3.6h4.2 23.5.3 6.2 2.7c10.4 0 18.8-8.4 18.8-18.8 0-8.1-5.3-15.4-13.2-17.8zm6.7 19.6c-.8 6.1-6 10.7-12.2 10.7h-2.7-6.3-23.5c-.1 0-.2 0-.3 0h-5c-9 0-16.3-7.3-16.3-16.3s7.3-16.3 16.3-16.3c.4 0 .8 0 1.2.1h.2c1.6.2 3.2-.9 3.4-2.6 1.8-8.8 10.4-14.5 19.2-12.6s14.5 10.4 12.6 19.2c-.2.9 0 1.8.5 2.5s1.3 1.2 2.2 1.3c6.8 1 11.6 7.2 10.7 14z"/><path d="m7 72.6c-2.5-1.2-5.2-.6-6.1 1.2-.9 1.9.4 4.3 2.9 5.5s5.2.6 6.1-1.2c.8-1.9-.4-4.3-2.9-5.5z"/></g></svg>