<svg xmlns="http://www.w3.org/2000/svg" viewBox="0 0 86 80.93"><title>ICONS_nieuwwwwww</title><path d="M71.63,29.6c0-.57.06-1.14.06-1.69a24.57,24.57,0,0,0-47.92-7.68,24.58,24.58,0,0,0,.9,49.15h5.39a3.48,3.48,0,1,0,0-6.95h-5.4a17.63,17.63,0,0,1,0-35.26c.42,0,.85,0,1.27.06h.19a3.37,3.37,0,0,0,3.72-2.79A17.62,17.62,0,1,1,64.35,31.6a3.53,3.53,0,0,0,.58,2.73,3.48,3.48,0,0,0,2.39,1.42,13.4,13.4,0,0,1-1.76,26.68H55.94a3.48,3.48,0,1,0,0,6.95h9.62A20.35,20.35,0,0,0,71.63,29.6Z" fill="#2a2d58"/><path d="M55.31,58.92a3.41,3.41,0,0,0,1-2.46,3.48,3.48,0,0,0-1-2.46l-9.87-9.86a3.46,3.46,0,0,0-1.13-.76,3.5,3.5,0,0,0-2.64,0,3.45,3.45,0,0,0-1.14.76L30.68,54a3.49,3.49,0,0,0,0,4.92,3.45,3.45,0,0,0,2.45,1h0a3.45,3.45,0,0,0,2.46-1L39.52,55V77.38a3.48,3.48,0,1,0,6.95,0V55l3.93,3.93A3.48,3.48,0,0,0,55.31,58.92Z" fill="#2a2d58"/></svg>