<svg xmlns="http://www.w3.org/2000/svg" viewBox="0 0 86 80.93"><title>ICONS_nieuwwwwww</title><path d="M43.4,64.14A23.6,23.6,0,1,1,67,40.54,23.62,23.62,0,0,1,43.4,64.14Zm0-42.2A18.6,18.6,0,1,0,62,40.54,18.62,18.62,0,0,0,43.4,21.94Z" fill="#f1b860"/><rect x="19.12" y="4.44" width="6.51" height="3.88" fill="#f1b860"/><rect x="27.01" y="4.44" width="6.51" height="3.88" fill="#f1b860"/><rect x="53.28" y="4.44" width="6.5" height="3.88" fill="#f1b860"/><rect x="61.16" y="4.44" width="6.51" height="3.88" fill="#f1b860"/><rect x="19.12" y="72.76" width="6.51" height="3.88" fill="#f1b860"/><rect x="27.01" y="72.76" width="6.51" height="3.88" fill="#f1b860"/><rect x="53.28" y="72.76" width="6.5" height="3.88" fill="#f1b860"/><rect x="61.16" y="72.76" width="6.51" height="3.88" fill="#f1b860"/><rect x="7.3" y="16.27" width="3.88" height="6.51" fill="#f1b860"/><rect x="7.3" y="24.15" width="3.88" height="6.5" fill="#f1b860"/><rect x="7.3" y="50.42" width="3.88" height="6.5" fill="#f1b860"/><rect x="7.3" y="58.31" width="3.88" height="6.51" fill="#f1b860"/><rect x="75.61" y="16.27" width="3.88" height="6.51" fill="#f1b860"/><rect x="75.61" y="24.15" width="3.88" height="6.5" fill="#f1b860"/><rect x="75.61" y="50.42" width="3.88" height="6.5" fill="#f1b860"/><rect x="75.61" y="58.31" width="3.88" height="6.51" fill="#f1b860"/><path d="M15.12,3.75A3.26,3.26,0,0,0,11.87.5H6.61A3.26,3.26,0,0,0,3.36,3.75V9a3.26,3.26,0,0,0,3.25,3.25H7.3v2.63h3.88V12.26h.69A3.26,3.26,0,0,0,15.12,9V8.32h2.63V4.44H15.12ZM9.24,8.38a2,2,0,1,1,2-2A2,2,0,0,1,9.24,8.38Z" fill="#2a2d58"/><path d="M49.28,3.75A3.26,3.26,0,0,0,46,.5H40.77a3.26,3.26,0,0,0-3.25,3.25v.69H34.89V8.32h2.63V9a3.26,3.26,0,0,0,3.25,3.25H46A3.26,3.26,0,0,0,49.28,9V8.32h2.63V4.44H49.28ZM43.4,8.38a2,2,0,1,1,2-2A2,2,0,0,1,43.4,8.38Z" fill="#2a2d58"/><path d="M49.28,72.07A3.26,3.26,0,0,0,46,68.82H40.77a3.26,3.26,0,0,0-3.25,3.25v.69H34.89v3.87h2.63v.69a3.26,3.26,0,0,0,3.25,3.26H46a3.26,3.26,0,0,0,3.26-3.26v-.69h2.63V72.76H49.28ZM43.4,76.7a2,2,0,1,1,2-2A2,2,0,0,1,43.4,76.7Z" fill="#2a2d58"/><path d="M80.18.5H74.93a3.26,3.26,0,0,0-3.26,3.25v.69H69.05V8.32h2.62V9a3.26,3.26,0,0,0,3.26,3.25h.68v2.63h3.88V12.26h.69A3.26,3.26,0,0,0,83.43,9V3.75A3.26,3.26,0,0,0,80.18.5ZM77.55,8.38a2,2,0,1,1,2-2A2,2,0,0,1,77.55,8.38Z" fill="#2a2d58"/><path d="M15.12,72.07a3.26,3.26,0,0,0-3.25-3.25h-.69V66.19H7.3v2.63H6.61a3.26,3.26,0,0,0-3.25,3.25v5.25a3.26,3.26,0,0,0,3.25,3.26h5.26a3.26,3.26,0,0,0,3.25-3.26v-.69h2.63V72.76H15.12ZM9.24,76.7a2,2,0,1,1,2-2A2,2,0,0,1,9.24,76.7Z" fill="#2a2d58"/><path d="M6.61,46.42H7.3v2.63h3.88V46.42h.69a3.26,3.26,0,0,0,3.25-3.25V37.91a3.26,3.26,0,0,0-3.25-3.25h-.69V32H7.3v2.63H6.61a3.26,3.26,0,0,0-3.25,3.25v5.26A3.26,3.26,0,0,0,6.61,46.42Zm2.63-7.88a2,2,0,1,1-2,2A2,2,0,0,1,9.24,38.54Z" fill="#2a2d58"/><path d="M80.18,34.66h-.69V32H75.62v2.63h-.69a3.26,3.26,0,0,0-3.26,3.25v5.26a3.26,3.26,0,0,0,3.26,3.25h.69v2.63h3.87V46.42h.69a3.26,3.26,0,0,0,3.25-3.25V37.91A3.26,3.26,0,0,0,80.18,34.66Zm-2.62,7.88a2,2,0,1,1,2-2A2,2,0,0,1,77.56,42.54Z" fill="#2a2d58"/><path d="M80.18,68.82h-.69V66.19H75.62v2.63h-.69a3.26,3.26,0,0,0-3.26,3.25v.69H69.05v3.87h2.62v.69a3.27,3.27,0,0,0,3.26,3.26h5.25a3.26,3.26,0,0,0,3.25-3.26V72.07A3.26,3.26,0,0,0,80.18,68.82ZM77.56,76.7a2,2,0,1,1,2-2A2,2,0,0,1,77.56,76.7Z" fill="#2a2d58"/><path d="M54.56,29.25a5,5,0,0,0-7.09,0L33.16,43.56,32,51.78l8.21-1.12L54.59,36.32A5.17,5.17,0,0,0,54.56,29.25ZM36.1,47.69l.31-2.56,10-10,2.16,2.16-9.87,10Zm16-13.84-1.07,1.06L48.9,32.75,50,31.66a1.48,1.48,0,0,1,2.16,0A1.59,1.59,0,0,1,52.14,33.85Z" fill="#2a2d58"/></svg>