<svg xmlns="http://www.w3.org/2000/svg" viewBox="0 0 98.57 63.49"><title>ICONS_nieuwwwwww</title><path d="M48.51,40.24A10.52,10.52,0,1,1,59,29.73,10.52,10.52,0,0,1,48.51,40.24Zm0-18.8a8.29,8.29,0,1,0,8.29,8.29A8.3,8.3,0,0,0,48.51,21.44Z" fill="#f1b860"/><rect x="37.69" y="13.65" width="2.9" height="1.73" fill="#f1b860"/><rect x="41.21" y="13.65" width="2.9" height="1.73" fill="#f1b860"/><rect x="52.91" y="13.65" width="2.9" height="1.73" fill="#f1b860"/><rect x="56.42" y="13.65" width="2.9" height="1.73" fill="#f1b860"/><rect x="37.69" y="44.08" width="2.9" height="1.73" fill="#f1b860"/><rect x="41.21" y="44.08" width="2.9" height="1.73" fill="#f1b860"/><rect x="52.91" y="44.08" width="2.9" height="1.73" fill="#f1b860"/><rect x="56.42" y="44.08" width="2.9" height="1.73" fill="#f1b860"/><rect x="32.43" y="18.91" width="1.73" height="2.9" fill="#f1b860"/><rect x="32.43" y="22.43" width="1.73" height="2.9" fill="#f1b860"/><rect x="32.43" y="34.13" width="1.73" height="2.9" fill="#f1b860"/><rect x="32.43" y="37.64" width="1.73" height="2.9" fill="#f1b860"/><rect x="62.86" y="18.91" width="1.73" height="2.9" fill="#f1b860"/><rect x="62.86" y="22.43" width="1.73" height="2.9" fill="#f1b860"/><rect x="62.86" y="34.13" width="1.73" height="2.9" fill="#f1b860"/><rect x="62.86" y="37.64" width="1.73" height="2.9" fill="#f1b860"/><path d="M35.91,13.34a1.45,1.45,0,0,0-1.45-1.45H32.12a1.45,1.45,0,0,0-1.45,1.45v2.34a1.45,1.45,0,0,0,1.45,1.45h.31V18.3h1.72V17.13h.31a1.45,1.45,0,0,0,1.45-1.45v-.31h1.17V13.65H35.91ZM33.29,15.4a.89.89,0,1,1,.89-.89A.89.89,0,0,1,33.29,15.4Z" fill="#2a2d58"/><path d="M51.13,13.34a1.45,1.45,0,0,0-1.45-1.45H47.34a1.45,1.45,0,0,0-1.45,1.45v.31H44.72v1.72h1.17v.31a1.45,1.45,0,0,0,1.45,1.45h2.34a1.45,1.45,0,0,0,1.45-1.45v-.31H52.3V13.65H51.13ZM48.51,15.4a.89.89,0,1,1,.89-.89A.89.89,0,0,1,48.51,15.4Z" fill="#2a2d58"/><path d="M51.13,43.77a1.45,1.45,0,0,0-1.45-1.44H47.34a1.45,1.45,0,0,0-1.45,1.44v.31H44.72v1.73h1.17v.31a1.46,1.46,0,0,0,1.45,1.45h2.34a1.46,1.46,0,0,0,1.45-1.45v-.31H52.3V44.08H51.13Zm-2.62,2.07A.9.9,0,1,1,49.4,45,.89.89,0,0,1,48.51,45.84Z" fill="#2a2d58"/><path d="M64.9,11.89H62.56a1.45,1.45,0,0,0-1.45,1.45v.31H59.94v1.72h1.17v.31a1.45,1.45,0,0,0,1.45,1.45h.3V18.3h1.73V17.13h.31a1.45,1.45,0,0,0,1.45-1.45V13.34A1.45,1.45,0,0,0,64.9,11.89ZM63.73,15.4a.89.89,0,1,1,.89-.89A.89.89,0,0,1,63.73,15.4Z" fill="#2a2d58"/><path d="M35.91,43.77a1.45,1.45,0,0,0-1.45-1.44h-.31V41.15H32.43v1.18h-.31a1.45,1.45,0,0,0-1.45,1.44v2.35a1.46,1.46,0,0,0,1.45,1.45h2.34a1.46,1.46,0,0,0,1.45-1.45v-.31h1.17V44.08H35.91Zm-2.62,2.07a.9.9,0,1,1,.89-.89A.89.89,0,0,1,33.29,45.84Z" fill="#2a2d58"/><path d="M32.12,32.35h.31v1.17h1.72V32.35h.31a1.45,1.45,0,0,0,1.45-1.45V28.56a1.45,1.45,0,0,0-1.45-1.45h-.31V25.94H32.43v1.17h-.31a1.45,1.45,0,0,0-1.45,1.45V30.9A1.45,1.45,0,0,0,32.12,32.35Zm1.17-3.51a.89.89,0,1,1-.89.89A.89.89,0,0,1,33.29,28.84Z" fill="#2a2d58"/><path d="M64.9,27.11h-.31V25.94H62.86v1.17h-.3a1.45,1.45,0,0,0-1.45,1.45V30.9a1.45,1.45,0,0,0,1.45,1.45h.3v1.17h1.73V32.35h.31a1.45,1.45,0,0,0,1.45-1.45V28.56A1.45,1.45,0,0,0,64.9,27.11Zm-1.17,3.51a.89.89,0,1,1,.89-.89A.89.89,0,0,1,63.73,30.62Z" fill="#2a2d58"/><path d="M64.9,42.33h-.31V41.15H62.86v1.18h-.3a1.45,1.45,0,0,0-1.45,1.44v.31H59.94v1.73h1.17v.31a1.46,1.46,0,0,0,1.45,1.45H64.9a1.46,1.46,0,0,0,1.45-1.45V43.77A1.45,1.45,0,0,0,64.9,42.33Zm-1.17,3.51a.9.9,0,1,1,.89-.89A.89.89,0,0,1,63.73,45.84Z" fill="#2a2d58"/><path d="M53.48,24.7a2.2,2.2,0,0,0-3.16,0L44,31.08l-.5,3.66,3.66-.5,6.39-6.39A2.31,2.31,0,0,0,53.48,24.7Zm-8.22,8.21.14-1.14,4.44-4.44,1,1-4.4,4.45Zm7.14-6.17-.47.48-1-1,.49-.49a.68.68,0,0,1,.48-.21.69.69,0,0,1,.47,1.18Z" fill="#2a2d58"/><path d="M96.09,52.68h-6.3V9a9,9,0,0,0-9-9h-63a9,9,0,0,0-9,9V52.68H3.18A3.19,3.19,0,0,0,.8,53.76,3.23,3.23,0,0,0,0,56.32a8.3,8.3,0,0,0,8.2,7.17H90.3a8.31,8.31,0,0,0,8.27-8.33A2.49,2.49,0,0,0,96.09,52.68ZM13.69,9A4.08,4.08,0,0,1,17.77,5h63A4.09,4.09,0,0,1,84.84,9V52.68H13.69Z" fill="#2a2d58"/></svg>