<svg viewBox="0 0 31.98 38.01" xmlns="http://www.w3.org/2000/svg"><rect fill="none" height="36.01" rx="2.71" stroke="#2a2d58" stroke-linecap="round" stroke-miterlimit="10" stroke-width="2" width="27.75" x="3.23" y="1"/><path d="m11.46 10.33h10.35" fill="none" stroke="#f1b860" stroke-linecap="round" stroke-miterlimit="10" stroke-width="2"/><path d="m27 32.31h-2a1 1 0 0 1 0-2h2a1 1 0 0 1 0 2zm0 4.42h-2a1 1 0 0 1 0-2h2a1 1 0 0 1 0 2zm0 4.42h-2a1 1 0 0 1 0-2h2a1 1 0 0 1 0 2zm0 4.41h-2a1 1 0 0 1 0-2h2a1 1 0 0 1 0 2zm0 4.44h-2a1 1 0 0 1 0-2h2a1 1 0 0 1 0 2zm0 4.4h-2a1 1 0 0 1 0-2h2a1 1 0 0 1 0 2zm0 4.41h-2a1 1 0 0 1 0-2h2a1 1 0 0 1 0 2z" fill="#2a2d58" transform="translate(-24.18 -25.57)"/><path d="m11.46 15.71h10.35m-10.35 5.37h10.35" fill="none" stroke="#f1b860" stroke-linecap="round" stroke-miterlimit="10" stroke-width="2"/></svg>