<svg viewBox="0 0 37.83 47.41" xmlns="http://www.w3.org/2000/svg"><path d="m34.24 11.21v16.88a.68.68 0 0 0 .68.68h.18a.67.67 0 0 0 .68-.68v-18.26a2.94 2.94 0 0 0 -.86-2.07l-6.43-6.5a2.91 2.91 0 0 0 -2.08-.87h-24.55a1.49 1.49 0 0 0 -1.5 1.49v43.66a1.49 1.49 0 0 0 1.48 1.5h19.26a.67.67 0 0 0 .68-.68v-.19a.67.67 0 0 0 -.68-.68h-17.74a1.49 1.49 0 0 1 -1.48-1.5v-40.56a1.49 1.49 0 0 1 1.48-1.5h21.7a1.49 1.49 0 0 1 1.48 1.5v4.78a1.5 1.5 0 0 0 1.49 1.55h4.73a1.49 1.49 0 0 1 1.48 1.45z" fill="#2a2d58" stroke="#2a2d58" stroke-miterlimit="10" stroke-width=".75"/><path d="m60.54 41.21a.7.7 0 0 0 -.69-.7h-4.19a.7.7 0 0 0 0 1.4h4.19a.69.69 0 0 0 .69-.7zm-.69-9.74h-5.59a.7.7 0 0 0 0 1.4h5.59a.7.7 0 0 0 0-1.4zm-7.68.7a.7.7 0 0 0 -.7-.7h-4.18a.7.7 0 0 0 0 1.4h4.18a.7.7 0 0 0 .7-.7zm-4.88-3.49h7a.7.7 0 1 0 0-1.4h-7a.7.7 0 1 0 0 1.4zm.4 9.04h10.63c.58 0 1.06-.31 1.06-.69s-.48-.7-1.06-.7h-10.63c-.59 0-1.07.31-1.07.7s.48.69 1.07.69zm8.21 7.65c-.52 0-.94.32-.94.7s.42.7.94.7h1.88c.52 0 .94-.31.94-.7s-.42-.7-.94-.7zm-3.03-4.86h-5.58a.7.7 0 0 0 0 1.4h5.58a.7.7 0 0 0 0-1.4zm0 4.86h-5.58a.7.7 0 0 0 0 1.4h5.58a.7.7 0 0 0 0-1.4zm0 4.19h-5.58a.7.7 0 1 0 0 1.39h5.58a.7.7 0 1 0 0-1.39z" fill="#f1b860" transform="translate(-31.64 -15.24)"/><path d="m39.82 50.61a.64.64 0 0 0 .49.22h.07a.68.68 0 0 0 .51-.31l2.79-4.18a.69.69 0 0 0 -.2-1 .68.68 0 0 0 -1 .19l-2.29 3.47-.79-.79a.68.68 0 0 0 -.5-.22.7.7 0 0 0 -.51.2.73.73 0 0 0 -.2.51.66.66 0 0 0 .22.49zm0-17.95a.69.69 0 0 0 .49.21h.07a.71.71 0 0 0 .51-.31l2.79-4.19a.7.7 0 0 0 -1.16-.77l-2.33 3.48-.79-.8a.7.7 0 0 0 -1 0 .69.69 0 0 0 0 1zm0 9.04a.65.65 0 0 0 .49.21h.07a.68.68 0 0 0 .51-.31l2.79-4.18a.7.7 0 0 0 -1.16-.78l-2.33 3.48-.79-.79a.69.69 0 0 0 -1 0 .68.68 0 0 0 0 1zm24.54 5.4-8.77 10.11-.32 4.84 4.75-1 8.78-10.11a3 3 0 0 0 -.3-4.14 2.9 2.9 0 0 0 -4.14.3zm-5.1 12.55-2.37.54.11-2.42 6.55-7.55 2.18 1.89zm8.44-9.72-.94 1.07-2.18-1.89.94-1.11a1.41 1.41 0 0 1 2-.15 1.48 1.48 0 0 1 .18 2.08z" fill="#2a2d58" transform="translate(-31.64 -15.24)"/><path d="m25.26 41.43 3.75 3.25" fill="none" stroke="#2a2d58" stroke-miterlimit="10" stroke-width="2"/></svg>