<svg viewBox="0 0 49.43 60.31" xmlns="http://www.w3.org/2000/svg"><path d="m6.13 21.2h8.45m-8.15-5h3.85" fill="none" stroke="#f1b860" stroke-linecap="round" stroke-miterlimit="10" stroke-width="2"/><g transform="translate(-26 -6.69)"><path d="m63.28 27.7a8.85 8.85 0 1 0 -8.85-8.85 8.86 8.86 0 0 0 8.85 8.85zm0-16a7.16 7.16 0 1 1 -7.16 7.16 7.17 7.17 0 0 1 7.16-7.17z" fill="#f1b860"/><path d="m61.63 18.24a1.44 1.44 0 1 0 0-2.87 1.44 1.44 0 0 0 0 2.87zm0-2.08a.65.65 0 0 1 .66.66.64.64 0 0 1 -.66.64.66.66 0 0 1 -.63-.66.64.64 0 0 1 .63-.64zm3.85 3.47a1.44 1.44 0 1 0 1.44 1.43 1.43 1.43 0 0 0 -1.44-1.43zm0 2.08a.66.66 0 1 1 .66-.66.65.65 0 0 1 -.66.66zm1.44-6.13a.46.46 0 0 0 -.67 0l-6 6a.46.46 0 0 0 0 .67.46.46 0 0 0 .66 0l6-6a.47.47 0 0 0 0-.66zm-20.32 27.93 4.68-3.4a2.16 2.16 0 0 0 1.23.38 2.18 2.18 0 1 0 -2.18-2.18 2.12 2.12 0 0 0 .1.62l-4.68 3.4a2.19 2.19 0 0 0 -1.24-.33 2.11 2.11 0 0 0 -1.14.33l-4.07-3.33a2.35 2.35 0 0 0 .13-.71 2.19 2.19 0 0 0 -4.37 0 2.14 2.14 0 0 0 .94 1.76l-1.71 5.54a2.18 2.18 0 1 0 2.28 2.17 2.15 2.15 0 0 0 -.94-1.76l1.71-5.54a2.12 2.12 0 0 0 1-.32l4.07 3.26a2.08 2.08 0 0 0 -.13.71 2.18 2.18 0 0 0 4.36 0 2.51 2.51 0 0 0 -.09-.62zm5.91-5.93a.73.73 0 1 1 -.73.73.73.73 0 0 1 .73-.73zm-18.17 10.91a.73.73 0 1 1 0-1.46.73.73 0 0 1 0 1.46zm2.9-9.49a.73.73 0 0 1 0-1.46.73.73 0 1 1 0 1.46zm7.27 5.81a.72.72 0 0 1 -.72-.72.73.73 0 0 1 .72-.73.73.73 0 0 1 .73.73.73.73 0 0 1 -.73.76z" fill="#2a2d58"/><path d="m27.71 58.47h30.69v-29.61a11.08 11.08 0 0 1 -6.19-11.31h-24.5z" fill="none"/><path d="m59.25 60.18h-28.13v1.7h30.69v-32a10.59 10.59 0 0 1 -1.71-.36v29.8a.85.85 0 0 1 -.85.86z" fill="none"/><path d="m62.66 63.59h-28.13v1.7h30.69v-35.47a10.77 10.77 0 0 1 -1.71.17v32.75a.85.85 0 0 1 -.85.85z" fill="none"/><path d="m64.71 65.29h-29.71a.5.5 0 0 1 -.5-.5v-.69a.5.5 0 0 1 .5-.51h27.15a1.36 1.36 0 0 0 1.36-1.36v-32.23h-.23c-.31 0-.62 0-.92-.05a.51.51 0 0 0 -.55.51v30.92a.5.5 0 0 1 -.51.5h-29.68a.5.5 0 0 1 -.5-.5v-.69a.5.5 0 0 1 .5-.51h27.12a1.36 1.36 0 0 0 1.36-1.36v-28.92a.5.5 0 0 0 -.35-.48c-.22-.07-.45-.16-.66-.25a.5.5 0 0 0 -.69.47v28.36a.5.5 0 0 1 -.51.5h-29.68a.5.5 0 0 1 -.5-.5v-39.94a.5.5 0 0 1 .5-.51h23.55a.52.52 0 0 0 .51-.45c0-.22.08-.43.13-.64a.51.51 0 0 0 -.5-.61h-24.54a1.36 1.36 0 0 0 -1.36 1.36v41.61a1.36 1.36 0 0 0 1.36 1.36h1.54a.51.51 0 0 1 .51.51v1.54a1.36 1.36 0 0 0 1.36 1.36h1.54a.51.51 0 0 1 .51.51v1.54a1.36 1.36 0 0 0 1.36 1.36h31.38a1.36 1.36 0 0 0 1.36-1.36v-35.57a.5.5 0 0 0 -.63-.49l-.66.16a.5.5 0 0 0 -.41.5v34.55a.5.5 0 0 1 -.51.5z" fill="#2a2d58"/><path d="m74.43 18.85a11.14 11.14 0 0 0 -21.88-3 10.66 10.66 0 0 0 -.34 1.7 11.08 11.08 0 0 0 6.19 11.31 10 10 0 0 0 1.7.67 10.59 10.59 0 0 0 1.71.36 10.17 10.17 0 0 0 1.47.11h.23a11.28 11.28 0 0 0 3.41-.61 11.14 11.14 0 0 0 7.51-10.54z" fill="none" stroke="#f1b860" stroke-linecap="round" stroke-miterlimit="10" stroke-width="2"/></g></svg>