<svg viewBox="0 0 33.31 33.31" xmlns="http://www.w3.org/2000/svg"><path d="m31.7 24.02a.55.55 0 0 1 0-.33 16.38 16.38 0 0 0 1.55-7.43 16.66 16.66 0 1 0 -33.23 2c.68 7.24 7.6 14.23 14.82 15a17.09 17.09 0 0 0 1.75.09 16.64 16.64 0 0 0 7.12-1.59.51.51 0 0 1 .34-.06l5.48.8a2.53 2.53 0 0 0 2.13-.7 2.49 2.49 0 0 0 .72-2.12zm-1.09 5.86a.61.61 0 0 1 -.19.53.64.64 0 0 1 -.53.18l-5.47-.8a2.52 2.52 0 0 0 -1.43.22 14.79 14.79 0 0 1 -7.87 1.33c-6.39-.65-12.53-6.85-13.13-13.27a14.62 14.62 0 0 1 3.88-11.46 14.89 14.89 0 0 1 14.14-4.33 15.07 15.07 0 0 1 10.19 8.55 14.33 14.33 0 0 1 1.22 5.47 14.64 14.64 0 0 1 -1.37 6.64 2.42 2.42 0 0 0 -.22 1.37zm-20.4-16.14a.94.94 0 0 1 .94-.94h7.86a.95.95 0 0 1 0 1.89h-7.86a1 1 0 0 1 -.94-.95zm12.89 5.83a1 1 0 0 1 -1 .94h-11a.94.94 0 0 1 0-1.88h11a1 1 0 0 1 1 .94z" fill="#2a2d58"/></svg>