<svg viewBox="0 0 36.4 31.52" xmlns="http://www.w3.org/2000/svg"><g transform="translate(-13.05 -17.93)"><path d="m43 21.66-.62-.95a3.92 3.92 0 0 0 -5.43-1.14l-21.12 13.75a3.92 3.92 0 0 0 -1.14 5.43l.61 1zm-25.57 20.83 2.73 4.19a3.93 3.93 0 0 0 5.43 1.14l21.08-13.76a3.93 3.93 0 0 0 1.14-5.43l-2.73-4.18z" fill="none" stroke="#2a2d58" stroke-miterlimit="10" stroke-width="2"/><path d="m43.66 33.36a1.93 1.93 0 0 1 -1.56.24 1.91 1.91 0 0 1 -.85 1.33 1.94 1.94 0 1 1 -2.12-3.25 1.93 1.93 0 0 1 1.56-.24 1.91 1.91 0 0 1 .85-1.33 1.94 1.94 0 1 1 2.12 3.25z" fill="#f1b860"/></g></svg>