<svg viewBox="0 0 34.65 45.19" xmlns="http://www.w3.org/2000/svg"><g transform="translate(-36.61 -19.85)"><path d="m46.41 29.31a2.33 2.33 0 0 0 .9-2.18 2.35 2.35 0 0 0 -2-2 2.33 2.33 0 0 0 -2.58 2.32 2.36 2.36 0 0 0 .91 1.86 2.9 2.9 0 0 0 -2.19 2.81v2.89h7.21v-2.85a2.9 2.9 0 0 0 -2.2-2.81s-.06-.03-.05-.04z" fill="#2a2d58"/><path d="m70.83 27.39-7.12-7.12a1.49 1.49 0 0 0 -1-.42h-24.65a1.45 1.45 0 0 0 -1.45 1.45v42.29a1.45 1.45 0 0 0 1.45 1.41h31.74a1.45 1.45 0 0 0 1.45-1.45v-35.13a1.49 1.49 0 0 0 -.42-1.03zm-1.08 34.69a1.45 1.45 0 0 1 -1.46 1.45h-28.72a1.45 1.45 0 0 1 -1.46-1.45v-39.27a1.46 1.46 0 0 1 1.46-1.46h21.19a1.46 1.46 0 0 1 1.46 1.46v4.62a1.45 1.45 0 0 0 1.45 1.46h4.62a1.45 1.45 0 0 1 1.46 1.45z" fill="#2a2d58"/><path d="m52.31 24.37h.23a.64.64 0 0 1 .64.63v.24a.64.64 0 0 1 -.64.63h-.23a.64.64 0 0 1 -.64-.63v-.24a.64.64 0 0 1 .64-.63zm.11 3.01h7.58a.76.76 0 0 1 .75.75.76.76 0 0 1 -.75.76h-7.58a.76.76 0 0 1 -.75-.76.76.76 0 0 1 .75-.75zm2.25-3.01h5.16c.28 0 .51.33.51.75s-.23.75-.51.75h-5.16c-.28 0-.51-.33-.51-.75s.23-.75.51-.75zm11.33 6.02h-13.58a.76.76 0 0 0 0 1.51h13.58a.76.76 0 0 0 0-1.51zm-13.58 3.14h13.58a.75.75 0 0 1 .75.75.75.75 0 0 1 -.75.72h-13.58a.76.76 0 0 1 -.75-.76.76.76 0 0 1 .75-.71zm-7.53 6.65a2.26 2.26 0 1 0 2.26 2.26 2.27 2.27 0 0 0 -2.26-2.26zm0 3a.76.76 0 0 1 -.53-1.29.74.74 0 0 1 .82-.16.75.75 0 0 1 .47.69.75.75 0 0 1 -.76.76zm0 4.54a2.26 2.26 0 1 0 2.26 2.28 2.26 2.26 0 0 0 -2.26-2.28zm0 3a.74.74 0 0 1 -.69-.47.75.75 0 1 1 1.45-.25.77.77 0 0 1 -.22.54.79.79 0 0 1 -.54.22zm0 4.53a2.26 2.26 0 1 0 .87 4.34 2.26 2.26 0 0 0 -.87-4.34zm0 3a.74.74 0 0 1 -.69-.47.75.75 0 1 1 1.23.25.79.79 0 0 1 -.54.22zm7.43-16.59h13.82a.71.71 0 0 1 .63.75.7.7 0 0 1 -.63.75h-13.82a.69.69 0 0 1 -.63-.75.7.7 0 0 1 .63-.75zm0 8.28h13.82a.71.71 0 0 1 .63.76.71.71 0 0 1 -.63.75h-13.82a.7.7 0 0 1 -.63-.75.7.7 0 0 1 .63-.76zm0 7.53h13.82a.71.71 0 0 1 .63.76.71.71 0 0 1 -.63.75h-13.82a.7.7 0 0 1 -.63-.75.7.7 0 0 1 .63-.76z" fill="#f1b860"/></g></svg>