<svg viewBox="0 0 69.96 44.54" xmlns="http://www.w3.org/2000/svg"><g transform="translate(-14 -16.55)"><g fill="#2a2d58"><path d="m57.77 45.79h-6.55a.57.57 0 0 0 -.56.57.56.56 0 0 0 .56.56h6.55a.56.56 0 0 0 .56-.56.57.57 0 0 0 -.56-.57z"/><path d="m82.9 54.72h-4.79a.51.51 0 0 1 -.51-.51v-31.85a5.82 5.82 0 0 0 -5.82-5.81h-45.64a5.81 5.81 0 0 0 -5.81 5.81v31.85a.51.51 0 0 1 -.51.51h-4.25a1.59 1.59 0 0 0 -1.57 1.81 5.28 5.28 0 0 0 5.22 4.56h59.48a5.28 5.28 0 0 0 5.3-5.31 1.07 1.07 0 0 0 -1.06-1.06zm-60.45-32.36a3.7 3.7 0 0 1 3.7-3.7h45.63a3.7 3.7 0 0 1 3.7 3.7v31.85a.51.51 0 0 1 -.52.51h-51.96a.51.51 0 0 1 -.51-.51zm56.25 36.64h-59.47a3.13 3.13 0 0 1 -2.54-1.3.52.52 0 0 1 .42-.82h63.72a.51.51 0 0 1 .41.82 3.13 3.13 0 0 1 -2.54 1.3z"/><path d="m70.92 21.63h-43.92a1.51 1.51 0 0 0 -1.51 1.51v27.57a1.51 1.51 0 0 0 1.51 1.51h43.92a1.51 1.51 0 0 0 1.51-1.51v-27.57a1.51 1.51 0 0 0 -1.51-1.51zm-1 28.55h-41.86a.49.49 0 0 1 -.49-.49v-25.53a.49.49 0 0 1 .49-.49h41.84a.49.49 0 0 1 .49.49v25.53a.49.49 0 0 1 -.49.49z"/><path d="m54.49 28.9a4.71 4.71 0 0 0 -4.7 4.71v1.66a1.57 1.57 0 0 0 -1 1.47v6.26a1.57 1.57 0 0 0 1.57 1.57h8.36a1.57 1.57 0 0 0 1.52-1.57v-6.26a1.57 1.57 0 0 0 -1-1.47v-1.66a4.71 4.71 0 0 0 -4.71-4.71zm0 1.05a3.66 3.66 0 0 1 3.66 3.66v1.57h-1v-1.57a2.62 2.62 0 0 0 -5.23 0v1.57h-1.09v-1.57a3.67 3.67 0 0 1 3.66-3.61zm1.57 5.23h-3.14v-1.57a1.57 1.57 0 0 1 3.14 0zm3.14 7.82a.53.53 0 0 1 -.53.52h-8.36a.52.52 0 0 1 -.52-.52v-6.26a.52.52 0 0 1 .52-.52h8.36a.53.53 0 0 1 .53.52z"/></g><path d="m54.49 37.27a1.56 1.56 0 0 0 -.52 3v2.18h1v-2.14a1.58 1.58 0 0 0 1.05-1.48 1.56 1.56 0 0 0 -1.53-1.56zm0 2.09a.53.53 0 1 1 .52-.53.52.52 0 0 1 -.52.53zm-8.88-8.89a1.57 1.57 0 0 0 -3.14 0 1.56 1.56 0 0 0 1.05 1.47v3.24a1.56 1.56 0 0 0 1.57 1.56h2.61v-1h-2.61a.53.53 0 0 1 -.53-.52v-3.28a1.56 1.56 0 0 0 1.05-1.47zm-1.61-.47a.52.52 0 1 1 -.52.52.52.52 0 0 1 .52-.52z" fill="#f1b860"/><path d="m41.43 33.61a1.57 1.57 0 1 0 -2.09 1.47v2.19a2.61 2.61 0 0 0 2.66 2.61h5.7v-1.05h-5.7a1.56 1.56 0 0 1 -1.57-1.56v-2.19a1.57 1.57 0 0 0 1-1.47zm-1.57-.52a.52.52 0 1 1 -.52.52.52.52 0 0 1 .52-.52z" fill="#f1b860"/><path d="m37.25 36.74a1.57 1.57 0 1 0 -2.09 1.47v1.15a3.67 3.67 0 0 0 3.65 3.64h8.89v-1h-8.89a2.61 2.61 0 0 1 -2.61-2.61v-1.18a1.56 1.56 0 0 0 1-1.47zm-1.57-.52a.53.53 0 1 1 -.52.52.52.52 0 0 1 .52-.52z" fill="#f1b860"/></g></svg>