<svg viewBox="0 0 73.07 46.52" xmlns="http://www.w3.org/2000/svg"><g transform="translate(-13 -13.09)"><path d="m85 53h-5a.54.54 0 0 1 -.54-.53v-33.31a6.07 6.07 0 0 0 -6.07-6.07h-47.71a6.07 6.07 0 0 0 -6.07 6.07v33.27a.53.53 0 0 1 -.53.53h-4.44a1.65 1.65 0 0 0 -1.64 1.89 5.5 5.5 0 0 0 5.44 4.76h62.14a5.5 5.5 0 0 0 5.49-5.54 1.11 1.11 0 0 0 -1.07-1.07zm-63.17-33.84a3.86 3.86 0 0 1 3.86-3.86h47.66a3.86 3.86 0 0 1 3.86 3.86v33.27a.53.53 0 0 1 -.53.53h-54.32a.53.53 0 0 1 -.53-.53zm58.75 38.23h-62.12a3.25 3.25 0 0 1 -2.65-1.39.54.54 0 0 1 .43-.85h66.56a.53.53 0 0 1 .43.85 3.24 3.24 0 0 1 -2.66 1.36z" fill="#2a2d58"/><path d="m72.45 18.4h-45.83a1.58 1.58 0 0 0 -1.62 1.6v28.77a1.58 1.58 0 0 0 1.58 1.58h45.87a1.58 1.58 0 0 0 1.55-1.58v-28.77a1.58 1.58 0 0 0 -1.55-1.6zm-1.06 29.82h-43.71a.51.51 0 0 1 -.51-.51v-26.71a.51.51 0 0 1 .51-.51h43.71a.51.51 0 0 1 .51.51v26.71a.51.51 0 0 1 -.51.51z" fill="#2a2d58"/><path d="m50.47 25.83a.51.51 0 0 0 -.51.51v1.56a.52.52 0 0 0 1 0v-1.56a.51.51 0 0 0 -.52-.51zm3.28 0a.51.51 0 0 0 -.51.51v1.56a.51.51 0 0 0 1 0v-1.56a.51.51 0 0 0 -.51-.51zm-10.75-.04a1.36 1.36 0 1 0 1.36 1.36 1.36 1.36 0 0 0 -1.36-1.36zm0 1.89a.54.54 0 0 1 -.49-.33.53.53 0 0 1 .12-.57.52.52 0 0 1 .89.37.53.53 0 0 1 -.52.53zm8 8.66v-1.55a.52.52 0 1 0 -1 0v1.55a.52.52 0 1 0 1 0zm-8-2.14a1.37 1.37 0 1 0 1.36 1.37 1.36 1.36 0 0 0 -1.36-1.37zm0 1.89a.55.55 0 0 1 -.49-.32.53.53 0 0 1 .69-.69.55.55 0 0 1 .32.49.52.52 0 0 1 -.52.52z" fill="#f1b860"/><path d="m56.59 33.53a2.52 2.52 0 0 0 -2.31-1.44h-5.65v-1.48h5.65a2.54 2.54 0 0 0 1.8-.75 2.51 2.51 0 0 0 .74-1.8v-1.88a2.53 2.53 0 0 0 -2.54-2.53h-12.28a2.53 2.53 0 0 0 -1.8.74 2.46 2.46 0 0 0 -.74 1.79v1.88a2.47 2.47 0 0 0 .74 1.8 2.52 2.52 0 0 0 1.8.75h5.64v1.48h-5.64a2.53 2.53 0 0 0 -1.8.74 2.46 2.46 0 0 0 -.74 1.79v1.89a2.46 2.46 0 0 0 .74 1.79 2.52 2.52 0 0 0 1.8.75h5.64v1.46a2.13 2.13 0 0 0 -1.64 1.55h-3.79a1.5 1.5 0 1 0 -1.4 2 1.45 1.45 0 0 0 1.4-1h3.79a2.15 2.15 0 0 0 4.17 0h2.62a5.3 5.3 0 0 0 3.48 1.27 5.42 5.42 0 0 0 .28-10.83zm-.75-5.43a1.5 1.5 0 0 1 -1.53 1.53h-12.31a1.53 1.53 0 0 1 -1.53-1.53v-1.89a1.54 1.54 0 0 1 1.53-1.54h12.31a1.54 1.54 0 0 1 1.09.45 1.57 1.57 0 0 1 .44 1.09zm-15.39 8.41v-1.89a1.52 1.52 0 0 1 .44-1.07 1.55 1.55 0 0 1 1.11-.44h12.28a1.5 1.5 0 0 1 1.13.48 5.46 5.46 0 0 0 -4.41 4.41h-9a1.46 1.46 0 0 1 -1.08-.44 1.52 1.52 0 0 1 -.44-1.07zm10.43 2.54a5.24 5.24 0 0 0 1 3h-1.67a2.16 2.16 0 0 0 -1.58-1.55v-1.45zm-10.07 4a.46.46 0 0 1 -.44-.29.48.48 0 0 1 .1-.51.48.48 0 0 1 .52-.11.5.5 0 0 1 .29.44.47.47 0 0 1 -.47.47zm7.32.66a1.13 1.13 0 0 1 -.8-1.93 1.13 1.13 0 0 1 1.92.8 1.09 1.09 0 0 1 -.33.8 1.13 1.13 0 0 1 -.79.33zm8.18-.38a4.4 4.4 0 1 1 4.41-4.41 4.46 4.46 0 0 1 -1.3 3.12 4.41 4.41 0 0 1 -3.11 1.29z" fill="#2a2d58"/><path d="m55.77 37.19a1.32 1.32 0 1 0 1.32 1.31 1.31 1.31 0 0 0 -1.32-1.31z" fill="none"/></g><path d="m44.16 26.51a1.83 1.83 0 1 0 -.35.32l1.42 1.41.33-.33zm-1.39.22a1.32 1.32 0 1 1 1.32-1.32 1.32 1.32 0 0 1 -1.32 1.32z" fill="#f1b860" stroke="#f1b860" stroke-miterlimit="10" stroke-width=".75"/></svg>