<svg viewBox="0 0 29.75 49.83" xmlns="http://www.w3.org/2000/svg"><g fill="none" stroke-linecap="round" stroke-miterlimit="10" stroke-width="2"><rect height="36.01" rx="2.71" stroke="#2a2d58" width="27.75" x="1" y="1"/><g stroke="#f1b860"><path d="m9.23 19.33h11.29m-9.67-6.64h8.05"/><circle cx="15.01" cy="30.94" r="5.5"/><path d="m27.88 39.71-7.42 8.73a.09.09 0 0 0 .06.14h2.66a.7.7 0 0 1 .29 0c.21.08.23.3.27.49s.12.51.17.77c.12.51.23 1 .35 1.54 0 0 .09.07.11 0l6.18-10.3a.12.12 0 0 0 0-.17l-2.55-1.23a.14.14 0 0 0 -.12.03zm5.69-.27 7.43 8.74a.08.08 0 0 1 -.06.13h-2.66a.73.73 0 0 0 -.29 0c-.21.08-.22.3-.27.49s-.11.51-.17.77c-.11.51-.23 1-.34 1.54a.07.07 0 0 1 -.12 0l-6.2-10.21a.13.13 0 0 1 .05-.17l2.48-1.31a.12.12 0 0 1 .15.02z" transform="translate(-16 -2.66)"/></g></g></svg>