<svg viewBox="0 0 39.35 39.36" xmlns="http://www.w3.org/2000/svg"><path d="m39.34 20.94a9.06 9.06 0 0 1 -9.05 9.05h-4.53a1.12 1.12 0 0 1 0-2.23h4.53a6.82 6.82 0 0 0 .85-13.54 1.13 1.13 0 0 1 -.77-.46 1.08 1.08 0 0 1 -.18-.87 9.13 9.13 0 0 0 .19-1.84 8.81 8.81 0 0 0 -17.45-1.74 1.08 1.08 0 0 1 -1.18.9h-.75a8.82 8.82 0 0 0 0 17.63h2.54a1.12 1.12 0 1 1 0 2.23h-2.5a11.045 11.045 0 0 1 0-22.09 11 11 0 0 1 21.64 3.1 9.23 9.23 0 0 1 -.07 1.18 9.06 9.06 0 0 1 6.73 8.68zm-15.82 11.88-2.73 2.74v-11.79a1.12 1.12 0 1 0 -2.23 0v11.79l-2.74-2.74a1.12 1.12 0 0 0 -1.58 1.58l4.64 4.64a1.26 1.26 0 0 0 .36.24 1.06 1.06 0 0 0 .43.08 1 1 0 0 0 .42-.08 1.31 1.31 0 0 0 .37-.24l4.68-4.64a1.12 1.12 0 0 0 -1.58-1.58z" fill="#2a2d58"/></svg>