<svg viewBox="0 0 53.52 50.73" xmlns="http://www.w3.org/2000/svg"><g transform="translate(-26.95 -11.81)"><path d="m38.12 47.76a3.16 3.16 0 0 1 -3.12-3.26v-28.38a3.61 3.61 0 0 0 -1-2.48l-.16-.17.08-.26a.39.39 0 0 1 .36-.25h22.33a3.21 3.21 0 0 1 3.16 3.16v9.88h-7.05c-2.3 0-4.67-.06-7 0a5.07 5.07 0 0 0 -3.31 1.05 3.64 3.64 0 0 0 -1.13 2.62v14.93a3.19 3.19 0 0 1 -1.28 2.54 3.1 3.1 0 0 1 -1.88.62zm-3.21-34.09a4.33 4.33 0 0 1 .76 2.45v28.38a2.51 2.51 0 0 0 1.7 2.44 2.44 2.44 0 0 0 2.19-.37 2.47 2.47 0 0 0 1-2v-14.83a4.35 4.35 0 0 1 1.35-3.13 5.68 5.68 0 0 1 3.77-1.25c2.34-.1 4.73-.07 7 0h6.32v-9.24a2.48 2.48 0 0 0 -2.45-2.45z" fill="#2a2d58"/><path d="m31.35 13.32a2.84 2.84 0 0 0 -2.81 2.8v.25h5.62v-.25a2.84 2.84 0 0 0 -2.81-2.8z" fill="none"/><path d="m47.64 47.76h-6.84l-.14-.23a.42.42 0 0 1 .06-.43 3.88 3.88 0 0 0 1-2.5v-14.86a3.15 3.15 0 0 1 1.15-2.42 3.11 3.11 0 0 1 2.59-.68 3.24 3.24 0 0 1 2.58 3.25v17.82zm-6-.71h5.7v-17.16a2.57 2.57 0 0 0 -2-2.56 2.44 2.44 0 0 0 -2 .53 2.49 2.49 0 0 0 -.9 1.88v14.86a4.35 4.35 0 0 1 -.8 2.45z" fill="#2a2d58"/><path d="m55.62 58.14a4.25 4.25 0 0 1 -1.09 2.73v.07h22a2.33 2.33 0 0 0 2.23-2.47v-.58h-23.14z" fill="none"/><path d="m54.13 56.82.06.24v-.25z" fill="#2a2d58"/></g><path d="m27.04 31.84h9.89m-9.89-4.79h3.85m-3.85 9.46h9.56m-23.18-25.91h1.92m3.56 0h7.17" fill="none" stroke="#f1b860" stroke-linecap="round" stroke-miterlimit="10" stroke-width="2"/><path d="m80.06 49.28-6.85-6.86a7.71 7.71 0 1 0 -1.52 1.43l6.9 6.9a1.05 1.05 0 0 0 1.47 0 1 1 0 0 0 0-1.47zm-13-5.9a5.8 5.8 0 1 1 5.79-5.79 5.79 5.79 0 0 1 -5.74 5.79z" fill="#2a2d58" transform="translate(-26.95 -11.81)"/><path d="m31.35 13.67a2.49 2.49 0 0 0 -2.44 2.26.07.07 0 0 0 .09.07h4.74a.09.09 0 0 0 .08-.09 2.49 2.49 0 0 0 -2.47-2.24zm14.34 11.69c2.34-.1 4.73-.07 7 0h6.31a.08.08 0 0 0 .07-.08v-9.08a2.54 2.54 0 0 0 -2.53-2.53h-21.54a.07.07 0 0 0 -.06.11 4.27 4.27 0 0 1 .69 2.34v28.38a2.51 2.51 0 0 0 1.7 2.44 2.44 2.44 0 0 0 2.19-.37 2.47 2.47 0 0 0 1-2v-14.83a4.35 4.35 0 0 1 1.35-3.13 5.68 5.68 0 0 1 3.82-1.25zm10.31 32.95a4.53 4.53 0 0 1 -.71 2.17.07.07 0 0 0 .06.11h21.23a2 2 0 0 0 1.88-2.12v-.23h-22.46a.07.07 0 0 0 0 .07z" fill="none" transform="translate(-26.95 -11.81)"/><path d="m45.34 27.33a2.44 2.44 0 0 0 -2 .53 2.49 2.49 0 0 0 -.9 1.88v14.86a4.41 4.41 0 0 1 -.71 2.34.07.07 0 0 0 .06.11h3.93a1.63 1.63 0 0 0 1.63-1.63v-15.53a2.57 2.57 0 0 0 -2.01-2.56z" fill="none" transform="translate(-26.95 -11.81)"/><path d="m80.22 56.45a.73.73 0 0 0 -.37-.19h-5.72v-5a.88.88 0 0 0 -.88-.88h-.18a.89.89 0 0 0 -.88.88v5.12h-14.3l-4 .21a1.09 1.09 0 0 1 .08.15 2.86 2.86 0 0 1 -.62 3.17 2.34 2.34 0 0 1 -.3.25 2.18 2.18 0 0 1 -2.65.11 3 3 0 0 1 -1.26-2.51v-28a4.35 4.35 0 0 0 -.68-2.34.07.07 0 0 1 .06-.11h22.7a1 1 0 0 0 0-1.94h-10.14a.09.09 0 0 1 -.08-.08v-9a4.43 4.43 0 0 0 -4.43-4.44h-24.43a4.94 4.94 0 0 0 -4.63 2.15 4.25 4.25 0 0 0 -.51 2.23v1.77h6.65a.08.08 0 0 1 .07.08v26.45a4.4 4.4 0 0 0 4.39 4.39h9.07a.08.08 0 0 1 .08.07v9.23a4.33 4.33 0 0 0 1.33 3.13 4.14 4.14 0 0 0 2.91 1.19h25.08a3.8 3.8 0 0 0 3.59-2.59 6.43 6.43 0 0 0 .28-1.9c.01-.45.12-1.26-.23-1.6zm-46.5-40.45h-4.72a.07.07 0 0 1 -.07-.09 2.45 2.45 0 0 1 4.89 0 .09.09 0 0 1 -.1.09zm6.85 28.6a2.47 2.47 0 0 1 -1 2 2.44 2.44 0 0 1 -2.19.37 2.51 2.51 0 0 1 -1.7-2.44v-28.41a4.27 4.27 0 0 0 -.68-2.34.07.07 0 0 1 .06-.11h21.47a2.54 2.54 0 0 1 2.53 2.53v9.07a.08.08 0 0 1 -.07.08h-6.26c-2.31 0-4.7-.06-7 0a5.68 5.68 0 0 0 -3.77 1.25 4.35 4.35 0 0 0 -1.35 3.13zm6.77.82a1.63 1.63 0 0 1 -1.63 1.63h-3.93a.07.07 0 0 1 -.06-.11 4.41 4.41 0 0 0 .71-2.34v-14.86a2.49 2.49 0 0 1 .9-1.88 2.44 2.44 0 0 1 2-.53 2.57 2.57 0 0 1 2 2.56zm31.12 13a2 2 0 0 1 -1.88 2.12h-21.26a.07.07 0 0 1 -.06-.11 4.53 4.53 0 0 0 .74-2.12.07.07 0 0 1 .07-.07h22.39z" fill="#2a2d58" transform="translate(-26.95 -11.81)"/></svg>