<svg viewBox="0 0 51.56 32.76" xmlns="http://www.w3.org/2000/svg"><g fill="none" stroke-linecap="round" stroke-miterlimit="10" stroke-width="2"><path d="m48.09 11.65v7.32" stroke="#f1b860"/><path d="m51.87 26.61-22.56-9.67a1.05 1.05 0 0 0 -.78 0l-22.53 9.67a1 1 0 0 0 0 1.8l7.22 3.09v8.3c0 3.28 7 7.82 15.73 7.82s15.74-4.54 15.74-7.82v-8.3l7.21-3.09a1 1 0 0 0 -.03-1.8z" stroke="#2a2d58" transform="translate(-4.38 -15.86)"/><path d="m18.87 33.33c.13.06 10.13 4.35 10.13 4.35l9.28-4.35" stroke="#2a2d58" transform="translate(-4.38 -15.86)"/><g stroke="#f1b860"><circle cx="48.21" cy="21.38" r="2.25"/><path d="m46.06 27.42 1.38-3.62m3.12 3.46-1.37-3.62"/></g></g></svg>