<svg viewBox="0 0 39.97 37.07" xmlns="http://www.w3.org/2000/svg"><path d="m45.22 13.69h-16.8a5.29 5.29 0 0 0 -5.28 5.31v3.1h-7.33a5.29 5.29 0 0 0 -5.28 5.28v12.62a5.29 5.29 0 0 0 5.28 5.28h.19v3.4a2.11 2.11 0 0 0 1.31 2 2.17 2.17 0 0 0 .82.16 2.12 2.12 0 0 0 1.51-.62l4.9-4.91h8.1a5.28 5.28 0 0 0 5.25-5.31v-1.78l3.53 3.55a2.14 2.14 0 0 0 1.5.61 2.25 2.25 0 0 0 .84-.17 2.1 2.1 0 0 0 1.3-2v-3.36h.16a5.29 5.29 0 0 0 5.28-5.28v-12.57a5.29 5.29 0 0 0 -5.28-5.31zm-9.49 26.31a3.12 3.12 0 0 1 -3.12 3.12h-8.55a1.09 1.09 0 0 0 -.76.32l-5.17 5.24v-4.53a1.08 1.08 0 0 0 -1.08-1.08h-1.24a3.12 3.12 0 0 1 -3.12-3.07v-12.64a3.12 3.12 0 0 1 3.12-3.12h16.8a3.12 3.12 0 0 1 3.12 3.12zm12.61-8.38a3.12 3.12 0 0 1 -3.12 3.12h-1.22a1.08 1.08 0 0 0 -1.08 1.08v4.46l-5-5.07v-7.86a5.29 5.29 0 0 0 -5.28-5.28h-7.34v-3.07a3.12 3.12 0 0 1 3.12-3.12h16.79a3.12 3.12 0 0 1 3.12 3.12v12.6z" fill="#2a2d58" transform="translate(-10.53 -13.69)"/><path d="m7.69 22.57h10.99m-10.99-4.91h7.49" fill="none" stroke="#f1b860" stroke-linecap="round" stroke-miterlimit="10" stroke-width="2"/></svg>