<svg viewBox="0 0 43.06 27.42" xmlns="http://www.w3.org/2000/svg"><path d="m51.37 42.08h-2.95a.31.31 0 0 1 -.31-.31v-19.61a3.58 3.58 0 0 0 -3.58-3.58h-28.1a3.57 3.57 0 0 0 -3.57 3.58v19.61a.32.32 0 0 1 -.32.31h-2.61a1 1 0 0 0 -1 1.11 3.24 3.24 0 0 0 3.25 2.81h36.61a3.24 3.24 0 0 0 3.21-3.26.65.65 0 0 0 -.65-.66zm-37.21-19.92a2.27 2.27 0 0 1 2.28-2.27h28.09a2.27 2.27 0 0 1 2.27 2.27v19.61a.31.31 0 0 1 -.31.31h-32a.31.31 0 0 1 -.32-.31zm34.63 22.53h-36.61a1.91 1.91 0 0 1 -1.56-.8.31.31 0 0 1 .25-.5h39.23a.32.32 0 0 1 .25.5 1.91 1.91 0 0 1 -1.56.8z" fill="#2a2d58" transform="translate(-8.96 -18.58)"/><path d="m44 21.71h-27a.94.94 0 0 0 -.94.93v17a.93.93 0 0 0 .94.93h27a.93.93 0 0 0 .93-.93v-17a.93.93 0 0 0 -.93-.93zm-.63 17.58h-25.76a.31.31 0 0 1 -.3-.3v-15.72a.3.3 0 0 1 .3-.3h25.76a.29.29 0 0 1 .3.3v15.73a.3.3 0 0 1 -.3.29z" fill="#2a2d58" transform="translate(-8.96 -18.58)"/><path d="m25.88 14.23 4.87-4.86m-7.04 2.69 3.32-3.32" fill="none" stroke="#f1b860" stroke-linecap="round" stroke-miterlimit="10" stroke-width="2"/></svg>