<svg viewBox="0 0 74.44 48.27" xmlns="http://www.w3.org/2000/svg"><path d="m88.08 61.72v-8.19a8.69 8.69 0 0 0 -1.58-5.05 17.72 17.72 0 0 0 -14.63-7.7 17.46 17.46 0 0 0 -7.87 1.84 20.35 20.35 0 0 0 -13.11-4.53 20.32 20.32 0 0 0 -13.12 4.52 17.25 17.25 0 0 0 -7.89-1.83 17.68 17.68 0 0 0 -14.63 7.7 8.69 8.69 0 0 0 -1.58 5.05v8.19a1.25 1.25 0 0 0 1.22 1.28h71.94a1.26 1.26 0 0 0 1.25-1.28zm-71.94-8.19a6.09 6.09 0 0 1 1.12-3.6 15.24 15.24 0 0 1 12.6-6.66 15.08 15.08 0 0 1 5.89 1.15 23.28 23.28 0 0 0 -2.67 3.34 8.69 8.69 0 0 0 -1.43 4.82v7.92h-15.51zm45.31 7h-27.3v-7.94a6.23 6.23 0 0 1 1-3.45 18.73 18.73 0 0 1 31.4 0 6.23 6.23 0 0 1 1 3.45v7.91zm24.15 0h-15.53v-7.94a8.73 8.73 0 0 0 -1.43-4.83 23.76 23.76 0 0 0 -2.64-3.33 15.33 15.33 0 0 1 18.49 5.5 6.22 6.22 0 0 1 1.12 3.61zm-24.51-35.53a10.23 10.23 0 1 0 -10.23 10.2 10.22 10.22 0 0 0 10.23-10.2zm-18 0a7.74 7.74 0 1 1 7.73 7.74 7.75 7.75 0 0 1 -7.69-7.74zm-4.5 6a8.73 8.73 0 1 0 -8.73 8.73 8.74 8.74 0 0 0 8.73-8.73zm-15 0a6.23 6.23 0 1 1 6.25 6.23 6.23 6.23 0 0 1 -6.23-6.23zm57 0a8.73 8.73 0 1 0 -8.73 8.73 8.74 8.74 0 0 0 8.73-8.73zm-15 0a6.23 6.23 0 1 1 6.25 6.23 6.24 6.24 0 0 1 -6.23-6.23z" fill="#2a2d58" transform="translate(-13.64 -14.73)"/></svg>