<svg viewBox="0 0 81.17 37.47" xmlns="http://www.w3.org/2000/svg"><g transform="translate(-9.65 -24.27)"><path d="m41.9 42.41v11a.86.86 0 0 0 .86.84 3.09 3.09 0 0 1 3.11 3.07.86.86 0 0 0 .86.84h34.92a.85.85 0 0 0 .85-.84 3.09 3.09 0 0 1 3.11-3.07.85.85 0 0 0 .86-.84v-11a.86.86 0 0 0 -.86-.84 3.09 3.09 0 0 1 -3.11-3.07.85.85 0 0 0 -.86-.84h-34.91a.86.86 0 0 0 -.86.84 3.09 3.09 0 0 1 -3.11 3.07.86.86 0 0 0 -.86.84zm1.72.77a4.81 4.81 0 0 0 3.89-3.83h33.36a4.79 4.79 0 0 0 3.89 3.83v9.42a4.79 4.79 0 0 0 -3.89 3.84h-33.36a4.81 4.81 0 0 0 -3.89-3.84z" fill="#f1b860"/><path d="m37.83 42.75a1.8 1.8 0 0 1 -1-.23l-.83-.42a3.2 3.2 0 0 0 -1.92-.4l-.5.08a7.75 7.75 0 0 0 .93-2.22h1.55a1 1 0 0 0 1-1 1 1 0 0 0 -1-1h-1.44a.17.17 0 0 1 -.18-.12l-.44-1.2a4.39 4.39 0 0 1 -.28-1.35 1.74 1.74 0 0 1 1.46-1.89 3.15 3.15 0 0 1 1.69.15 1.54 1.54 0 0 1 .69.49.94.94 0 0 1 -.05 1.33 1 1 0 0 0 0 1.35.94.94 0 0 0 1.34 0 2.76 2.76 0 0 0 .72-2.8 3.12 3.12 0 0 0 -1.87-2 5 5 0 0 0 -3.54-.17 3.13 3.13 0 0 0 -2.41 2.92 6.59 6.59 0 0 0 .54 3.13c0 .07.06.14.09.23h-1.33a1 1 0 0 0 -1 1 1 1 0 0 0 1 1h1.52c0 .1-.07.18-.11.25a58.3 58.3 0 0 0 -1 1.91c-.2.37-.44.71-.63 1.09a3.65 3.65 0 0 0 -.3.86 1 1 0 0 0 .91 1.2 2.08 2.08 0 0 0 1.34-.42c.27-.17.52-.37.79-.53a1.82 1.82 0 0 1 1.86 0l.87.45a3.24 3.24 0 0 0 1.57.38zm21.4 6.81h1.46l-.1.23c-.33.62-.67 1.24-1 1.85-.19.35-.42.69-.6 1a3.56 3.56 0 0 0 -.29.83 1 1 0 0 0 .88 1.16 2 2 0 0 0 1.29-.4c.25-.17.5-.36.76-.52a1.77 1.77 0 0 1 1.79 0l.84.44a3 3 0 0 0 3-.06 7.73 7.73 0 0 0 .86-.54.89.89 0 0 0 .23-1.28.93.93 0 0 0 -1.35-.18 2.9 2.9 0 0 1 -.41.27 1.76 1.76 0 0 1 -1.81.06c-.26-.14-.52-.28-.79-.41a3.14 3.14 0 0 0 -1.85-.39l-.48.08a7.58 7.58 0 0 0 .89-2.14h1.5a1 1 0 0 0 1-1 1 1 0 0 0 -1-1h-1.4a.16.16 0 0 1 -.17-.11c-.16-.38-.32-.75-.47-1.13a4.2 4.2 0 0 1 -.28-1.3 1.68 1.68 0 0 1 1.46-1.86 2.93 2.93 0 0 1 1.63.14 1.49 1.49 0 0 1 .67.47.93.93 0 0 1 -.05 1.29.91.91 0 1 0 1.31 1.26 2.61 2.61 0 0 0 .69-2.7 3 3 0 0 0 -1.8-2 4.83 4.83 0 0 0 -3.41-.15 3 3 0 0 0 -2.33 2.81 6.52 6.52 0 0 0 .52 3 1.65 1.65 0 0 1 .09.22h-1.29a1 1 0 0 0 -1 1 1 1 0 0 0 1 1zm27.24 7.44a1.13 1.13 0 0 0 -2.25 0 1.13 1.13 0 0 0 2.25 0zm0-17.89a1.13 1.13 0 0 0 -2.25 0 1.13 1.13 0 0 0 2.25 0zm-42.32 17.89a1.12 1.12 0 0 0 -2.25 0 1.12 1.12 0 0 0 2.25 0zm0-17.89a1.13 1.13 0 0 0 -2.25 0 1.13 1.13 0 0 0 2.25 0z" fill="#2a2d58"/><path d="m58.78 35.59v-2.18a1.6 1.6 0 0 0 -1.38-1.54 3.1 3.1 0 0 1 -2.55-2.52 1.78 1.78 0 0 0 -1.69-1.35h-34.16a.85.85 0 0 0 -.86.84 3.09 3.09 0 0 1 -3.11 3.07.86.86 0 0 0 -.86.85v10.3a1.58 1.58 0 0 0 1.37 1.53 3.09 3.09 0 0 1 2.55 2.52 1.78 1.78 0 0 0 1.7 1.35h19.52v-1.68h-18.89a.78.78 0 0 1 -.74-.56 4.82 4.82 0 0 0 -3.21-3.15.78.78 0 0 1 -.55-.74v-8.19a.8.8 0 0 1 .55-.75 4.78 4.78 0 0 0 3.21-3.15.77.77 0 0 1 .74-.55h32.15a.77.77 0 0 1 .74.55 4.78 4.78 0 0 0 3.21 3.15.79.79 0 0 1 .54.75v1.45z" fill="#f1b860"/><path d="m58.25 29.06a1.13 1.13 0 0 0 -2.25 0 1.13 1.13 0 1 0 2.25 0zm-42.02 18.28a1.12 1.12 0 0 0 -2.25 0 1.12 1.12 0 0 0 2.25 0zm0-18.28a1.13 1.13 0 0 0 -2.25 0 1.13 1.13 0 0 0 2.25 0z" fill="#2a2d58"/><path d="m86.26 34.91h-24.26v-6.08a3.68 3.68 0 0 0 -3.67-3.66h-44.11a3.68 3.68 0 0 0 -3.67 3.66v18.59a3.69 3.69 0 0 0 3.67 3.67h24.23v6.08a3.67 3.67 0 0 0 3.66 3.66h44.15a3.68 3.68 0 0 0 3.67-3.66v-18.59a3.68 3.68 0 0 0 -3.67-3.67z" fill="none" stroke="#2a2d58" stroke-miterlimit="10" stroke-width="1.8"/></g><rect fill="none" height="25.89" rx="3.46" stroke="#2a2d58" stroke-miterlimit="10" stroke-width="1.8" width="51.48" x="28.79" y="10.68"/></svg>