<svg viewBox="0 0 40.91 30.9" xmlns="http://www.w3.org/2000/svg"><path d="m30.92 43h-1.5a.16.16 0 0 1 -.15-.16v-9.84a1.81 1.81 0 0 0 -1.81-1.81h-14.21a1.81 1.81 0 0 0 -1.81 1.81v9.91a.16.16 0 0 1 -.16.16h-1.28a.49.49 0 0 0 -.48.56 1.64 1.64 0 0 0 1.58 1.37h18.51a1.64 1.64 0 0 0 1.64-1.65.33.33 0 0 0 -.33-.33zm-18.82-10a1.15 1.15 0 0 1 1.15-1.15h14.21a1.15 1.15 0 0 1 1.15 1.15v9.91a.16.16 0 0 1 -.16.16h-16.19a.16.16 0 0 1 -.16-.16zm17.51 11.34h-18.51a1 1 0 0 1 -.79-.41.16.16 0 0 1 .13-.25h19.83a.16.16 0 0 1 .13.25 1 1 0 0 1 -.79.41z" fill="#2a2d58" stroke="#2a2d58" stroke-miterlimit="10" stroke-width=".25" transform="translate(-9.35 -14.23)"/><path d="m27.19 32.72h-13.66a.47.47 0 0 0 -.47.47v8.58a.47.47 0 0 0 .47.47h13.66a.47.47 0 0 0 .47-.47v-8.58a.47.47 0 0 0 -.47-.47zm-.32 8.89h-13a.15.15 0 0 1 -.15-.16v-7.94a.14.14 0 0 1 .15-.15h13a.14.14 0 0 1 .15.15v7.94a.15.15 0 0 1 -.15.16z" fill="#2a2d58" stroke="#2a2d58" stroke-miterlimit="10" stroke-width=".25" transform="translate(-9.35 -14.23)"/><path d="m12.97 23.86 2.46-2.46m-3.32 1.61 1.68-1.68" fill="none" stroke="#f1b860" stroke-linecap="round" stroke-linejoin="round"/><g transform="translate(-9.35 -14.23)"><path d="m42.45 14.23a7.82 7.82 0 1 0 5.55 2.29 7.82 7.82 0 0 0 -5.52-2.29zm-6.75 8.33h2.67a16.34 16.34 0 0 0 .39 3.12h-2a6.82 6.82 0 0 1 -1-3.12zm7.3-5.21v-2.05a6.53 6.53 0 0 1 1.16.19 16.22 16.22 0 0 1 .72 1.86zm2.17 1a16.48 16.48 0 0 1 .42 3.13h-2.59v-3.09zm-3.21-1h-1.84a15.54 15.54 0 0 1 .72-1.86 7.06 7.06 0 0 1 1.12-.18zm0 1v3.13h-2.55a16.48 16.48 0 0 1 .42-3.13zm-3.56 3.13h-2.7a6.86 6.86 0 0 1 1-3.13h2a16.54 16.54 0 0 0 -.39 3.13zm1 1h2.52v3.12h-2.1a16.38 16.38 0 0 1 -.42-3.12zm2.52 4.16v2.06a7.06 7.06 0 0 1 -1.12-.18 15.68 15.68 0 0 1 -.72-1.87zm1 0h1.88a15.68 15.68 0 0 1 -.72 1.87 7.58 7.58 0 0 1 -1.16.19zm0-1v-3.08h2.59a16.38 16.38 0 0 1 -.42 3.12zm3.63-3.12h2.59a6.82 6.82 0 0 1 -1 3.12h-1.93a16.34 16.34 0 0 0 .39-3.08zm0-1a16.54 16.54 0 0 0 -.39-3.13h1.93a6.86 6.86 0 0 1 1 3.13zm.72-4.17h-1.34c-.13-.45-.28-.91-.46-1.36a6.91 6.91 0 0 1 1.85 1.36zm-7.76-1.35c-.18.46-.34.93-.48 1.4h-1.45a6.68 6.68 0 0 1 1.93-1.4zm-1.94 10.72h1.43q.21.72.48 1.41a6.76 6.76 0 0 1 -1.91-1.41zm7.9 1.36a12.79 12.79 0 0 0 .46-1.36h1.39a6.61 6.61 0 0 1 -1.84 1.36z" fill="#2a2d58"/><path d="m31.31 17.08a.62.62 0 0 1 .62.62.62.62 0 0 1 -.62.62.62.62 0 0 1 -.62-.62.62.62 0 0 1 .62-.62zm-2.47 0a.62.62 0 0 1 .62.62.62.62 0 0 1 -.62.62.62.62 0 0 1 -.62-.62.61.61 0 0 1 .62-.62zm-2.48 0a.62.62 0 0 1 .62.62.62.62 0 0 1 -.62.62.62.62 0 0 1 -.62-.62.62.62 0 0 1 .62-.62zm-2.47 0a.62.62 0 0 1 .62.62.62.62 0 0 1 -.62.62.62.62 0 0 1 -.62-.62.62.62 0 0 1 .62-.62zm0 8.66a.62.62 0 0 1 .62.62.62.62 0 0 1 -.62.62.62.62 0 0 1 -.62-.62.62.62 0 0 1 .62-.62zm0 2.47a.62.62 0 0 1 .62.62.62.62 0 0 1 -.62.62.62.62 0 0 1 -.62-.62.62.62 0 0 1 .62-.62zm9.24 11.79a.62.62 0 0 1 .62.62.62.62 0 0 1 -.62.62.62.62 0 0 1 -.62-.62.62.62 0 0 1 .62-.62z" fill="#f1b860"/><path d="m26.36 22a2.47 2.47 0 1 0 -2.47 2.47 2.46 2.46 0 0 0 2.47-2.47zm-2.47 1.23a1.24 1.24 0 1 1 1.23-1.23 1.24 1.24 0 0 1 -.36.87 1.23 1.23 0 0 1 -.87.36zm18.52 17.37a2.47 2.47 0 1 0 -2.47 2.47 2.46 2.46 0 0 0 2.47-2.47zm-3.71 0a1.23 1.23 0 0 1 2.11-.88 1.24 1.24 0 1 1 -2.11.88z" fill="#2a2d58" stroke="#2a2d58" stroke-miterlimit="10" stroke-width=".25"/><path d="m35.61 40a.62.62 0 0 1 .62.62.62.62 0 0 1 -.62.62.62.62 0 0 1 -.61-.64.62.62 0 0 1 .61-.6zm8.66 0a.62.62 0 0 1 .62.62.62.62 0 0 1 -.62.62.62.62 0 0 1 -.62-.62.62.62 0 0 1 .62-.62zm0-2.5a.62.62 0 0 1 .62.62.62.62 0 0 1 -.62.62.62.62 0 0 1 -.62-.62.62.62 0 0 1 .62-.62zm0-2.5a.62.62 0 0 1 .62.62.62.62 0 0 1 -.62.62.62.62 0 0 1 -.62-.62.62.62 0 0 1 .62-.62zm0-2.44a.61.61 0 0 1 .62.61.62.62 0 0 1 -.62.62.62.62 0 0 1 -.62-.62.61.61 0 0 1 .62-.61z" fill="#f1b860"/></g></svg>