<svg viewBox="0 0 48.79 31.07" xmlns="http://www.w3.org/2000/svg"><g transform="translate(-5.97 -17)"><path d="m54 43.63h-3.31a.36.36 0 0 1 -.36-.36v-22.21a4.06 4.06 0 0 0 -4.06-4.06h-31.83a4.05 4.05 0 0 0 -4 4.06v22.21a.36.36 0 0 1 -.36.36h-3a1.1 1.1 0 0 0 -1.08 1.26 3.68 3.68 0 0 0 3.64 3.18h41.46a3.69 3.69 0 0 0 3.67-3.7.74.74 0 0 0 -.74-.74zm-42.13-22.58a2.57 2.57 0 0 1 2.57-2.57h31.83a2.57 2.57 0 0 1 2.58 2.57v22.22a.36.36 0 0 1 -.36.36h-36.27a.36.36 0 0 1 -.35-.36zm39.23 25.54h-41.48a2.18 2.18 0 0 1 -1.77-.91.36.36 0 0 1 .29-.57h44.44a.36.36 0 0 1 .29.57 2.18 2.18 0 0 1 -1.77.91z" fill="#2a2d58"/><path d="m45.67 20.55h-30.6a1.05 1.05 0 0 0 -1.07 1.05v19.23a1.05 1.05 0 0 0 1.06 1.05h30.6a1.06 1.06 0 0 0 1.06-1.05v-19.23a1.06 1.06 0 0 0 -1.05-1.05zm-.67 19.91h-29.22a.35.35 0 0 1 -.35-.34v-17.81a.35.35 0 0 1 .35-.34h29.22a.35.35 0 0 1 .35.34v17.81a.34.34 0 0 1 -.35.34z" fill="#2a2d58"/><path d="m37.66 31.05a3.94 3.94 0 1 0 -3.94-3.94 3.95 3.95 0 0 0 3.94 3.94zm0-7.3a3.37 3.37 0 1 1 -3.36 3.36 3.37 3.37 0 0 1 3.36-3.36z" fill="#f1b860"/><path d="m37.66 30.13a3 3 0 1 0 -3-3 3 3 0 0 0 3 3zm0-5.46a2.45 2.45 0 1 1 -2.44 2.44 2.45 2.45 0 0 1 2.44-2.44z" fill="#f1b860"/><path d="m38 28.06h-.75a.26.26 0 0 1 -.25-.26.28.28 0 0 0 -.28-.28.29.29 0 0 0 -.29.28.83.83 0 0 0 .83.83v.27a.29.29 0 1 0 .58 0v-.27h.16a.83.83 0 0 0 .83-.83v-.18a.83.83 0 0 0 -.83-.82h-.75a.26.26 0 0 1 -.26-.25v-.15a.26.26 0 0 1 .26-.25h.75a.25.25 0 0 1 .25.25v.06a.29.29 0 0 0 .58 0v-.06a.83.83 0 0 0 -.83-.82v-.26a.29.29 0 0 0 -.29-.28.28.28 0 0 0 -.28.28v.26h-.09a.83.83 0 0 0 -.83.82v.15a.83.83 0 0 0 .83.82h.66a.25.25 0 0 1 .25.25v.18a.26.26 0 0 1 -.25.26z" fill="#2a2d58"/><path d="m22 28.26-2.36 4.62a.4.4 0 0 0 0 .38.39.39 0 0 0 .33.19h2.03v4.95a.39.39 0 0 0 .4.39h14.23a.39.39 0 0 0 .37-.39v-5h2a.38.38 0 0 0 .35-.57l-1.09-2.13a.39.39 0 0 0 -.7.36l.8 1.56h-3.36l-2-3.83h1a.39.39 0 1 0 0-.78h-11.7a.39.39 0 0 0 -.35.21zm.84 5.18h7.26a.39.39 0 0 0 .35-.21l1.55-3.16v7.93h-9.21zm11.62-.21a.41.41 0 0 0 .35.22h1.47v4.55h-3.48v-7.93zm-2.64-4.4-2 3.83h-9.23l1.95-3.83z" fill="#f1b860"/><path d="m28.21 36.52h-4.57a.38.38 0 0 0 -.39.39.4.4 0 0 0 .39.39h4.57a.4.4 0 0 0 .39-.39.39.39 0 0 0 -.39-.39zm-4.57-.45h2.28a.39.39 0 0 0 .4-.39.4.4 0 0 0 -.4-.39h-2.28a.39.39 0 0 0 0 .78z" fill="#2a2d58"/></g></svg>