<svg viewBox="0 0 67.88 48.46" xmlns="http://www.w3.org/2000/svg"><path d="m76.34 23.15h-39.85a1.37 1.37 0 0 0 -1.37 1.38v25a1.37 1.37 0 0 0 1.37 1.37h39.85a1.38 1.38 0 0 0 1.38-1.37v-25a1.38 1.38 0 0 0 -1.38-1.38zm-.92 25.93h-38a.44.44 0 0 1 -.44-.44v-23.19a.44.44 0 0 1 .44-.44h38a.44.44 0 0 1 .44.44v23.19a.44.44 0 0 1 -.44.44z" fill="#2a2d58" transform="translate(-20.31 -18.54)"/><g stroke-miterlimit="10" stroke-width="2"><rect fill="#fff" height="32.33" rx="2.71" stroke="#2a2d58" width="22.59" x="1" y="15.13"/><rect fill="none" height="20.13" rx=".75" stroke="#2a2d58" stroke-linecap="round" width="14.3" x="5.13" y="19.8"/><path d="m43.79 14.78 3.66-3.66m-2.39 7.15 6.27-6.27" fill="none" stroke="#f1b860" stroke-linecap="round"/></g><circle cx="12.26" cy="43.38" fill="#f1b860" r="1.71"/><path d="m43.9 36.38v16.83h36.1a.47.47 0 0 0 .46-.47v-28.92a3.35 3.35 0 0 0 -3.35-3.36h-41.43a3.35 3.35 0 0 0 -3.36 3.36v9.85h8.87a2.72 2.72 0 0 1 2.71 2.71zm39.51 20.68a2.86 2.86 0 0 0 2.31-1.18.48.48 0 0 0 -.38-.75h-41.44v1.93z" fill="none" transform="translate(-20.31 -18.54)"/><path d="m87.22 53.21h-4.35a.46.46 0 0 1 -.46-.47v-28.92a5.28 5.28 0 0 0 -5.29-5.28h-41.44a5.27 5.27 0 0 0 -5.28 5.28v9.85h1.92v-9.85a3.35 3.35 0 0 1 3.36-3.36h41.45a3.35 3.35 0 0 1 3.35 3.36v28.92a.47.47 0 0 1 -.46.47h-36.12v1.92h41.44a.48.48 0 0 1 .38.75 2.86 2.86 0 0 1 -2.31 1.18h-39.51v1.94h39.51a4.79 4.79 0 0 0 4.77-4.82 1 1 0 0 0 -.96-.97z" fill="#2a2d58" transform="translate(-20.31 -18.54)"/></svg>