<svg viewBox="0 0 65.68 41.82" xmlns="http://www.w3.org/2000/svg"><g transform="translate(-17.56 -16.3)"><path d="m82.24 52.14h-4.5a.48.48 0 0 1 -.48-.48v-29.9a5.46 5.46 0 0 0 -5.45-5.46h-42.81a5.46 5.46 0 0 0 -5.46 5.46v29.9a.48.48 0 0 1 -.48.48h-4.06a1.49 1.49 0 0 0 -1.46 1.7 4.94 4.94 0 0 0 4.89 4.28h55.87a5 5 0 0 0 4.94-5 1 1 0 0 0 -1-1zm-56.75-30.38a3.47 3.47 0 0 1 3.51-3.47h42.81a3.46 3.46 0 0 1 3.46 3.47v29.9a.47.47 0 0 1 -.48.48h-48.79a.48.48 0 0 1 -.48-.48zm52.81 34.37h-55.84a2.93 2.93 0 0 1 -2.38-1.23.49.49 0 0 1 .39-.77h59.83a.49.49 0 0 1 .39.77 3 3 0 0 1 -2.39 1.23z" fill="#2a2d58"/><path d="m71 21.07h-41.2a1.42 1.42 0 0 0 -1.42 1.42v25.89a1.42 1.42 0 0 0 1.42 1.42h41.2a1.43 1.43 0 0 0 1.42-1.42v-25.89a1.43 1.43 0 0 0 -1.42-1.42zm-1 26.81h-39.24a.47.47 0 0 1 -.47-.46v-24a.47.47 0 0 1 .47-.46h39.24a.46.46 0 0 1 .46.46v24a.47.47 0 0 1 -.46.46z" fill="#2a2d58"/><path d="m56.91 30.42v7.16a.27.27 0 0 0 .28.28h.08a.28.28 0 0 0 .29-.28v-7.75a1.25 1.25 0 0 0 -.36-.83l-2.73-2.76a1.23 1.23 0 0 0 -.88-.37h-10.42a.64.64 0 0 0 -.63.64v18.49a.63.63 0 0 0 .63.63h8.16a.28.28 0 0 0 .29-.28v-.09a.29.29 0 0 0 -.29-.29h-7.51a.63.63 0 0 1 -.63-.63v-17.22a.64.64 0 0 1 .63-.64h9.18a.64.64 0 0 1 .63.64v2a.63.63 0 0 0 .63.64h2a.64.64 0 0 1 .65.66z" fill="#2a2d58"/><path d="m54.64 36.9a.29.29 0 0 0 -.29-.3h-1.78a.3.3 0 1 0 0 .59h1.78a.29.29 0 0 0 .29-.29zm-.29-4.36h-2.35a.3.3 0 0 0 0 .6h2.37a.3.3 0 0 0 0-.6zm-3.26.3a.3.3 0 0 0 -.3-.3h-1.79a.3.3 0 1 0 0 .6h1.77a.3.3 0 0 0 .32-.3zm-2.09-1.48h3a.3.3 0 0 0 0-.59h-3a.3.3 0 1 0 0 .59zm.19 4.06h4.51c.25 0 .45-.14.45-.3s-.2-.29-.45-.29h-4.51c-.25 0-.45.13-.45.29s.2.3.45.3zm3.48 3.51c-.22 0-.4.14-.4.3s.18.29.4.29h.8c.22 0 .4-.13.4-.29s-.18-.3-.4-.3zm-1.28-2.33h-2.39a.3.3 0 1 0 0 .59h2.37a.3.3 0 0 0 0-.59zm0 2.33h-2.39a.31.31 0 0 0 -.3.3.3.3 0 0 0 .3.29h2.37a.29.29 0 0 0 .29-.29.3.3 0 0 0 -.27-.3zm0 1.78h-2.39a.3.3 0 1 0 0 .59h2.37a.3.3 0 0 0 0-.59z" fill="#f1b860"/><path d="m45.85 41.16a.31.31 0 0 0 .21.09.32.32 0 0 0 .22-.13l1.18-1.78a.3.3 0 1 0 -.46-.34l-1 1.48-.34-.34a.27.27 0 0 0 -.21-.09.3.3 0 0 0 -.21.08.31.31 0 0 0 -.09.22.27.27 0 0 0 .09.21zm0-8.11a.29.29 0 0 0 .21.09.32.32 0 0 0 .22-.13l1.18-1.78a.3.3 0 1 0 -.46-.33l-1 1.48-.33-.38a.3.3 0 0 0 -.41 0 .31.31 0 0 0 0 .41zm0 4.06a.32.32 0 0 0 .21.08.29.29 0 0 0 .22-.13l1.18-1.77a.3.3 0 0 0 -.08-.41.29.29 0 0 0 -.38.12l-1 1.48-.34-.34a.29.29 0 0 0 -.41 0 .31.31 0 0 0 0 .41zm10.9 2.28-3.75 4.29-.13 2 2-.42 3.76-4.26a1.29 1.29 0 0 0 -.12-1.76 1.24 1.24 0 0 0 -1.76.13zm-2.16 5.32-1 .23.06-1 2.77-3.2.93.8zm3.58-4.12-.4.46-.93-.8.41-.46a.59.59 0 0 1 .86-.06.62.62 0 0 1 .06.86z" fill="#2a2d58"/></g><path d="m36.03 27.15 1.59 1.38" fill="none" stroke="#2a2d58" stroke-miterlimit="10"/></svg>