<svg viewBox="0 0 30.24 36.98" xmlns="http://www.w3.org/2000/svg"><path d="m28.51 28.4c-.93-1.79-2.56-4.28-4.7-4.68s-3.81 1.23-5.32 2.32c-1.91 1.36-10.92-11.47-9-12.69l2.32-1.78a3.85 3.85 0 0 0 1.09-5.18 18.47 18.47 0 0 0 -3-4.09 4.61 4.61 0 0 0 -3.82-1.23 4.15 4.15 0 0 0 -1.91.95c-4.1 3.55-3.82 9.56-1.37 15.69a36.13 36.13 0 0 0 9.41 13.15c3.53 3 8.58 6.45 13.47 4.69a5.83 5.83 0 0 0 3.1-2.53 4.8 4.8 0 0 0 -.27-4.62z" fill="none" stroke="#2a2d58" stroke-linecap="round" stroke-miterlimit="10" stroke-width="2"/></svg>