<svg viewBox="0 0 34.4 34.4" xmlns="http://www.w3.org/2000/svg"><path d="m29.82 10.82h-.83v-8a2.78 2.78 0 0 0 -2.77-2.78h-18a2.79 2.79 0 0 0 -2.78 2.78v8h-.83a4.59 4.59 0 0 0 -4.58 4.58v10.82a4.59 4.59 0 0 0 4.58 4.58h4.43v2.63a1 1 0 0 0 1 1h14.37a1 1 0 0 0 1-1v-2.63h4.41a4.59 4.59 0 0 0 4.58-4.58v-10.82a4.59 4.59 0 0 0 -4.58-4.58zm-22.46-8a.83.83 0 0 1 .83-.83h18a.83.83 0 0 1 .82.83v8h-19.65zm16.08 27.01v2.63h-12.48v-5.27h12.48zm9-3.61a2.63 2.63 0 0 1 -2.63 2.63h-4.42v-2.63a1 1 0 0 0 -1-1h-14.4a1 1 0 0 0 -1 1v2.63h-4.41a2.63 2.63 0 0 1 -2.63-2.63v-10.82a2.63 2.63 0 0 1 2.63-2.63h25.24a2.63 2.63 0 0 1 2.63 2.63zm-3.46-9a1 1 0 0 1 -1 1h-4.58a1 1 0 0 1 0-1.95h4.62a1 1 0 0 1 .97.93z" fill="#2a2d58"/><path d="m13.46 5.78h7.49" fill="none" stroke="#f1b860" stroke-linecap="round" stroke-miterlimit="10" stroke-width="2"/></svg>