<svg viewBox="0 0 64.93 41.34" xmlns="http://www.w3.org/2000/svg"><path d="m85.14 53.35h-4.45a.47.47 0 0 1 -.47-.47v-29.57a5.39 5.39 0 0 0 -5.4-5.39h-42.36a5.39 5.39 0 0 0 -5.39 5.39v29.57a.48.48 0 0 1 -.48.47h-3.94a1.48 1.48 0 0 0 -1.45 1.65 4.9 4.9 0 0 0 4.8 4.26h55.2a4.89 4.89 0 0 0 4.88-4.92 1 1 0 0 0 -1-1zm-56.14-30.04a3.43 3.43 0 0 1 3.42-3.43h42.4a3.43 3.43 0 0 1 3.43 3.43v29.57a.47.47 0 0 1 -.47.47h-48.27a.47.47 0 0 1 -.47-.47zm52.2 34h-55.2a2.88 2.88 0 0 1 -2.35-1.21.48.48 0 0 1 .38-.76h59.19a.48.48 0 0 1 .38.76 2.92 2.92 0 0 1 -2.36 1.21z" fill="#2a2d58" transform="translate(-21.19 -17.92)"/><path d="m74 22.64h-40.71a1.4 1.4 0 0 0 -1.4 1.4v25.59a1.4 1.4 0 0 0 1.4 1.4h40.71a1.41 1.41 0 0 0 1.41-1.4v-25.63a1.4 1.4 0 0 0 -1.41-1.36zm-.94 26.5h-38.82a.47.47 0 0 1 -.46-.46v-23.68a.46.46 0 0 1 .46-.45h38.84a.45.45 0 0 1 .45.45v23.7a.46.46 0 0 1 -.45.44z" fill="#2a2d58" transform="translate(-21.19 -17.92)"/><g fill="#f1b860"><rect height=".8" rx=".4" width="10.43" x="24.28" y="15.15"/><rect height=".8" rx=".4" width="4.63" x="24.28" y="17.64"/><path d="m56.56 38.06h-3.43a.38.38 0 0 0 -.36.4.38.38 0 0 0 .36.4h3.43a.38.38 0 0 0 .35-.4.37.37 0 0 0 -.35-.4z" transform="translate(-21.19 -17.92)"/><rect height=".8" rx=".4" width="1.12" x="29.83" y="17.64"/><rect height=".8" rx=".4" width="1.12" x="23.27" y="11.07"/><rect height=".8" rx=".4" width="1.12" x="25.4" y="11.07"/><rect height=".8" rx=".4" width="6.86" x="31.58" y="17.64"/><rect height=".8" rx=".4" width="6.64" x="24.28" y="20.14"/></g><path d="m41.81 22.94a1.66 1.66 0 1 0 1.66 1.66 1.67 1.67 0 0 0 -1.66-1.66zm0 3a1.3 1.3 0 1 1 1.3-1.3 1.3 1.3 0 0 1 -1.3 1.26z" fill="none" stroke="#2a2d58" stroke-miterlimit="10" stroke-width=".5"/><path d="m62.69 28.39h-12.31l.77 2h11.61v-1.92a.08.08 0 0 0 -.07-.08zm-13.33 0h-6a.08.08 0 0 0 -.08.09v1.9h7.08l-.68-1.77a.38.38 0 0 0 -.32-.22zm18.04 14.95v-1.48h-1a.33.33 0 0 1 -.32-.24 3.23 3.23 0 0 0 -.27-.63.36.36 0 0 1 .06-.44l.65-.68-1.06-1-.69.71a.33.33 0 0 1 -.39.06 3.38 3.38 0 0 0 -.52-.22.4.4 0 0 1 -.24-.22v-1.1h-1.48v1a.33.33 0 0 1 -.24.31 5.15 5.15 0 0 0 -.54.23.33.33 0 0 1 -.39-.06l-.69-.71-1.07 1 .68.71a.35.35 0 0 1 0 .4 3.24 3.24 0 0 0 -.27.64.32.32 0 0 1 -.32.24h-1v1.48h1a.33.33 0 0 1 .32.24 3.64 3.64 0 0 0 .28.66.33.33 0 0 1 -.05.39l-.68.71 1.06 1 .68-.7a.35.35 0 0 1 .42-.06 4.71 4.71 0 0 0 .52.21.32.32 0 0 1 .24.32v1h1.49v-1a.33.33 0 0 1 .24-.32 3.33 3.33 0 0 0 .52-.21.35.35 0 0 1 .42.06l.69.7 1.06-1-.68-.71a.33.33 0 0 1 0-.39 4.53 4.53 0 0 0 .27-.66.33.33 0 0 1 .32-.24z" fill="none" transform="translate(-21.19 -17.92)"/><path d="m43.35 41.88h14.29v-.41a.33.33 0 0 1 .33-.33h1.11c0-.09.07-.17.11-.25l-.75-.76a.38.38 0 0 1 -.1-.27.33.33 0 0 1 .11-.25l1.55-1.54a.37.37 0 0 1 .51 0l.8.83h.07v-1.17a.35.35 0 0 1 .3-.36h1v-6.27h-19.4v10.7a.08.08 0 0 0 .07.08z" fill="none" transform="translate(-21.19 -17.92)"/><path d="m67.8 41.14h-1.1l-.11-.26.74-.75a.38.38 0 0 0 .1-.27.33.33 0 0 0 -.11-.25l-1.59-1.54a.37.37 0 0 0 -.51 0l-.81.84h-.06v-1.21a.33.33 0 0 0 -.33-.33h-.53v-6.55a.2.2 0 0 0 0-.13v-2.22a.8.8 0 0 0 -.8-.8h-19.33a.81.81 0 0 0 -.81.81v13.32a.8.8 0 0 0 .8.8h14.29v1.13a.34.34 0 0 0 .33.34h1.11c0 .08.07.16.11.25l-.75.78a.31.31 0 0 0 -.1.25.36.36 0 0 0 .11.26l1.55 1.53a.33.33 0 0 0 .26.1.33.33 0 0 0 .25-.11l.81-.83h.06v1.18a.33.33 0 0 0 .33.33h2.29a.33.33 0 0 0 .33-.33v-1.15h.06l.8.82a.38.38 0 0 0 .26.11.39.39 0 0 0 .26-.1l1.59-1.53a.36.36 0 0 0 0-.51l-.74-.78c0-.09.07-.17.11-.25h1.1a.34.34 0 0 0 .33-.34v-2.28a.33.33 0 0 0 -.3-.33zm-24.52-10.76v-1.9a.08.08 0 0 1 .08-.09h6a.38.38 0 0 1 .32.22l.68 1.77zm19.48 0h-11.61l-.77-2h12.31a.08.08 0 0 1 .07.08zm3.35 13.2a4.53 4.53 0 0 1 -.27.66.33.33 0 0 0 0 .39l.68.71-1.06 1-.69-.7a.35.35 0 0 0 -.42-.06 3.33 3.33 0 0 1 -.52.21.33.33 0 0 0 -.24.32v1h-1.45v-1a.32.32 0 0 0 -.24-.32 4.71 4.71 0 0 1 -.52-.21.35.35 0 0 0 -.42.06l-.68.7-1.06-1 .68-.71a.33.33 0 0 0 .05-.39 3.64 3.64 0 0 1 -.28-.66.33.33 0 0 0 -.32-.24h-1v-1.48h1a.32.32 0 0 0 .32-.24 3.24 3.24 0 0 1 .27-.64.35.35 0 0 0 0-.4l-.68-.71 1.07-1 .69.71a.33.33 0 0 0 .39.06 5.15 5.15 0 0 1 .54-.23.33.33 0 0 0 .24-.31v-1h1.49v1.07a.4.4 0 0 0 .24.22 3.38 3.38 0 0 1 .52.22.33.33 0 0 0 .39-.06l.69-.71 1.06 1-.65.68a.36.36 0 0 0 -.06.44 3.23 3.23 0 0 1 .27.63.33.33 0 0 0 .32.24h1v1.48h-1a.33.33 0 0 0 -.35.27zm-22.83-12.48h19.48v6.27h-1a.35.35 0 0 0 -.3.36v1.15h-.07l-.8-.83a.37.37 0 0 0 -.51 0l-1.59 1.54a.33.33 0 0 0 -.11.25.38.38 0 0 0 .1.27l.75.76c0 .08-.07.16-.11.25h-1.12a.33.33 0 0 0 -.33.33v.41h-14.32a.08.08 0 0 1 -.07-.08z" fill="#2a2d58" transform="translate(-21.19 -17.92)"/></svg>