<svg viewBox="0 0 68.23 43.44" xmlns="http://www.w3.org/2000/svg"><g transform="translate(-17.23 -17.85)"><path d="m84.43 55.08h-4.68a.5.5 0 0 1 -.5-.5v-31.06a5.67 5.67 0 0 0 -5.67-5.67h-44.51a5.67 5.67 0 0 0 -5.67 5.67v31.06a.5.5 0 0 1 -.5.5h-4.14a1.55 1.55 0 0 0 -1.52 1.77 5.14 5.14 0 0 0 5.09 4.44h58a5.14 5.14 0 0 0 5.13-5.17 1 1 0 0 0 -1-1zm-59-31.56a3.6 3.6 0 0 1 3.6-3.6h44.55a3.61 3.61 0 0 1 3.61 3.6v31.06a.5.5 0 0 1 -.5.5h-50.69a.5.5 0 0 1 -.5-.5zm54.86 35.7h-58a3.06 3.06 0 0 1 -2.44-1.22.51.51 0 0 1 .41-.8h62.15a.5.5 0 0 1 .4.8 3.06 3.06 0 0 1 -2.48 1.27z" fill="#2a2d58"/><path d="m72.74 22.81h-42.8a1.47 1.47 0 0 0 -1.47 1.47v26.89a1.47 1.47 0 0 0 1.47 1.47h42.8a1.47 1.47 0 0 0 1.48-1.47v-26.89a1.47 1.47 0 0 0 -1.48-1.47zm-1 27.84h-40.8a.47.47 0 0 1 -.48-.47v-24.9a.47.47 0 0 1 .48-.48h40.81a.47.47 0 0 1 .48.48v24.9a.48.48 0 0 1 -.48.47z" fill="#2a2d58"/><path d="m53.37 40.9h-4.3c-.2 0-.37.23-.37.5s.17.5.37.5h4.3c.2 0 .37-.22.37-.5s-.17-.5-.37-.5zm.11 1.59h-4.3c-.2 0-.37.22-.37.5s.17.5.37.5h4.3c.2 0 .36-.23.36-.5s-.16-.5-.36-.5z" fill="#f1b860"/><path d="m63.68 45v-2.68a2.84 2.84 0 0 0 -.52-1.66 5.83 5.83 0 0 0 -4.81-2.53 5.66 5.66 0 0 0 -2.59.6 7 7 0 0 0 -8.63 0 5.66 5.66 0 0 0 -2.59-.6 5.8 5.8 0 0 0 -4.81 2.53 2.77 2.77 0 0 0 -.52 1.66v2.68a.38.38 0 0 0 .11.3.42.42 0 0 0 .3.12h23.65a.38.38 0 0 0 .29-.12.42.42 0 0 0 .12-.3zm-23.68-2.68a1.92 1.92 0 0 1 .37-1.18 5 5 0 0 1 4.17-2.14 4.83 4.83 0 0 1 1.94.38 7.12 7.12 0 0 0 -.88 1.09 2.82 2.82 0 0 0 -.47 1.53v2.6h-5.13zm14.9 2.29h-8.9v-2.61a2.07 2.07 0 0 1 .33-1.13 6.15 6.15 0 0 1 10.32 0 2 2 0 0 1 .29 1.13v2.6zm7.94 0h-5.08v-2.61a2.92 2.92 0 0 0 -.47-1.59 7.63 7.63 0 0 0 -.88-1.09 5 5 0 0 1 6.08 1.81 2.09 2.09 0 0 1 .37 1.18zm-8.03-11.68a3.37 3.37 0 1 0 -3.37 3.36 3.37 3.37 0 0 0 3.37-3.36zm-5.91 0a2.55 2.55 0 1 1 2.54 2.54 2.54 2.54 0 0 1 -2.54-2.54zm-1.49 1.97a2.88 2.88 0 1 0 -2.87 2.87 2.89 2.89 0 0 0 2.87-2.87zm-4.93 0a2.05 2.05 0 1 1 2.06 2.1 2.06 2.06 0 0 1 -2.06-2.05zm18.74 0a2.88 2.88 0 1 0 -2.87 2.87 2.89 2.89 0 0 0 2.87-2.87zm-4.93 0a2.05 2.05 0 1 1 2.06 2.1 2.06 2.06 0 0 1 -2.06-2.05z" fill="#2a2d58"/></g></svg>