<svg viewBox="0 0 42.69 42.69" xmlns="http://www.w3.org/2000/svg"><g transform="translate(-28.76 -13.8)"><path d="m70.76 37.4a4 4 0 0 0 0-4.51l-1.61-2.39a2 2 0 0 1 -.18-.88l.18-2.89a4.1 4.1 0 0 0 -2.25-3.92l-2.58-1.28a1.34 1.34 0 0 1 -.6-.6l-1.28-2.58a4.14 4.14 0 0 0 -3.92-2.25l-2.89.18a1.3 1.3 0 0 1 -.83-.23l-2.39-1.56a4 4 0 0 0 -4.51 0l-2.39 1.61a2.16 2.16 0 0 1 -.92.18l-2.9-.18a4.09 4.09 0 0 0 -3.91 2.25l-1.29 2.58a1.29 1.29 0 0 1 -.6.6l-2.57 1.29a4.12 4.12 0 0 0 -2.26 3.91l.19 2.89a1.36 1.36 0 0 1 -.23.83l-1.57 2.39a4 4 0 0 0 0 4.51l1.61 2.39a2.2 2.2 0 0 1 .19.92l-.19 2.9a4.07 4.07 0 0 0 2.26 3.91l2.57 1.29a1.5 1.5 0 0 1 .6.6l1.29 2.58a4.13 4.13 0 0 0 3.91 2.25l2.9-.19a1.38 1.38 0 0 1 .83.23l2.39 1.57a4 4 0 0 0 4.51 0l2.39-1.61a1.7 1.7 0 0 1 .83-.23l2.9.18a4.08 4.08 0 0 0 3.91-2.25l1.29-2.58a1.21 1.21 0 0 1 .59-.59l2.58-1.29a4.14 4.14 0 0 0 2.26-3.91l-.07-2.86a1.35 1.35 0 0 1 .23-.82zm-2.3-1.52-1.56 2.39a4 4 0 0 0 -.69 2.49l.18 2.9a1.32 1.32 0 0 1 -.73 1.28l-2.58 1.29a4.47 4.47 0 0 0 -1.84 1.84l-1.24 2.58a1.29 1.29 0 0 1 -1.29.74l-2.89-.15a4.09 4.09 0 0 0 -2.49.69l-2.44 1.57a1.39 1.39 0 0 1 -1.47 0l-2.42-1.57a4.1 4.1 0 0 0 -2.26-.69h-.23l-2.9.19a1.35 1.35 0 0 1 -1.29-.74l-1.28-2.57a4.44 4.44 0 0 0 -1.85-1.84l-2.54-1.28a1.28 1.28 0 0 1 -.74-1.29l.19-2.9a4.06 4.06 0 0 0 -.69-2.48l-1.57-2.4a1.43 1.43 0 0 1 0-1.47l1.57-2.39a4.08 4.08 0 0 0 .69-2.48l-.19-2.9a1.34 1.34 0 0 1 .74-1.29l2.57-1.29a4.44 4.44 0 0 0 1.85-1.84l1.28-2.58a1.27 1.27 0 0 1 1.29-.69l2.9.18a4 4 0 0 0 2.46-.74l2.39-1.56a1.39 1.39 0 0 1 1.47 0l2.39 1.56a4 4 0 0 0 2.49.69l2.92-.13a1.32 1.32 0 0 1 1.29.73l1.29 2.58a4.47 4.47 0 0 0 1.84 1.84l2.58 1.29a1.26 1.26 0 0 1 .73 1.29l-.18 2.81a4 4 0 0 0 .69 2.46l1.56 2.39a1.29 1.29 0 0 1 0 1.52z" fill="#2a2d58"/><path d="m45.5 33.55a3.31 3.31 0 1 0 -3.31-3.31 3.28 3.28 0 0 0 3.31 3.31zm0-4.8a1.53 1.53 0 0 1 1.5 1.52 1.52 1.52 0 0 1 -3 0 1.48 1.48 0 0 1 1.5-1.52zm8.85 7.99a3.31 3.31 0 1 0 3.31 3.31 3.28 3.28 0 0 0 -3.31-3.31zm0 4.8a1.52 1.52 0 1 1 1.52-1.54 1.51 1.51 0 0 1 -1.52 1.54zm3.31-14.13a1.06 1.06 0 0 0 -1.54 0l-13.93 13.9a1.05 1.05 0 0 0 0 1.53 1.05 1.05 0 0 0 1.53 0l13.9-13.9a1.09 1.09 0 0 0 0-1.53z" fill="#f1b860"/></g></svg>