<svg viewBox="0 0 49.61 44.68" xmlns="http://www.w3.org/2000/svg"><path d="m44.37 19.81 5.24-2.65-4-2.2 2.57-1.06a.81.81 0 0 0 .44-1.05.82.82 0 0 0 -1-.43l-3 1.26 1.58-5.47-5.46 2.77-1.4 4.9-1.21.5a20 20 0 0 0 -15.79-11.44v-3.34h.72a.87.87 0 0 0 .87-.87.72.72 0 0 0 -.72-.73h-6.53a.71.71 0 0 0 -.71.72.87.87 0 0 0 .87.87h.72v3.34a19.84 19.84 0 0 0 -10.09 4.28l-2.34-2.34-3.42 3.38 2.39 2.4a19.83 19.83 0 0 0 -4.1 12.31 19.94 19.94 0 0 0 39.88-.22 19.72 19.72 0 0 0 -1.23-6.9l1.22-.51zm-2.36-7.71 1.56-.79-1.1 3.75 3.71 2-1.79.91-3.54-2zm-22.87-10.5h1.6v3.21h-1.6zm-1.32 41.36a18.35 18.35 0 1 1 18.75-26l-2.23.92a16 16 0 0 0 -16.12-9c-6.68.7-13.2 7-14.09 13.68a16 16 0 0 0 31.51 5 15.64 15.64 0 0 0 -.69-8.14l2.23-1a18 18 0 0 1 1.12 6.29 18.36 18.36 0 0 1 -20.48 18.25zm11.15-8.06.5.52a14.22 14.22 0 0 1 -8.76 3.63v-.75a.8.8 0 1 0 -1.59 0v.75a14.22 14.22 0 0 1 -8.73-3.63l.53-.53a.8.8 0 0 0 0-1.13.81.81 0 0 0 -1.14 0l-.52.53a14.31 14.31 0 0 1 -3.64-8.76h.76a.8.8 0 0 0 .8-.8.79.79 0 0 0 -.8-.79h-.76a14.29 14.29 0 0 1 3.64-8.76s.46.48.51.52a.8.8 0 0 0 1.19 0 .74.74 0 0 0 0-1.05l-.57-.57a14.28 14.28 0 0 1 8.76-3.66v.76a.8.8 0 0 0 1.59 0v-.76a14.28 14.28 0 0 1 8.73 3.63l-.53.53a.803.803 0 1 0 1.14 1.13l.52-.52a14 14 0 0 1 2.27 3.33l-9.62 4a4 4 0 1 0 .6 1.47l9.63-4a14.35 14.35 0 0 1 .78 4h-.79a.76.76 0 0 0 -.76.76.84.84 0 0 0 .84.83h.72a14.31 14.31 0 0 1 -3.64 8.76l-.52-.53a.81.81 0 0 0 -1.14 0 .8.8 0 0 0 0 1.09zm-9.62-7.84a2.4 2.4 0 0 1 1.2-4.64 2.36 2.36 0 0 1 1.72 1.72 2.4 2.4 0 0 1 -2.92 2.92z" fill="#2a2d58"/><path d="m20.74 4.81v-3.21h-1.6v3.21z" fill="#fff"/><path d="m20.55 22.42a2.4 2.4 0 1 0 1.72 1.72 2.36 2.36 0 0 0 -1.72-1.72z" fill="#f1b860"/></svg>