<svg viewBox="0 0 56.29 34.64" xmlns="http://www.w3.org/2000/svg"><g transform="translate(-22.3 -21.35)"><path d="m50.72 39.21a8.93 8.93 0 1 1 8.93-8.93 9 9 0 0 1 -8.93 8.93zm0-16a7 7 0 1 0 7 7 7 7 0 0 0 -7-6.97z" fill="#f1b860"/><path d="m31.41 44.87a5.47 5.47 0 1 1 5.47-5.47 5.47 5.47 0 0 1 -5.47 5.47zm0-9a3.59 3.59 0 1 0 3.59 3.53 3.54 3.54 0 0 0 -3.59-3.58zm.07 9.95a9.19 9.19 0 0 0 -9.18 9.18h1.88a7.24 7.24 0 0 1 12.62-4.91 15.78 15.78 0 0 1 .78-1.9 9 9 0 0 0 -6.1-2.37zm32.52-6.41a5.47 5.47 0 1 1 5.47 5.47 5.47 5.47 0 0 1 -5.47-5.47zm1.88 0a3.59 3.59 0 1 0 3.59-3.59 3.56 3.56 0 0 0 -3.59 3.59zm3.52 6.41a9.19 9.19 0 0 1 9.18 9.18h-1.88a7.24 7.24 0 0 0 -12.62-4.9 14.43 14.43 0 0 0 -.78-1.91 9 9 0 0 1 6.1-2.37z" fill="#2a2d58"/><path d="m50.46 40.52a15.46 15.46 0 0 0 -13.88 8.67 15.78 15.78 0 0 0 -.78 1.9 15.3 15.3 0 0 0 -.8 4.91h1.89a13.87 13.87 0 0 1 .28-2.75 14.07 14.07 0 0 1 .78-2.51 13.58 13.58 0 0 1 25.05.07 12.87 12.87 0 0 1 .77 2.54 13.58 13.58 0 0 1 .23 2.65h1.89a15.26 15.26 0 0 0 -.79-4.85 14.12 14.12 0 0 0 -.77-1.89 15.47 15.47 0 0 0 -13.87-8.74z" fill="#f1b860"/></g><path d="m31.41 10.05a3 3 0 0 1 -6 0" fill="none" stroke="#f1b860" stroke-linecap="round" stroke-miterlimit="10" stroke-width="1.3"/><path d="m14.32 33h28.07a1.24 1.24 0 0 1 1.24 1.24v.39a.06.06 0 0 1 -.06.06h-30.81a.06.06 0 0 1 -.06-.06 1.63 1.63 0 0 1 1.62-1.63z" fill="#f1b860"/><path d="m53.33 52.72a.46.46 0 0 0 .33-.16.44.44 0 0 0 .1-.35l-.44-2.61 1.92-1.86a.43.43 0 0 0 .11-.44.42.42 0 0 0 -.35-.3l-2.67-.4-1.22-2.37a.43.43 0 0 0 -.39-.24.45.45 0 0 0 -.4.24l-1.21 2.37-2.68.4a.42.42 0 0 0 -.35.29.43.43 0 0 0 .11.44l1.92 1.86-.44 2.61a.42.42 0 0 0 .17.43.45.45 0 0 0 .46 0l2.41-1.22 2.4 1.22a.54.54 0 0 0 .21 0zm-.59-1.21-1.82-.93a.43.43 0 0 0 -.41 0l-1.82.93.33-2a.41.41 0 0 0 -.12-.38l-1.47-1.41 2-.3a.45.45 0 0 0 .33-.24l.92-1.79.92 1.79a.43.43 0 0 0 .33.24l2 .3-1.46 1.41a.42.42 0 0 0 -.13.38z" fill="#f1b860" transform="translate(-22.3 -21.35)"/></svg>