<svg viewBox="0 0 42.69 42.69" xmlns="http://www.w3.org/2000/svg"><path d="m42 23.6a4 4 0 0 0 0-4.5l-1.61-2.44a1.81 1.81 0 0 1 -.18-.87l.18-2.9a4.09 4.09 0 0 0 -2.25-3.91l-2.58-1.29a1.25 1.25 0 0 1 -.6-.6l-1.29-2.53a4.12 4.12 0 0 0 -3.86-2.26l-2.89.19a1.36 1.36 0 0 1 -.83-.23l-2.45-1.6a4 4 0 0 0 -4.5 0l-2.4 1.61a2.14 2.14 0 0 1 -.92.19l-2.89-.19a4.07 4.07 0 0 0 -3.91 2.26l-1.29 2.57a1.29 1.29 0 0 1 -.6.6l-2.58 1.29a4.13 4.13 0 0 0 -2.25 3.91l.18 2.9a1.31 1.31 0 0 1 -.23.83l-1.56 2.39a4 4 0 0 0 0 4.51l1.61 2.39a2.16 2.16 0 0 1 .18.92l-.18 2.9a4.09 4.09 0 0 0 2.25 3.92l2.58 1.29a1.42 1.42 0 0 1 .6.59l1.29 2.58a4.13 4.13 0 0 0 3.91 2.26l2.88-.17a1.36 1.36 0 0 1 .83.23l2.4 1.56a4 4 0 0 0 4.5 0l2.4-1.61a1.81 1.81 0 0 1 .87-.23l2.89.19a4.07 4.07 0 0 0 3.91-2.26l1.29-2.57a1.29 1.29 0 0 1 .6-.6l2.55-1.26a4.13 4.13 0 0 0 2.25-3.91l-.09-2.85a1.35 1.35 0 0 1 .22-.83zm-2.3-1.52-1.56 2.4a3.94 3.94 0 0 0 -.69 2.48l.18 2.9a1.34 1.34 0 0 1 -.74 1.29l-2.57 1.29a4.36 4.36 0 0 0 -1.84 1.84l-1.29 2.57a1.26 1.26 0 0 1 -1.29.74l-2.9-.14a4 4 0 0 0 -2.48.69l-2.39 1.52a1.41 1.41 0 0 1 -1.48 0l-2.39-1.56a4 4 0 0 0 -2.25-.69h-.2l-2.9.18a1.33 1.33 0 0 1 -1.29-.73l-1.29-2.58a4.41 4.41 0 0 0 -1.84-1.84l-2.57-1.29a1.26 1.26 0 0 1 -.74-1.29l.18-2.9a4 4 0 0 0 -.69-2.48l-1.56-2.39a1.39 1.39 0 0 1 0-1.47l1.56-2.4a3.94 3.94 0 0 0 .69-2.48l-.18-2.9a1.34 1.34 0 0 1 .74-1.29l2.57-1.29a4.36 4.36 0 0 0 1.84-1.84l1.29-2.57a1.28 1.28 0 0 1 1.29-.74l2.9.19a4.06 4.06 0 0 0 2.45-.64l2.39-1.57a1.41 1.41 0 0 1 1.48 0l2.39 1.57a4.08 4.08 0 0 0 2.48.69l2.9-.19a1.34 1.34 0 0 1 1.29.74l1.29 2.57a4.41 4.41 0 0 0 1.84 1.84l2.57 1.29a1.26 1.26 0 0 1 .74 1.29l-.18 2.77a3.94 3.94 0 0 0 .69 2.48l1.56 2.4a1.31 1.31 0 0 1 0 1.51z" fill="#2a2d58"/><path d="m27.81 31.28a1 1 0 0 0 .81-.38 1 1 0 0 0 .24-.85l-1.05-6.39 4.74-4.59a1 1 0 0 0 .26-1.14 1.09 1.09 0 0 0 -.87-.72l-6.59-1-3-5.83a1.1 1.1 0 0 0 -1.95 0l-3 5.83-6.59 1a1.08 1.08 0 0 0 -.87.72 1 1 0 0 0 .27 1.09l4.72 4.64-1.12 6.39a1.06 1.06 0 0 0 .43 1 1.14 1.14 0 0 0 1.14.08l5.92-3 5.93 3a1 1 0 0 0 .52.11zm-1.45-3-4.55-2.26a1.08 1.08 0 0 0 -1 0l-4.5 2.29.82-4.91a1 1 0 0 0 -.31-.92l-3.6-3.49 5-.74a1.07 1.07 0 0 0 .81-.58l2.27-4.42 2.32 4.41a1.07 1.07 0 0 0 .81.58l5 .74-3.62 3.5a1 1 0 0 0 -.31.92z" fill="#f1b860"/></svg>