<svg viewBox="0 0 42.5 39.01" xmlns="http://www.w3.org/2000/svg"><path d="m38.57 16.86-.1-.14a17.23 17.23 0 0 0 -34.44 0l-.1.14a6.18 6.18 0 0 0 -3.93 5.75v.53a6.28 6.28 0 0 0 6.28 6.28h2.58v-11.78a12.84 12.84 0 0 1 5.76-10.92 12.4 12.4 0 0 1 13.27 0 12.87 12.87 0 0 1 5.76 10.92v11a.72.72 0 0 0 .48.69l.25.09h2.39a6.17 6.17 0 0 0 5.73-6.17v-.64a6.15 6.15 0 0 0 -3.93-5.75zm-31.15 11.02h-1.05a4.84 4.84 0 0 1 -4.84-4.84v-.48a4.65 4.65 0 0 1 1.89-3.7 6 6 0 0 1 1.46-.73 4.48 4.48 0 0 1 1.31-.26h1.13a.06.06 0 0 1 .06.06zm23.34-20.76a13.37 13.37 0 0 0 -2.81-2.08 13.85 13.85 0 0 0 -20.53 11.27.11.11 0 0 1 -.11.1h-1.78s0-.82.06-.89q0-.45.12-.9a15.33 15.33 0 0 1 .38-1.76 17.26 17.26 0 0 1 .59-1.71 14.75 14.75 0 0 1 .68-1.45c.24-.43.49-.85.76-1.26s.57-.81.88-1.19.64-.75 1-1.1.71-.69 1.08-1 .77-.62 1.17-.9a14.56 14.56 0 0 1 1.24-.8c.43-.24.87-.47 1.31-.67a14.5 14.5 0 0 1 1.37-.55c.41-.14.82-.27 1.24-.37a15.73 15.73 0 0 1 19.56 14.44.12.12 0 0 1 -.12.12h-1.66a.1.1 0 0 1 -.1-.1 14.15 14.15 0 0 0 -4.33-9.2zm10.12 17.32a5.21 5.21 0 0 1 -3.61 3.42l-1.34.06h-.72-.05v-9.6-.35c0-.06.29 0 .38 0a4.56 4.56 0 0 1 .74 0 5.28 5.28 0 0 1 2.75 1 4.88 4.88 0 0 1 .79.71 5.21 5.21 0 0 1 1.06 4.76z" fill="#2a2d58"/><path d="m21.63 33.23a2.9 2.9 0 0 0 -3.15 2l-.15.11h-5.27a4.21 4.21 0 0 1 -4.2-4.2v-1.71h-1.44v1.74a5.68 5.68 0 0 0 5.68 5.68h5.27l.15.12a2.91 2.91 0 1 0 3.15-3.74zm.64 3.89a1.42 1.42 0 1 1 -1-2.43 1.43 1.43 0 0 1 1 2.43z" fill="#f1b860"/></svg>