<svg viewBox="0 0 39.35 35.43" xmlns="http://www.w3.org/2000/svg"><g fill="#2a2d58" transform="translate(-21.21 -25.97)"><path d="m53.79 38.19a9.45 9.45 0 0 0 .07-1.19 11 11 0 0 0 -21.64-3.1 11 11 0 0 0 0 22.09h2.54a1.12 1.12 0 1 0 0-2.23h-2.51a8.82 8.82 0 0 1 0-17.63h.75a1.09 1.09 0 0 0 1.18-.9 8.81 8.81 0 0 1 17.45 1.77 9.06 9.06 0 0 1 -.19 1.84 1.12 1.12 0 0 0 .18.87 1.1 1.1 0 0 0 .77.46 6.82 6.82 0 0 1 -.89 13.59h-4.5a1.12 1.12 0 0 0 0 2.24h4.5a9.05 9.05 0 0 0 2.29-17.81z"/><path d="m37 51.23 2.74-2.74v11.79a1.11 1.11 0 1 0 2.22 0v-11.79l2.74 2.74a1.12 1.12 0 0 0 1.58-1.58l-4.61-4.65a1.08 1.08 0 0 0 -.79-.32 1.2 1.2 0 0 0 -.42.08 1.31 1.31 0 0 0 -.37.24l-4.64 4.64a1.12 1.12 0 0 0 1.55 1.59z"/></g></svg>