<svg viewBox="0 0 30.73 30.73" xmlns="http://www.w3.org/2000/svg"><g stroke-miterlimit="10"><path d="m15.37 30.61a15.24 15.24 0 1 1 15.24-15.24 15.26 15.26 0 0 1 -15.24 15.24zm0-28.48a13.24 13.24 0 1 0 13.24 13.24 13.26 13.26 0 0 0 -13.24-13.19z" fill="#2a2d58" stroke="#2a2d58" stroke-width=".25"/><path d="m20.29 15.62a.08.08 0 0 1 0 0v-.06c0-.06 0 0 0 0v-.16a.07.07 0 0 0 0 0 .43.43 0 0 0 0-.05v-.05c0-.05 0 0 0 0v-.05l-6.77-7.07a.55.55 0 1 0 -.79.76l6.28 6.46-6.28 6.46a.55.55 0 0 0 0 .78.57.57 0 0 0 .38.15.53.53 0 0 0 .39-.16l6.66-6.85v-.05z" fill="#f1b860" stroke="#f1b860"/></g></svg>