<svg viewBox="0 0 37.12 23.63" xmlns="http://www.w3.org/2000/svg"><g transform="translate(-12.58 -20.37)"><g fill="#2a2d58"><path d="m49.13 40.62h-2.54a.27.27 0 0 1 -.27-.27v-16.9a3.08 3.08 0 0 0 -3.09-3.08h-24.23a3.09 3.09 0 0 0 -3.09 3.08v16.9a.27.27 0 0 1 -.27.27h-2.23a.85.85 0 0 0 -.83 1 2.8 2.8 0 0 0 2.77 2.38h31.55a2.8 2.8 0 0 0 2.79-2.81.57.57 0 0 0 -.56-.57zm-32.07-17.17a2 2 0 0 1 2-2h24.17a2 2 0 0 1 2 2v16.9a.27.27 0 0 1 -.27.27h-27.63a.27.27 0 0 1 -.27-.27zm29.84 19.42h-31.55a1.68 1.68 0 0 1 -1.35-.69.27.27 0 0 1 .22-.43h33.78a.27.27 0 0 1 .22.43 1.65 1.65 0 0 1 -1.35.69z"/><path d="m42.77 23.07h-23.28a.8.8 0 0 0 -.8.8v14.63a.8.8 0 0 0 .8.8h23.28a.8.8 0 0 0 .81-.8v-14.63a.8.8 0 0 0 -.81-.8zm-.54 15.14h-22.23a.26.26 0 0 1 -.26-.26v-13.54a.26.26 0 0 1 .26-.26h22.2a.27.27 0 0 1 .27.26v13.59a.25.25 0 0 1 -.24.21z"/><path d="m26.5 25.17h-.78a.39.39 0 0 0 -.39.39v.79a.39.39 0 0 0 .39.39h.19v.39h.4v-.39h.19a.39.39 0 0 0 .39-.39v-.2h.39v-.39h-.39v-.2a.39.39 0 0 0 -.39-.39zm-.39 1.18a.39.39 0 0 1 -.39-.4.39.39 0 0 1 .39-.39.39.39 0 0 1 .39.39.39.39 0 0 1 -.39.4zm4.7.39h.78a.39.39 0 0 0 .39-.39v-.2h.39v-.39h-.37v-.2a.39.39 0 0 0 -.39-.39h-.78a.39.39 0 0 0 -.39.39v.2h-.44v.39h.4v.2a.39.39 0 0 0 .41.39zm.39-1.18a.39.39 0 0 1 .39.39.39.39 0 0 1 -.39.4.39.39 0 0 1 -.39-.4.39.39 0 0 1 .39-.39zm.39 9.79h-.78a.39.39 0 0 0 -.39.39v.2h-.42v.39h.4v.2a.39.39 0 0 0 .39.39h.78a.39.39 0 0 0 .39-.39v-.2h.39v-.39h-.35v-.2a.39.39 0 0 0 -.41-.39zm-.39 1.18a.39.39 0 0 1 -.39-.39.39.39 0 0 1 .39-.4.39.39 0 0 1 .39.4.39.39 0 0 1 -.39.39zm4.7-11.36a.39.39 0 0 0 -.39.39v.2h-.4v.39h.4v.2a.39.39 0 0 0 .39.39h.19v.39h.4v-.39h.19a.39.39 0 0 0 .39-.39v-.79a.39.39 0 0 0 -.39-.39zm.39 1.18a.39.39 0 0 1 -.39-.4.39.39 0 0 1 .39-.39.39.39 0 0 1 .39.39.39.39 0 0 1 -.39.4zm-9.4 9.39a.39.39 0 0 0 -.39-.39h-.19v-.35h-.4v.39h-.19a.39.39 0 0 0 -.39.39v.79a.39.39 0 0 0 .39.39h.78a.39.39 0 0 0 .39-.39v-.2h.39v-.39h-.39zm-.78.79a.39.39 0 0 1 -.39-.39.39.39 0 0 1 .39-.4.39.39 0 0 1 .39.4.39.39 0 0 1 -.39.39z"/></g><path d="m27.68 25.76h.78v.39h-.78zm1.17 0h.78v.39h-.78zm3.92 0h.78v.39h-.78zm1.17 0h.78v.39h-.78zm-6.26 10.18h.78v.39h-.78zm1.17 0h.78v.39h-.78zm3.92 0h.78v.39h-.78zm1.17 0h.78v.39h-.78zm-8.03-8.42h.4v.78h-.4zm0 1.18h.4v.78h-.4z" fill="#f1b860"/><path d="m25.91 32.22h.4v-.39h.19a.39.39 0 0 0 .39-.39v-.79a.39.39 0 0 0 -.39-.39h-.19v-.39h-.4v.39h-.19a.39.39 0 0 0 -.39.39v.79a.39.39 0 0 0 .39.39h.19zm.2-1.57a.39.39 0 0 1 .39.4.39.39 0 0 1 -.39.39.39.39 0 0 1 -.39-.39.39.39 0 0 1 .39-.4z" fill="#2a2d58"/><path d="m25.91 32.61h.4v.78h-.4zm0 1.18h.4v.78h-.4zm10.18-6.27h.4v.78h-.4zm0 1.18h.4v.78h-.4z" fill="#f1b860"/><path d="m36.49 29.87h-.4v.39h-.19a.39.39 0 0 0 -.39.39v.79a.39.39 0 0 0 .39.39h.19v.39h.4v-.39h.19a.39.39 0 0 0 .39-.39v-.79a.39.39 0 0 0 -.39-.39h-.19zm-.2 1.57a.39.39 0 0 1 -.39-.39.39.39 0 0 1 .39-.4.39.39 0 0 1 .39.4.39.39 0 0 1 -.39.39z" fill="#2a2d58"/><path d="m36.09 32.61h.4v.78h-.4zm0 1.18h.4v.78h-.4z" fill="#f1b860"/><path d="m36.49 35h-.4v.39h-.19a.39.39 0 0 0 -.39.39v.2h-.4v.39h.4v.2a.39.39 0 0 0 .39.39h.78a.39.39 0 0 0 .39-.39v-.79a.39.39 0 0 0 -.39-.39h-.19zm-.2 1.57a.39.39 0 0 1 -.39-.39.39.39 0 0 1 .39-.4.39.39 0 0 1 .39.4.39.39 0 0 1 -.39.35z" fill="#2a2d58"/><path d="m31.2 27.52a3.53 3.53 0 1 0 3.52 3.53 3.53 3.53 0 0 0 -3.52-3.53zm0 6.66a3.14 3.14 0 1 1 3.13-3.13 3.14 3.14 0 0 1 -3.13 3.13z" fill="#f1b860"/><path d="m31.2 34.71a3.67 3.67 0 1 1 3.66-3.66 3.67 3.67 0 0 1 -3.66 3.66zm0-7a3.39 3.39 0 1 0 3.38 3.39 3.39 3.39 0 0 0 -3.38-3.44zm0 6.66a3.28 3.28 0 1 1 3.27-3.27 3.28 3.28 0 0 1 -3.27 3.22zm0-6.27a3 3 0 1 0 3 3 3 3 0 0 0 -3-3.05z" fill="#f1b860"/><path d="m32 29.11-2.54 2.54-.18 1.29 1.29-.17 2.55-2.55a.82.82 0 0 0 0-1.11.77.77 0 0 0 -1.12 0zm-1.6 3.27-.65.09.08-.64 1.9-1.9.55.55zm2.44-2.45-.27.27-.57-.54.28-.28a.36.36 0 0 1 .54 0 .39.39 0 0 1 .02.55z" fill="#2a2d58"/></g></svg>